<?xml version="1.0" encoding="UTF-8"?>
<svg xmlns="http://www.w3.org/2000/svg" xmlns:xlink="http://www.w3.org/1999/xlink" width="375pt" height="375pt" viewBox="0 0 375 375" version="1.1">
<g id="surface1074">
<path style=" stroke:none;fill-rule:nonzero;fill:rgb(0%,0%,0%);fill-opacity:1;" d="M 187.5 7.5 C 84.113281 7.5 0 82.207031 0 173.996094 C 0 218.347656 19.308594 259.832031 54.464844 291.269531 C 47.957031 310.457031 31.289062 323.671875 18.894531 333.488281 C 7.527344 342.480469 -0.703125 348.984375 1.757812 358.183594 L 2.550781 361.199219 L 5.246094 362.753906 C 12.070312 366.652344 21.152344 368.644531 32.316406 368.644531 C 69.433594 368.644531 122.785156 347.34375 146.277344 337.089844 C 159.636719 339.871094 172.910156 341.25 186.738281 341.25 C 290.15625 341.25 374.238281 266.542969 374.238281 174.753906 C 374.238281 82.527344 290.480469 7.5 187.5 7.5 Z M 199.511719 255 C 199.511719 256.496094 198.75 257.988281 196.496094 257.988281 L 179.269531 257.988281 L 179.269531 257.253906 C 177.746094 257.253906 176.25 256.496094 176.25 254.269531 L 176.25 153.75 C 176.25 152.253906 177.011719 150.761719 179.269531 150.761719 L 196.496094 150.761719 C 198.019531 150.761719 199.511719 151.496094 199.511719 153.75 Z M 199.511719 118.503906 C 199.511719 120 198.75 121.496094 196.496094 121.496094 L 178.503906 121.496094 C 177.011719 121.496094 175.519531 120.761719 175.519531 118.503906 L 175.519531 98.996094 C 175.519531 97.5 176.25 96.003906 178.503906 96.003906 L 196.496094 96.003906 C 198.019531 96.003906 199.511719 96.738281 199.511719 98.996094 Z M 199.511719 118.503906 "/>
</g>
</svg>
