<svg width="24" height="24" viewBox="0 0 24 24" fill="none" xmlns="http://www.w3.org/2000/svg">
<g id="About">
<path id="Shape" fill-rule="evenodd" clip-rule="evenodd" d="M0 11.17C0 5.25066 5.39687 0.5 12.0225 0.5C18.65 0.5 24 5.31277 24 11.2301C24 17.1495 18.6031 21.9001 11.9775 21.9001C11.087 21.9001 10.2379 21.7912 9.39261 21.6146C8.53601 21.9903 6.91296 22.6703 5.18472 23.1475C4.2943 23.3937 3.3871 23.585 2.55479 23.6434C1.72248 23.7018 0.950532 23.6396 0.33062 23.2827L0.16531 23.1775L0.105197 22.9822C0.0375705 22.7267 0.1335 22.488 0.240451 22.3209C0.347401 22.1539 0.482655 22.0186 0.631183 21.8851C0.812595 21.7219 1.02235 21.5554 1.24699 21.3769L1.24707 21.3769L1.24711 21.3769C1.39245 21.2614 1.54402 21.1411 1.69818 21.0135C2.42705 20.4086 3.1484 19.6216 3.47151 18.624C1.33375 16.6891 0 14.078 0 11.17ZM23.0382 11.2301C23.0382 5.89336 18.1879 1.4618 12.0225 1.4618C5.85523 1.4618 0.961803 5.83676 0.961803 11.17C0.961803 13.9051 2.22417 16.3773 4.34314 18.1731L4.58359 18.3535L4.50845 18.654C4.15704 20.0875 3.15216 21.0548 2.31434 21.7498C2.12562 21.9068 1.95033 22.046 1.79246 22.1713C1.63123 22.2993 1.48817 22.4129 1.36756 22.5163C1.42579 22.5307 1.48305 22.5461 1.5405 22.5616L1.54064 22.5616C1.8131 22.635 2.08993 22.7095 2.49468 22.6816C3.2273 22.6307 4.07639 22.4504 4.92924 22.2157C6.63319 21.7461 8.33313 21.0528 9.13713 20.6979L9.27239 20.6227L9.4377 20.6678C10.27 20.8519 11.0983 20.9383 11.9775 20.9383C18.1448 20.9383 23.0382 16.5634 23.0382 11.2301ZM11.4515 6.18065C11.307 6.18065 11.2561 6.26506 11.2561 6.36099V7.62336C11.2561 7.76788 11.3555 7.80369 11.4515 7.80369H12.5936C12.7381 7.80369 12.789 7.71929 12.789 7.62336V6.36099C12.789 6.21647 12.6895 6.18065 12.5936 6.18065H11.4515ZM11.3012 9.87758C11.3012 9.78165 11.352 9.68222 11.4966 9.68222H12.5936C12.6895 9.68222 12.789 9.73306 12.789 9.87758V16.3698C12.789 16.4657 12.7381 16.5651 12.5936 16.5651H11.4966V16.52C11.4006 16.52 11.3012 16.4692 11.3012 16.3247V9.87758Z" fill="black"/>
</g>
</svg>
