<?xml version="1.0" encoding="UTF-8"?>
<svg xmlns="http://www.w3.org/2000/svg" xmlns:xlink="http://www.w3.org/1999/xlink" width="375pt" height="375pt" viewBox="0 0 375 375" version="1.1">
<g id="surface11361">
<path style=" stroke:none;fill-rule:nonzero;fill:rgb(100%,100%,100%);fill-opacity:1;" d="M 187.5 7.5 C 84.167969 7.5 0 81.589844 0 173.90625 C 0 219.257812 20.800781 259.980469 54.140625 290.15625 C 49.101562 305.714844 37.851562 317.988281 26.484375 327.421875 C 20.363281 332.488281 14.503906 336.824219 9.84375 341.015625 C 7.527344 343.097656 5.417969 345.207031 3.75 347.8125 C 2.082031 350.417969 0.585938 354.140625 1.640625 358.125 L 2.578125 361.171875 L 5.15625 362.8125 C 14.824219 368.378906 26.863281 369.347656 39.84375 368.4375 C 52.824219 367.527344 66.972656 364.542969 80.859375 360.703125 C 107.8125 353.261719 133.125 342.65625 146.484375 336.796875 C 159.667969 339.550781 172.910156 341.25 186.796875 341.25 C 290.128906 341.25 374.296875 267.160156 374.296875 174.84375 C 374.296875 82.558594 290.859375 7.5 187.5 7.5 Z M 187.5 22.5 C 283.652344 22.5 359.296875 91.613281 359.296875 174.84375 C 359.296875 258.019531 282.980469 326.25 186.796875 326.25 C 173.085938 326.25 160.167969 324.902344 147.1875 322.03125 L 144.609375 321.328125 L 142.5 322.5 C 129.960938 328.035156 103.449219 338.847656 76.875 346.171875 C 63.574219 349.832031 50.332031 352.644531 38.90625 353.4375 C 31.261719 353.964844 26.542969 352.148438 21.328125 350.859375 C 25.050781 347.667969 30.144531 343.855469 36.09375 338.90625 C 49.160156 328.066406 64.832031 312.980469 70.3125 290.625 L 71.484375 285.9375 L 67.734375 283.125 C 34.6875 255.117188 15 216.5625 15 173.90625 C 15 90.730469 91.316406 22.5 187.5 22.5 Z M 178.59375 96.09375 C 176.339844 96.09375 175.546875 97.410156 175.546875 98.90625 L 175.546875 118.59375 C 175.546875 120.847656 177.097656 121.40625 178.59375 121.40625 L 196.40625 121.40625 C 198.660156 121.40625 199.453125 120.089844 199.453125 118.59375 L 199.453125 98.90625 C 199.453125 96.652344 197.902344 96.09375 196.40625 96.09375 Z M 179.296875 150.703125 C 177.042969 150.703125 176.25 152.253906 176.25 153.75 L 176.25 254.296875 C 176.25 256.550781 177.800781 257.34375 179.296875 257.34375 L 179.296875 258.046875 L 196.40625 258.046875 C 198.660156 258.046875 199.453125 256.496094 199.453125 255 L 199.453125 153.75 C 199.453125 151.496094 197.902344 150.703125 196.40625 150.703125 Z M 179.296875 150.703125 "/>
</g>
</svg>
