<?xml version="1.0" encoding="UTF-8"?>
<svg xmlns="http://www.w3.org/2000/svg" xmlns:xlink="http://www.w3.org/1999/xlink" width="375pt" height="375pt" viewBox="0 0 375 375" version="1.1">
<g id="surface9975">
<path style=" stroke:none;fill-rule:nonzero;fill:rgb(100%,100%,100%);fill-opacity:1;" d="M 187.5 45 C 175.167969 45 165 55.167969 165 67.5 L 165 77.722656 C 128.789062 86.628906 105 117.097656 105 157.96875 L 105 216.472656 C 105 232.761719 95.390625 251.222656 89.855469 260.449219 L 76.261719 280.839844 C 74.738281 283.125 74.558594 286.113281 75.878906 288.542969 C 77.199219 290.976562 79.746094 292.5 82.5 292.5 L 292.5 292.5 C 295.253906 292.5 297.800781 290.976562 299.121094 288.542969 C 300.441406 286.113281 300.261719 283.152344 298.738281 280.839844 L 285.351562 260.742188 C 275.011719 243.542969 270 229.394531 270 217.5 L 270 158.996094 C 270 117.628906 246.210938 86.777344 210 77.785156 L 210 67.5 C 210 55.167969 199.832031 45 187.5 45 Z M 187.5 60 C 191.660156 60 195 63.339844 195 67.5 L 195 75.351562 C 192.539062 75.144531 190.050781 75 187.5 75 C 184.949219 75 182.460938 75.144531 180 75.351562 L 180 67.5 C 180 63.339844 183.339844 60 187.5 60 Z M 26.105469 71.074219 C 9.375 98.261719 0 130.636719 0 165 C 0 199.363281 9.375 231.738281 26.105469 258.925781 L 38.90625 251.074219 C 23.644531 226.261719 15 196.640625 15 165 C 15 133.359375 23.644531 103.738281 38.90625 78.925781 Z M 348.894531 71.074219 L 336.09375 78.925781 C 351.355469 103.738281 360 133.359375 360 165 C 360 196.640625 351.355469 226.261719 336.09375 251.074219 L 348.894531 258.925781 C 365.625 231.738281 375 199.363281 375 165 C 375 130.636719 365.625 98.261719 348.894531 71.074219 Z M 58.621094 91.054688 C 44.972656 113.113281 37.5 137.667969 37.5 165 C 37.5 192.539062 45.964844 217.851562 58.566406 238.855469 L 71.425781 231.121094 C 60.058594 212.136719 52.5 189.464844 52.5 165 C 52.5 140.332031 59.035156 118.886719 71.367188 98.933594 Z M 316.378906 91.054688 L 303.632812 98.933594 C 315.964844 118.886719 322.5 140.332031 322.5 165 C 322.5 189.464844 314.941406 212.136719 303.542969 231.121094 L 316.433594 238.855469 C 329.035156 217.851562 337.5 192.539062 337.5 165 C 337.5 137.667969 330.027344 113.113281 316.378906 91.054688 Z M 153.164062 307.5 C 158.996094 320.714844 172.148438 330 187.5 330 C 202.851562 330 216.003906 320.714844 221.835938 307.5 Z M 153.164062 307.5 "/>
</g>
</svg>
