<?xml version="1.0" encoding="UTF-8"?>
<svg xmlns="http://www.w3.org/2000/svg" xmlns:xlink="http://www.w3.org/1999/xlink" width="375pt" height="375pt" viewBox="0 0 375 375" version="1.1">
<g id="surface9887">
<path style=" stroke:none;fill-rule:nonzero;fill:rgb(100%,100%,100%);fill-opacity:1;" d="M 187.5 45 C 175.167969 45 165 55.167969 165 67.5 L 165 78.046875 C 150.410156 81.472656 137.667969 88.242188 127.851562 98.113281 C 113.203125 112.910156 105 133.855469 105 157.96875 L 105 216.472656 C 105 230.246094 97.472656 247.707031 89.707031 260.652344 L 76.261719 280.839844 C 74.738281 283.152344 74.589844 286.113281 75.878906 288.542969 C 77.199219 290.976562 79.746094 292.5 82.5 292.5 L 150 292.5 C 150 313.097656 166.902344 330 187.5 330 C 208.097656 330 225 313.097656 225 292.5 L 292.5 292.5 C 295.253906 292.5 297.800781 290.976562 299.121094 288.542969 C 300.410156 286.113281 300.261719 283.152344 298.738281 280.839844 L 285.351562 260.742188 L 285.324219 260.714844 C 277.472656 247.617188 270 231.269531 270 217.5 L 270 158.996094 C 270 118.738281 246.035156 87.566406 210 78.308594 L 210 67.5 C 210 55.167969 199.832031 45 187.5 45 Z M 187.5 60 C 191.660156 60 195 63.339844 195 67.5 L 195 75.847656 C 193.332031 75.703125 191.691406 75.527344 189.988281 75.46875 C 189.199219 75.175781 188.347656 75.027344 187.5 75 C 186.679688 75 185.886719 75.144531 185.128906 75.441406 C 183.371094 75.46875 181.699219 75.644531 180 75.761719 L 180 67.5 C 180 63.339844 183.339844 60 187.5 60 Z M 26.105469 71.074219 C 9.375 98.261719 0 130.636719 0 165 C 0 199.363281 9.375 231.738281 26.105469 258.925781 L 38.90625 251.074219 C 23.644531 226.261719 15 196.640625 15 165 C 15 133.359375 23.644531 103.738281 38.90625 78.925781 Z M 348.894531 71.074219 L 336.09375 78.925781 C 351.355469 103.738281 360 133.359375 360 165 C 360 196.640625 351.355469 226.261719 336.09375 251.074219 L 348.894531 258.925781 C 365.625 231.738281 375 199.363281 375 165 C 375 130.636719 365.625 98.261719 348.894531 71.074219 Z M 187.5 90 C 228.839844 90 255 117.511719 255 158.996094 L 255 217.5 C 255 236.339844 264.023438 254.386719 272.460938 268.476562 C 272.550781 268.566406 272.605469 268.683594 272.667969 268.769531 L 278.464844 277.5 L 96.535156 277.5 L 102.332031 268.769531 C 102.394531 268.683594 102.449219 268.566406 102.539062 268.476562 C 111.066406 254.269531 120 235.3125 120 216.472656 L 120 157.96875 C 120 137.226562 126.855469 120.441406 138.515625 108.691406 C 150.144531 96.941406 166.785156 90 187.5 90 Z M 58.621094 91.054688 C 44.972656 113.113281 37.5 137.667969 37.5 165 C 37.5 192.539062 45.964844 217.851562 58.566406 238.855469 L 71.425781 231.121094 C 60.058594 212.136719 52.5 189.464844 52.5 165 C 52.5 140.332031 59.035156 118.886719 71.367188 98.933594 Z M 316.378906 91.054688 L 303.632812 98.933594 C 315.964844 118.886719 322.5 140.332031 322.5 165 C 322.5 189.464844 314.941406 212.136719 303.542969 231.121094 L 316.433594 238.855469 C 329.035156 217.851562 337.5 192.539062 337.5 165 C 337.5 137.667969 330.027344 113.113281 316.378906 91.054688 Z M 165 292.5 L 210 292.5 C 210 304.921875 199.921875 315 187.5 315 C 175.078125 315 165 304.921875 165 292.5 Z M 165 292.5 "/>
</g>
</svg>
