<?xml version="1.0" encoding="UTF-8"?>
<svg xmlns="http://www.w3.org/2000/svg" xmlns:xlink="http://www.w3.org/1999/xlink" width="375pt" height="375pt" viewBox="0 0 375 375" version="1.1">
<g id="surface947">
<path style=" stroke:none;fill-rule:nonzero;fill:rgb(0%,0%,0%);fill-opacity:1;" d="M 37.5 52.5 C 16.875 52.5 0 69.375 0 90 L 0 285 C 0 305.625 16.875 322.5 37.5 322.5 L 212.871094 322.5 C 211.609375 317.640625 210.734375 312.628906 210.324219 307.5 L 37.5 307.5 C 24.988281 307.5 15 297.511719 15 285 L 15 90 C 15 77.488281 24.988281 67.5 37.5 67.5 L 337.5 67.5 C 350.011719 67.5 360 77.488281 360 90 L 360 233.058594 C 365.714844 238.179688 370.753906 244.011719 375 250.402344 L 375 90 C 375 69.375 358.125 52.5 337.5 52.5 Z M 64.21875 134.296875 L 36.328125 198.046875 L 52.96875 198.046875 L 59.0625 183.75 L 90.46875 183.75 L 96.546875 198.046875 L 128.203125 198.046875 L 128.203125 150.703125 L 149.28125 198.046875 L 163.578125 198.046875 L 184.90625 151.40625 L 184.90625 198.046875 L 200.609375 198.046875 L 200.609375 134.296875 L 175.53125 134.296875 L 156.328125 177.1875 L 137.109375 134.296875 L 112.5 134.296875 L 112.5 195.703125 L 85.078125 134.296875 Z M 221.25 134.296875 L 221.25 198.28125 L 275.949219 198.28125 C 278.144531 197.667969 280.398438 197.140625 282.65625 196.699219 L 300 176.953125 L 317.066406 196.640625 C 319.441406 197.113281 321.75 197.636719 324.039062 198.28125 L 338.421875 198.28125 L 310.296875 165.46875 L 338.421875 134.296875 L 318.515625 134.296875 L 300.46875 154.21875 L 283.125 134.296875 Z M 74.296875 147.65625 L 84.140625 170.15625 L 64.921875 170.15625 Z M 236.71875 147.90625 L 274.921875 148.140625 L 290.15625 165.46875 L 273.046875 184.6875 L 236.71875 184.6875 L 236.71875 172.03125 L 271.40625 172.03125 L 271.40625 159.84375 L 236.71875 159.84375 Z M 300 225 C 258.75 225 225 258.75 225 300 C 225 341.25 258.75 375 300 375 C 341.25 375 375 341.25 375 300 C 375 258.75 341.25 225 300 225 Z M 307.339844 258.488281 C 314.105469 258.488281 319.425781 259.015625 324.050781 260.246094 L 324.050781 273.777344 C 319.214844 272.609375 314.796875 272.109375 309.667969 272.109375 C 300.585938 272.109375 294.960938 276.089844 294.960938 282.539062 C 294.960938 285.875 295.761719 288.925781 296.96875 291.972656 L 317.621094 291.972656 L 317.621094 303.839844 L 300.191406 303.839844 C 300.484375 304.746094 300.660156 305.652344 300.660156 306.707031 C 301.011719 312.980469 297.90625 318.953125 292.574219 321.824219 L 292.574219 322.867188 L 327.421875 322.867188 L 327.421875 337.292969 L 270.558594 337.292969 L 270.558594 323.847656 C 279.519531 322.617188 285.589844 315.789062 285.730469 306.796875 C 285.730469 305.738281 285.519531 304.753906 285.277344 303.839844 L 270.804688 303.839844 L 270.804688 291.972656 L 281.9375 291.972656 C 280.214844 287.433594 279.039062 283.5625 279.039062 279.199219 C 279.039062 266.105469 289.414062 258.488281 307.339844 258.488281 Z M 307.339844 258.488281 "/>
</g>
</svg>
