<?xml version="1.0" encoding="UTF-8"?>
<svg xmlns="http://www.w3.org/2000/svg" xmlns:xlink="http://www.w3.org/1999/xlink" width="375pt" height="375pt" viewBox="0 0 375 375" version="1.1">
<g id="surface7373">
<path style=" stroke:none;fill-rule:nonzero;fill:rgb(100%,100%,100%);fill-opacity:1;" d="M 187.5 75 C 57.832031 75 0 94.480469 0 138.046875 L 0 187.5 L 30 187.5 L 30 168.046875 C 30 133.503906 51.035156 120 105 120 C 158.964844 120 180 133.503906 180 168.046875 L 180 187.5 L 195 187.5 L 195 168.046875 C 195 133.503906 216.035156 120 270 120 C 323.964844 120 345 133.503906 345 168.046875 L 345 187.5 L 375 187.5 L 375 138.046875 C 375 94.480469 317.167969 75 187.5 75 Z M 0 202.5 L 0 375 L 60 375 L 60 352.5 L 315 352.5 L 315 375 L 375 375 L 375 202.5 Z M 0 202.5 "/>
</g>
</svg>
