<?xml version="1.0" encoding="UTF-8"?>
<svg xmlns="http://www.w3.org/2000/svg" xmlns:xlink="http://www.w3.org/1999/xlink" width="375pt" height="375pt" viewBox="0 0 375 375" version="1.1">
<g id="surface5520">
<path style=" stroke:none;fill-rule:nonzero;fill:rgb(0%,0%,0%);fill-opacity:1;" d="M 217.410156 67.441406 C 214.363281 67.441406 211.640625 69.285156 210.46875 72.097656 C 209.324219 74.941406 210 78.164062 212.199219 80.300781 C 215.949219 84.050781 220.574219 87.800781 227.519531 88.945312 C 233.175781 89.910156 243.398438 89.792969 255.9375 89.792969 C 256.199219 91.757812 256.464844 93.632812 256.964844 96.445312 C 257.957031 102.363281 259.542969 110.652344 261.445312 120 L 132.128906 120 L 120.9375 97.589844 C 121.378906 97.558594 121.816406 97.5 122.253906 97.5 C 141.769531 97.5 150 92.253906 150 86.980469 C 150 82.5 146.25 82.5 140.246094 83.230469 L 92.253906 83.230469 C 83.996094 83.230469 82.5 87.011719 82.5 93.75 C 82.5 110.949219 92.667969 105.378906 105.792969 100.871094 L 119.089844 127.5 L 101.601562 162.480469 C 93.339844 159.316406 84.375 157.5 75 157.5 C 33.660156 157.5 0 191.160156 0 232.5 C 0 273.839844 33.660156 307.5 75 307.5 C 113.789062 307.5 145.839844 277.824219 149.621094 240 L 179.941406 240 C 179.972656 240 179.972656 240 180 240 C 180.027344 240 180.089844 240 180.117188 240 C 180.324219 240 180.527344 239.972656 180.730469 239.972656 C 180.964844 239.941406 181.199219 239.910156 181.433594 239.882812 C 181.464844 239.855469 181.464844 239.855469 181.496094 239.855469 C 181.730469 239.792969 181.933594 239.738281 182.167969 239.675781 C 182.199219 239.675781 182.199219 239.675781 182.226562 239.648438 C 182.433594 239.589844 182.667969 239.53125 182.871094 239.414062 C 182.902344 239.414062 182.902344 239.414062 182.929688 239.414062 C 183.136719 239.324219 183.339844 239.207031 183.542969 239.089844 C 183.574219 239.089844 183.574219 239.089844 183.605469 239.0625 C 183.808594 238.972656 183.984375 238.855469 184.191406 238.710938 C 184.191406 238.710938 184.191406 238.710938 184.21875 238.710938 C 184.425781 238.566406 184.597656 238.417969 184.804688 238.269531 C 184.804688 238.269531 184.832031 238.242188 184.832031 238.242188 C 184.894531 238.183594 184.949219 238.125 185.039062 238.035156 C 185.15625 237.949219 185.273438 237.832031 185.390625 237.746094 C 185.449219 237.65625 185.507812 237.597656 185.566406 237.539062 C 185.625 237.480469 185.652344 237.421875 185.714844 237.394531 L 266.542969 143.058594 C 268.007812 149.386719 269.675781 156.09375 271.523438 163.152344 C 244.246094 174.433594 225 201.238281 225 232.5 C 225 273.839844 258.660156 307.5 300 307.5 C 341.339844 307.5 375 273.839844 375 232.5 C 375 191.160156 341.339844 157.5 300 157.5 C 295.167969 157.5 290.480469 157.996094 285.910156 158.878906 C 282.773438 146.71875 279.988281 135.261719 277.878906 125.535156 C 275.011719 112.238281 273.019531 101.484375 271.757812 93.957031 C 271.113281 90.175781 270.644531 87.1875 270.351562 85.136719 C 270.234375 84.113281 270.117188 83.292969 270.058594 82.761719 C 270 82.238281 270 81.386719 270 82.5 C 270 78.371094 266.628906 75 262.5 75 C 243.75 75 234.285156 74.882812 229.980469 74.179688 C 225.675781 73.449219 226.550781 73.449219 222.800781 69.699219 C 221.394531 68.230469 219.464844 67.441406 217.410156 67.441406 Z M 139.628906 135 L 253.710938 135 L 181.640625 219.050781 Z M 127.5 144.257812 L 167.839844 225 L 149.621094 225 C 147.277344 201.535156 134.003906 181.261719 115.050781 169.21875 Z M 75 172.5 C 82.003906 172.5 88.652344 173.761719 94.894531 175.925781 L 68.292969 229.128906 C 67.121094 231.472656 67.265625 234.230469 68.613281 236.457031 C 69.988281 238.652344 72.394531 240 75 240 L 134.503906 240 C 130.808594 269.648438 105.675781 292.5 75 292.5 C 41.777344 292.5 15 265.722656 15 232.5 C 15 199.277344 41.777344 172.5 75 172.5 Z M 300 172.5 C 333.222656 172.5 360 199.277344 360 232.5 C 360 265.722656 333.222656 292.5 300 292.5 C 266.777344 292.5 240 265.722656 240 232.5 C 240 208.097656 254.472656 187.207031 275.332031 177.800781 C 280.136719 195.351562 285.9375 214.542969 292.910156 234.933594 C 293.699219 237.566406 295.871094 239.558594 298.566406 240.117188 C 301.261719 240.675781 304.042969 239.738281 305.800781 237.628906 C 307.589844 235.519531 308.085938 232.644531 307.089844 230.066406 C 300.175781 209.855469 294.433594 190.78125 289.6875 173.4375 C 293.058594 172.851562 296.484375 172.5 300 172.5 Z M 108.339844 182.578125 C 122.460938 192.011719 132.304688 207.277344 134.503906 225 L 87.128906 225 Z M 108.339844 182.578125 "/>
</g>
</svg>
