<?xml version="1.0" encoding="UTF-8"?>
<svg xmlns="http://www.w3.org/2000/svg" xmlns:xlink="http://www.w3.org/1999/xlink" width="375pt" height="375pt" viewBox="0 0 375 375" version="1.1">
<g id="surface413">
<path style=" stroke:none;fill-rule:nonzero;fill:rgb(0%,0%,0%);fill-opacity:1;" d="M 96.09375 15 C 92.519531 15.675781 89.941406 18.839844 90 22.5 L 90 352.5 C 89.972656 355.195312 91.40625 357.683594 93.722656 359.035156 C 96.035156 360.410156 98.90625 360.410156 101.25 359.0625 L 187.5 308.671875 L 273.75 359.0625 C 276.09375 360.410156 278.964844 360.410156 281.277344 359.035156 C 283.59375 357.683594 285.027344 355.195312 285 352.5 L 285 22.5 C 285 18.371094 281.628906 15 277.5 15 L 97.5 15 C 97.265625 15 97.03125 15 96.796875 15 C 96.5625 15 96.328125 15 96.09375 15 Z M 105 30 L 270 30 L 270 339.375 L 191.25 293.4375 C 188.933594 292.089844 186.066406 292.089844 183.75 293.4375 L 105 339.375 Z M 105 30 "/>
</g>
</svg>
