<?xml version="1.0" encoding="UTF-8"?>
<svg width="345px" height="345px" viewBox="0 0 345 345" version="1.1" xmlns="http://www.w3.org/2000/svg"
  xmlns:xlink="http://www.w3.org/1999/xlink">
  <title>British Pound</title>
  <g id="Page-1" stroke="none" stroke-width="1" fill="none" fill-rule="evenodd">
    <g id="British-Pound" fill="#FFFFFF" fill-rule="nonzero">
      <path
        d="M172.5,0 C77.320312,0 0,77.320312 0,172.5 C0,267.679688 77.320312,345 172.5,345 C267.679688,345 345,267.679688 345,172.5 C345,77.320312 267.679688,0 172.5,0 Z M172.5,15 C259.574219,15 330,85.425781 330,172.5 C330,259.574219 259.574219,330 172.5,330 C85.425781,330 15,259.574219 15,172.5 C15,85.425781 85.425781,15 172.5,15 Z M169.496094,79.496094 C162.746094,79.496094 155.253906,80.25 148.503906,82.5 C141.753906,84.75 135.753906,87.753906 130.503906,92.253906 C125.253906,96.003906 120.746094,101.253906 117.746094,108.003906 C113.996094,114.753906 112.5,122.25 112.5,131.25 C112.5,138.75 113.25,145.503906 116.25,152.253906 C118.5,159.003906 122.253906,165.753906 126.003906,171.753906 L111.003906,171.753906 L111.003906,180 L131.25,180 C133.5,183 134.996094,187.496094 136.496094,192.746094 C137.996094,197.996094 138.75,202.5 138.75,206.25 C138.75,211.5 137.996094,216.003906 136.496094,220.503906 C134.996094,225.003906 132.753906,228.75 130.503906,232.5 C128.253906,236.25 125.246094,239.253906 121.496094,243.003906 C118.496094,246.753906 114.753906,249.746094 111.003906,252.746094 L120,266.25 L126.753906,261.753906 C129.003906,261.003906 130.496094,259.5 132.746094,258.75 L139.496094,256.496094 C141.746094,255.746094 144.746094,255.746094 147.746094,255.746094 C152.996094,255.746094 157.5,256.503906 161.25,257.253906 C165.75,258.753906 169.496094,259.503906 173.246094,261.003906 C176.996094,262.503906 180.746094,264.003906 185.246094,264.753906 C188.996094,265.503906 194.246094,266.25 199.496094,266.25 C207.746094,266.25 213.753906,264.75 219.753906,262.5 C225.003906,259.5 231,255.75 236.25,251.25 L228.003906,239.253906 C225.003906,243.003906 220.496094,245.996094 215.246094,248.996094 C209.996094,251.996094 204.746094,253.503906 199.496094,253.503906 C195.746094,253.503906 191.246094,252.746094 188.246094,251.996094 C184.496094,250.496094 181.496094,249.746094 177.746094,248.246094 C173.996094,246.746094 170.246094,245.246094 166.496094,244.496094 C162.746094,243.746094 157.503906,243.003906 152.253906,243.003906 C147.753906,243.003906 143.246094,243.746094 139.496094,245.246094 C134.996094,246.746094 131.25,249.003906 127.5,250.503906 L126.753906,249.753906 C130.503906,247.503906 134.253906,243.746094 137.253906,240.746094 C141.003906,237.746094 144,233.996094 146.25,230.246094 C148.5,226.496094 150.753906,222.746094 152.253906,218.246094 C153.753906,213.746094 154.496094,209.253906 154.496094,204.753906 C154.496094,201.003906 153.753906,196.496094 153.003906,191.996094 C151.503906,186.746094 150.003906,183 148.503906,180 L184.496094,180 L184.496094,171.753906 L143.996094,171.753906 C142.496094,168.003906 140.25,164.996094 138.75,161.996094 L134.253906,153.003906 C132.753906,150.753906 131.253906,146.996094 130.503906,143.996094 C129.753906,140.996094 128.996094,137.246094 128.996094,132.746094 C128.996094,125.996094 130.496094,120.753906 132.746094,115.503906 C134.996094,111.003906 138.003906,106.503906 141.753906,103.503906 C145.503906,99.753906 149.996094,97.503906 155.246094,96.003906 C159.746094,94.503906 164.996094,93.75 170.246094,93.75 C183.746094,93.75 194.253906,97.496094 201.753906,106.496094 C208.503906,114.746094 212.253906,125.996094 212.253906,139.496094 L228.003906,139.496094 C228.003906,120.746094 223.503906,105.746094 213.003906,95.246094 C202.503906,84.746094 188.246094,79.496094 169.496094,79.496094 Z"
        id="Shape"></path>
    </g>
  </g>
</svg>