<?xml version="1.0" encoding="UTF-8"?>
<svg xmlns="http://www.w3.org/2000/svg" xmlns:xlink="http://www.w3.org/1999/xlink" width="375pt" height="375pt" viewBox="0 0 375 375" version="1.1">
<g id="surface937">
<path style=" stroke:none;fill-rule:nonzero;fill:rgb(0%,0%,0%);fill-opacity:1;" d="M 187.5 15 C 92.320312 15 15 92.320312 15 187.5 C 15 282.679688 92.320312 360 187.5 360 C 282.679688 360 360 282.679688 360 187.5 C 360 92.320312 282.679688 15 187.5 15 Z M 187.5 30 C 274.574219 30 345 100.425781 345 187.5 C 345 274.574219 274.574219 345 187.5 345 C 100.425781 345 30 274.574219 30 187.5 C 30 100.425781 100.425781 30 187.5 30 Z M 184.496094 94.496094 C 177.746094 94.496094 170.253906 95.25 163.503906 97.5 C 156.753906 99.75 150.753906 102.753906 145.503906 107.253906 C 140.253906 111.003906 135.746094 116.253906 132.746094 123.003906 C 128.996094 129.753906 127.5 137.25 127.5 146.25 C 127.5 153.75 128.25 160.503906 131.25 167.253906 C 133.5 174.003906 137.253906 180.753906 141.003906 186.753906 L 126.003906 186.753906 L 126.003906 195 L 146.25 195 C 148.5 198 149.996094 202.496094 151.496094 207.746094 C 152.996094 212.996094 153.75 217.5 153.75 221.25 C 153.75 226.5 152.996094 231.003906 151.496094 235.503906 C 149.996094 240.003906 147.753906 243.75 145.503906 247.5 C 143.253906 251.25 140.246094 254.253906 136.496094 258.003906 C 133.496094 261.753906 129.753906 264.746094 126.003906 267.746094 L 135 281.25 L 141.753906 276.753906 C 144.003906 276.003906 145.496094 274.5 147.746094 273.75 L 154.496094 271.496094 C 156.746094 270.746094 159.746094 270.746094 162.746094 270.746094 C 167.996094 270.746094 172.5 271.503906 176.25 272.253906 C 180.75 273.753906 184.496094 274.503906 188.246094 276.003906 C 191.996094 277.503906 195.746094 279.003906 200.246094 279.753906 C 203.996094 280.503906 209.246094 281.25 214.496094 281.25 C 222.746094 281.25 228.753906 279.75 234.753906 277.5 C 240.003906 274.5 246 270.75 251.25 266.25 L 243.003906 254.253906 C 240.003906 258.003906 235.496094 260.996094 230.246094 263.996094 C 224.996094 266.996094 219.746094 268.503906 214.496094 268.503906 C 210.746094 268.503906 206.246094 267.746094 203.246094 266.996094 C 199.496094 265.496094 196.496094 264.746094 192.746094 263.246094 C 188.996094 261.746094 185.246094 260.246094 181.496094 259.496094 C 177.746094 258.746094 172.503906 258.003906 167.253906 258.003906 C 162.753906 258.003906 158.246094 258.746094 154.496094 260.246094 C 149.996094 261.746094 146.25 264.003906 142.5 265.503906 L 141.753906 264.753906 C 145.503906 262.503906 149.253906 258.746094 152.253906 255.746094 C 156.003906 252.746094 159 248.996094 161.25 245.246094 C 163.5 241.496094 165.753906 237.746094 167.253906 233.246094 C 168.753906 228.746094 169.496094 224.253906 169.496094 219.753906 C 169.496094 216.003906 168.753906 211.496094 168.003906 206.996094 C 166.503906 201.746094 165.003906 198 163.503906 195 L 199.496094 195 L 199.496094 186.753906 L 158.996094 186.753906 C 157.496094 183.003906 155.25 179.996094 153.75 176.996094 L 149.253906 168.003906 C 147.753906 165.753906 146.253906 161.996094 145.503906 158.996094 C 144.753906 155.996094 143.996094 152.246094 143.996094 147.746094 C 143.996094 140.996094 145.496094 135.753906 147.746094 130.503906 C 149.996094 126.003906 153.003906 121.503906 156.753906 118.503906 C 160.503906 114.753906 164.996094 112.503906 170.246094 111.003906 C 174.746094 109.503906 179.996094 108.75 185.246094 108.75 C 198.746094 108.75 209.253906 112.496094 216.753906 121.496094 C 223.503906 129.746094 227.253906 140.996094 227.253906 154.496094 L 243.003906 154.496094 C 243.003906 135.746094 238.503906 120.746094 228.003906 110.246094 C 217.503906 99.746094 203.246094 94.496094 184.496094 94.496094 Z M 184.496094 94.496094 "/>
</g>
</svg>
