<?xml version="1.0" encoding="UTF-8"?>
<svg xmlns="http://www.w3.org/2000/svg" xmlns:xlink="http://www.w3.org/1999/xlink" width="375pt" height="375pt" viewBox="0 0 375 375" version="1.1">
<g id="surface4370">
<path style=" stroke:none;fill-rule:nonzero;fill:rgb(0%,0%,0%);fill-opacity:1;" d="M 30 30 C 13.503906 30 0 43.503906 0 60 C 0 76.496094 13.503906 90 30 90 C 46.496094 90 60 76.496094 60 60 C 60 43.503906 46.496094 30 30 30 Z M 30 45 C 38.378906 45 45 51.621094 45 60 C 45 68.378906 38.378906 75 30 75 C 21.621094 75 15 68.378906 15 60 C 15 51.621094 21.621094 45 30 45 Z M 90 52.5 L 90 67.5 L 375 67.5 L 375 52.5 Z M 30 157.5 C 13.503906 157.5 0 171.003906 0 187.5 C 0 203.996094 13.503906 217.5 30 217.5 C 46.496094 217.5 60 203.996094 60 187.5 C 60 171.003906 46.496094 157.5 30 157.5 Z M 30 172.5 C 38.378906 172.5 45 179.121094 45 187.5 C 45 195.878906 38.378906 202.5 30 202.5 C 21.621094 202.5 15 195.878906 15 187.5 C 15 179.121094 21.621094 172.5 30 172.5 Z M 90 180 L 90 195 L 375 195 L 375 180 Z M 30 285 C 13.503906 285 0 298.503906 0 315 C 0 331.496094 13.503906 345 30 345 C 46.496094 345 60 331.496094 60 315 C 60 298.503906 46.496094 285 30 285 Z M 30 300 C 38.378906 300 45 306.621094 45 315 C 45 323.378906 38.378906 330 30 330 C 21.621094 330 15 323.378906 15 315 C 15 306.621094 21.621094 300 30 300 Z M 90 307.5 L 90 322.5 L 375 322.5 L 375 307.5 Z M 90 307.5 "/>
</g>
</svg>
