<?xml version="1.0" encoding="UTF-8"?>
<svg xmlns="http://www.w3.org/2000/svg" xmlns:xlink="http://www.w3.org/1999/xlink" width="375pt" height="375pt" viewBox="0 0 375 375" version="1.1">
<g id="surface5220">
<path style=" stroke:none;fill-rule:nonzero;fill:rgb(0%,0%,0%);fill-opacity:1;" d="M 90 0 C 66.796875 0 49.832031 2.988281 38.203125 13.125 C 26.574219 23.261719 22.5 39.230469 22.5 60 L 22.5 90 L 15 90 C 6.796875 90 0 96.796875 0 105 L 0 165 C 0 173.203125 6.796875 180 15 180 L 22.5 180 L 22.5 307.5 C 22.5 316.667969 25.371094 324.375 30 330.234375 L 30 352.5 C 30 364.832031 40.167969 375 52.5 375 L 82.5 375 C 94.832031 375 105 364.832031 105 352.5 L 105 345 L 270 345 L 270 352.5 C 270 364.832031 280.167969 375 292.5 375 L 322.5 375 C 334.832031 375 345 364.832031 345 352.5 L 345 330.234375 C 349.628906 324.375 352.5 316.667969 352.5 307.5 L 352.5 180 L 360 180 C 368.203125 180 375 173.203125 375 165 L 375 105 C 375 96.796875 368.203125 90 360 90 L 352.5 90 L 352.5 67.5 C 352.5 47.667969 350.917969 31.433594 342.890625 18.984375 C 334.863281 6.535156 320.15625 0 300 0 Z M 90 15 L 300 15 C 317.34375 15 325.136719 19.074219 330.234375 26.953125 C 335.332031 34.832031 337.5 48.632812 337.5 67.5 L 337.5 307.5 C 337.5 317.902344 334.511719 322.003906 328.359375 325.3125 C 322.207031 328.621094 311.894531 330 300 330 L 75 330 C 63.105469 330 52.792969 328.621094 46.640625 325.3125 C 40.488281 322.003906 37.5 317.902344 37.5 307.5 L 37.5 60 C 37.5 41.132812 40.925781 30.820312 48.046875 24.609375 C 55.167969 18.398438 68.203125 15 90 15 Z M 112.5 22.5 C 104.296875 22.5 97.5 29.296875 97.5 37.5 L 97.5 52.5 C 97.5 60.703125 104.296875 67.5 112.5 67.5 L 270 67.5 C 278.203125 67.5 285 60.703125 285 52.5 L 285 37.5 C 285 29.296875 278.203125 22.5 270 22.5 Z M 112.5 37.5 L 270 37.5 L 270 52.5 L 112.5 52.5 Z M 82.5 75 C 73.738281 75 65.742188 77.226562 60.234375 82.734375 C 54.726562 88.242188 52.5 96.238281 52.5 105 L 52.5 195 C 52.5 203.761719 54.726562 211.757812 60.234375 217.265625 C 65.742188 222.773438 73.738281 225 82.5 225 L 292.5 224.53125 C 298.621094 224.53125 305.214844 222.1875 311.25 217.5 C 317.285156 212.8125 322.5 204.933594 322.5 195 L 322.5 105 C 322.5 96.238281 320.273438 88.242188 314.765625 82.734375 C 309.257812 77.226562 301.261719 75 292.5 75 Z M 82.5 90 L 292.5 90 C 298.738281 90 301.992188 91.523438 303.984375 93.515625 C 305.976562 95.507812 307.5 98.761719 307.5 105 L 307.5 195 C 307.5 200.066406 305.363281 203.027344 302.109375 205.546875 C 298.855469 208.066406 294.230469 209.53125 292.5 209.53125 L 82.5 210 C 76.261719 210 73.007812 208.476562 71.015625 206.484375 C 69.023438 204.492188 67.5 201.238281 67.5 195 L 67.5 105 C 67.5 98.761719 69.023438 95.507812 71.015625 93.515625 C 73.007812 91.523438 76.261719 90 82.5 90 Z M 15 105 L 22.5 105 L 22.5 165 L 15 165 Z M 352.5 105 L 360 105 L 360 165 L 352.5 165 Z M 86.25 247.5 C 67.707031 247.5 52.5 262.707031 52.5 281.25 C 52.5 299.792969 67.707031 315 86.25 315 C 104.792969 315 120 299.792969 120 281.25 C 120 262.707031 104.792969 247.5 86.25 247.5 Z M 288.75 247.5 C 270.207031 247.5 255 262.707031 255 281.25 C 255 299.792969 270.207031 315 288.75 315 C 307.292969 315 322.5 299.792969 322.5 281.25 C 322.5 262.707031 307.292969 247.5 288.75 247.5 Z M 86.25 262.5 C 96.679688 262.5 105 270.820312 105 281.25 C 105 291.679688 96.679688 300 86.25 300 C 75.820312 300 67.5 291.679688 67.5 281.25 C 67.5 270.820312 75.820312 262.5 86.25 262.5 Z M 288.75 262.5 C 299.179688 262.5 307.5 270.820312 307.5 281.25 C 307.5 291.679688 299.179688 300 288.75 300 C 278.320312 300 270 291.679688 270 281.25 C 270 270.820312 278.320312 262.5 288.75 262.5 Z M 45 340.78125 C 53.996094 344.179688 64.246094 345 75 345 L 90 345 L 90 352.5 C 90 356.71875 86.71875 360 82.5 360 L 52.5 360 C 48.28125 360 45 356.71875 45 352.5 Z M 330 340.78125 L 330 352.5 C 330 356.71875 326.71875 360 322.5 360 L 292.5 360 C 288.28125 360 285 356.71875 285 352.5 L 285 345 L 300 345 C 310.753906 345 321.003906 344.179688 330 340.78125 Z M 330 340.78125 "/>
</g>
</svg>
