<?xml version="1.0" encoding="UTF-8"?>
<svg xmlns="http://www.w3.org/2000/svg" xmlns:xlink="http://www.w3.org/1999/xlink" width="375pt" height="375pt" viewBox="0 0 375 375" version="1.1">
<g id="surface5144">
<path style=" stroke:none;fill-rule:nonzero;fill:rgb(0%,0%,0%);fill-opacity:1;" d="M 90 0 C 40.78125 0 22.5 16.261719 22.5 60 L 22.5 307.5 C 22.5 317.695312 25.488281 325.050781 30 330.46875 L 30 352.5 C 30 364.894531 40.105469 375 52.5 375 L 82.5 375 C 94.894531 375 105 364.894531 105 352.5 L 105 345 L 270 345 L 270 352.5 C 270 364.894531 280.105469 375 292.5 375 L 322.5 375 C 334.894531 375 345 364.894531 345 352.5 L 345 330.46875 C 349.511719 325.050781 352.5 317.695312 352.5 307.5 L 352.5 67.5 C 352.5 34.832031 348.457031 0 300 0 Z M 112.5 30 L 270 30 C 274.160156 30 277.5 33.371094 277.5 37.5 L 277.5 52.5 C 277.5 56.628906 274.160156 60 270 60 L 112.5 60 C 108.371094 60 105 56.628906 105 52.5 L 105 37.5 C 105 33.371094 108.371094 30 112.5 30 Z M 82.5 82.5 L 292.5 82.5 C 307.5 82.5 315 90 315 105 L 315 195 C 315 210 300.351562 217.03125 292.5 217.03125 L 82.5 217.5 C 67.5 217.5 60 210 60 195 L 60 105 C 60 90 67.5 82.5 82.5 82.5 Z M 15 90 C 6.738281 90 0 96.738281 0 105 L 0 165 C 0 173.261719 6.738281 180 15 180 Z M 360 90 L 360 180 C 368.292969 180 375 173.261719 375 165 L 375 105 C 375 96.738281 368.292969 90 360 90 Z M 86.25 255 C 100.753906 255 112.5 266.746094 112.5 281.25 C 112.5 295.753906 100.753906 307.5 86.25 307.5 C 71.746094 307.5 60 295.753906 60 281.25 C 60 266.746094 71.746094 255 86.25 255 Z M 288.75 255 C 303.253906 255 315 266.746094 315 281.25 C 315 295.753906 303.253906 307.5 288.75 307.5 C 274.246094 307.5 262.5 295.753906 262.5 281.25 C 262.5 266.746094 274.246094 255 288.75 255 Z M 288.75 255 "/>
</g>
</svg>
