<?xml version="1.0" encoding="UTF-8"?>
<svg xmlns="http://www.w3.org/2000/svg" xmlns:xlink="http://www.w3.org/1999/xlink" width="375pt" height="375pt" viewBox="0 0 375 375" version="1.1">
<g id="surface11605">
<path style=" stroke:none;fill-rule:nonzero;fill:rgb(100%,100%,100%);fill-opacity:1;" d="M 187.5 15 C 92.390625 15 15 92.390625 15 187.5 C 15 282.609375 92.390625 360 187.5 360 C 282.609375 360 360 282.609375 360 187.5 C 360 92.390625 282.609375 15 187.5 15 Z M 252.824219 242.175781 C 255.75 245.101562 255.75 249.898438 252.824219 252.824219 C 251.324219 254.25 249.449219 255 247.5 255 C 245.550781 255 243.675781 254.25 242.175781 252.824219 L 187.5 198.148438 L 132.824219 252.824219 C 131.324219 254.25 129.449219 255 127.5 255 C 125.550781 255 123.675781 254.25 122.175781 252.824219 C 119.25 249.898438 119.25 245.101562 122.175781 242.175781 L 176.851562 187.5 L 122.175781 132.824219 C 119.25 129.898438 119.25 125.101562 122.175781 122.175781 C 125.101562 119.25 129.898438 119.25 132.824219 122.175781 L 187.5 176.851562 L 242.175781 122.175781 C 245.101562 119.25 249.898438 119.25 252.824219 122.175781 C 255.75 125.101562 255.75 129.898438 252.824219 132.824219 L 198.148438 187.5 Z M 252.824219 242.175781 "/>
</g>
</svg>
