<?xml version="1.0" encoding="UTF-8"?>
<svg xmlns="http://www.w3.org/2000/svg" xmlns:xlink="http://www.w3.org/1999/xlink" width="375pt" height="375pt" viewBox="0 0 375 375" version="1.1">
<g id="surface1095">
<path style=" stroke:none;fill-rule:nonzero;fill:rgb(0%,0%,0%);fill-opacity:1;" d="M 187.5 60 C 138.019531 60 119.941406 66.472656 116.484375 67.96875 C 104.855469 71.925781 87.628906 77.839844 80.15625 92.34375 C 75.089844 102.214844 41.746094 191.015625 37.96875 201.09375 L 37.5 202.5 L 37.5 292.5 C 37.5 304.894531 47.605469 315 60 315 L 90 315 C 102.394531 315 112.5 304.894531 112.5 292.5 L 112.5 285 L 262.5 285 L 262.5 292.5 C 262.5 304.894531 272.605469 315 285 315 L 315 315 C 327.394531 315 337.5 304.894531 337.5 292.5 L 337.5 202.5 L 337.03125 201.09375 C 336.238281 198.984375 325.574219 171.121094 315 143.90625 C 314.882812 143.671875 314.855469 143.4375 314.765625 143.203125 C 305.976562 120.585938 297.363281 98.644531 294.609375 92.34375 C 288.308594 78.074219 270.964844 71.601562 258.28125 67.96875 C 254.386719 66.355469 236.105469 60 187.5 60 Z M 187.5 75 C 236.628906 75 252.363281 81.769531 252.421875 81.796875 L 253.59375 82.265625 C 259.246094 83.878906 276.535156 88.769531 280.78125 98.4375 C 283.300781 104.152344 291.066406 124.101562 299.296875 145.3125 L 300 146.71875 C 300.117188 147.011719 300.089844 147.304688 300.234375 147.65625 C 300.441406 148.183594 300.730469 148.769531 300.9375 149.296875 C 302.785156 154.128906 304.804688 161.339844 301.875 165.703125 C 298.855469 170.15625 290.273438 172.5 277.5 172.5 L 97.5 172.5 C 84.726562 172.5 75.644531 169.480469 72.65625 165 C 69.140625 159.785156 72.949219 150.46875 74.765625 146.015625 L 75.46875 144.609375 C 84.167969 121.902344 91.640625 103.007812 93.515625 99.375 C 98.292969 90.117188 112.292969 85.195312 121.640625 82.03125 L 122.34375 81.796875 C 122.488281 81.738281 138.371094 75 187.5 75 Z M 38.203125 142.5 C 15.527344 142.5 7.5 156.445312 7.5 169.453125 C 7.5 175.78125 10.339844 185.976562 27.1875 187.265625 C 31.902344 174.753906 37.96875 158.464844 44.0625 142.5 Z M 330.46875 142.5 C 337.265625 160.050781 343.972656 177.304688 347.8125 187.265625 C 364.714844 186.003906 367.5 175.808594 367.5 169.453125 C 367.5 156.445312 359.472656 142.5 336.796875 142.5 Z M 82.5 202.5 L 112.5 202.5 C 124.921875 202.5 135 212.578125 135 225 C 135 237.421875 124.921875 247.5 112.5 247.5 C 99.933594 247.5 96.210938 244.308594 83.203125 236.953125 C 74.503906 232.03125 67.5 227.316406 67.5 217.5 C 67.5 209.207031 74.207031 202.5 82.5 202.5 Z M 262.5 202.5 L 292.5 202.5 C 300.792969 202.5 307.5 209.207031 307.5 217.5 C 307.5 227.316406 300.496094 232.03125 291.796875 236.953125 C 278.816406 244.308594 275.066406 247.5 262.5 247.5 C 250.078125 247.5 240 237.421875 240 225 C 240 212.578125 250.078125 202.5 262.5 202.5 Z M 262.5 202.5 "/>
</g>
</svg>
