<?xml version="1.0" encoding="UTF-8"?>
<svg xmlns="http://www.w3.org/2000/svg" xmlns:xlink="http://www.w3.org/1999/xlink" width="375pt" height="375pt" viewBox="0 0 375 375" version="1.1">
<g id="surface1043">
<path style=" stroke:none;fill-rule:nonzero;fill:rgb(0%,0%,0%);fill-opacity:1;" d="M 187.5 60 C 160.898438 60 143.464844 61.785156 132.421875 63.75 C 122.019531 65.597656 117.511719 67.734375 116.953125 67.96875 C 116.925781 67.996094 116.015625 68.203125 116.015625 68.203125 C 104.910156 71.953125 88.007812 77.109375 80.15625 92.34375 C 78.253906 96.035156 75.410156 103.535156 71.25 114.140625 C 68.058594 122.285156 64.308594 132.566406 60.46875 142.5 L 38.203125 142.5 C 27.070312 142.5 18.808594 146.222656 13.828125 151.875 C 8.847656 157.527344 7.5 164.238281 7.5 169.453125 C 7.5 175.285156 10.546875 181.113281 15.234375 183.984375 C 19.921875 186.855469 25.167969 187.5 30.703125 187.5 L 43.125 187.5 C 41.953125 190.636719 37.96875 201.09375 37.96875 201.09375 L 37.5 202.5 L 37.5 292.5 C 37.5 304.832031 47.667969 315 60 315 L 90 315 C 102.332031 315 112.5 304.832031 112.5 292.5 L 112.5 285 L 262.5 285 L 262.5 292.5 C 262.5 304.832031 272.667969 315 285 315 L 315 315 C 327.332031 315 337.5 304.832031 337.5 292.5 L 337.5 202.5 L 337.03125 201.09375 C 337.03125 201.09375 333.105469 190.664062 331.875 187.5 L 344.296875 187.5 C 349.832031 187.5 355.078125 186.855469 359.765625 183.984375 C 364.453125 181.113281 367.5 175.285156 367.5 169.453125 C 367.5 164.238281 366.152344 157.527344 361.171875 151.875 C 356.191406 146.222656 347.929688 142.5 336.796875 142.5 L 314.53125 142.5 C 314.0625 141.386719 313.59375 140.300781 313.359375 139.6875 C 305.246094 118.710938 297.421875 98.730469 294.609375 92.34375 C 287.433594 76.027344 268.972656 71.015625 258.984375 68.203125 C 258.660156 68.113281 258.105469 67.824219 257.8125 67.734375 L 257.8125 67.96875 C 257.109375 67.675781 252.832031 65.597656 242.578125 63.75 C 231.535156 61.785156 214.101562 60 187.5 60 Z M 187.5 75 C 213.398438 75 230.039062 76.964844 240 78.75 C 249.960938 80.535156 252.421875 81.796875 252.421875 81.796875 L 253.125 82.03125 L 253.59375 82.265625 C 262.734375 84.871094 277.472656 90.878906 280.78125 98.4375 C 282.949219 103.359375 291.472656 125.300781 299.296875 145.3125 C 301.171875 150.089844 304.308594 157.878906 303.28125 162.65625 C 302.753906 165.058594 301.847656 166.785156 298.359375 168.75 C 294.871094 170.714844 288.308594 172.5 277.5 172.5 L 97.5 172.5 C 86.691406 172.5 80.128906 170.714844 76.640625 168.75 C 73.152344 166.785156 72.246094 165.058594 71.71875 162.65625 C 70.691406 157.878906 73.828125 150.089844 75.703125 145.3125 L 75.234375 145.078125 C 78.660156 136.144531 82.175781 126.886719 85.078125 119.53125 C 89.207031 109.011719 92.902344 100.574219 93.515625 99.375 C 97.675781 91.289062 110.652344 85.78125 121.640625 82.03125 L 122.109375 82.03125 L 122.578125 81.796875 C 122.578125 81.796875 125.039062 80.535156 135 78.75 C 144.960938 76.964844 161.601562 75 187.5 75 Z M 38.203125 157.5 L 54.375 157.5 C 51.535156 164.972656 51.035156 166.433594 48.75 172.5 L 30.703125 172.5 C 26.511719 172.5 23.90625 171.769531 23.203125 171.328125 C 22.5 170.886719 22.5 171.5625 22.5 169.453125 C 22.5 166.730469 23.261719 163.769531 25.078125 161.71875 C 26.894531 159.667969 30.058594 157.5 38.203125 157.5 Z M 320.15625 157.5 L 336.796875 157.5 C 344.941406 157.5 348.105469 159.667969 349.921875 161.71875 C 351.738281 163.769531 352.5 166.730469 352.5 169.453125 C 352.5 171.5625 352.5 170.886719 351.796875 171.328125 C 351.09375 171.769531 348.488281 172.5 344.296875 172.5 L 326.015625 172.5 C 323.613281 166.347656 323.085938 165.089844 320.15625 157.5 Z M 63.28125 176.953125 C 65.011719 178.769531 67.003906 180.527344 69.375 181.875 C 76.144531 185.683594 85.105469 187.5 97.5 187.5 L 277.5 187.5 C 289.894531 187.5 298.855469 185.683594 305.625 181.875 C 307.996094 180.527344 309.988281 178.769531 311.71875 176.953125 C 316.113281 188.496094 322.238281 204.667969 322.5 205.3125 L 322.5 263.671875 C 322.5 267.1875 319.570312 270 315.703125 270 L 59.296875 270 C 55.429688 270 52.5 267.1875 52.5 263.671875 L 52.5 205.3125 C 52.734375 204.667969 59.003906 188.378906 63.28125 176.953125 Z M 82.5 195 C 70.167969 195 60 205.167969 60 217.5 C 60 224.152344 62.753906 230.066406 66.5625 234.140625 C 70.371094 238.214844 74.972656 240.964844 79.453125 243.515625 C 85.808594 247.121094 90.144531 249.871094 95.15625 251.953125 C 100.167969 254.035156 105.558594 255 112.5 255 C 128.964844 255 142.5 241.496094 142.5 225 C 142.5 208.503906 128.964844 195 112.5 195 Z M 262.5 195 C 246.035156 195 232.5 208.503906 232.5 225 C 232.5 241.496094 246.035156 255 262.5 255 C 269.441406 255 274.832031 254.035156 279.84375 251.953125 C 284.855469 249.871094 289.191406 247.121094 295.546875 243.515625 C 300.027344 240.964844 304.628906 238.214844 308.4375 234.140625 C 312.246094 230.066406 315 224.152344 315 217.5 C 315 205.167969 304.832031 195 292.5 195 Z M 82.5 210 L 112.5 210 C 120.878906 210 127.5 216.621094 127.5 225 C 127.5 233.378906 120.878906 240 112.5 240 C 106.875 240 104.089844 239.503906 100.78125 238.125 C 97.472656 236.746094 93.339844 234.140625 86.71875 230.390625 C 82.5 228.019531 79.394531 225.761719 77.578125 223.828125 C 75.761719 221.894531 75 220.636719 75 217.5 C 75 213.28125 78.28125 210 82.5 210 Z M 262.5 210 L 292.5 210 C 296.71875 210 300 213.28125 300 217.5 C 300 220.636719 299.238281 221.894531 297.421875 223.828125 C 295.605469 225.761719 292.5 228.019531 288.28125 230.390625 C 281.660156 234.140625 277.527344 236.746094 274.21875 238.125 C 270.910156 239.503906 268.125 240 262.5 240 C 254.121094 240 247.5 233.378906 247.5 225 C 247.5 216.621094 254.121094 210 262.5 210 Z M 52.5 283.828125 C 54.667969 284.53125 56.925781 285 59.296875 285 L 97.5 285 L 97.5 292.5 C 97.5 296.71875 94.21875 300 90 300 L 60 300 C 55.78125 300 52.5 296.71875 52.5 292.5 Z M 322.5 283.828125 L 322.5 292.5 C 322.5 296.71875 319.21875 300 315 300 L 285 300 C 280.78125 300 277.5 296.71875 277.5 292.5 L 277.5 285 L 315.703125 285 C 318.074219 285 320.332031 284.53125 322.5 283.828125 Z M 322.5 283.828125 "/>
</g>
</svg>
