<?xml version="1.0" encoding="UTF-8"?>
<svg width="400px" height="400px" viewBox="0 0 400 400" version="1.1" xmlns="http://www.w3.org/2000/svg" xmlns:xlink="http://www.w3.org/1999/xlink">
    <title>Group</title>
    <g id="Page-1" stroke="none" stroke-width="1" fill="none" fill-rule="evenodd">
        <g id="Group">
            <path d="M0,400 L400,400 L400,0 L0,0 L0,400 Z M180.48,8.76 C144.65,12.4 109.91,26.31 81.62,48.62 C51.55,72.12 28.61,104.71 17.06,141.11 C8.59,166.48 6.48,193.65 8.87,220.2 C11.53,245.5 19.26,270.26 31.52,292.54 C49.23,324.76 76.37,351.73 108.73,369.18 C136.61,384.23 168.28,392.39 200,392.07 C230.22,392.38 260.4,385.01 287.3,371.28 C313.24,358.07 336.06,338.82 353.58,315.57 C370.56,293.09 382.45,266.81 388.15,239.23 C392.24,220.01 392.84,200.17 391.21,180.63 C387.63,144.5 373.5,109.51 350.94,81.06 C328.13,52.09 296.89,29.79 261.92,18.01 C235.86,8.95 207.88,6.29 180.48,8.76 L180.48,8.76 Z M186.33,71.2 C213.7,68.2 242,74.25 265.7,88.28 C290.2,102.65 309.77,125.29 320.28,151.7 C330.85,177.9 332.41,207.59 324.86,234.8 C317.31,262.39 300.15,287.17 277.14,304.14 C255.59,320.21 228.88,329.24 202,329.49 C174.03,330.09 145.96,321.15 123.45,304.54 C100.16,287.58 82.84,262.59 75.2,234.8 C67.77,208.08 69.16,179.01 79.2,153.15 C90.46,123.87 112.78,99.05 140.72,84.78 C154.91,77.48 170.44,72.76 186.33,71.2 L186.33,71.2 Z M207.89,108.71 C203.41,108.65 198.19,109.2 195.52,113.33 L194.83,113.34 C194.87,113.94 194.96,115.15 195.01,115.75 C197.06,116.54 199.98,116.78 200.71,119.28 C202.26,123.12 200.07,126.94 198.2,130.2 C196.21,130.86 194.15,131.68 192.02,131.42 C189.57,130.82 187.68,129.01 185.51,127.82 L185.88,128.68 C185.29,130.33 184.65,132.06 185.08,133.83 C185.52,137.18 188.71,138.94 190.99,141 C188.7,145.38 186.1,149.6 183.02,153.47 C178.3,153.22 173.63,152.4 168.92,152.03 C165.6,149.8 161.73,148.51 158.04,147.05 C156.92,145.45 155.8,143.84 154.5,142.38 C158.27,140.4 162.07,138.13 164.56,134.58 C168.32,129.62 169.26,122.72 167.13,116.9 C165.85,114.05 164.24,110.49 160.69,110.18 C156.47,102.97 146.69,98.64 138.94,102.78 C134.03,104.44 130.26,108.76 128.85,113.69 C127.07,120.41 129.3,128.85 135.8,132.22 C136.76,133.07 137.8,133.82 138.83,134.59 C137.37,135.18 135.95,135.87 134.65,136.77 C136.8,137.34 139,137.74 141.23,137.84 C141.22,138.58 141.21,140.07 141.21,140.82 C138.74,140.61 135.65,140.97 134.41,143.45 C133.31,145.02 133.93,146.94 134.26,148.65 C135.25,151.18 132.34,153.58 133.66,156.08 C134.57,158.32 135.22,160.66 136.26,162.85 C137.5,164.32 139.55,164.57 141.35,164.81 C141.55,177.23 141.45,189.64 141.44,202.05 C137.34,204.52 131.99,206.68 130.86,211.89 C130.68,213.25 129.59,215.29 131.25,216.12 L131.55,215 L132.84,214.54 C134.24,216.97 134.29,219.87 135.22,222.49 L135.53,221.29 C136.23,220.91 137.64,220.15 138.35,219.77 C139.17,223.92 141.9,227.61 141.5,231.98 C141.3,239.21 141.78,246.46 141.21,253.67 C140.01,254.1 138.81,254.54 137.62,254.99 C137.69,256.46 137.76,257.93 137.82,259.4 C137.79,260.09 137.73,261.47 137.69,262.17 C138.6,262.56 139.52,262.95 140.44,263.34 C139.15,265.25 138.09,267.38 138.21,269.75 C139.62,272.56 142.05,274.43 145.02,275.36 C145.77,277.69 147.81,278.99 149.99,279.83 C147.02,283.58 147.96,288.65 148,293.07 C147.88,294.94 148.65,296.63 149.9,297.98 L150.06,298.65 C152.79,299.16 151.65,294.74 153.8,293.77 C153.99,297.09 153.2,301.52 156.68,303.45 C158.03,301.51 159.37,299.57 160.8,297.68 C161.37,298.05 162.52,298.78 163.09,299.14 C163.36,299.57 163.9,300.43 164.17,300.86 C164.36,300.34 164.75,299.31 164.94,298.79 C165.97,301.41 167.66,303.68 169.87,305.42 C171.25,302.58 172.82,299.79 175.02,297.49 C175.97,298.29 176.99,299.01 178.07,299.64 C179.82,301.53 181.86,303.13 184.07,304.47 C185.03,302.3 185.4,299.83 186.71,297.84 C190.03,296.43 194.64,297.37 196.82,293.83 C199.67,289.21 199.63,283.31 202.87,278.86 C205.67,274.84 210.7,273.68 214.84,271.58 C212.05,270.43 209.28,269.25 206.57,267.92 C207.39,267.57 208.22,267.22 209.03,266.85 C207.26,266.18 205.47,265.57 203.74,264.8 C204.21,262.43 204.28,259.79 205.87,257.85 C208.68,254.36 212.99,252.72 216.95,250.93 C219.53,256.06 223.79,260.5 229.2,262.62 C230.49,264.99 232.74,266.51 234.92,267.98 C235.42,270.9 235.46,273.94 234.95,276.86 C234.55,278.25 234.27,280.31 232.45,280.4 C226.73,281.41 219.59,280.63 215.5,285.59 C213.17,289.98 213.37,295.88 215.82,300.2 C216.14,300.69 216.77,301.68 217.09,302.18 C217.82,300.32 218.42,298.42 219.21,296.6 C219.97,300.03 220.18,303.87 222.84,306.49 C224.22,303.66 225.49,300.38 228.88,299.5 C229.15,300 229.7,300.99 229.98,301.49 C230.5,301.07 231.55,300.24 232.07,299.82 C233.33,302.22 234.79,304.54 236.81,306.39 C238.42,303.93 240.14,301.54 242.3,299.53 L242.91,300.2 C244.92,301.86 246.93,303.52 248.98,305.14 C249.78,303.82 250.58,302.5 251.37,301.17 C253.64,300.22 256.88,300.4 258.2,298.03 C259.09,294.77 258.13,291.36 258.13,288.05 C257.44,276.56 260.65,264.6 268.76,256.17 C265.39,256.47 262.01,256.68 258.63,256.77 C259.95,254.76 261.51,252.93 262.98,251.04 C257.3,252.26 250.96,252.46 245.98,249 C244.55,245.26 242.44,241.54 242.9,237.39 C243.46,237.71 244.58,238.34 245.14,238.66 C248.01,242.6 252.87,244.27 257.37,245.54 C264.45,247.32 273.1,247.07 278.43,241.41 C282.82,237.35 283.51,230.7 281.79,225.23 C280.03,218.78 275.37,213.82 271.12,208.9 C269.2,207.09 269.15,203.91 270.94,201.99 C272.41,200.18 274.95,200.21 277.03,199.67 C277.29,202.28 277.13,204.91 277.14,207.54 C278.49,206.91 280.02,206.53 281.15,205.5 L281.9,204.73 C282.79,207.14 283.13,209.68 283.38,212.23 C289.07,210.01 293.61,204.26 293.17,197.99 C293.17,193.56 290.28,189.39 286.09,187.94 C283.42,184.17 279.43,181.21 274.75,180.68 C278.12,177.72 281.73,175.04 285.08,172.04 C289.23,168.16 292.69,162.89 292.4,156.99 C292.59,151.96 290.05,146.65 285.07,144.91 C279.59,136.46 266.43,134.87 258.9,141.35 C257.41,140.73 255.95,140.06 254.43,139.56 C258.94,138.45 261.58,134.27 262.33,129.93 C259.2,131.86 255.91,135.32 251.89,134.02 C253.6,130.96 256.05,128.3 257.34,125.01 C256.72,122.3 253.75,121.03 251.82,119.28 C249.03,117.02 245.91,114.98 244.28,111.66 C236.48,110.55 227.67,110.16 221.68,104.35 C219.04,102.29 218.17,98.91 216.09,96.42 C211.53,98.8 206.45,102.86 207.89,108.71 L207.89,108.71 Z M239.41,139.07 C240.77,137.17 242.77,133.23 245.5,135.56 C247.21,136.74 248.88,137.96 250.68,139 C250.78,140.3 250.72,141.65 251.18,142.89 C252.58,143.95 254.21,144.63 255.79,145.4 C255.22,148.31 255.16,151.29 255.16,154.25 C255.81,153.22 256.46,152.17 257.09,151.12 C258.41,150.13 259.78,149.19 261.18,148.3 C261.41,151.83 261.32,155.36 261.08,158.88 C263.26,156.28 265.84,153.99 268.99,152.63 C268.91,154.87 268.39,157.16 266.83,158.85 C260.59,166.23 251.27,171.09 247.23,180.25 C244.17,187.94 247.38,196.58 252.25,202.76 C255.96,207.74 260.98,212.08 262.77,218.23 C264.01,222.15 262.88,227.1 259.09,229.2 C254.37,231.82 248.47,230.5 243.99,227.97 C240.23,219.44 238.34,210.28 236.99,201.1 C236.26,195.3 232.21,190.3 232.81,184.29 C237.04,183.65 242.07,183.67 245.06,180.07 C248.32,176.53 247.4,171.15 245.48,167.17 C244.29,167.62 243.1,168.08 241.92,168.54 C241.76,168.12 241.44,167.28 241.28,166.86 C240.67,165.16 240.01,163.49 239.34,161.82 C237.15,163.66 234.8,165.53 231.8,165.65 C231.06,161.17 229.69,155.18 234.14,152.15 C238.04,149.12 242.34,152.98 245.85,154.76 C245.57,151.22 245.27,147.69 244.95,144.15 C243.08,144.1 241.2,144.06 239.33,144.01 C239.31,142.36 239.37,140.72 239.41,139.07 L239.41,139.07 Z M155.15,171.07 C158.22,171.55 161.28,172.1 164.33,172.72 C164.54,173.96 164.86,175.23 164.61,176.48 C163.4,178.26 161.27,179.07 159.58,180.29 C161.18,181.83 162.91,183.21 164.71,184.52 C166.67,186.01 168.52,187.64 170.36,189.28 C165.29,192.59 160.52,196.38 155.23,199.35 C154.92,189.93 154.84,180.49 155.15,171.07 L155.15,171.07 Z M178.12,228.23 C186.91,226.59 193.04,219.82 199.77,214.59 C200.47,215.65 201.19,216.71 201.9,217.77 C194.04,220.96 187.08,226.14 180.92,231.92 C176.28,236.61 171.55,242.82 172.92,249.84 C173.7,253.5 178.13,254.86 179.31,258.12 C179.04,263.77 177.87,269.78 174.44,274.41 C169.98,279.37 162.7,276.74 156.95,276.82 C156.74,272.49 157.12,268.18 157.87,263.92 C158.93,260.46 154.86,258.38 154.99,255.06 C154.95,249.39 154.75,243.69 155.13,238.03 C156.43,235.08 157.93,232.21 159.19,229.25 C161.9,225.72 166.55,223.8 170.95,223.83 C173.73,224.47 175.84,226.63 178.12,228.23 L178.12,228.23 Z" id="Fill-1" fill="#FFFFFF"></path>
            <path d="M180.48,8.76 C207.88,6.29 235.86,8.95 261.92,18.01 C296.89,29.79 328.13,52.09 350.94,81.06 C373.5,109.51 387.63,144.5 391.21,180.63 C392.84,200.17 392.24,220.01 388.15,239.23 C382.45,266.81 370.56,293.09 353.58,315.57 C336.06,338.82 313.24,358.07 287.3,371.28 C260.4,385.01 230.22,392.38 200,392.07 C168.28,392.39 136.61,384.23 108.73,369.18 C76.37,351.73 49.23,324.76 31.52,292.54 C19.26,270.26 11.53,245.5 8.87,220.2 C6.48,193.65 8.59,166.48 17.06,141.11 C28.61,104.71 51.55,72.12 81.62,48.62 C109.91,26.31 144.65,12.4 180.48,8.76 M173.4,14.56 C128.94,20.86 87.08,43.78 57.94,77.94 C36.97,102.45 22.24,132.34 16.2,164.07 C12.4,181.43 13.18,199.33 13.6,216.97 C16.15,248.87 27.64,279.89 45.77,306.21 C76.4,351.25 127.71,381.67 182.03,386.36 C191.01,386.85 200.01,386.723615 208.99,386.67 C221.96,386.69 234.83,384.49 247.35,381.25 C273.23,374.58 297.56,362.14 318.26,345.25 C357.2,313.77 382.85,266.01 386.5,215.98 C386.69,199.57 387.64,182.94 384.31,166.76 C379.32,138.04 367.31,110.58 349.64,87.4 C330.95,62.17 305.47,42.15 276.94,29.17 C254.07,19.02 229.11,12.87 204,13.29 C193.79,13.32 183.52,13.05 173.4,14.56 M77.97,313.06 C80.67,308.27 85.08,304.81 89.01,301.08 C92.88,304.2 96.17,307.94 99.76,311.36 C98.7,312.62 97.61,313.86 96.5,315.08 C94.04,313.72 91.81,311.08 88.74,311.64 C90.11,313.88 91.63,316.01 93.15,318.16 C91.81,319.16 90.44,320.12 89,320.97 C87.45,319.79 86.2,317.79 84.21,317.43 C81.71,319.22 79.88,321.93 76.91,323.03 L77.45,322.41 C79.61,319.98 81.97,317.74 84.29,315.46 C86.2,317.08 88.1,318.7 90.04,320.29 C90.62,319.31 91.2,318.34 91.78,317.36 C90.27,315.76 88.77,314.15 87.27,312.54 C88.35,311.45 89.44,310.36 90.52,309.27 C92.28,310.9 94.05,312.51 95.84,314.1 C96.61,313.33 97.39,312.56 98.17,311.8 C95.52,308.38 92.4,305.36 89.02,302.67 C85.24,306.02 81.75,309.7 77.97,313.06 M308.77,301.16 C310.61,301.3 312.45,301.25 314.3,301.27 C317.35,302.11 318.13,305.71 320.57,307.39 C322.2,308.7 324.35,309.63 325.23,311.65 C326.02,314.11 325.99,317.14 324.07,319.09 C321.32,322.3 318.19,325.18 315.01,327.96 C310.9,324.23 307.12,320.16 303.11,316.32 C301.47,314.59 299.84,312.85 298.19,311.13 C301.77,307.87 304.94,304.16 308.77,301.16 M308.67,302.67 C305.47,305.18 302.82,308.3 299.96,311.18 C304.66,316.63 309.99,321.51 315.13,326.53 C318.8,322.62 325.39,319.22 324.44,313 C324.19,310.12 320.93,309.42 319.01,307.9 C317.57,306.32 316.76,304.25 315.14,302.84 C313.31,301.47 310.47,301.06 308.67,302.67 M98.96,316.47 C101.98,316.29 105.01,316.3 108.04,316.47 C105.02,316.83 101.97,316.84 98.96,316.47 M103.4,322.41 C105.4,321.83 107.54,322.63 108.59,324.46 C110.19,329.8 105.08,336.34 99.48,335.5 C94.33,332 98.76,324.23 103.4,322.41 M104.29,323.38 C101.05,324.04 99.22,327.36 98.03,330.17 C97.06,332.46 99.46,335.22 101.92,334.37 C104.81,333.31 106.98,330.68 108.04,327.84 C109.08,325.56 106.74,322.71 104.29,323.38 M268.65,334.3 C266.82,330.8 271.82,329.81 273.93,328.3 C277.2,332.78 279.27,338.01 282.6,342.43 C285.16,343.34 287.46,340.92 289.79,340.12 C290.59,341.74 292.57,343.61 291.57,345.52 C287.78,348.4 283.45,350.48 279.25,352.7 C275.91,346.45 271.93,340.57 268.65,334.3 M269.06,332.15 C272.02,338.8 275.95,345.02 279.89,351.13 C283.71,349.21 287.37,347 291.02,344.79 C290.47,343.67 289.91,342.55 289.34,341.45 C287.25,342.57 285.24,343.87 283.02,344.75 C281.85,344.44 281.58,343 280.9,342.16 C278.58,338.06 276.29,333.94 273.8,329.93 C272.22,330.65 270.64,331.4 269.06,332.15 M120.71,330.43 C126.27,329.33 133.39,330.62 135.6,336.54 C136.64,339.84 136.54,343.37 135.53,346.66 C135.19,348.09 133.88,348.98 132.97,350.05 C135.28,345.58 137.13,339.72 133.74,335.28 C131.06,331.19 125.84,330.9 121.45,330.49 L120.71,330.43 M139.99,337.59 C140.41,337.58 141.25,337.56 141.67,337.55 C145.37,338.93 149.02,340.46 152.83,341.53 C153.83,341.85 154.82,342.18 155.82,342.51 C155.74,344.35 155.48,346.18 154.56,347.81 C153.1,347.58 151.64,347.3 150.17,347.36 C148.58,348.72 148.22,350.95 147.47,352.82 C146.45,356.27 145.3,359.68 143.71,362.92 C141.63,362.35 138.57,362.56 137.36,360.61 C137.39,357.07 138.85,353.59 140.47,350.49 C141.02,349.67 141.57,348.86 142.13,348.06 C140.71,352.07 139.31,356.09 137.99,360.13 C139.67,360.8 141.35,361.47 143.03,362.14 C145.28,356.72 147.09,351.13 149.16,345.65 C150.81,345.99 152.46,346.31 154.11,346.64 C154.32,345.55 154.54,344.47 154.75,343.39 C150.24,341.59 145.66,339.93 140.99,338.58 C140.6,339.19 139.82,340.41 139.43,341.03 C140.86,342 142.31,342.96 143.7,344 C143.59,344.3 143.39,344.9 143.28,345.2 C141.7,344.18 140.11,343.19 138.51,342.21 C139.01,340.67 139.5,339.13 139.99,337.59 M99,341.42 C101.58,341.24 104.18,341.16 106.75,341.46 C104.21,342.06 101.56,341.68 99,341.42 M267.35,348.21 C269.15,348.41 270.94,348.63 272.73,348.89 C272.13,353.48 269.87,358.47 265.12,359.97 C261.44,360.96 256.78,361.08 254,358.04 C257.89,359.4 262.49,360.69 266.28,358.33 C269.45,356.61 270.93,353.16 271.62,349.79 C270.58,349.69 269.53,349.59 268.49,349.51 C267.7,350.71 266.91,351.9 266.1,353.09 C266.48,351.45 266.9,349.83 267.35,348.21" id="Fill-2" fill="#BB8A1A"></path>
            <path d="M173.4,14.56 C183.52,13.05 193.79,13.32 204,13.29 C229.11,12.87 254.07,19.02 276.94,29.17 C305.47,42.15 330.95,62.17 349.64,87.4 C367.31,110.58 379.32,138.04 384.31,166.76 C387.64,182.94 386.69,199.57 386.5,215.98 C382.85,266.01 357.2,313.77 318.26,345.25 C297.56,362.14 273.23,374.58 247.35,381.25 C234.83,384.49 221.96,386.69 208.99,386.67 C200.01,386.723615 191.01,386.85 182.03,386.36 C127.71,381.67 76.4,351.25 45.77,306.21 C27.64,279.89 16.15,248.87 13.6,216.97 C13.18,199.33 12.4,181.43 16.2,164.07 C22.24,132.34 36.97,102.45 57.94,77.94 C87.08,43.78 128.94,20.86 173.4,14.56 M191.36,21.34 C191.36,34.46 191.33,47.57 191.37,60.69 C200.19,61.2 209.06,61.36 217.88,60.72 C218.6,57.22 218.54,53.62 217.9,50.11 C214.09,49.71 210.26,49.58 206.44,49.52 C205.6,40.14 206.79,30.7 205.78,21.33 C200.97,21.21 196.16,21.21 191.36,21.34 M154.12,26.62 C153.87,29.16 154.19,31.7 154.76,34.17 C156.93,44.47 158.56,54.89 161.13,65.11 C169.4,64.01 177.67,62.46 185.71,60.22 C185.35,57.32 184.74,54.47 183.99,51.65 C182.79,51.74 181.59,51.91 180.41,52.15 C177.64,52.07 174.88,52.01 172.11,51.84 C172.28,50.85 172.44,49.86 172.61,48.88 C174.09,48.32 175.67,47.82 176.78,46.63 C178.5,46.3 180.22,46.03 181.95,45.76 C182.02,42.54 181.48,39.34 180.16,36.39 C178.53,36.72 176.9,37.07 175.27,37.42 C172.91,37.29 170.49,37.15 168.35,36.06 C170.14,34.91 172.14,34.09 173.78,32.71 C175.74,32.35 177.7,31.89 179.58,31.2 C178.66,28.46 179.15,24.63 176.93,22.67 C169.28,23.65 161.82,25.86 154.12,26.62 M233.2,28.14 C227.71,30.59 226.04,37.65 228.01,42.94 C229.76,46.83 233.54,49.11 236.5,51.98 C235.84,53.93 234.57,55.55 232.95,56.8 C231.87,54.75 230.82,52.68 229.82,50.58 C227.01,50.98 224.29,51.84 221.74,53.06 C222.44,55.55 223.18,58.12 224.86,60.15 C228.88,65.42 236.59,66.83 242.62,64.66 C247.68,62.86 250.93,57.3 250.23,52.02 C249.63,49 247.94,46.21 245.65,44.17 C248.31,43.47 250.94,42.59 253.38,41.3 C255.44,30.77 241.93,23.21 233.2,28.14 M127.01,37.19 C128.02,40.65 129.81,43.79 131.44,46.98 C130.76,48.14 130.68,49.87 129.4,50.55 C128.2,50.69 126.99,50.59 125.79,50.54 C124.09,47.12 122.68,43.56 120.88,40.19 C116.91,41.72 112.81,43.16 109.44,45.85 C112.6,52.86 115.95,59.78 119.28,66.71 C121.49,71.28 123.28,76.07 126.05,80.35 C130.05,79.18 133.79,77.28 137.31,75.09 C136.05,71.64 134.29,68.43 132.65,65.17 C132.81,63.89 132.98,62.62 133.16,61.34 C134.54,60.72 135.93,60.08 137.29,59.42 C139.35,63.6 141.08,67.95 143.28,72.07 C147.43,71.14 151.14,68.98 154.8,66.91 C149.82,55.11 143.85,43.76 138.53,32.11 C134.34,32.9 130.69,35.17 127.01,37.19 M267.04,41 C262.4,50.76 257.07,60.19 252.63,70.04 C259.75,74.44 267.35,78.06 274.99,81.43 C276.63,78.87 278,76.14 278.81,73.21 C276.09,71.78 273.31,70.46 270.58,69.07 C270.64,67.49 270.74,65.92 270.86,64.35 C273.04,64.81 275.23,65.27 277.42,65.69 C278.64,66.33 279.86,66.96 281.1,67.58 C282.98,65.05 284.45,62.22 285.16,59.13 C282.68,57.72 280.15,56.4 277.6,55.11 C277.49,54.06 277.39,53 277.3,51.94 C279.28,52.19 281.26,52.43 283.25,52.68 C284.75,53.46 286.26,54.2 287.8,54.91 C289.52,52.28 291.11,49.53 291.88,46.45 C284.89,42.94 278.02,39.17 270.91,35.94 C268.78,36.58 268.16,39.28 267.04,41 M89.11,60.21 C79.53,63.48 73.3,74.84 76.54,84.61 C78.52,90.26 82.43,95.34 87.62,98.39 C98.35,104.24 114.39,98.22 116.67,85.65 L117.78,85.86 C118.01,82.48 119.73,77.42 116.66,75.11 C116.47,74.65 116.09,73.71 115.89,73.25 C112.97,73.58 110.06,74.12 107.27,75.06 C107.9,79.88 107.97,85.92 102.79,88.3 C101.63,87.15 99.29,87.25 98.17,88.41 C94.44,86.94 91.19,84.28 89.31,80.71 C87.42,77.56 87.62,73.05 90.54,70.56 C93.81,70.57 97.09,70.28 100.25,69.41 C100.55,69.45 101.16,69.54 101.46,69.58 C102.08,66.31 102.74,63.01 102.54,59.67 C98.09,59.22 93.45,58.79 89.11,60.21 M306.73,68.72 C297.74,73.63 288.39,77.88 279.55,83.06 C281.44,85.18 283.19,87.86 286.02,88.76 C287.76,88.33 289.31,87.4 290.92,86.65 C292.61,86.98 294.64,86.78 295.97,88.07 C297.67,89.56 297.03,92.05 297.18,94.04 C296.88,95.4 295.36,97.04 296.61,98.33 C299.13,101.33 302.1,103.99 305.5,105.97 C308.46,97.06 311.45,88.17 314.28,79.22 C315.98,73.69 318.35,68.34 319.38,62.61 C314.88,64.01 310.88,66.54 306.73,68.72 M196.29,66.19 C174.37,66.54 152.63,72.77 133.6,83.62 C105.86,99.41 84.08,125.42 73.58,155.59 C66.69,174.85 64.74,195.69 66.99,215.97 C70.32,244.33 83.03,271.56 102.83,292.16 C123.52,314.36 152.16,328.84 182.21,332.77 C205.38,335.71 229.37,332.94 250.99,323.96 C278.38,312.75 301.73,292.1 316.42,266.43 C334.68,234.87 338.85,195.71 328.19,160.91 C319.15,130.57 298.66,103.97 272.01,86.98 C249.64,72.62 222.86,65.25 196.29,66.19 M41.32,141.3 C33,143.67 27.16,152.42 28.11,161.01 C28.73,167.97 33.6,174.3 40.14,176.74 C47.17,179.49 55.75,177.37 60.72,171.7 C66.6,165.41 66.99,154.97 61.85,148.12 C57.37,141.8 48.68,139.06 41.32,141.3 M348.32,141.28 C340.28,143.53 334.22,151.61 334.97,160.04 C334.89,170.62 345.49,179.41 355.86,177.79 C365.47,176.92 373.27,167.63 372.23,157.98 C372.03,146.37 359.26,137.67 348.32,141.28 M37.67,225.62 C35.3,225.52 32.13,225.39 31.08,228.05 C29.84,231.47 28.55,234.87 27.06,238.2 C25.9,240.73 28.08,242.85 29.77,244.43 C29.46,246.2 28.82,247.99 29.18,249.81 C29.81,251.71 31.73,252.63 33.18,253.83 C35.36,255.33 37.1,257.38 39.29,258.87 C41.48,260.06 43.81,258.7 45.93,258.04 C47.84,259.26 50.24,260.92 52.51,259.48 C55.56,257.51 58.59,255.51 61.74,253.69 C64.22,252.18 63.51,248.98 63.32,246.57 C65.19,245.36 67.52,243.66 66.92,241.08 C65.94,237.4 64.88,233.75 64.06,230.04 C63.36,227.49 60.35,227.21 58.21,226.67 C57.35,224.51 56.41,221.62 53.62,221.51 C49.73,221.45 45.87,220.98 41.99,220.84 C39.42,220.86 38.59,223.72 37.67,225.62 M347.02,222.03 C345.22,222.85 345.05,225.03 344.44,226.67 C342.15,227.22 338.87,227.34 338.21,230.14 C337.39,233.85 336.31,237.5 335.39,241.19 C334.95,243.78 337.22,245.47 338.98,246.91 C338.84,248.98 338.12,251.53 339.88,253.15 C341.74,254.69 344.02,255.58 345.97,256.99 C348.06,258.33 350.13,260.47 352.86,260 C354.19,259.51 355.22,258.49 356.34,257.65 C358.43,258.95 361.22,260.38 363.49,258.58 C366.19,256.26 368.93,253.97 371.74,251.78 C374.08,249.95 372.94,246.8 372.41,244.4 C374.32,242.97 376.38,240.68 375.18,238.12 C373.67,234.77 372.46,231.3 371.09,227.89 C369.92,225.35 366.91,225.54 364.57,225.56 C363.81,223.77 363.12,221.33 360.9,220.94 C358.24,220.64 355.6,221.39 352.95,221.37 C350.97,221.49 348.84,221.06 347.02,222.03 M308.77,301.16 C304.94,304.16 301.77,307.87 298.19,311.13 C297.28,311.97 296.38,312.82 295.49,313.69 C294.31,314.88 293.1,316.04 291.89,317.2 C293.98,322.86 300.77,326.29 300.66,332.7 C300.03,332.62 298.76,332.47 298.12,332.4 C294.5,328.68 291.86,324.13 288.61,320.1 C286.16,320.97 284.17,322.67 282.2,324.31 C285.16,328.77 288.09,333.4 292.15,336.95 C292.33,337.29 292.7,337.95 292.89,338.29 C297.31,341.49 305.19,340.15 306.77,334.35 C308.91,333.95 308.93,328.99 306.82,328.53 C306.5,326.98 305.6,325.65 304.67,324.42 C303.88,321.79 302.59,319.14 303.11,316.32 C307.12,320.16 310.9,324.23 315.01,327.96 C318.19,325.18 321.32,322.3 324.07,319.09 C325.99,317.14 326.02,314.11 325.23,311.65 C324.35,309.63 322.2,308.7 320.57,307.39 C318.13,305.71 317.35,302.11 314.3,301.27 C314.06,299.07 309.14,299.08 308.77,301.16 M77.97,313.06 C76.29,314.62 74.73,316.3 73.18,317.99 C74.59,319.47 76.02,320.94 77.45,322.41 L76.91,323.03 C79.88,321.93 81.71,319.22 84.21,317.43 C86.2,317.79 87.45,319.79 89,320.97 L88.47,321.28 C89.38,321.84 90.29,322.4 91.2,322.96 C90.29,326.56 88.95,330.5 91.01,333.98 L91.46,332.92 C94.04,339.4 102.48,342.72 108.56,339.13 C109.28,339.24 110.7,339.46 111.41,339.57 C111.58,343.51 112.07,348 115.87,350.18 C120.32,354.79 128.68,354.97 132.97,350.05 C133.88,348.98 135.19,348.09 135.53,346.66 C136.83,344.88 138.62,343.46 140.77,344.83 C140.6,346.71 140.49,348.6 140.47,350.49 C138.85,353.59 137.39,357.07 137.36,360.61 C138.57,362.56 141.63,362.35 143.71,362.92 C145.3,359.68 146.45,356.27 147.47,352.82 C149.45,350.36 152.09,348.67 155.16,347.91 L154.56,347.81 C155.48,346.18 155.74,344.35 155.82,342.51 C154.82,342.18 153.83,341.85 152.83,341.53 C150.34,338.12 145.6,337.5 141.67,337.55 C141.25,337.56 140.41,337.58 139.99,337.59 C138.5,337.32 137.04,336.96 135.6,336.54 C133.39,330.62 126.27,329.33 120.71,330.43 C119.2,330.43 117.81,331.18 116.41,331.65 C116.35,328.83 116.28,325.92 114.93,323.37 C114.77,323.8 114.45,324.67 114.3,325.11 C112.82,321.97 110.67,318.83 107.1,317.94 C103.97,317.26 100.25,316.96 97.46,318.88 C96.22,318.61 94.97,318.34 93.73,318.07 C94.65,317.07 95.57,316.07 96.5,315.08 C97.61,313.86 98.7,312.62 99.76,311.36 C96.17,307.94 92.88,304.2 89.01,301.08 C85.08,304.81 80.67,308.27 77.97,313.06 M98.96,316.47 C101.97,316.84 105.02,316.83 108.04,316.47 C105.01,316.3 101.98,316.29 98.96,316.47 M268.65,334.3 C271.93,340.57 275.91,346.45 279.25,352.7 C283.45,350.48 287.78,348.4 291.57,345.52 C292.57,343.61 290.59,341.74 289.79,340.12 C287.46,340.92 285.16,343.34 282.6,342.43 C279.27,338.01 277.2,332.78 273.93,328.3 C271.82,329.81 266.82,330.8 268.65,334.3 M247.65,346.99 C247.53,350.46 248.92,354.17 251.92,356.12 C252.57,356.8 253.26,357.44 254,358.04 C256.78,361.08 261.44,360.96 265.12,359.97 C269.87,358.47 272.13,353.48 272.73,348.89 C270.94,348.63 269.15,348.41 267.35,348.21 C266.9,349.83 266.48,351.45 266.1,353.09 C265.86,353.44 265.38,354.15 265.14,354.5 C263.39,353.97 261.59,353.59 259.9,352.91 C257.86,351.23 257.3,348.48 256.38,346.14 C257.34,344.85 258.23,343.48 259.45,342.43 C261.65,342.46 263.78,343.09 265.9,343.62 C267.24,342.01 268.3,340.19 268.48,338.07 C265.81,336.78 263.03,335.35 259.99,335.58 C253.94,336.02 248.54,340.99 247.65,346.99 M99,341.42 C101.56,341.68 104.21,342.06 106.75,341.46 C104.18,341.16 101.58,341.24 99,341.42 M158.77,343.46 L159.55,343.66 C158.93,345.69 158.36,347.74 157.96,349.82 C156.27,351.99 155.5,354.62 156.2,357.34 C155.28,360.46 154.33,363.62 154.37,366.92 C154.2,368.63 157.18,369.06 157.91,367.68 C159.2,368.18 160.55,368.57 161.92,368.82 C163.84,371.15 167.99,370.86 170.14,368.98 C173.42,366.25 173.97,361.96 173.3,357.97 C173.4,357.65 173.59,357.01 173.69,356.7 C174.07,356.54 174.83,356.22 175.22,356.06 C176.8,352.3 175.08,347.35 171.05,346.03 C167.52,343.42 163.01,343.02 158.77,343.46 M187.3,345.87 C184.38,351.17 181.94,356.71 179.12,362.06 C177.68,364.91 175.9,367.7 175.52,370.94 C175.77,372.9 180.26,372.88 180.25,370.81 C181.5,369.28 182.73,367.73 183.98,366.2 C187.07,366.52 187.72,369.91 188.85,372.23 C191.21,372.46 193.57,372.61 195.95,372.71 C194.94,367.75 193.09,363.02 191.68,358.17 C190.37,354.02 189.5,349.68 187.3,345.87 M216.37,347.44 C215.02,349.96 216.3,352.81 216.65,355.43 C217.83,360.32 217.11,365.7 219.79,370.18 L219.86,371.16 L220.43,371.91 C224.36,372.7 228.46,371.19 232.09,369.71 C233.14,369.5 234.18,369.25 235.22,368.97 C234.95,366.99 234.66,365.02 234.33,363.05 C232.08,362.55 229.78,362.56 227.5,362.59 C226.92,359.68 226.65,356.72 226.37,353.78 C226.03,352.49 226.42,350.23 224.61,350 C224.46,348.86 224.32,347.73 224.18,346.59 C221.66,345.31 218.68,346.07 216.37,347.44 M199.23,348.12 C199.15,351.5 198.75,355.03 200.1,358.24 C200.13,360.29 200.2,362.35 200.34,364.4 C198.87,367.03 199.76,370.18 200.07,372.99 C205.44,373.52 210.82,372.8 216.14,372.04 C216.27,369.98 216.3,367.93 216.24,365.88 C213.6,365.75 210.97,365.65 208.33,365.58 C208.24,359.74 208.73,353.87 207.89,348.07 C205.02,347.54 202.09,347.55 199.23,348.12 M216.09,96.42 C218.17,98.91 219.04,102.29 221.68,104.35 C227.67,110.16 236.48,110.55 244.28,111.66 C245.91,114.98 249.03,117.02 251.82,119.28 C249.85,124.29 246.16,128.29 243.16,132.67 C241.37,131.51 239.63,128.8 237.24,129.94 C233.94,131.52 232.13,135.4 232.89,138.97 C235.06,139.16 237.24,139.21 239.41,139.07 C239.37,140.72 239.31,142.36 239.33,144.01 C239.43,146.04 239.68,148.05 239.92,150.07 C236.63,148.15 232.8,144.99 228.8,146.82 C224.36,149.08 224.52,155.12 225.72,159.26 C226.41,162.37 229.03,164.41 231.8,165.65 C234.8,165.53 237.15,163.66 239.34,161.82 C240.01,163.49 240.67,165.16 241.28,166.86 C241.23,169.93 241.15,173.47 238.68,175.69 C235.6,179.01 230.8,178.97 226.64,179.21 C225.73,185.07 230.14,189.57 230.84,195.13 C232.45,205.02 233.88,215.23 238.93,224.07 C241.66,229.86 246.98,234.47 253.36,235.66 C258.24,236.66 263.96,235.22 266.91,230.97 C269.64,226.84 269.61,221.4 268.13,216.82 C265.14,208.24 257.19,202.74 253.45,194.59 C251.26,189.81 251.41,183.85 254.48,179.48 C258.63,173.36 264.94,169.26 270.23,164.23 C272.85,161.68 275.37,158.62 275.88,154.88 C276.53,148.45 269.71,142.34 263.37,144.25 C260.05,145.06 258.59,148.41 257.09,151.12 C256.46,152.17 255.81,153.22 255.16,154.25 C255.16,151.29 255.22,148.31 255.79,145.4 C256.73,143.98 257.75,142.62 258.9,141.35 C266.43,134.87 279.59,136.46 285.07,144.91 C287.12,150.1 287.13,156.24 284.11,161.07 C279.17,169.11 270.39,173.4 263.63,179.63 C261.42,181.6 259.96,184.21 258.71,186.85 C263.42,183.46 268.69,180.28 274.75,180.68 C279.43,181.21 283.42,184.17 286.09,187.94 C288.68,193.83 286.75,200.67 281.9,204.73 L281.15,205.5 C281.77,201.63 283.2,197.03 280.28,193.73 C276.94,188.72 268.82,188.43 265.11,193.13 C263.18,195.27 263.18,198.31 263.21,201.01 C267.83,207.49 274.14,213.18 276.01,221.23 C278.06,227.84 275.53,235.9 269.23,239.22 C261.76,243.23 252.69,241.64 245.14,238.66 C244.58,238.34 243.46,237.71 242.9,237.39 C240.79,236.04 238.68,234.69 236.48,233.47 C237.49,239.63 240.69,245.53 245.98,249 C250.96,252.46 257.3,252.26 262.98,251.04 C261.51,252.93 259.95,254.76 258.63,256.77 C251.47,266.69 251.86,279.44 252.59,291.06 C252.98,294.37 249.69,295.38 247.1,295.87 C244.75,296.08 244.03,298.54 242.91,300.2 L242.3,299.53 L241.82,298.99 C241.36,297.72 240.95,296.43 240.54,295.15 C239.85,295.08 238.48,294.94 237.79,294.87 C234.68,294.66 233.26,297.46 232.07,299.82 C231.55,300.24 230.5,301.07 229.98,301.49 C229.84,299.03 229.72,296.58 229.61,294.13 C227.69,294.27 225.76,294.42 223.86,294.72 C222.16,294.91 220.64,295.72 219.21,296.6 C218.42,298.42 217.82,300.32 217.09,302.18 C216.77,301.68 216.14,300.69 215.82,300.2 C215.84,295.46 212.89,289.03 217.74,285.73 C223.37,282.09 230.42,283.44 236.75,282.79 C239.79,277.7 242.5,272.05 242.34,265.99 C242.19,262.57 241.15,258.83 238.36,256.62 C235.16,255.36 231.49,256.05 228.3,254.71 C225.47,252.7 225.01,248.75 222.49,246.49 C220.03,245.62 217.36,245.71 214.79,245.69 C208.41,246.49 201.37,249.48 198.53,255.62 C196.79,259.6 200.24,263.38 203.74,264.8 C205.47,265.57 207.26,266.18 209.03,266.85 C208.22,267.22 207.39,267.57 206.57,267.92 C203.28,269.3 199.64,270.5 197.37,273.42 C193.67,278.1 193.72,284.54 190.49,289.47 C188.33,292.55 184.03,291.55 180.94,292.88 C179.15,294.64 179,297.4 178.07,299.64 C177.45,297.21 176.84,294.77 176.25,292.34 C174.19,292.3 172.14,292.25 170.09,292.32 C167.6,293.76 165.68,295.98 164.94,298.79 C164.75,299.31 164.36,300.34 164.17,300.86 C163.9,300.43 163.36,299.57 163.09,299.14 C163.17,296.81 163.39,294.49 163.62,292.18 C161.07,292.21 158.52,292.21 155.98,292.4 C155.44,292.74 154.35,293.42 153.8,293.77 C151.65,294.74 152.79,299.16 150.06,298.65 L149.9,297.98 C149.61,293.97 148.98,289.98 148.79,285.96 C148.58,283.82 149.91,281.72 151.9,280.96 C159.45,278.09 168.2,282.57 175.4,278.39 C183.03,273.79 184.9,264.27 186.74,256.24 C183.77,254.09 179.28,252.25 179.31,247.93 C178.85,244.52 180.4,241.18 183.04,239.05 C192.03,231.08 204.32,228.74 214.18,222.18 C217.44,220.08 220.26,216.27 219.06,212.21 C218.27,208.32 214.54,206.41 211.26,204.95 C211.55,207.82 212.34,210.73 211.82,213.62 C209.62,216.78 205.22,216.57 201.9,217.77 C201.19,216.71 200.47,215.65 199.77,214.59 C198.09,212.02 196.69,209.3 195.23,206.61 C189.16,214.12 181.77,221.28 172.03,223.48 C170.03,221.97 168.2,220.04 165.75,219.28 C159.05,218.3 151.16,222.99 151.32,230.37 C150.72,230.53 149.53,230.83 148.93,230.99 L148.89,230.13 C148.76,227.72 148.56,225.32 148.35,222.92 C145.93,223.65 143.58,224.61 141.29,225.68 C141.58,223.36 141.95,221.05 142.35,218.75 C141.01,219.06 139.67,219.38 138.35,219.77 C137.64,220.15 136.23,220.91 135.53,221.29 C136.06,218.59 137.18,216.07 138.57,213.71 C136.64,213.89 134.71,214.02 132.84,214.54 L131.55,215 C132.14,211.04 135.82,208.5 139.36,207.31 C146.48,205.61 154.34,207.71 161.03,204.11 C166.42,201.21 171.58,197.88 176.95,194.93 C183.36,191.13 190.08,187.85 196.13,183.47 C191.88,183.16 187.59,182.84 183.52,181.5 C182.69,179.99 181.83,178.5 180.96,177.02 C178.92,179.29 176.87,181.69 174.06,183.02 C171.18,184.49 167.86,184.42 164.71,184.52 C162.91,183.21 161.18,181.83 159.58,180.29 C162.33,179.45 167.21,180.53 167.83,176.73 C168.84,173.42 165.78,171.12 163.16,169.93 C158.68,168.16 153.97,167.11 149.29,166.04 C149.28,177.84 149.21,189.64 149.36,201.44 C148.23,201.62 147.1,201.8 145.98,201.96 C145.22,189.75 145.99,177.5 145.64,165.27 C144.21,165.12 142.77,164.98 141.35,164.81 C139.55,164.57 137.5,164.32 136.26,162.85 C135.22,160.66 134.57,158.32 133.66,156.08 C132.34,153.58 135.25,151.18 134.26,148.65 C133.93,146.94 133.31,145.02 134.41,143.45 C135.65,140.97 138.74,140.61 141.21,140.82 C142.74,140.85 144.27,140.91 145.8,140.96 C145.8,140.25 145.81,138.82 145.81,138.11 C144.28,138.02 142.75,137.94 141.23,137.84 C139,137.74 136.8,137.34 134.65,136.77 C135.95,135.87 137.37,135.18 138.83,134.59 C137.8,133.82 136.76,133.07 135.8,132.22 C132.44,127.59 130.21,121.86 131.13,116.06 C131.64,110.7 135.35,106.48 138.94,102.78 C146.69,98.64 156.47,102.97 160.69,110.18 C164.14,118 162.09,127.94 155.26,133.25 C153.17,135.19 149.81,136.01 148.87,138.96 C149.21,140.59 149.2,142.42 150.16,143.85 C152.48,145.53 155.36,146.14 158.04,147.05 C161.73,148.51 165.6,149.8 168.92,152.03 C172.77,155.51 176.84,158.87 179.86,163.14 C181.94,166.07 181.92,169.82 182.5,173.24 C187.08,172.45 189.79,168.03 190.12,163.67 C190.13,161.23 188.75,158.58 190.32,156.36 C193.38,150.74 197.08,145.17 197.78,138.65 C193.04,136.48 187.43,134.23 185.88,128.68 L185.51,127.82 C187.68,129.01 189.57,130.82 192.02,131.42 C194.15,131.68 196.21,130.86 198.2,130.2 C204.07,128.79 207.94,121.64 204.89,116.18 C203.18,112.63 198.74,113.44 195.52,113.33 C198.19,109.2 203.41,108.65 207.89,108.71 C209.73,108.68 211.58,108.64 213.43,108.6 C213.48,104.4 214.25,100.22 216.09,96.42 M143.13,112.6 C142.21,113.87 141.17,115.07 140.47,116.48 C139.65,118.61 141.11,120.62 141.87,122.52 C144.4,124.48 146.79,126.75 147.42,130.04 C152.81,127.44 156.98,120.55 154.21,114.72 C152.12,110.64 146.63,109.92 143.13,112.6 M223.43,119.05 C225.81,121.95 230.13,125.14 233.94,123.07 C232.01,121.49 230.08,119.8 229.34,117.32 C227.31,117.59 223.92,116.19 223.43,119.05 M231.74,117.18 C231.41,119.35 232.61,120.86 234.78,121.1 C235.33,119.7 235.88,118.31 236.42,116.91 C234.86,116.99 233.3,117.08 231.74,117.18 M137.07,143.99 C136.95,145.68 136.85,147.37 136.8,149.07 C140.23,149.51 143.71,149.48 147.13,148.94 C144.54,146.17 141.28,142.71 137.07,143.99 M138.14,151.45 C136.1,152.05 136.99,154.5 136.66,156.06 C140.2,157.25 144.18,156.17 147.23,154.2 C144.42,152.72 141.37,151.41 138.14,151.45 M138,158.93 C138.01,159.72 138.03,161.32 138.04,162.12 C140.79,162.13 143.52,161.64 146.09,160.62 C143.82,158.8 140.82,157.58 138,158.93" id="Fill-3" fill="#00318A"></path>
            <path d="M191.36,21.34 C196.16,21.21 200.97,21.21 205.78,21.33 C206.79,30.7 205.6,40.14 206.44,49.52 C210.26,49.58 214.09,49.71 217.9,50.11 C218.54,53.62 218.6,57.22 217.88,60.72 C209.06,61.36 200.19,61.2 191.37,60.69 C191.33,47.57 191.36,34.46 191.36,21.34 M192.29,22.05 C192.28,34.73 192.27,47.4 192.29,60.08 C200.6,60.68 208.96,60.4 217.28,60.22 C217.42,57.69 217.38,55.15 216.9,52.67 C217,52.23 217.21,51.36 217.31,50.93 C213.23,50.83 209.15,50.84 205.08,50.84 C204.53,41.35 205.39,31.82 204.7,22.35 C204.37,22.18 203.73,21.82 203.4,21.65 C199.69,21.71 195.98,21.67 192.29,22.05 M167.82,34.09 C169.78,33.54 171.77,33.07 173.78,32.71 C172.14,34.09 170.14,34.91 168.35,36.06 C170.49,37.15 172.91,37.29 175.27,37.42 C173.13,37.86 171,38.29 168.86,38.74 C168.51,37.19 168.16,35.64 167.82,34.09 M131.44,46.98 C131.9,47.96 132.34,48.95 132.79,49.93 C130.89,50.94 128.97,51.92 127.04,52.88 C126.62,52.1 126.2,51.32 125.79,50.54 C126.99,50.59 128.2,50.69 129.4,50.55 C130.68,49.87 130.76,48.14 131.44,46.98 M277.16,49.83 C279.22,50.71 281.26,51.65 283.25,52.68 C281.26,52.43 279.28,52.19 277.3,51.94 C277.39,53 277.49,54.06 277.6,55.11 C276.79,54.7 275.99,54.28 275.2,53.85 C275.85,52.51 276.5,51.17 277.16,49.83 M290.92,86.65 C291.94,86.16 292.96,85.69 293.98,85.22 C295.62,86.55 297.25,87.9 298.87,89.26 C298.33,90.86 297.78,92.46 297.18,94.04 C297.03,92.05 297.67,89.56 295.97,88.07 C294.64,86.78 292.61,86.98 290.92,86.65 M88.74,311.64 C91.81,311.08 94.04,313.72 96.5,315.08 C95.57,316.07 94.65,317.07 93.73,318.07 C94.97,318.34 96.22,318.61 97.46,318.88 C92.84,321.98 90.85,327.49 91.46,332.92 L91.01,333.98 C88.95,330.5 90.29,326.56 91.2,322.96 C90.29,322.4 89.38,321.84 88.47,321.28 L89,320.97 C90.44,320.12 91.81,319.16 93.15,318.16 C91.63,316.01 90.11,313.88 88.74,311.64 M247.65,346.99 C248.54,340.99 253.94,336.02 259.99,335.58 C263.03,335.35 265.81,336.78 268.48,338.07 C268.3,340.19 267.24,342.01 265.9,343.62 C263.78,343.09 261.65,342.46 259.45,342.43 C258.23,343.48 257.34,344.85 256.38,346.14 C257.3,348.48 257.86,351.23 259.9,352.91 C261.59,353.59 263.39,353.97 265.14,354.5 C262.74,354.5 259.59,355.41 258.02,352.99 C256.08,350.2 254.18,345.84 256.85,342.91 C259.06,340.29 262.83,341.86 265.77,341.79 C266.3,340.81 266.83,339.84 267.37,338.87 C264.49,337.9 261.46,336.07 258.35,337.11 C253.45,338.15 248.95,342.75 249.51,348 C249.51,350.88 250.79,353.54 251.92,356.12 C248.92,354.17 247.53,350.46 247.65,346.99 M158.77,343.46 C163.01,343.02 167.52,343.42 171.05,346.03 C167.24,345.14 163.34,344.68 159.55,343.66 L158.77,343.46 M216.37,347.44 C218.68,346.07 221.66,345.31 224.18,346.59 C221.76,347.13 219.33,347.6 216.9,348.08 C217.27,355.52 219.21,362.76 219.79,370.18 C217.11,365.7 217.83,360.32 216.65,355.43 C216.3,352.81 215.02,349.96 216.37,347.44 M199.23,348.12 C202.09,347.55 205.02,347.54 207.89,348.07 C208.73,353.87 208.24,359.74 208.33,365.58 C210.97,365.65 213.6,365.75 216.24,365.88 C216.3,367.93 216.27,369.98 216.14,372.04 C210.82,372.8 205.44,373.52 200.07,372.99 C199.76,370.18 198.87,367.03 200.34,364.4 L201.25,363.93 C201.28,366.25 201.31,368.57 201.42,370.89 C202.12,373.74 206,372.13 207.93,371.51 C210.12,371.43 212.3,371.36 214.5,371.38 L215.67,371.43 C215.55,369.8 215.44,368.18 215.34,366.57 C212.74,366.52 210.14,366.5 207.55,366.48 C207.49,360.6 207.49,354.7 206.77,348.85 C204.55,348.82 202.34,348.83 200.12,348.89 C200.1,352 200.1,355.12 200.1,358.24 C198.75,355.03 199.15,351.5 199.23,348.12 M164.77,349.38 C166.6,349.51 169.18,350.6 168.65,352.86 C168.85,355.25 165.76,354.52 164.28,354.93 C164.42,353.07 164.59,351.22 164.77,349.38" id="Fill-4" fill="#2B2F36"></path>
            <path d="M192.29,22.05 C195.98,21.67 199.69,21.71 203.4,21.65 C203.33,22.69 203.27,23.74 203.22,24.79 C200.36,23.71 197.3,23.7 194.31,23.97 C194.26,35.28 194.32,46.6 194.26,57.91 L194.3,58.85 C201.29,59.27 208.48,60.03 215.35,58.28 C215.88,56.41 216.41,54.55 216.9,52.67 C217.38,55.15 217.42,57.69 217.28,60.22 C208.96,60.4 200.6,60.68 192.29,60.08 C192.27,47.4 192.28,34.73 192.29,22.05" id="Fill-5" fill="#9E8644"></path>
            <path d="M203.4,21.65 C203.73,21.82 204.37,22.18 204.7,22.35 C205.39,31.82 204.53,41.35 205.08,50.84 C209.15,50.84 213.23,50.83 217.31,50.93 C217.21,51.36 217,52.23 216.9,52.67 C216.41,54.55 215.88,56.41 215.35,58.28 C215.18,56.55 215.02,54.81 214.85,53.08 C210.92,52.87 206.98,52.8 203.05,52.79 C202.73,43.46 202.7,34.11 203.22,24.79 C203.27,23.74 203.33,22.69 203.4,21.65" id="Fill-6" fill="#A29165"></path>
            <path d="M154.12,26.62 C161.82,25.86 169.28,23.65 176.93,22.67 C179.15,24.63 178.66,28.46 179.58,31.2 C177.7,31.89 175.74,32.35 173.78,32.71 C171.77,33.07 169.78,33.54 167.82,34.09 C168.16,35.64 168.51,37.19 168.86,38.74 C171,38.29 173.13,37.86 175.27,37.42 C176.9,37.07 178.53,36.72 180.16,36.39 C181.48,39.34 182.02,42.54 181.95,45.76 C180.22,46.03 178.5,46.3 176.78,46.63 C174.73,46.99 172.7,47.44 170.68,47.94 C170.96,49.86 171.24,51.78 171.52,53.69 C174.53,53.51 177.48,52.86 180.41,52.15 C181.59,51.91 182.79,51.74 183.99,51.65 C184.74,54.47 185.35,57.32 185.71,60.22 C177.67,62.46 169.4,64.01 161.13,65.11 C158.56,54.89 156.93,44.47 154.76,34.17 C154.19,31.7 153.87,29.16 154.12,26.62 M156.29,28.67 C156.42,30.72 156.66,32.77 157.11,34.78 C159.11,44.02 160.66,53.35 162.81,62.56 C169.29,61.91 175.67,60.42 182.03,59.03 C184.24,58.52 182.49,55.67 182.58,54.19 C178.42,54.46 174.41,55.75 170.25,56.04 C169.52,52.8 168.84,49.55 168.3,46.28 C172.13,45.42 175.97,44.62 179.79,43.71 C179.49,42.17 179.18,40.62 178.87,39.07 C174.96,39.47 171.12,40.25 167.24,40.82 C166.45,38 165.94,35.1 165.89,32.17 C169.61,31.48 173.31,30.68 176.99,29.77 C176.67,28.2 176.33,26.63 175.98,25.07 C169.36,25.98 162.86,27.52 156.29,28.67 M267.04,41 C268.16,39.28 268.78,36.58 270.91,35.94 C278.02,39.17 284.89,42.94 291.88,46.45 C291.11,49.53 289.52,52.28 287.8,54.91 C286.26,54.2 284.75,53.46 283.25,52.68 C281.26,51.65 279.22,50.71 277.16,49.83 C276.5,51.17 275.85,52.51 275.2,53.85 C275.99,54.28 276.79,54.7 277.6,55.11 C280.15,56.4 282.68,57.72 285.16,59.13 C284.45,62.22 282.98,65.05 281.1,67.58 C279.86,66.96 278.64,66.33 277.42,65.69 C275.25,64.53 273.07,63.41 270.86,62.34 C269.92,64.13 268.99,65.94 268.09,67.75 C268.91,68.19 269.74,68.63 270.58,69.07 C273.31,70.46 276.09,71.78 278.81,73.21 C278,76.14 276.63,78.87 274.99,81.43 C267.35,78.06 259.75,74.44 252.63,70.04 C257.07,60.19 262.4,50.76 267.04,41 M271.05,38.29 C265.74,48.51 260.4,58.72 255.43,69.11 C261.4,72.79 267.82,75.66 274.04,78.88 C274.77,77.4 275.45,75.89 276.06,74.35 C272.58,72.49 269.1,70.63 265.58,68.83 C266.61,65.59 268.21,62.58 270.1,59.76 C273.66,61.39 277.09,63.31 280.73,64.77 C281.37,63.26 282.02,61.75 282.67,60.24 C279.34,58.4 275.95,56.69 272.6,54.91 C273.6,52.19 274.87,49.58 276.29,47.06 C280.02,48.48 283.49,50.45 287.12,52.08 C287.84,50.57 288.46,49.02 288.94,47.42 C283.01,44.32 276.99,41.38 271.05,38.29 M306.73,68.72 C310.88,66.54 314.88,64.01 319.38,62.61 C318.35,68.34 315.98,73.69 314.28,79.22 C311.45,88.17 308.46,97.06 305.5,105.97 C302.1,103.99 299.13,101.33 296.61,98.33 C295.36,97.04 296.88,95.4 297.18,94.04 C297.78,92.46 298.33,90.86 298.87,89.26 C297.25,87.9 295.62,86.55 293.98,85.22 C292.96,85.69 291.94,86.16 290.92,86.65 C289.31,87.4 287.76,88.33 286.02,88.76 C283.19,87.86 281.44,85.18 279.55,83.06 C288.39,77.88 297.74,73.63 306.73,68.72 M309.63,69.59 C300.83,74.3 291.97,78.87 283.09,83.4 C284.05,84.61 285.08,85.76 286.16,86.87 C288.85,85.73 291.49,84.48 294.07,83.11 C296.53,84.8 298.75,86.81 300.76,89.02 C299.86,91.61 299,94.2 298.12,96.78 C300.03,98.83 302.1,100.78 304.64,102.05 C308.24,90.23 312.66,78.66 316,66.77 C313.81,67.55 311.67,68.47 309.63,69.59 M159.55,343.66 C163.34,344.68 167.24,345.14 171.05,346.03 C175.08,347.35 176.8,352.3 175.22,356.06 C174.83,356.22 174.07,356.54 173.69,356.7 C174.43,354.01 175.12,350.4 172.56,348.44 C168.94,346.04 164.46,345.68 160.28,345.02 C158.79,351.98 156.56,358.79 155.68,365.87 C159.92,366.86 164.29,369.06 168.71,367.98 C172.71,366.31 171.86,361.31 173.3,357.97 C173.97,361.96 173.42,366.25 170.14,368.98 C167.4,368.84 164.66,368.88 161.92,368.82 C160.55,368.57 159.2,368.18 157.91,367.68 C156.81,367.16 155.61,366.52 154.37,366.92 C154.33,363.62 155.28,360.46 156.2,357.34 C156.93,354.87 157.48,352.35 157.96,349.82 C158.36,347.74 158.93,345.69 159.55,343.66" id="Fill-7" fill="#A48C4C"></path>
            <path d="M194.31,23.97 C197.3,23.7 200.36,23.71 203.22,24.79 C202.7,34.11 202.73,43.46 203.05,52.79 C206.98,52.8 210.92,52.87 214.85,53.08 C215.02,54.81 215.18,56.55 215.35,58.28 C208.33,57.86 201.29,58.14 194.26,57.91 C194.32,46.6 194.26,35.28 194.31,23.97 M156.29,28.67 C162.86,27.52 169.36,25.98 175.98,25.07 C176.33,26.63 176.67,28.2 176.99,29.77 C173.31,30.68 169.61,31.48 165.89,32.17 C165.94,35.1 166.45,38 167.24,40.82 C171.12,40.25 174.96,39.47 178.87,39.07 C179.18,40.62 179.49,42.17 179.79,43.71 C175.97,44.62 172.13,45.42 168.3,46.28 C168.84,49.55 169.52,52.8 170.25,56.04 C174.41,55.75 178.42,54.46 182.58,54.19 C182.49,55.67 184.24,58.52 182.03,59.03 C175.67,60.42 169.29,61.91 162.81,62.56 C160.66,53.35 159.11,44.02 157.11,34.78 C156.66,32.77 156.42,30.72 156.29,28.67 M233.43,30.48 C240.05,26.4 250.16,30.35 251.61,38.24 C250.27,38.78 248.92,39.28 247.54,39.73 C246.45,37.17 245.44,33.62 242.04,33.56 C238.53,32.71 236.35,37 238.01,39.79 C239.95,43.15 243.75,44.85 246.06,47.93 C249.28,51.59 248.42,57.7 244.77,60.76 C240.8,64.28 234.65,64.15 230.13,61.82 C227.08,60.24 225.37,57.12 224.11,54.07 C225.49,53.89 226.92,53.15 228.32,53.55 C230.07,55.71 231.56,59.05 234.89,58.73 C238.46,58.92 240.67,54.27 238.65,51.48 C235.81,47.84 231.03,45.63 229.61,40.97 C228.88,37.15 229.83,32.56 233.43,30.48 M271.05,38.29 C276.99,41.38 283.01,44.32 288.94,47.42 C288.46,49.02 287.84,50.57 287.12,52.08 C283.49,50.45 280.02,48.48 276.29,47.06 C274.87,49.58 273.6,52.19 272.6,54.91 C275.95,56.69 279.34,58.4 282.67,60.24 C282.02,61.75 281.37,63.26 280.73,64.77 C277.09,63.31 273.66,61.39 270.1,59.76 C268.21,62.58 266.61,65.59 265.58,68.83 C269.1,70.63 272.58,72.49 276.06,74.35 C275.45,75.89 274.77,77.4 274.04,78.88 C267.82,75.66 261.4,72.79 255.43,69.11 C260.4,58.72 265.74,48.51 271.05,38.29 M80.33,70.33 C84.07,63.23 92.59,60.18 100.24,61.68 C100.11,63.35 99.96,65.02 99.82,66.69 C96.18,66.74 92.04,66.5 89.14,69.12 C85.89,71.79 84.81,76.59 86.72,80.36 C89.08,85.29 93.42,89.98 99.08,90.72 C102.7,91.28 106.48,89.45 108.26,86.25 C110.04,83.53 109.54,80.15 109.98,77.09 C110.93,75.56 113.22,76.41 114.75,76.02 C114.96,79.91 115.23,83.97 113.78,87.67 C111.38,94.04 104.72,98.26 98.01,98.4 C84.26,99.75 72.78,82.19 80.33,70.33 M309.63,69.59 C311.67,68.47 313.81,67.55 316,66.77 C312.66,78.66 308.24,90.23 304.64,102.05 C302.1,100.78 300.03,98.83 298.12,96.78 C299,94.2 299.86,91.61 300.76,89.02 C298.75,86.81 296.53,84.8 294.07,83.11 C291.49,84.48 288.85,85.73 286.16,86.87 C285.08,85.76 284.05,84.61 283.09,83.4 C291.97,78.87 300.83,74.3 309.63,69.59 M297.8,81.07 C299.18,82.33 300.62,83.52 302.1,84.66 C303.06,82.47 303.79,80.2 304.27,77.86 C302.01,78.71 299.85,79.8 297.8,81.07" id="Fill-8" fill="#FFFFFA"></path>
            <path d="M233.2,28.14 C241.93,23.21 255.44,30.77 253.38,41.3 C250.77,41.39 248.17,41.54 245.56,41.69 C244.91,39.84 244.24,38.01 243.57,36.17 C242.32,36.11 241.06,36.05 239.81,36 C239.5,39.95 243.11,41.9 245.65,44.17 C247.94,46.21 249.63,49 250.23,52.02 C250.93,57.3 247.68,62.86 242.62,64.66 C236.59,66.83 228.88,65.42 224.86,60.15 C223.18,58.12 222.44,55.55 221.74,53.06 C224.29,51.84 227.01,50.98 229.82,50.58 C230.82,52.68 231.87,54.75 232.95,56.8 C234.9,56.84 236.65,56.09 238.12,54.83 C237.59,53.87 237.07,52.91 236.5,51.98 C233.54,49.11 229.76,46.83 228.01,42.94 C226.04,37.65 227.71,30.59 233.2,28.14 M233.43,30.48 C229.83,32.56 228.88,37.15 229.61,40.97 C231.03,45.63 235.81,47.84 238.65,51.48 C240.67,54.27 238.46,58.92 234.89,58.73 C231.56,59.05 230.07,55.71 228.32,53.55 C226.92,53.15 225.49,53.89 224.11,54.07 C225.37,57.12 227.08,60.24 230.13,61.82 C234.65,64.15 240.8,64.28 244.77,60.76 C248.42,57.7 249.28,51.59 246.06,47.93 C243.75,44.85 239.95,43.15 238.01,39.79 C236.35,37 238.53,32.71 242.04,33.56 C245.44,33.62 246.45,37.17 247.54,39.73 C248.92,39.28 250.27,38.78 251.61,38.24 C250.16,30.35 240.05,26.4 233.43,30.48" id="Fill-9" fill="#A28C51"></path>
            <path d="M127.01,37.19 C130.69,35.17 134.34,32.9 138.53,32.11 C143.85,43.76 149.82,55.11 154.8,66.91 C151.14,68.98 147.43,71.14 143.28,72.07 C141.08,67.95 139.35,63.6 137.29,59.42 C134.97,58.59 132.9,60.23 130.88,61.11 C131.46,62.47 132.03,63.83 132.65,65.17 C134.29,68.43 136.05,71.64 137.31,75.09 C133.79,77.28 130.05,79.18 126.05,80.35 C123.28,76.07 121.49,71.28 119.28,66.71 C115.95,59.78 112.6,52.86 109.44,45.85 C112.81,43.16 116.91,41.72 120.88,40.19 C122.68,43.56 124.09,47.12 125.79,50.54 C126.2,51.32 126.62,52.1 127.04,52.88 C128.97,51.92 130.89,50.94 132.79,49.93 C132.34,48.95 131.9,47.96 131.44,46.98 C129.81,43.79 128.02,40.65 127.01,37.19 M129.81,38.12 C131.29,42.54 133.68,46.58 135.29,50.95 C132.31,52.69 129.19,54.15 125.97,55.37 C123.66,51.38 121.95,47.08 119.76,43.03 C117.15,43.97 114.64,45.15 112.17,46.4 C116.79,57.04 122.04,67.42 127.09,77.88 C129.66,76.81 132.16,75.58 134.53,74.13 C132.58,69.44 130.18,64.95 128.24,60.25 C131.34,58.62 134.5,57.07 137.8,55.88 C140.25,60.37 141.94,65.27 144.8,69.54 C147.27,68.44 149.69,67.25 152.03,65.88 C147.25,55.42 142.4,44.96 137.05,34.78 C134.57,35.74 132.15,36.85 129.81,38.12" id="Fill-10" fill="#A48C49"></path>
            <path d="M129.81,38.12 C132.15,36.85 134.57,35.74 137.05,34.78 C142.4,44.96 147.25,55.42 152.03,65.88 C149.69,67.25 147.27,68.44 144.8,69.54 C141.94,65.27 140.25,60.37 137.8,55.88 C134.5,57.07 131.34,58.62 128.24,60.25 C130.18,64.95 132.58,69.44 134.53,74.13 C132.16,75.58 129.66,76.81 127.09,77.88 C122.04,67.42 116.79,57.04 112.17,46.4 C114.64,45.15 117.15,43.97 119.76,43.03 C121.95,47.08 123.66,51.38 125.97,55.37 C129.19,54.15 132.31,52.69 135.29,50.95 C133.68,46.58 131.29,42.54 129.81,38.12" id="Fill-11" fill="#FFFFFC"></path>
            <path d="M239.81,36 C241.06,36.05 242.32,36.11 243.57,36.17 C244.24,38.01 244.91,39.84 245.56,41.69 C248.17,41.54 250.77,41.39 253.38,41.3 C250.94,42.59 248.31,43.47 245.65,44.17 C243.11,41.9 239.5,39.95 239.81,36" id="Fill-12" fill="#03317F"></path>
            <path d="M170.68,47.94 C172.7,47.44 174.73,46.99 176.78,46.63 C175.67,47.82 174.09,48.32 172.61,48.88 C172.44,49.86 172.28,50.85 172.11,51.84 C174.88,52.01 177.64,52.07 180.41,52.15 C177.48,52.86 174.53,53.51 171.52,53.69 C171.24,51.78 170.96,49.86 170.68,47.94" id="Fill-13" fill="#374041"></path>
            <path d="M236.5,51.98 C237.07,52.91 237.59,53.87 238.12,54.83 C236.65,56.09 234.9,56.84 232.95,56.8 C234.57,55.55 235.84,53.93 236.5,51.98" id="Fill-14" fill="#424740"></path>
            <path d="M194.26,57.91 C201.29,58.14 208.33,57.86 215.35,58.28 C208.48,60.03 201.29,59.27 194.3,58.85 L194.26,57.91" id="Fill-15" fill="#E1C278"></path>
            <path d="M89.11,60.21 C93.45,58.79 98.09,59.22 102.54,59.67 C102.74,63.01 102.08,66.31 101.46,69.58 C101.16,69.54 100.55,69.45 100.25,69.41 C96.97,68.83 93.35,68.29 90.54,70.56 C87.62,73.05 87.42,77.56 89.31,80.71 C91.19,84.28 94.44,86.94 98.17,88.41 C99.57,89.25 101.5,89.46 102.79,88.3 C107.97,85.92 107.9,79.88 107.27,75.06 C110.06,74.12 112.97,73.58 115.89,73.25 C116.09,73.71 116.47,74.65 116.66,75.11 C116.99,78.61 117.02,82.15 116.67,85.65 C114.39,98.22 98.35,104.24 87.62,98.39 C82.43,95.34 78.52,90.26 76.54,84.61 C73.3,74.84 79.53,63.48 89.11,60.21 M80.33,70.33 C72.78,82.19 84.26,99.75 98.01,98.4 C104.72,98.26 111.38,94.04 113.78,87.67 C115.23,83.97 114.96,79.91 114.75,76.02 C113.22,76.41 110.93,75.56 109.98,77.09 C109.54,80.15 110.04,83.53 108.26,86.25 C106.48,89.45 102.7,91.28 99.08,90.72 C93.42,89.98 89.08,85.29 86.72,80.36 C84.81,76.59 85.89,71.79 89.14,69.12 C92.04,66.5 96.18,66.74 99.82,66.69 C99.96,65.02 100.11,63.35 100.24,61.68 C92.59,60.18 84.07,63.23 80.33,70.33 M216.9,348.08 C219.33,347.6 221.76,347.13 224.18,346.59 C224.32,347.73 224.46,348.86 224.61,350 C225.13,354.84 225.73,359.69 226.98,364.4 C229.44,364.03 231.9,363.61 234.33,363.05 C234.66,365.02 234.95,366.99 235.22,368.97 C234.18,369.25 233.14,369.5 232.09,369.71 C228.01,370.17 223.91,370.44 219.86,371.16 L219.79,370.18 C219.21,362.76 217.27,355.52 216.9,348.08 M217.79,348.93 C218.8,355.96 219.9,362.97 221.09,369.97 C225.46,369.61 229.77,368.78 234.06,367.91 C233.78,366.78 233.49,365.65 233.21,364.53 C230.84,364.93 228.48,365.33 226.11,365.69 C224.57,359.85 224.34,353.77 222.93,347.91 C221.21,348.24 219.5,348.57 217.79,348.93" id="Fill-16" fill="#A48C4D"></path>
            <path d="M130.88,61.11 C132.9,60.23 134.97,58.59 137.29,59.42 C135.93,60.08 134.54,60.72 133.16,61.34 C132.98,62.62 132.81,63.89 132.65,65.17 C132.03,63.83 131.46,62.47 130.88,61.11" id="Fill-17" fill="#323C41"></path>
            <path d="M268.09,67.75 C268.99,65.94 269.92,64.13 270.86,62.34 C273.07,63.41 275.25,64.53 277.42,65.69 C275.23,65.27 273.04,64.81 270.86,64.35 C270.74,65.92 270.64,67.49 270.58,69.07 C269.74,68.63 268.91,68.19 268.09,67.75" id="Fill-18" fill="#2B3B48"></path>
            <path d="M196.29,66.19 C222.86,65.25 249.64,72.62 272.01,86.98 C298.66,103.97 319.15,130.57 328.19,160.91 C338.85,195.71 334.68,234.87 316.42,266.43 C301.73,292.1 278.38,312.75 250.99,323.96 C229.37,332.94 205.38,335.71 182.21,332.77 C152.16,328.84 123.52,314.36 102.83,292.16 C83.03,271.56 70.32,244.33 66.99,215.97 C64.74,195.69 66.69,174.85 73.58,155.59 C84.08,125.42 105.86,99.41 133.6,83.62 C152.63,72.77 174.37,66.54 196.29,66.19 M186.33,71.2 C170.44,72.76 154.91,77.48 140.72,84.78 C112.78,99.05 90.46,123.87 79.2,153.15 C69.16,179.01 67.77,208.08 75.2,234.8 C82.84,262.59 100.16,287.58 123.45,304.54 C145.96,321.15 174.03,330.09 202,329.49 C228.88,329.24 255.59,320.21 277.14,304.14 C300.15,287.17 317.31,262.39 324.86,234.8 C332.41,207.59 330.85,177.9 320.28,151.7 C309.77,125.29 290.2,102.65 265.7,88.28 C242,74.25 213.7,68.2 186.33,71.2 M295.49,313.69 C298.97,316.88 301.75,320.73 304.67,324.42 C305.6,325.65 306.5,326.98 306.82,328.53 C306.83,330.47 306.81,332.4 306.77,334.35 C305.19,340.15 297.31,341.49 292.89,338.29 C295.7,338.61 298.67,339.74 301.44,338.57 C305.59,337.1 307.95,331.45 305.39,327.67 C302.69,323.22 299.33,319.22 296.03,315.22 C295.1,316.09 294.18,316.98 293.27,317.87 C296.08,322.21 299.77,325.96 302.35,330.46 C303.65,333.08 299.55,335.91 297.58,333.64 C293.99,329.91 291.45,325.32 287.98,321.48 C286.52,322.59 285.07,323.7 283.63,324.83 C286.44,328.88 289.73,332.63 292.15,336.95 C288.09,333.4 285.16,328.77 282.2,324.31 C284.17,322.67 286.16,320.97 288.61,320.1 C291.86,324.13 294.5,328.68 298.12,332.4 C298.76,332.47 300.03,332.62 300.66,332.7 C300.77,326.29 293.98,322.86 291.89,317.2 C293.1,316.04 294.31,314.88 295.49,313.69 M187.3,345.87 C189.5,349.68 190.37,354.02 191.68,358.17 C193.09,363.02 194.94,367.75 195.95,372.71 C193.57,372.61 191.21,372.46 188.85,372.23 C187.72,369.91 187.07,366.52 183.98,366.2 C182.73,367.73 181.5,369.28 180.25,370.81 C178.68,370.65 177.09,370.71 175.52,370.94 C175.9,367.7 177.68,364.91 179.12,362.06 C181.94,356.71 184.38,351.17 187.3,345.87 M187.21,348.79 C183.48,355.77 179.56,362.73 176.8,370.16 C177.58,370.18 179.13,370.21 179.9,370.23 C180.74,368.62 181.58,367.01 182.4,365.4 C184.11,365.63 185.81,365.9 187.51,366.21 C188.07,367.81 188.65,369.41 189.23,371.01 C190.98,371.2 192.74,371.35 194.51,371.46 C192.51,363.79 190.33,356.08 187.21,348.79" id="Fill-19" fill="#BA8A1D"></path>
            <path d="M90.54,70.56 C93.35,68.29 96.97,68.83 100.25,69.41 C97.09,70.28 93.81,70.57 90.54,70.56" id="Fill-20" fill="#2A3843"></path>
            <path d="M116.66,75.11 C119.73,77.42 118.01,82.48 117.78,85.86 L116.67,85.65 C117.02,82.15 116.99,78.61 116.66,75.11" id="Fill-21" fill="#1D2F44"></path>
            <path d="M297.8,81.07 C299.85,79.8 302.01,78.71 304.27,77.86 C303.79,80.2 303.06,82.47 302.1,84.66 C300.62,83.52 299.18,82.33 297.8,81.07" id="Fill-22" fill="#B3944A"></path>
            <path d="M98.17,88.41 C99.29,87.25 101.63,87.15 102.79,88.3 C101.5,89.46 99.57,89.25 98.17,88.41" id="Fill-23" fill="#514E34"></path>
            <path d="M207.89,108.71 C206.45,102.86 211.53,98.8 216.09,96.42 C214.25,100.22 213.48,104.4 213.43,108.6 C211.58,108.64 209.73,108.68 207.89,108.71 M194.83,113.34 L195.52,113.33 C198.74,113.44 203.18,112.63 204.89,116.18 C207.94,121.64 204.07,128.79 198.2,130.2 C200.07,126.94 202.26,123.12 200.71,119.28 C199.98,116.78 197.06,116.54 195.01,115.75 C194.96,115.15 194.87,113.94 194.83,113.34" id="Fill-24" fill="#596DB1"></path>
            <path d="M128.85,113.69 C130.26,108.76 134.03,104.44 138.94,102.78 C135.35,106.48 131.64,110.7 131.13,116.06 C130.21,121.86 132.44,127.59 135.8,132.22 C129.3,128.85 127.07,120.41 128.85,113.69 M155.98,292.4 C158.52,292.21 161.07,292.21 163.62,292.18 C163.39,294.49 163.17,296.81 163.09,299.14 C162.52,298.78 161.37,298.05 160.8,297.68 C160.08,295.07 159.2,292.39 155.98,292.4" id="Fill-25" fill="#586EB1"></path>
            <path d="M160.69,110.18 C164.24,110.49 165.85,114.05 167.13,116.9 C169.26,122.72 168.32,129.62 164.56,134.58 C162.07,138.13 158.27,140.4 154.5,142.38 C152.73,141.08 150.79,140.02 148.87,138.96 C149.81,136.01 153.17,135.19 155.26,133.25 C162.09,127.94 164.14,118 160.69,110.18 M286.09,187.94 C290.28,189.39 293.17,193.56 293.17,197.99 C293.61,204.26 289.07,210.01 283.38,212.23 C283.13,209.68 282.79,207.14 281.9,204.73 C286.75,200.67 288.68,193.83 286.09,187.94 M197.37,273.42 C199.64,270.5 203.28,269.3 206.57,267.92 C209.28,269.25 212.05,270.43 214.84,271.58 C210.7,273.68 205.67,274.84 202.87,278.86 C199.63,283.31 199.67,289.21 196.82,293.83 C194.64,297.37 190.03,296.43 186.71,297.84 C185.4,299.83 185.03,302.3 184.07,304.47 C181.86,303.13 179.82,301.53 178.07,299.64 C179,297.4 179.15,294.64 180.94,292.88 C184.03,291.55 188.33,292.55 190.49,289.47 C193.72,284.54 193.67,278.1 197.37,273.42" id="Fill-26" fill="#D3D3D6"></path>
            <path d="M143.13,112.6 C146.63,109.92 152.12,110.64 154.21,114.72 C156.98,120.55 152.81,127.44 147.42,130.04 C146.79,126.75 144.4,124.48 141.87,122.52 C144.8,122.32 149.37,122.69 149.64,118.66 C150.33,114.72 146.17,113.27 143.13,112.6" id="Fill-27" fill="#596DB2"></path>
            <path d="M143.13,112.6 C146.17,113.27 150.33,114.72 149.64,118.66 C149.37,122.69 144.8,122.32 141.87,122.52 C141.11,120.62 139.65,118.61 140.47,116.48 C141.17,115.07 142.21,113.87 143.13,112.6" id="Fill-28" fill="#D2D3D9"></path>
            <path d="M223.43,119.05 C223.92,116.19 227.31,117.59 229.34,117.32 C230.08,119.8 232.01,121.49 233.94,123.07 C230.13,125.14 225.81,121.95 223.43,119.05" id="Fill-29" fill="#CDD3E0"></path>
            <path d="M231.74,117.18 C233.3,117.08 234.86,116.99 236.42,116.91 C235.88,118.31 235.33,119.7 234.78,121.1 C232.61,120.86 231.41,119.35 231.74,117.18" id="Fill-30" fill="#B4C8EB"></path>
            <path d="M251.82,119.28 C253.75,121.03 256.72,122.3 257.34,125.01 C256.05,128.3 253.6,130.96 251.89,134.02 C250.23,133.56 248.6,133.02 246.93,132.65 C246.27,133.52 245.79,134.49 245.5,135.56 C242.77,133.23 240.77,137.17 239.41,139.07 C237.24,139.21 235.06,139.16 232.89,138.97 C232.13,135.4 233.94,131.52 237.24,129.94 C239.63,128.8 241.37,131.51 243.16,132.67 C246.16,128.29 249.85,124.29 251.82,119.28 M219.21,296.6 C220.64,295.72 222.16,294.91 223.86,294.72 C224.54,294.84 225.91,295.09 226.59,295.21 C227.34,296.64 228.1,298.08 228.88,299.5 C225.49,300.38 224.22,303.66 222.84,306.49 C220.18,303.87 219.97,300.03 219.21,296.6" id="Fill-31" fill="#D3D3D7"></path>
            <path d="M185.08,133.83 C184.65,132.06 185.29,130.33 185.88,128.68 C187.43,134.23 193.04,136.48 197.78,138.65 C197.08,145.17 193.38,150.74 190.32,156.36 C188.75,158.58 190.13,161.23 190.12,163.67 C189.79,168.03 187.08,172.45 182.5,173.24 C181.92,169.82 181.94,166.07 179.86,163.14 C176.84,158.87 172.77,155.51 168.92,152.03 C173.63,152.4 178.3,153.22 183.02,153.47 C186.1,149.6 188.7,145.38 190.99,141 C188.71,138.94 185.52,137.18 185.08,133.83 M263.37,144.25 C269.71,142.34 276.53,148.45 275.88,154.88 C275.37,158.62 272.85,161.68 270.23,164.23 C264.94,169.26 258.63,173.36 254.48,179.48 C251.41,183.85 251.26,189.81 253.45,194.59 C257.19,202.74 265.14,208.24 268.13,216.82 C269.61,221.4 269.64,226.84 266.91,230.97 C263.96,235.22 258.24,236.66 253.36,235.66 C246.98,234.47 241.66,229.86 238.93,224.07 C240.54,225.45 242.23,226.76 243.99,227.97 C248.47,230.5 254.37,231.82 259.09,229.2 C262.88,227.1 264.01,222.15 262.77,218.23 C260.98,212.08 255.96,207.74 252.25,202.76 C247.38,196.58 244.17,187.94 247.23,180.25 C251.27,171.09 260.59,166.23 266.83,158.85 C268.39,157.16 268.91,154.87 268.99,152.63 C267.94,149.33 264.62,147.08 261.18,148.3 C259.78,149.19 258.41,150.13 257.09,151.12 C258.59,148.41 260.05,145.06 263.37,144.25 M141.35,164.81 C142.77,164.98 144.21,165.12 145.64,165.27 C145.99,177.5 145.22,189.75 145.98,201.96 C147.1,201.8 148.23,201.62 149.36,201.44 C151.38,200.95 153.36,200.26 155.23,199.35 C160.52,196.38 165.29,192.59 170.36,189.28 C174.66,186.55 179.21,184.22 183.52,181.5 C187.59,182.84 191.88,183.16 196.13,183.47 C190.08,187.85 183.36,191.13 176.95,194.93 C171.58,197.88 166.42,201.21 161.03,204.11 C154.34,207.71 146.48,205.61 139.36,207.31 C135.82,208.5 132.14,211.04 131.55,215 L131.25,216.12 C129.59,215.29 130.68,213.25 130.86,211.89 C131.99,206.68 137.34,204.52 141.44,202.05 C141.45,189.64 141.55,177.23 141.35,164.81 M211.26,204.95 C214.54,206.41 218.27,208.32 219.06,212.21 C220.26,216.27 217.44,220.08 214.18,222.18 C204.32,228.74 192.03,231.08 183.04,239.05 C180.4,241.18 178.85,244.52 179.31,247.93 C179.28,252.25 183.77,254.09 186.74,256.24 C184.9,264.27 183.03,273.79 175.4,278.39 C168.2,282.57 159.45,278.09 151.9,280.96 C149.91,281.72 148.58,283.82 148.79,285.96 C148.98,289.98 149.61,293.97 149.9,297.98 C148.65,296.63 147.88,294.94 148,293.07 C147.96,288.65 147.02,283.58 149.99,279.83 C152.09,278.39 154.48,277.42 156.95,276.82 C162.7,276.74 169.98,279.37 174.44,274.41 C177.87,269.78 179.04,263.77 179.31,258.12 C178.13,254.86 173.7,253.5 172.92,249.84 C171.55,242.82 176.28,236.61 180.92,231.92 C187.08,226.14 194.04,220.96 201.9,217.77 C205.22,216.57 209.62,216.78 211.82,213.62 C212.34,210.73 211.55,207.82 211.26,204.95 M214.79,245.69 C217.36,245.71 220.03,245.62 222.49,246.49 C225.01,248.75 225.47,252.7 228.3,254.71 C231.49,256.05 235.16,255.36 238.36,256.62 C241.15,258.83 242.19,262.57 242.34,265.99 C242.5,272.05 239.79,277.7 236.75,282.79 C230.42,283.44 223.37,282.09 217.74,285.73 C212.89,289.03 215.84,295.46 215.82,300.2 C213.37,295.88 213.17,289.98 215.5,285.59 C219.59,280.63 226.73,281.41 232.45,280.4 C234.27,280.31 234.55,278.25 234.95,276.86 C235.46,273.94 235.42,270.9 234.92,267.98 C234.64,266.7 234.32,265.44 234,264.18 C232.4,263.67 230.79,263.17 229.2,262.62 C223.79,260.5 219.53,256.06 216.95,250.93 C216.15,249.21 215.46,247.45 214.79,245.69" id="Fill-32" fill="#5A6DB2"></path>
            <path d="M251.89,134.02 C255.91,135.32 259.2,131.86 262.33,129.93 C261.58,134.27 258.94,138.45 254.43,139.56 C253.18,139.39 251.93,139.21 250.68,139 C248.88,137.96 247.21,136.74 245.5,135.56 C245.79,134.49 246.27,133.52 246.93,132.65 C248.6,133.02 250.23,133.56 251.89,134.02" id="Fill-33" fill="#EA0E16"></path>
            <path d="M141.23,137.84 C142.75,137.94 144.28,138.02 145.81,138.11 C145.81,138.82 145.8,140.25 145.8,140.96 C144.27,140.91 142.74,140.85 141.21,140.82 C141.21,140.07 141.22,138.58 141.23,137.84" id="Fill-34" fill="#536EB5"></path>
            <path d="M148.87,138.96 C150.79,140.02 152.73,141.08 154.5,142.38 C155.8,143.84 156.92,145.45 158.04,147.05 C155.36,146.14 152.48,145.53 150.16,143.85 C149.2,142.42 149.21,140.59 148.87,138.96" id="Fill-35" fill="#5A6EAE"></path>
            <path d="M250.68,139 C251.93,139.21 253.18,139.39 254.43,139.56 C255.95,140.06 257.41,140.73 258.9,141.35 C257.75,142.62 256.73,143.98 255.79,145.4 C254.21,144.63 252.58,143.95 251.18,142.89 C250.72,141.65 250.78,140.3 250.68,139" id="Fill-36" fill="#D7D3D5"></path>
            <path d="M41.32,141.3 C48.68,139.06 57.37,141.8 61.85,148.12 C66.99,154.97 66.6,165.41 60.72,171.7 C55.75,177.37 47.17,179.49 40.14,176.74 C33.6,174.3 28.73,167.97 28.11,161.01 C27.16,152.42 33,143.67 41.32,141.3 M38.41,145.28 C39.52,145.8 40.57,146.99 41.91,146.66 C45.77,145.89 49.67,145.35 53.56,144.77 C48.89,142.02 42.98,142.64 38.41,145.28 M33.37,150.06 C39.76,153.17 45.83,156.85 52.05,160.28 C52.44,158.58 52.81,156.88 53.17,155.17 C48.33,151.26 42.83,148.17 36.85,146.37 C35.66,147.57 34.5,148.8 33.37,150.06 M43.73,147.15 C45.27,148.42 46.82,150.27 49.05,149.91 C52.54,149.74 56.04,149.58 59.54,149.41 C58.71,148.4 57.81,147.49 56.82,146.65 C52.49,145.73 48.02,146.27 43.73,147.15 M49.76,150.99 C51.12,152.19 52.47,153.44 54.09,154.29 C56.76,154.51 59.44,154.31 62.11,154.22 C61.66,153.17 61.21,152.13 60.75,151.1 C57.12,150.45 53.4,150.45 49.76,150.99 M30.88,156.74 C36.75,160.7 43.17,163.94 49.97,165.97 C50.15,164.34 52.11,162.07 50.27,160.83 C44.76,157.05 38.83,153.84 32.68,151.21 C31.84,152.97 31.24,154.82 30.88,156.74 M59.62,155.2 C59.12,161.93 56.37,168.05 53.11,173.84 C60.38,171.36 63.86,163.14 62.79,155.9 C61.73,155.66 60.68,155.43 59.62,155.2 M47.96,172.01 C48.53,172.45 49.66,173.31 50.23,173.75 C55.8,169.46 57.71,162.21 58.46,155.55 C57.53,155.5 55.67,155.41 54.74,155.36 C52.99,161.11 50.81,166.72 47.96,172.01 M30.49,158.31 C30.76,160.71 30.35,163.84 32.62,165.42 C36.75,168.63 41.73,170.64 46.9,171.37 C47.65,169.94 48.39,168.5 49.12,167.06 C42.67,164.66 36.62,161.4 30.49,158.31 M33.53,167.98 C33.07,169.36 33.53,169.89 34.93,169.56 C35.41,168.17 34.94,167.64 33.53,167.98 M36.3,169.43 C36.43,172.45 39.05,173.8 41.62,174.47 C41.68,171.32 39.09,169.84 36.3,169.43 M41.84,171.78 C42.55,172.92 43.15,174.18 44.17,175.11 C45.94,175.8 47.88,175.34 49.71,175.22 C48.04,172.47 44.85,171.7 41.84,171.78" id="Fill-37" fill="#FDF7FB"></path>
            <path d="M348.32,141.28 C359.26,137.67 372.03,146.37 372.23,157.98 C373.27,167.63 365.47,176.92 355.86,177.79 C345.49,179.41 334.89,170.62 334.97,160.04 C334.22,151.61 340.28,143.53 348.32,141.28 M345.14,145.27 C346.28,145.84 347.4,147.01 348.8,146.65 C352.67,145.89 356.57,145.33 360.48,144.76 C355.73,142.05 349.79,142.69 345.14,145.27 M340.23,150.08 C346.61,153.21 352.67,156.93 358.94,160.25 C359.28,158.61 360.29,156.97 359.98,155.26 C355.37,151.11 349.67,148.38 343.84,146.38 C342.61,147.58 341.41,148.81 340.23,150.08 M350.61,147.13 C351.97,148.22 353.2,149.94 355.12,149.9 C358.86,149.83 362.6,149.55 366.35,149.58 C365.57,148.58 364.81,147.57 363.88,146.73 C359.51,145.66 354.95,146.26 350.61,147.13 M356.68,150.99 C358.03,152.21 359.34,153.57 361.02,154.35 C363.68,154.5 366.34,154.32 369,154.2 C368.57,153.2 368.14,152.19 367.72,151.19 C364.09,150.42 360.34,150.42 356.68,150.99 M339.11,151.78 C338.35,153.37 338.02,155.1 337.67,156.81 C343.49,160.63 349.79,163.68 356.35,165.99 C357.03,164.63 357.69,163.26 358.34,161.89 C353.69,158.22 348.4,155.43 343.14,152.76 C341.83,152.39 340.49,151.08 339.11,151.78 M361.07,156.96 C359.44,162.15 357.34,167.17 354.85,172.01 C355.43,172.47 356.57,173.39 357.15,173.85 C362.63,169.33 364.93,162.07 365.01,155.17 C363.65,155.56 361.44,155.1 361.07,156.96 M366.43,155.06 C365.85,162.08 363.36,168.75 359.04,174.32 C366.42,172 371.07,163.82 369.58,156.28 C368.86,155.28 367.46,155.45 366.43,155.06 M337.54,158.46 C337.65,160.65 337.2,163.38 339.01,165.03 C342.92,168.41 347.91,170.32 352.93,171.32 C354.74,170.81 355.05,168.48 356,167.08 C349.6,164.73 343.62,161.48 337.54,158.46 M340.39,168.08 C339.99,169.47 340.48,169.97 341.87,169.59 C342.28,168.18 341.78,167.67 340.39,168.08 M343.26,169.48 C343.4,172.5 345.86,173.95 348.54,174.49 C348.47,171.42 346.06,169.84 343.26,169.48 M348.75,171.67 C349.41,172.82 349.94,174.1 350.9,175.06 C352.5,175.68 354.27,175.49 355.96,175.61 C355.55,172.18 351.46,171.84 348.75,171.67" id="Fill-38" fill="#FDF8FD"></path>
            <path d="M38.41,145.28 C42.98,142.64 48.89,142.02 53.56,144.77 C49.67,145.35 45.77,145.89 41.91,146.66 C40.57,146.99 39.52,145.8 38.41,145.28" id="Fill-39" fill="#C6363B"></path>
            <path d="M345.14,145.27 C349.79,142.69 355.73,142.05 360.48,144.76 C356.57,145.33 352.67,145.89 348.8,146.65 C347.4,147.01 346.28,145.84 345.14,145.27" id="Fill-40" fill="#C63136"></path>
            <path d="M137.07,143.99 C141.28,142.71 144.54,146.17 147.13,148.94 C143.71,149.48 140.23,149.51 136.8,149.07 C136.85,147.37 136.95,145.68 137.07,143.99" id="Fill-41" fill="#576DB5"></path>
            <path d="M239.33,144.01 C241.2,144.06 243.08,144.1 244.95,144.15 C245.27,147.69 245.57,151.22 245.85,154.76 C242.34,152.98 238.04,149.12 234.14,152.15 C229.69,155.18 231.06,161.17 231.8,165.65 C229.03,164.41 226.41,162.37 225.72,159.26 C224.52,155.12 224.36,149.08 228.8,146.82 C232.8,144.99 236.63,148.15 239.92,150.07 C239.68,148.05 239.43,146.04 239.33,144.01 M241.28,166.86 C241.44,167.28 241.76,168.12 241.92,168.54 C243.1,168.08 244.29,167.62 245.48,167.17 C247.4,171.15 248.32,176.53 245.06,180.07 C242.07,183.67 237.04,183.65 232.81,184.29 C232.21,190.3 236.26,195.3 236.99,201.1 C238.34,210.28 240.23,219.44 243.99,227.97 C242.23,226.76 240.54,225.45 238.93,224.07 C233.88,215.23 232.45,205.02 230.84,195.13 C230.14,189.57 225.73,185.07 226.64,179.21 C230.8,178.97 235.6,179.01 238.68,175.69 C241.15,173.47 241.23,169.93 241.28,166.86" id="Fill-42" fill="#D2D3D8"></path>
            <path d="M285.07,144.91 C290.05,146.65 292.59,151.96 292.4,156.99 C292.69,162.89 289.23,168.16 285.08,172.04 C281.73,175.04 278.12,177.72 274.75,180.68 C268.69,180.28 263.42,183.46 258.71,186.85 C259.96,184.21 261.42,181.6 263.63,179.63 C270.39,173.4 279.17,169.11 284.11,161.07 C287.13,156.24 287.12,150.1 285.07,144.91 M263.21,201.01 C264.09,198.5 265.32,195.66 268.26,195.1 C271.98,193.69 275.61,196.3 277.03,199.67 C274.95,200.21 272.41,200.18 270.94,201.99 C269.15,203.91 269.2,207.09 271.12,208.9 C275.37,213.82 280.03,218.78 281.79,225.23 C283.51,230.7 282.82,237.35 278.43,241.41 C273.1,247.07 264.45,247.32 257.37,245.54 C252.87,244.27 248.01,242.6 245.14,238.66 C252.69,241.64 261.76,243.23 269.23,239.22 C275.53,235.9 278.06,227.84 276.01,221.23 C274.14,213.18 267.83,207.49 263.21,201.01 M172.03,223.48 C181.77,221.28 189.16,214.12 195.23,206.61 C196.69,209.3 198.09,212.02 199.77,214.59 C193.04,219.82 186.91,226.59 178.12,228.23 C175.84,226.63 173.73,224.47 170.95,223.83 C166.55,223.8 161.9,225.72 159.19,229.25 C157.93,232.21 156.43,235.08 155.13,238.03 C154.75,243.69 154.95,249.39 154.99,255.06 C154.86,258.38 158.93,260.46 157.87,263.92 C157.12,268.18 156.74,272.49 156.95,276.82 C154.48,277.42 152.09,278.39 149.99,279.83 C147.81,278.99 145.77,277.69 145.02,275.36 C147.29,274.26 150.29,273.51 151.21,270.84 C151.71,268.22 150.79,265.54 151.33,262.93 C151.81,260.48 152.05,257.99 152.07,255.5 C151.02,254.37 149.04,253.66 149.07,251.88 C148.76,244.92 149.21,237.95 148.93,230.99 C149.53,230.83 150.72,230.53 151.32,230.37 C151.16,222.99 159.05,218.3 165.75,219.28 C168.2,220.04 170.03,221.97 172.03,223.48 M198.53,255.62 C201.37,249.48 208.41,246.49 214.79,245.69 C215.46,247.45 216.15,249.21 216.95,250.93 C212.99,252.72 208.68,254.36 205.87,257.85 C204.28,259.79 204.21,262.43 203.74,264.8 C200.24,263.38 196.79,259.6 198.53,255.62 M153.8,293.77 C154.35,293.42 155.44,292.74 155.98,292.399972 C159.2,292.39 160.08,295.07 160.8,297.68 C159.37,299.57 158.03,301.51 156.68,303.45 C153.2,301.52 153.99,297.09 153.8,293.77 M164.94,298.79 C165.68,295.98 167.6,293.76 170.09,292.32 C172.1,293.66 173.57,295.59 175.02,297.49 C172.82,299.79 171.25,302.58 169.87,305.42 C167.66,303.68 165.97,301.41 164.94,298.79 M232.07,299.82 C233.26,297.46 234.68,294.66 237.79,294.87 C239.12,296.25 240.49,297.6 241.82,298.99 L242.3,299.53 C240.14,301.54 238.42,303.93 236.81,306.39 C234.79,304.54 233.33,302.22 232.07,299.82" id="Fill-43" fill="#D2D3D7"></path>
            <path d="M33.37,150.06 C34.5,148.8 35.66,147.57 36.85,146.37 C42.83,148.17 48.33,151.26 53.17,155.17 C52.81,156.88 52.44,158.58 52.05,160.28 C45.83,156.85 39.76,153.17 33.37,150.06 M337.54,158.46 C343.62,161.48 349.6,164.73 356,167.08 C355.05,168.48 354.74,170.81 352.93,171.32 C347.91,170.32 342.92,168.41 339.01,165.03 C337.2,163.38 337.65,160.65 337.54,158.46" id="Fill-44" fill="#EF0C14"></path>
            <path d="M43.73,147.15 C48.02,146.27 52.49,145.73 56.82,146.65 C57.81,147.49 58.71,148.4 59.54,149.41 C56.04,149.58 52.54,149.74 49.05,149.91 C46.82,150.27 45.27,148.42 43.73,147.15" id="Fill-45" fill="#E31219"></path>
            <path d="M340.23,150.08 C341.41,148.81 342.61,147.58 343.84,146.38 C349.67,148.38 355.37,151.11 359.98,155.26 C360.29,156.97 359.28,158.61 358.94,160.25 C352.67,156.93 346.61,153.21 340.23,150.08" id="Fill-46" fill="#EF0D14"></path>
            <path d="M350.61,147.13 C354.95,146.26 359.51,145.66 363.88,146.73 C364.81,147.57 365.57,148.58 366.35,149.58 C362.6,149.55 358.86,149.83 355.12,149.9 C353.2,149.94 351.97,148.22 350.61,147.13" id="Fill-47" fill="#DC151B"></path>
            <path d="M261.18,148.3 C264.62,147.08 267.94,149.33 268.99,152.63 C265.84,153.99 263.26,156.28 261.08,158.88 C261.32,155.36 261.41,151.83 261.18,148.3" id="Fill-48" fill="#D3D3D8"></path>
            <path d="M49.76,150.99 C53.4,150.45 57.12,150.45 60.75,151.1 C61.21,152.13 61.66,153.17 62.11,154.22 C59.44,154.31 56.76,154.51 54.09,154.29 C52.47,153.44 51.12,152.19 49.76,150.99" id="Fill-49" fill="#E1131A"></path>
            <path d="M138.14,151.45 C141.37,151.41 144.42,152.72 147.23,154.2 C144.18,156.17 140.2,157.25 136.66,156.06 C136.99,154.5 136.1,152.05 138.14,151.45" id="Fill-50" fill="#566DB5"></path>
            <path d="M356.68,150.99 C360.34,150.42 364.09,150.42 367.72,151.19 C368.14,152.19 368.57,153.2 369,154.2 C366.34,154.32 363.68,154.5 361.02,154.35 C359.34,153.57 358.03,152.21 356.68,150.99" id="Fill-51" fill="#E21219"></path>
            <path d="M30.88,156.74 C31.24,154.82 31.84,152.97 32.68,151.21 C38.83,153.84 44.76,157.05 50.27,160.83 C52.11,162.07 50.15,164.34 49.97,165.97 C43.17,163.94 36.75,160.7 30.88,156.74 M44.46,236.43 C47.18,234.48 51.52,236.61 51.56,239.97 C51.89,243.41 47.7,246.2 44.71,244.33 C41.67,242.85 41.33,238 44.46,236.43 M51.91,244.48 C55.55,244.71 60.3,246.19 61.55,250.01 C60.6,252.54 57.59,253.11 55.64,254.67 C53.61,255.72 51.88,257.99 49.4,257.7 C46.21,255.01 47.64,250.29 48.12,246.74 C49.94,247.59 51.48,248.87 53.03,250.12 C52.65,248.24 52.24,246.37 51.91,244.48" id="Fill-52" fill="#F10B13"></path>
            <path d="M339.11,151.78 C340.49,151.08 341.83,152.39 343.14,152.76 C348.4,155.43 353.69,158.22 358.34,161.89 C357.69,163.26 357.03,164.63 356.35,165.99 C349.79,163.68 343.49,160.63 337.67,156.81 C338.02,155.1 338.35,153.37 339.11,151.78 M31.35,249 C31.27,244.33 37.89,243.89 41.44,243.63 C40.79,245.54 40.03,247.41 39.34,249.31 C40.98,248.28 42.56,247.15 44.15,246.04 C45.39,249.1 45.19,252.77 43.8,255.74 C42.97,257.58 40.26,257.2 39.14,255.86 C36.72,253.37 33.6,251.64 31.35,249" id="Fill-53" fill="#F10C13"></path>
            <path d="M59.62,155.2 C60.68,155.43 61.73,155.66 62.79,155.9 C63.86,163.14 60.38,171.36 53.11,173.84 C56.37,168.05 59.12,161.93 59.62,155.2" id="Fill-54" fill="#E11219"></path>
            <path d="M361.07,156.96 C361.44,155.1 363.65,155.56 365.01,155.17 C364.93,162.07 362.63,169.33 357.15,173.85 C356.57,173.39 355.43,172.47 354.85,172.01 C357.34,167.17 359.44,162.15 361.07,156.96" id="Fill-55" fill="#EB0F16"></path>
            <path d="M366.43,155.06 C367.46,155.45 368.86,155.28 369.58,156.28 C371.07,163.82 366.42,172 359.04,174.32 C363.36,168.75 365.85,162.08 366.43,155.06" id="Fill-56" fill="#E41118"></path>
            <path d="M47.96,172.01 C50.81,166.72 52.99,161.11 54.74,155.36 C55.67,155.41 57.53,155.5 58.46,155.55 C57.71,162.21 55.8,169.46 50.23,173.75 C49.66,173.31 48.53,172.45 47.96,172.01" id="Fill-57" fill="#E90F16"></path>
            <path d="M138,158.93 C140.82,157.58 143.82,158.8 146.09,160.62 C143.52,161.64 140.79,162.13 138.04,162.12 C138.03,161.32 138.01,159.72 138,158.93" id="Fill-58" fill="#556DB6"></path>
            <path d="M30.49,158.31 C36.62,161.4 42.67,164.66 49.12,167.06 C48.39,168.5 47.65,169.94 46.9,171.37 C41.73,170.64 36.75,168.63 32.62,165.42 C30.35,163.84 30.76,160.71 30.49,158.31 M360.89,243.67 C364,243.78 367.24,244.29 369.82,246.15 C371.65,247 371.04,249.71 369.54,250.58 C367.33,252.34 365.11,254.09 363.01,255.99 C361.88,257.38 359.02,257.43 358.39,255.53 C357.25,252.89 357.22,249.93 357.28,247.11 C359.44,246.1 361.02,248.52 362.86,249.26 C362.21,247.39 361.49,245.55 360.89,243.67" id="Fill-59" fill="#F00C14"></path>
            <path d="M149.29,166.04 C153.97,167.11 158.68,168.16 163.16,169.93 C163.56,170.85 163.95,171.79 164.33,172.72 C161.28,172.1 158.22,171.55 155.15,171.07 C154.84,180.49 154.92,189.93 155.23,199.35 C153.36,200.26 151.38,200.95 149.36,201.44 C149.21,189.64 149.28,177.84 149.29,166.04" id="Fill-60" fill="#D1D3D8"></path>
            <path d="M33.53,167.98 C34.94,167.64 35.41,168.17 34.93,169.56 C33.53,169.89 33.07,169.36 33.53,167.98" id="Fill-61" fill="#BC7D80"></path>
            <path d="M340.39,168.08 C341.78,167.67 342.28,168.18 341.87,169.59 C340.48,169.97 339.99,169.47 340.39,168.08" id="Fill-62" fill="#C86D70"></path>
            <path d="M36.3,169.43 C39.09,169.84 41.68,171.32 41.62,174.47 C39.05,173.8 36.43,172.45 36.3,169.43" id="Fill-63" fill="#C33539"></path>
            <path d="M163.16,169.93 C165.78,171.12 168.84,173.42 167.83,176.73 C167.21,180.53 162.33,179.45 159.58,180.29 C161.27,179.07 163.4,178.26 164.61,176.48 C164.86,175.23 164.54,173.96 164.33,172.72 C163.95,171.79 163.56,170.85 163.16,169.93" id="Fill-64" fill="#566DAF"></path>
            <path d="M343.26,169.48 C346.06,169.84 348.47,171.42 348.54,174.49 C345.86,173.95 343.4,172.5 343.26,169.48" id="Fill-65" fill="#CE3439"></path>
            <path d="M41.84,171.78 C44.85,171.7 48.04,172.47 49.71,175.22 C47.88,175.34 45.94,175.8 44.17,175.11 C43.15,174.18 42.55,172.92 41.84,171.78" id="Fill-66" fill="#CC2B30"></path>
            <path d="M348.75,171.67 C351.46,171.84 355.55,172.18 355.96,175.61 C354.27,175.49 352.5,175.68 350.9,175.06 C349.94,174.1 349.41,172.82 348.75,171.67" id="Fill-67" fill="#CA1D23"></path>
            <path d="M174.06,183.02 C176.87,181.69 178.92,179.29 180.96,177.02 C181.83,178.5 182.69,179.99 183.52,181.5 C179.21,184.22 174.66,186.55 170.36,189.28 C168.52,187.64 166.67,186.01 164.71,184.52 C167.86,184.42 171.18,184.49 174.06,183.02" id="Fill-68" fill="#CDD3DF"></path>
            <path d="M265.11,193.13 C268.82,188.43 276.94,188.72 280.28,193.73 C283.2,197.03 281.77,201.63 281.15,205.5 C280.02,206.53 278.49,206.91 277.14,207.54 C277.13,204.91 277.29,202.28 277.03,199.67 C275.61,196.3 271.98,193.69 268.26,195.1 C265.32,195.66 264.09,198.5 263.21,201.01 C263.18,198.31 263.18,195.27 265.11,193.13 M138.35,219.77 C139.67,219.38 141.01,219.06 142.35,218.75 C141.95,221.05 141.58,223.36 141.29,225.68 C143.58,224.61 145.93,223.65 148.35,222.92 C148.56,225.32 148.76,227.72 148.89,230.13 C147.88,229.06 146.87,227.99 145.85,226.93 C145.41,235.95 145.84,244.99 145.75,254.01 C145.56,255.48 145.88,257.51 144.22,258.25 C142.18,259.03 139.96,259.1 137.82,259.4 C137.76,257.93 137.69,256.46 137.62,254.99 C138.81,254.54 140.01,254.1 141.21,253.67 C141.78,246.46 141.3,239.21 141.5,231.98 C141.9,227.61 139.17,223.92 138.35,219.77" id="Fill-69" fill="#5A6DB1"></path>
            <path d="M132.84,214.54 C134.71,214.02 136.64,213.89 138.57,213.71 C137.18,216.07 136.06,218.59 135.53,221.29 L135.22,222.49 C134.29,219.87 134.24,216.97 132.84,214.54" id="Fill-70" fill="#6C81B9"></path>
            <path d="M37.67,225.62 C38.59,223.72 39.42,220.86 41.99,220.84 C45.87,220.98 49.73,221.45 53.62,221.51 C56.41,221.62 57.35,224.51 58.21,226.67 C60.35,227.21 63.36,227.49 64.06,230.04 C64.88,233.75 65.94,237.4 66.92,241.08 C67.52,243.66 65.19,245.36 63.32,246.57 C63.51,248.98 64.22,252.18 61.74,253.69 C58.59,255.51 55.56,257.51 52.51,259.48 C50.24,260.92 47.84,259.26 45.93,258.04 C43.81,258.7 41.48,260.06 39.29,258.87 C37.1,257.38 35.36,255.33 33.18,253.83 C31.73,252.63 29.81,251.71 29.18,249.81 C28.82,247.99 29.46,246.2 29.77,244.43 C28.08,242.85 25.9,240.73 27.06,238.2 C28.55,234.87 29.84,231.47 31.08,228.05 C32.13,225.39 35.3,225.52 37.67,225.62 M40.4,224.48 C39.84,227.94 42.53,230.87 44.39,233.51 C46.82,234.27 46.36,230.16 47.48,228.79 C48.21,230.48 48.62,232.28 49.08,234.07 C51.92,233.05 53.65,230.35 54.95,227.77 C55.86,226.5 55.46,224.41 53.85,223.96 C51.06,223.17 48.09,223.61 45.23,223.31 C43.58,223.34 41.35,222.65 40.4,224.48 M30.63,235.68 C30.01,237.47 28.43,239.43 29.6,241.34 C32.8,243.49 36.72,241.3 40.11,240.71 C39.65,238.72 38.01,237.48 36.68,236.08 C38.36,235.9 40.48,237.08 41.83,235.68 C40.81,232.12 38.35,228.92 34.97,227.33 C32.3,229.36 32,232.85 30.63,235.68 M52.56,237.17 C54.42,237.25 56.29,237.28 58.15,237.35 C56.88,238.77 53.33,239.27 54.29,241.66 C56.66,242.97 59.25,243.98 61.96,244.230052 C63.58,244.24 65.11,242.82 64.57,241.15 C63.67,237.76 62.83,234.35 61.91,230.96 C61.59,229.5 59.34,228.84 58.19,229.79 C55.64,231.57 53.26,234.03 52.56,237.17 M44.46,236.43 C41.33,238 41.67,242.85 44.71,244.33 C47.7,246.2 51.89,243.41 51.56,239.97 C51.52,236.61 47.18,234.48 44.46,236.43 M31.35,249 C33.6,251.64 36.72,253.37 39.14,255.86 C40.26,257.2 42.97,257.58 43.8,255.74 C45.19,252.77 45.39,249.1 44.15,246.04 C42.56,247.15 40.98,248.28 39.34,249.31 C40.03,247.41 40.79,245.54 41.44,243.63 C37.89,243.89 31.27,244.33 31.35,249 M51.91,244.48 C52.24,246.37 52.65,248.24 53.03,250.12 C51.48,248.87 49.94,247.59 48.12,246.74 C47.64,250.29 46.21,255.01 49.4,257.7 C51.88,257.99 53.61,255.72 55.64,254.67 C57.59,253.11 60.6,252.54 61.55,250.01 C60.3,246.19 55.55,244.71 51.91,244.48" id="Fill-71" fill="#FFF3F9"></path>
            <path d="M347.02,222.03 C348.84,221.06 350.97,221.49 352.95,221.37 C355.6,221.39 358.24,220.64 360.9,220.94 C363.12,221.33 363.81,223.77 364.57,225.56 C366.91,225.54 369.92,225.35 371.09,227.89 C372.46,231.3 373.67,234.77 375.18,238.12 C376.38,240.68 374.32,242.97 372.41,244.4 C372.94,246.8 374.08,249.95 371.74,251.78 C368.93,253.97 366.19,256.26 363.49,258.58 C361.22,260.38 358.43,258.95 356.34,257.65 C355.22,258.49 354.19,259.51 352.86,260 C350.13,260.47 348.06,258.33 345.97,256.99 C344.02,255.58 341.74,254.69 339.88,253.15 C338.12,251.53 338.84,248.98 338.98,246.91 C337.22,245.47 334.95,243.78 335.39,241.19 C336.31,237.5 337.39,233.85 338.21,230.14 C338.87,227.34 342.15,227.22 344.44,226.67 C345.05,225.03 345.22,222.85 347.02,222.03 M352.01,223.55 C350.31,223.66 347.92,223.35 347.08,225.26 C346.9,229.2 350.13,232.22 353.04,234.39 C353.63,232.53 354.1,230.63 354.62,228.75 C355.31,230.36 355.88,232.02 356.59,233.62 C358.56,233.94 359.15,231.44 360.19,230.23 C361.41,228.27 363.22,224.93 360.59,223.31 C357.73,223.09 354.87,223.59 352.01,223.55 M365.43,228.32 C362.96,230.33 361.17,233.16 360.38,236.26 C362.33,236.25 364.28,236.15 366.23,236.12 C364.95,237.59 362.05,238.3 362.31,240.62 C365.83,241.62 371.04,244.07 373.49,240.03 C371.94,236.64 370.68,233.14 369.34,229.67 C368.96,227.94 366.8,227.21 365.43,228.32 M340.06,232.19 C339.61,236.12 337.04,239.85 338.09,243.85 C341.99,244.8 345.72,242.94 348.95,240.94 C347.39,239.62 345.69,238.5 343.98,237.39 C346,237.32 348.03,237.27 350.05,237.11 C348.84,234.09 346.74,231.31 343.88,229.71 C342.05,228.55 340.1,230.3 340.06,232.19 M353.34,236.18 C350.4,237.41 349.8,241.77 352.36,243.74 C354.88,246.27 359.74,244.46 359.92,240.88 C360.64,237.33 356.43,234.5 353.34,236.18 M347.67,244.76 C344.78,245.85 340.85,247.12 340.82,250.86 C344.03,253.07 347.34,255.13 350.59,257.29 C351.98,258.36 353.81,257.44 354.38,255.91 C355.11,252.88 354.65,249.73 354.14,246.7 C352.33,247.68 350.73,248.97 349.08,250.18 C349.56,248.37 350.13,246.59 350.68,244.81 C349.69,244.61 348.64,244.28 347.67,244.76 M360.89,243.67 C361.49,245.55 362.21,247.39 362.86,249.26 C361.02,248.52 359.44,246.1 357.28,247.11 C357.22,249.93 357.25,252.89 358.39,255.53 C359.02,257.43 361.88,257.38 363.01,255.99 C365.11,254.09 367.33,252.34 369.54,250.58 C371.04,249.71 371.65,247 369.82,246.15 C367.24,244.29 364,243.78 360.89,243.67" id="Fill-72" fill="#FFF2F4"></path>
            <path d="M40.4,224.48 C41.35,222.65 43.58,223.34 45.23,223.31 C48.09,223.61 51.06,223.17 53.85,223.96 C55.46,224.41 55.86,226.5 54.95,227.77 C53.65,230.35 51.92,233.05 49.08,234.07 C48.62,232.28 48.21,230.48 47.48,228.79 C46.36,230.16 46.82,234.27 44.39,233.51 C42.53,230.87 39.84,227.94 40.4,224.48 M30.63,235.68 C32,232.85 32.3,229.36 34.97,227.33 C38.35,228.92 40.81,232.12 41.83,235.68 C40.48,237.08 38.36,235.9 36.68,236.08 C38.01,237.48 39.65,238.72 40.11,240.71 C36.72,241.3 32.8,243.49 29.6,241.34 C28.43,239.43 30.01,237.47 30.63,235.68 M365.43,228.32 C366.8,227.21 368.96,227.94 369.34,229.67 C370.68,233.14 371.94,236.64 373.49,240.03 C371.04,244.07 365.83,241.62 362.31,240.62 C362.05,238.3 364.95,237.59 366.23,236.12 C364.28,236.15 362.33,236.25 360.38,236.26 C361.17,233.16 362.96,230.33 365.43,228.32 M52.56,237.17 C53.26,234.03 55.64,231.57 58.19,229.79 C59.34,228.84 61.59,229.5 61.91,230.96 C62.83,234.35 63.67,237.76 64.57,241.15 C65.11,242.82 63.58,244.24 61.96,244.230052 C59.25,243.98 56.66,242.97 54.29,241.66 C53.33,239.27 56.88,238.77 58.15,237.35 C56.29,237.28 54.42,237.25 52.56,237.17 M340.06,232.19 C340.1,230.3 342.05,228.55 343.88,229.71 C346.74,231.31 348.84,234.09 350.05,237.11 C348.03,237.27 346,237.32 343.98,237.39 C345.69,238.5 347.39,239.62 348.95,240.94 C345.72,242.94 341.99,244.8 338.09,243.85 C337.04,239.85 339.61,236.12 340.06,232.19 M353.34,236.18 C356.43,234.5 360.64,237.33 359.92,240.88 C359.74,244.46 354.88,246.27 352.36,243.74 C349.8,241.77 350.4,237.41 353.34,236.18 M347.67,244.76 C348.64,244.28 349.69,244.61 350.68,244.81 C350.13,246.59 349.56,248.37 349.08,250.18 C350.73,248.97 352.33,247.68 354.14,246.7 C354.65,249.73 355.11,252.88 354.38,255.91 C353.81,257.44 351.98,258.36 350.59,257.29 C347.34,255.13 344.03,253.07 340.82,250.86 C340.85,247.12 344.78,245.85 347.67,244.76" id="Fill-73" fill="#F20B13"></path>
            <path d="M352.01,223.55 C354.87,223.59 357.73,223.09 360.59,223.31 C363.22,224.93 361.41,228.27 360.19,230.23 C359.15,231.44 358.56,233.94 356.59,233.62 C355.88,232.02 355.31,230.36 354.62,228.75 C354.1,230.63 353.63,232.53 353.04,234.39 C350.13,232.22 346.9,229.2 347.08,225.26 C347.92,223.35 350.31,223.66 352.01,223.55" id="Fill-74" fill="#F30B12"></path>
            <path d="M145.85,226.93 C146.87,227.99 147.88,229.06 148.89,230.13 L148.93,230.99 C149.21,237.95 148.76,244.92 149.07,251.88 C149.04,253.66 151.02,254.37 152.07,255.5 C152.05,257.99 151.81,260.48 151.33,262.93 C150.79,265.54 151.71,268.22 151.21,270.84 C150.29,273.51 147.29,274.26 145.02,275.36 C142.05,274.43 139.62,272.56 138.21,269.75 C140.4,270.3 142.58,271.19 144.86,271.11 C147.84,270.31 148.72,265.67 146.23,263.85 C143.61,262.5 140.56,262.48 137.69,262.17 C137.73,261.47 137.79,260.09 137.82,259.4 C139.96,259.1 142.18,259.03 144.22,258.25 C145.88,257.51 145.56,255.48 145.75,254.01 C145.84,244.99 145.41,235.95 145.85,226.93" id="Fill-75" fill="#043083"></path>
            <path d="M236.48,233.47 C238.68,234.69 240.79,236.04 242.9,237.39 C242.44,241.54 244.55,245.26 245.98,249 C240.69,245.53 237.49,239.63 236.48,233.47" id="Fill-76" fill="#CFD3DE"></path>
            <path d="M258.63,256.77 C262.01,256.68 265.39,256.47 268.76,256.17 C260.65,264.6 257.44,276.56 258.13,288.05 C258.13,291.36 259.09,294.77 258.2,298.03 C256.88,300.4 253.64,300.22 251.37,301.17 C250.58,302.5 249.78,303.82 248.98,305.14 C246.93,303.52 244.92,301.86 242.91,300.2 C244.03,298.54 244.75,296.08 247.1,295.87 C249.69,295.38 252.98,294.37 252.59,291.06 C251.86,279.44 251.47,266.69 258.63,256.77" id="Fill-77" fill="#D2D3D6"></path>
            <path d="M137.69,262.17 C140.56,262.48 143.61,262.5 146.23,263.85 C148.72,265.67 147.84,270.31 144.86,271.11 C142.58,271.19 140.4,270.3 138.21,269.75 C138.09,267.38 139.15,265.25 140.44,263.34 C139.52,262.95 138.6,262.56 137.69,262.17" id="Fill-78" fill="#586DB3"></path>
            <path d="M229.2,262.62 C230.79,263.17 232.4,263.67 234,264.18 C234.32,265.44 234.64,266.7 234.92,267.98 C232.74,266.51 230.49,264.99 229.2,262.62" id="Fill-79" fill="#C8CDE1"></path>
            <path d="M170.09,292.32 C172.14,292.25 174.19,292.3 176.25,292.34 C176.84,294.77 177.45,297.21 178.07,299.64 C176.99,299.01 175.97,298.29 175.02,297.49 C173.57,295.59 172.1,293.66 170.09,292.32" id="Fill-80" fill="#586EAF"></path>
            <path d="M223.86,294.72 C225.76,294.42 227.69,294.27 229.61,294.13 C229.72,296.58 229.84,299.03 229.98,301.49 C229.7,300.99 229.15,300 228.88,299.5 C228.1,298.08 227.34,296.64 226.59,295.21 C225.91,295.09 224.54,294.84 223.86,294.72" id="Fill-81" fill="#4C68A4"></path>
            <path d="M237.79,294.87 C238.48,294.94 239.85,295.08 240.54,295.15 C240.95,296.43 241.36,297.72 241.82,298.99 C240.49,297.6 239.12,296.25 237.79,294.87" id="Fill-82" fill="#5A72AE"></path>
            <path d="M308.77,301.16 C309.14,299.08 314.06,299.07 314.3,301.27 C312.45,301.25 310.61,301.3 308.77,301.16" id="Fill-83" fill="#2A3A46"></path>
            <path d="M308.67,302.67 C310.47,301.06 313.31,301.47 315.14,302.84 C316.76,304.25 317.57,306.32 319.01,307.9 C320.93,309.42 324.19,310.12 324.44,313 C325.39,319.22 318.8,322.62 315.13,326.53 C309.99,321.51 304.66,316.63 299.96,311.18 C302.82,308.3 305.47,305.18 308.67,302.67 M305.77,309.08 C307.24,310.92 308.93,312.57 310.85,313.94 C312.06,312.22 314.07,309.8 312.18,307.81 C310.21,305.46 307.55,307.78 305.77,309.08 M314.95,313.49 C314.53,313.95 313.69,314.88 313.27,315.35 L312.54,314.82 C313.4,317.05 315.06,318.78 316.93,320.21 C318.27,318.63 320.52,316.54 318.8,314.38 C317.94,312.96 316.29,313.43 314.95,313.49 M77.97,313.06 C81.75,309.7 85.24,306.02 89.02,302.67 C92.4,305.36 95.52,308.38 98.17,311.8 C97.39,312.56 96.61,313.33 95.84,314.1 C94.05,312.51 92.28,310.9 90.52,309.27 C89.44,310.36 88.35,311.45 87.27,312.54 C88.77,314.15 90.27,315.76 91.78,317.36 C91.2,318.34 90.62,319.31 90.04,320.29 C88.1,318.7 86.2,317.08 84.29,315.46 C81.97,317.74 79.61,319.98 77.45,322.41 C76.02,320.94 74.59,319.47 73.18,317.99 C74.73,316.3 76.29,314.62 77.97,313.06 M160.28,345.02 C164.46,345.68 168.94,346.04 172.56,348.44 C175.12,350.4 174.43,354.01 173.69,356.7 C173.59,357.01 173.4,357.65 173.3,357.97 C171.86,361.31 172.71,366.31 168.71,367.98 C164.29,369.06 159.92,366.86 155.68,365.87 C156.56,358.79 158.79,351.98 160.28,345.02 M164.77,349.38 C164.59,351.22 164.42,353.07 164.28,354.93 C165.76,354.52 168.85,355.25 168.65,352.86 C169.18,350.6 166.6,349.51 164.77,349.38 M162.97,357.75 C162.23,359.83 161.81,362 161.66,364.21 C163.46,364.06 165.89,364.66 166.89,362.66 C167.06,361.31 166.66,359.99 166.48,358.68 C165.31,358.37 164.14,358.06 162.97,357.75" id="Fill-84" fill="#FFFFF8"></path>
            <path d="M305.77,309.08 C307.55,307.78 310.21,305.46 312.18,307.81 C314.07,309.8 312.06,312.22 310.85,313.94 C308.93,312.57 307.24,310.92 305.77,309.08 M307.6,309.07 C308.57,310.23 309.62,311.31 310.76,312.3 C311.1,311.73 311.79,310.57 312.13,310 C311.81,309.41 311.17,308.23 310.86,307.64 C309.76,308.1 308.68,308.58 307.6,309.07" id="Fill-85" fill="#A69A77"></path>
            <path d="M307.6,309.07 C308.68,308.58 309.76,308.1 310.86,307.64 C311.17,308.23 311.81,309.41 312.13,310 C311.79,310.57 311.1,311.73 310.76,312.3 C309.62,311.31 308.57,310.23 307.6,309.07" id="Fill-86" fill="#323B38"></path>
            <path d="M295.49,313.69 C296.38,312.82 297.28,311.97 298.19,311.13 C299.84,312.85 301.47,314.59 303.11,316.32 C302.59,319.14 303.88,321.79 304.67,324.42 C301.75,320.73 298.97,316.88 295.49,313.69" id="Fill-87" fill="#143362"></path>
            <path d="M314.95,313.49 C316.29,313.43 317.94,312.96 318.8,314.38 C320.52,316.54 318.27,318.63 316.93,320.21 C315.06,318.78 313.4,317.05 312.54,314.82 L313.27,315.35 C314.59,316.3 315.88,317.28 317.18,318.27 C317.54,317.27 317.9,316.26 318.27,315.27 C317.17,314.66 316.06,314.06 314.95,313.49" id="Fill-88" fill="#9B916E"></path>
            <path d="M313.27,315.35 C313.69,314.88 314.53,313.95 314.95,313.49 C316.06,314.06 317.17,314.66 318.27,315.27 C317.9,316.26 317.54,317.27 317.18,318.27 C315.88,317.28 314.59,316.3 313.27,315.35" id="Fill-89" fill="#3B4342"></path>
            <path d="M293.27,317.87 C294.18,316.98 295.1,316.09 296.03,315.22 C299.33,319.22 302.69,323.22 305.39,327.67 C307.95,331.45 305.59,337.1 301.44,338.57 C298.67,339.74 295.7,338.61 292.89,338.29 C292.7,337.95 292.33,337.29 292.15,336.95 C289.73,332.63 286.44,328.88 283.63,324.83 C285.07,323.7 286.52,322.59 287.98,321.48 C291.45,325.32 293.99,329.91 297.58,333.64 C299.55,335.91 303.65,333.08 302.35,330.46 C299.77,325.96 296.08,322.21 293.27,317.87" id="Fill-90" fill="#FFFFF4"></path>
            <path d="M97.46,318.88 C100.25,316.96 103.97,317.26 107.1,317.94 C110.67,318.83 112.82,321.97 114.3,325.11 C115.35,330.51 112.81,335.84 108.56,339.13 C102.48,342.72 94.04,339.4 91.46,332.92 C90.85,327.49 92.84,321.98 97.46,318.88 M103.4,322.41 C98.76,324.23 94.33,332 99.48,335.5 C105.08,336.34 110.19,329.8 108.59,324.46 C107.54,322.63 105.4,321.83 103.4,322.41" id="Fill-91" fill="#FFFFF6"></path>
            <path d="M104.29,323.38 C106.74,322.71 109.08,325.56 108.04,327.84 C106.98,330.68 104.81,333.31 101.92,334.37 C99.46,335.22 97.06,332.46 98.03,330.17 C99.22,327.36 101.05,324.04 104.29,323.38" id="Fill-92" fill="#023185"></path>
            <path d="M114.3,325.11 C114.45,324.67 114.77,323.8 114.93,323.37 C116.28,325.92 116.35,328.83 116.41,331.65 C117.81,331.18 119.2,330.43 120.71,330.43 L121.45,330.49 C118.58,332.66 115.42,334.9 114.18,338.45 C112.42,342.36 113.87,346.68 115.87,350.18 C112.07,348 111.58,343.51 111.41,339.57 C110.7,339.46 109.28,339.24 108.56,339.13 C112.81,335.84 115.35,330.51 114.3,325.11" id="Fill-93" fill="#28334A"></path>
            <path d="M306.82,328.53 C308.93,328.99 308.91,333.95 306.77,334.35 C306.81,332.4 306.83,330.47 306.82,328.53" id="Fill-94" fill="#2F3C42"></path>
            <path d="M269.06,332.15 C270.64,331.4 272.22,330.65 273.8,329.93 C276.29,333.94 278.58,338.06 280.9,342.16 C281.58,343 281.85,344.44 283.02,344.75 C285.24,343.87 287.25,342.57 289.34,341.45 C289.91,342.55 290.47,343.67 291.02,344.79 C287.37,347 283.71,349.21 279.89,351.13 C275.95,345.02 272.02,338.8 269.06,332.15 M140.99,338.58 C145.66,339.93 150.24,341.59 154.75,343.39 C154.54,344.47 154.32,345.55 154.11,346.64 C152.46,346.31 150.81,345.99 149.16,345.65 C147.09,351.13 145.28,356.72 143.03,362.14 C141.35,361.47 139.67,360.8 137.99,360.13 C139.31,356.09 140.71,352.07 142.13,348.06 C142.52,347.1 142.91,346.15 143.28,345.2 C143.39,344.9 143.59,344.3 143.7,344 C142.31,342.96 140.86,342 139.43,341.03 C139.82,340.41 140.6,339.19 140.99,338.58" id="Fill-95" fill="#FFFFF7"></path>
            <path d="M121.45,330.49 C125.84,330.9 131.06,331.19 133.74,335.28 C137.13,339.72 135.28,345.58 132.97,350.05 C128.68,354.97 120.32,354.79 115.87,350.18 C113.87,346.68 112.42,342.36 114.18,338.45 C115.42,334.9 118.58,332.66 121.45,330.49 M123.48,336.39 C120.17,338.98 117.45,344.97 121.13,348.25 C126.36,350.06 130.47,343.64 129.68,339 C130.23,335.78 125.48,334.12 123.48,336.39 M258.35,337.11 C261.46,336.07 264.49,337.9 267.37,338.87 C266.83,339.84 266.3,340.81 265.77,341.79 C262.83,341.86 259.06,340.29 256.85,342.91 C254.18,345.84 256.08,350.2 258.02,352.99 C259.59,355.41 262.74,354.5 265.14,354.5 C265.38,354.15 265.86,353.44 266.1,353.09 C266.91,351.9 267.7,350.71 268.49,349.51 C269.53,349.59 270.58,349.69 271.62,349.79 C270.93,353.16 269.45,356.61 266.28,358.33 C262.49,360.69 257.89,359.4 254,358.04 C253.26,357.44 252.57,356.8 251.92,356.12 C250.79,353.54 249.51,350.88 249.51,348 C248.95,342.75 253.45,338.15 258.35,337.11" id="Fill-96" fill="#FFFFF3"></path>
            <path d="M123.48,336.39 C125.48,334.12 130.23,335.78 129.68,339 C130.47,343.64 126.36,350.06 121.13,348.25 C117.45,344.97 120.17,338.98 123.48,336.39" id="Fill-97" fill="#06317B"></path>
            <path d="M135.6,336.54 C137.04,336.96 138.5,337.32 139.99,337.59 C139.5,339.13 139.01,340.67 138.51,342.21 C140.11,343.19 141.7,344.18 143.28,345.2 C142.91,346.15 142.52,347.1 142.13,348.06 C141.57,348.86 141.02,349.67 140.47,350.49 C140.49,348.6 140.6,346.71 140.77,344.83 C138.62,343.46 136.83,344.88 135.53,346.66 C136.54,343.37 136.64,339.84 135.6,336.54" id="Fill-98" fill="#374654"></path>
            <path d="M141.67,337.55 C145.6,337.5 150.34,338.12 152.83,341.53 C149.02,340.46 145.37,338.93 141.67,337.55" id="Fill-99" fill="#253C58"></path>
            <path d="M150.17,347.36 C151.64,347.3 153.1,347.58 154.56,347.81 L155.16,347.91 C152.09,348.67 149.45,350.36 147.47,352.82 C148.22,350.95 148.58,348.72 150.17,347.36" id="Fill-100" fill="#2A3E55"></path>
            <path d="M217.79,348.93 C219.5,348.57 221.21,348.24 222.93,347.91 C224.34,353.77 224.57,359.85 226.11,365.69 C228.48,365.33 230.84,364.93 233.21,364.53 C233.49,365.65 233.78,366.78 234.06,367.91 C229.77,368.78 225.46,369.61 221.09,369.97 C219.9,362.97 218.8,355.96 217.79,348.93 M187.21,348.79 C190.33,356.08 192.51,363.79 194.51,371.46 C192.74,371.35 190.98,371.2 189.23,371.01 C188.65,369.41 188.07,367.81 187.51,366.21 C185.81,365.9 184.11,365.63 182.4,365.4 C181.58,367.01 180.74,368.62 179.9,370.23 C179.13,370.21 177.58,370.18 176.8,370.16 C179.56,362.73 183.48,355.77 187.21,348.79 M185.09,360.24 C183.4,360.66 183.93,363.62 185.71,363.23 C187.35,362.85 186.69,359.98 185.09,360.24" id="Fill-101" fill="#FFFFF5"></path>
            <path d="M200.12,348.89 C202.34,348.83 204.55,348.82 206.77,348.85 C207.49,354.7 207.49,360.6 207.55,366.48 C210.14,366.5 212.74,366.52 215.34,366.57 C215.44,368.18 215.55,369.8 215.67,371.43 L214.5,371.38 C214.27,370.55 213.82,368.88 213.59,368.05 C211.2,367.87 208.81,367.71 206.42,367.56 C206.22,361.7 206.14,355.85 205.89,350 C204.27,350.02 202.66,350.04 201.06,350.07 C201.05,354.69 201.24,359.31 201.25,363.93 L200.34,364.4 C200.2,362.35 200.13,360.29 200.1,358.24 C200.1,355.12 200.1,352 200.12,348.89" id="Fill-102" fill="#C2B388"></path>
            <path d="M156.2,357.34 C155.5,354.62 156.27,351.99 157.96,349.82 C157.48,352.35 156.93,354.87 156.2,357.34" id="Fill-103" fill="#3E4B53"></path>
            <path d="M201.06,350.07 C202.66,350.04 204.27,350.02 205.89,350 C206.14,355.85 206.22,361.7 206.42,367.56 C208.81,367.71 211.2,367.87 213.59,368.05 C213.82,368.88 214.27,370.55 214.5,371.38 C212.3,371.36 210.12,371.43 207.93,371.51 C205.78,371.16 203.61,370.7 201.42,370.89 C201.31,368.57 201.28,366.25 201.25,363.93 C201.24,359.31 201.05,354.69 201.06,350.07" id="Fill-104" fill="#FFFFF9"></path>
            <path d="M224.61,350 C226.42,350.23 226.03,352.49 226.37,353.78 C226.65,356.72 226.92,359.68 227.5,362.59 C229.78,362.56 232.08,362.55 234.33,363.05 C231.9,363.61 229.44,364.03 226.98,364.4 C225.73,359.69 225.13,354.84 224.61,350" id="Fill-105" fill="#293E58"></path>
            <path d="M162.97,357.75 C164.14,358.06 165.31,358.37 166.48,358.68 C166.66,359.99 167.06,361.31 166.89,362.66 C165.89,364.66 163.46,364.06 161.66,364.21 C161.81,362 162.23,359.83 162.97,357.75 M163.86,358.88 C163.49,360.31 163.13,361.74 162.79,363.19 C164.91,363.64 166.1,362.1 166.42,360.22 C165.78,359.89 164.5,359.22 163.86,358.88" id="Fill-106" fill="#A0936B"></path>
            <path d="M163.86,358.88 C164.5,359.22 165.78,359.89 166.42,360.22 C166.1,362.1 164.91,363.64 162.79,363.19 C163.13,361.74 163.49,360.31 163.86,358.88" id="Fill-107" fill="#363A31"></path>
            <path d="M185.09,360.24 C186.69,359.98 187.35,362.85 185.71,363.23 C183.93,363.62 183.4,360.66 185.09,360.24" id="Fill-108" fill="#AB955C"></path>
            <path d="M154.37,366.92 C155.61,366.52 156.81,367.16 157.91,367.68 C157.18,369.06 154.2,368.63 154.37,366.92" id="Fill-109" fill="#464B44"></path>
            <path d="M161.92,368.82 C164.66,368.88 167.4,368.84 170.14,368.98 C167.99,370.86 163.84,371.15 161.92,368.82" id="Fill-110" fill="#3B4544"></path>
            <path d="M219.86,371.16 C223.91,370.44 228.01,370.17 232.09,369.71 C228.46,371.19 224.36,372.7 220.43,371.91 L219.86,371.16" id="Fill-111" fill="#2C3F56"></path>
            <path d="M175.52,370.94 C177.09,370.71 178.68,370.65 180.250017,370.81 C180.26,372.88 175.77,372.9 175.52,370.94" id="Fill-112" fill="#2F3D49"></path>
            <path d="M201.42,370.89 C203.61,370.7 205.78,371.16 207.93,371.51 C206,372.13 202.12,373.74 201.42,370.89" id="Fill-113" fill="#B0A789"></path>
        </g>
    </g>
</svg>