<?xml version="1.0" encoding="UTF-8"?>
<svg xmlns="http://www.w3.org/2000/svg" xmlns:xlink="http://www.w3.org/1999/xlink" width="375pt" height="375pt" viewBox="0 0 375 375" version="1.1">
<g id="surface776">
<path style=" stroke:none;fill-rule:nonzero;fill:rgb(100%,100%,100%);fill-opacity:1;" d="M 52.382812 14.898438 C 48.246094 14.960938 44.941406 18.363281 45 22.5 L 45 60 L 37.5 60 C 33.359375 60 30 63.359375 30 67.5 L 30 142.5 L 22.5 142.5 C 18.375 142.5 15 145.875 15 150 L 15 274.042969 C 19.351562 269.167969 24.375 264.53125 30 260.332031 L 30 157.5 L 120 157.5 L 120 243.003906 C 125.324219 244.203125 130.273438 245.769531 135 247.71875 L 135 150 C 135 145.875 131.625 142.5 127.5 142.5 L 120 142.5 L 120 105 C 120 100.859375 116.640625 97.5 112.5 97.5 L 105 97.5 L 105 67.5 C 105 63.359375 101.640625 60 97.5 60 L 90 60 L 90 22.5 C 90.027344 20.472656 89.234375 18.519531 87.796875 17.089844 C 86.363281 15.65625 84.410156 14.867188 82.382812 14.898438 C 78.246094 14.960938 74.941406 18.363281 75 22.5 L 75 60 L 60 60 L 60 22.5 C 60.027344 20.472656 59.234375 18.519531 57.796875 17.089844 C 56.363281 15.65625 54.410156 14.867188 52.382812 14.898438 Z M 322.382812 37.398438 C 318.246094 37.460938 314.941406 40.863281 315 45 L 315 90 L 300 90 L 300 67.5 C 300.027344 65.472656 299.234375 63.519531 297.796875 62.089844 C 296.363281 60.65625 294.410156 59.867188 292.382812 59.898438 C 288.246094 59.960938 284.941406 63.363281 285 67.5 L 285 90 L 277.5 90 C 273.359375 90 270 93.359375 270 97.5 L 270 120 L 262.5 120 C 258.441406 120 255.128906 123.230469 255 127.28125 L 253.257812 184.613281 C 258.410156 186.324219 263.371094 188.441406 268.066406 191.015625 L 269.78125 135 L 345.21875 135 L 352.046875 360 L 367.046875 360 L 360 127.28125 C 359.871094 123.230469 356.558594 120 352.5 120 L 345 120 L 345 97.5 C 345 93.359375 341.640625 90 337.5 90 L 330 90 L 330 45 C 330.027344 42.972656 329.234375 41.019531 327.796875 39.589844 C 326.363281 38.15625 324.410156 37.367188 322.382812 37.398438 Z M 45 75 L 51.238281 75 C 52.050781 75.132812 52.875 75.132812 53.6875 75 L 81.238281 75 C 82.050781 75.132812 82.875 75.132812 83.6875 75 L 90 75 L 90 97.5 L 75 97.5 C 70.859375 97.5 67.5 100.859375 67.5 105 L 67.5 142.5 L 45 142.5 Z M 285 105 L 291.238281 105 C 292.050781 105.132812 292.875 105.132812 293.6875 105 L 321.238281 105 C 322.050781 105.132812 322.875 105.132812 323.6875 105 L 330 105 L 330 120 L 285 120 Z M 82.5 112.5 L 105 112.5 L 105 142.5 L 82.5 142.5 Z M 225 180 C 216.75 180 210 186.75 210 195 C 210 195.527344 210.183594 195.996094 210.234375 196.507812 C 200.582031 198.453125 191.617188 202.261719 183.691406 207.539062 C 180.941406 204.457031 176.9375 202.5 172.5 202.5 C 164.25 202.5 157.5 209.25 157.5 217.5 C 157.5 221.953125 159.480469 225.984375 162.582031 228.734375 C 157.179688 236.90625 153.273438 246.148438 151.40625 256.113281 C 151.40625 256.113281 151.421875 256.128906 151.421875 256.128906 C 156.4375 259.34375 161.082031 262.855469 165.207031 266.675781 C 166.921875 235.175781 193.066406 210 225 210 C 258.074219 210 285 236.925781 285 270 C 285 287.699219 277.273438 303.523438 265.050781 314.472656 L 269.546875 330.21875 C 269.554688 330.214844 269.566406 330.210938 269.574219 330.207031 L 271.199219 335.917969 C 273.152344 336.894531 275.25 337.425781 277.5 337.425781 C 285.824219 337.425781 292.5 330.75 292.5 322.5 C 292.5 318.007812 290.574219 314.015625 287.503906 311.277344 C 292.765625 303.367188 296.460938 294.378906 298.402344 284.75 C 298.945312 284.808594 299.441406 285 300 285 C 308.25 285 315 278.25 315 270 C 315 261.75 308.25 255 300 255 C 299.480469 255 299.023438 255.171875 298.519531 255.21875 C 296.578125 245.570312 292.777344 236.582031 287.503906 228.648438 C 290.5625 225.898438 292.5 221.917969 292.5 217.5 C 292.5 209.25 285.75 202.5 277.5 202.5 C 273.082031 202.5 269.101562 204.4375 266.351562 207.496094 C 258.417969 202.222656 249.429688 198.421875 239.78125 196.480469 C 239.828125 195.976562 240 195.519531 240 195 C 240 186.75 233.25 180 225 180 Z M 93.75 255 C 64.421875 255 42.570312 267.316406 28.503906 281.980469 C 14.441406 296.648438 7.5 312.691406 7.5 324.859375 C 7.5 343.960938 22.492188 360 41.25 360 C 48.75 360 55.996094 357.40625 61.859375 352.691406 L 62.253906 352.382812 L 63.441406 351.121094 L 63.53125 351.035156 C 67.746094 346.289062 77.765625 337.5 93.75 337.5 C 108.128906 337.5 119.277344 346.335938 124.585938 351.707031 L 124.6875 351.8125 L 125.816406 352.867188 L 126.035156 353.042969 C 131.617188 357.503906 138.742188 360 146.25 360 C 165.007812 360 180 343.960938 180 324.859375 C 180 312.691406 173.058594 296.648438 158.996094 281.980469 C 144.929688 267.316406 123.078125 255 93.75 255 Z M 225 255 C 216.714844 255 210 261.714844 210 270 C 210.003906 272.171875 210.476562 274.316406 211.390625 276.285156 L 187.589844 360 L 203.1875 360 L 224.53125 284.984375 C 224.6875 284.992188 224.84375 284.996094 225 285 C 225.15625 284.992188 225.3125 284.984375 225.46875 284.972656 L 237.847656 328.492188 C 234.449219 329.253906 230.941406 329.730469 227.34375 329.867188 L 223.066406 344.898438 C 223.710938 344.921875 224.347656 345 225 345 C 230.851562 345 236.507812 344.230469 241.964844 342.933594 L 246.8125 360 L 262.410156 360 L 238.59375 276.285156 C 239.511719 274.316406 239.992188 272.171875 240 270 C 240 261.714844 233.285156 255 225 255 Z M 93.75 270 C 118.953125 270 136.492188 280.195312 148.167969 292.367188 C 159.84375 304.542969 165 319.664062 165 324.859375 C 165 336.234375 156.441406 345 146.25 345 C 142.136719 345 138.257812 343.566406 135.453125 341.339844 L 135.261719 341.160156 C 128.453125 334.265625 114.066406 322.5 93.75 322.5 C 72.300781 322.5 58.394531 334.238281 52.339844 341.042969 L 52.324219 341.042969 C 49.027344 343.652344 45.335938 345 41.25 345 C 31.058594 345 22.5 336.234375 22.5 324.859375 C 22.5 319.664062 27.65625 304.542969 39.332031 292.367188 C 51.007812 280.195312 68.546875 270 93.75 270 Z M 93.75 270 "/>
</g>
</svg>
