<?xml version="1.0" encoding="UTF-8"?>
<svg xmlns="http://www.w3.org/2000/svg" xmlns:xlink="http://www.w3.org/1999/xlink" width="375pt" height="375pt" viewBox="0 0 375 375" version="1.1">
<g id="surface826">
<path style=" stroke:none;fill-rule:nonzero;fill:rgb(100%,100%,100%);fill-opacity:1;" d="M 52.382812 14.898438 C 48.246094 14.960938 44.941406 18.363281 45 22.5 L 45 60 L 37.5 60 C 33.351562 60 30 63.351562 30 67.5 L 30 142.5 L 60 142.5 L 60 105 C 60 92.59375 70.09375 82.5 82.5 82.5 L 105 82.5 L 105 67.5 C 105 63.351562 101.648438 60 97.5 60 L 90 60 L 90 22.5 C 90.027344 20.472656 89.234375 18.519531 87.796875 17.089844 C 86.363281 15.65625 84.410156 14.867188 82.382812 14.898438 C 78.246094 14.960938 74.941406 18.363281 75 22.5 L 75 60 L 60 60 L 60 22.5 C 60.027344 20.472656 59.234375 18.519531 57.796875 17.089844 C 56.363281 15.65625 54.410156 14.867188 52.382812 14.898438 Z M 322.382812 37.398438 C 318.246094 37.460938 314.941406 40.863281 315 45 L 315 90 L 300 90 L 300 67.5 C 300.027344 65.472656 299.234375 63.519531 297.796875 62.089844 C 296.363281 60.65625 294.410156 59.867188 292.382812 59.898438 C 288.246094 59.960938 284.941406 63.363281 285 67.5 L 285 90 L 277.5 90 C 273.359375 90 270 93.351562 270 97.5 L 270 112.5 L 345 112.5 L 345 97.5 C 345 93.351562 341.640625 90 337.5 90 L 330 90 L 330 45 C 330.027344 42.972656 329.234375 41.019531 327.796875 39.589844 C 326.363281 38.15625 324.410156 37.367188 322.382812 37.398438 Z M 82.5 97.5 C 78.351562 97.5 75 100.851562 75 105 L 75 142.5 L 120 142.5 L 120 105 C 120 100.851562 116.648438 97.5 112.5 97.5 Z M 262.5 127.5 C 258.441406 127.5 255.128906 130.730469 255 134.78125 L 253.492188 184.703125 C 257.796875 186.140625 261.9375 187.914062 265.925781 189.960938 C 269.535156 188.429688 273.433594 187.5 277.5 187.5 C 294.046875 187.5 307.5 200.953125 307.5 217.5 C 307.5 221.542969 306.582031 225.398438 305.066406 228.984375 C 307.199219 233.109375 308.894531 237.484375 310.371094 241.949219 C 321.800781 246.191406 330 257.113281 330 270 C 330 282.90625 321.757812 293.835938 310.296875 298.066406 C 308.851562 302.410156 307.101562 306.636719 305.023438 310.707031 C 306.578125 314.351562 307.5 318.308594 307.5 322.5 C 307.5 339 294.046875 352.425781 277.5 352.425781 C 277.058594 352.425781 276.640625 352.304688 276.195312 352.28125 C 276.554688 355.25 276.855469 357.808594 277.121094 360 L 366.824219 360 L 360 134.78125 C 359.871094 130.730469 356.558594 127.5 352.5 127.5 Z M 22.5 157.5 C 18.375 157.5 15 160.875 15 165 L 15 279.449219 C 31.3125 261.734375 56.960938 247.5 93.75 247.5 C 109.207031 247.5 122.941406 250.597656 135 255.601562 L 135 165 C 135 160.875 131.625 157.5 127.5 157.5 Z M 225 180 C 216.75 180 210 186.75 210 195 C 210 195.519531 210.183594 195.976562 210.234375 196.480469 C 200.574219 198.417969 191.613281 202.25 183.675781 207.523438 C 180.925781 204.449219 176.929688 202.5 172.5 202.5 C 164.25 202.5 157.5 209.25 157.5 217.5 C 157.5 221.945312 159.460938 225.957031 162.554688 228.707031 C 155.816406 238.878906 151.433594 250.742188 150.335938 263.554688 C 155.796875 266.980469 160.765625 270.785156 165.25 274.863281 C 165.121094 273.257812 165 271.640625 165 270 C 165 236.917969 191.917969 210 225 210 C 258.082031 210 285 236.917969 285 270 C 285 287.671875 277.28125 303.542969 265.078125 314.53125 L 269.53125 330.207031 C 269.542969 330.195312 269.550781 330.183594 269.558594 330.175781 L 271.199219 335.917969 C 273.152344 336.894531 275.25 337.425781 277.5 337.425781 C 285.824219 337.425781 292.5 330.75 292.5 322.5 C 292.5 318 290.570312 314 287.488281 311.265625 C 292.753906 303.355469 296.460938 294.375 298.402344 284.75 C 298.945312 284.808594 299.441406 285 300 285 C 308.25 285 315 278.25 315 270 C 315 261.75 308.25 255 300 255 C 299.480469 255 299.023438 255.171875 298.519531 255.21875 C 296.582031 245.5625 292.773438 236.585938 287.503906 228.648438 C 290.5625 225.898438 292.5 221.917969 292.5 217.5 C 292.5 209.25 285.75 202.5 277.5 202.5 C 273.082031 202.5 269.101562 204.4375 266.351562 207.496094 C 258.414062 202.226562 249.4375 198.417969 239.78125 196.480469 C 239.828125 195.976562 240 195.519531 240 195 C 240 186.75 233.25 180 225 180 Z M 225 255 C 216.714844 255 210 261.714844 210 270 C 210.007812 272.171875 210.488281 274.316406 211.40625 276.285156 L 187.589844 360 L 203.1875 360 L 224.53125 284.972656 C 224.6875 284.984375 224.84375 284.992188 225 285 C 225.15625 284.992188 225.3125 284.984375 225.46875 284.972656 L 237.847656 328.492188 C 234.449219 329.253906 230.941406 329.730469 227.34375 329.867188 L 223.066406 344.898438 C 223.710938 344.921875 224.347656 345 225 345 C 230.851562 345 236.507812 344.230469 241.964844 342.933594 L 246.8125 360 L 262.410156 360 L 238.59375 276.285156 C 239.511719 274.316406 239.992188 272.171875 240 270 C 240 261.714844 233.285156 255 225 255 Z M 93.75 262.5 C 29.0625 262.5 7.5 310.3125 7.5 330 C 7.5 346.566406 20.933594 360 37.5 360 C 45.105469 360 52.054688 357.164062 57.347656 352.5 C 63.582031 347.003906 72.1875 337.5 93.75 337.5 C 115.3125 337.5 123.925781 347.003906 130.152344 352.5 C 135.4375 357.164062 142.386719 360 150 360 C 166.566406 360 180 346.566406 180 330 C 180 310.3125 150.9375 262.5 93.75 262.5 Z M 93.75 262.5 "/>
</g>
</svg>
