<?xml version="1.0" encoding="UTF-8"?>
<svg xmlns="http://www.w3.org/2000/svg" xmlns:xlink="http://www.w3.org/1999/xlink" width="375pt" height="375pt" viewBox="0 0 375 375" version="1.1">
<g id="surface3278">
<path style=" stroke:none;fill-rule:nonzero;fill:rgb(0%,0%,0%);fill-opacity:1;" d="M 187.5 15 C 92.320312 15 15 92.320312 15 187.5 C 15 282.679688 92.320312 360 187.5 360 C 282.679688 360 360 282.679688 360 187.5 C 360 92.320312 282.679688 15 187.5 15 Z M 187.5 30 C 274.574219 30 345 100.425781 345 187.5 C 345 274.574219 274.574219 345 187.5 345 C 100.425781 345 30 274.574219 30 187.5 C 30 100.425781 100.425781 30 187.5 30 Z M 133.609375 120 L 133.609375 255 L 150.453125 255 L 150.453125 193.535156 L 224.546875 193.535156 L 224.546875 255 L 241.378906 255 L 241.378906 120 L 224.546875 120 L 224.546875 178.375 L 150.453125 178.375 L 150.453125 120 Z M 133.609375 120 "/>
</g>
</svg>
