<?xml version="1.0" encoding="UTF-8"?>
<svg xmlns="http://www.w3.org/2000/svg" xmlns:xlink="http://www.w3.org/1999/xlink" width="375pt" height="375pt"
  viewBox="0 0 375 375" version="1.1">
  <g id="surface4102">
    <path style=" stroke:none;fill-rule:nonzero;fill:rgb(100%,100%,100%);fill-opacity:1;"
      d="M 187.5 15 C 92.320312 15 15 92.320312 15 187.5 C 15 282.679688 92.320312 360 187.5 360 C 282.679688 360 360 282.679688 360 187.5 C 360 92.320312 282.679688 15 187.5 15 Z M 187.5 30 C 274.574219 30 345 100.425781 345 187.5 C 345 274.574219 274.574219 345 187.5 345 C 100.425781 345 30 274.574219 30 187.5 C 30 100.425781 100.425781 30 187.5 30 Z M 187.382812 52.398438 C 183.246094 52.460938 179.941406 55.863281 180 60 L 180 166.304688 C 171.015625 169.480469 165.007812 177.972656 165 187.5 C 165.007812 190.851562 165.761719 194.160156 167.210938 197.183594 L 122.199219 242.199219 C 120.238281 244.078125 119.449219 246.871094 120.132812 249.5 C 120.820312 252.128906 122.871094 254.179688 125.5 254.867188 C 128.128906 255.550781 130.921875 254.761719 132.800781 252.800781 L 177.816406 207.789062 C 180.839844 209.238281 184.148438 209.992188 187.5 210 C 199.925781 210 210 199.925781 210 187.5 C 209.988281 177.976562 203.980469 169.492188 195 166.316406 L 195 60 C 195.027344 57.972656 194.234375 56.019531 192.796875 54.589844 C 191.363281 53.15625 189.410156 52.367188 187.382812 52.398438 Z M 187.382812 52.398438 " />
  </g>
</svg>