<?xml version="1.0" encoding="UTF-8"?>
<svg xmlns="http://www.w3.org/2000/svg" xmlns:xlink="http://www.w3.org/1999/xlink" width="375pt" height="375pt" viewBox="0 0 375 375" version="1.1">
<g id="surface4120">
<path style=" stroke:none;fill-rule:nonzero;fill:rgb(0%,0%,0%);fill-opacity:1;" d="M 33.75 37.5 C 15.207031 37.5 0 52.707031 0 71.25 C 0 82.851562 6.003906 93.046875 15 99.140625 L 15 360 L 52.5 360 L 52.5 330.234375 L 322.5 330.234375 L 322.5 360 L 360 360 L 360 99.140625 C 368.996094 93.046875 375 82.851562 375 71.25 C 375 52.707031 359.792969 37.5 341.25 37.5 C 322.707031 37.5 307.5 52.707031 307.5 71.25 C 307.5 82.851562 313.503906 93.046875 322.5 99.140625 L 322.5 120 L 278.90625 120 C 278.230469 119.824219 277.5 119.738281 276.796875 119.765625 C 276.472656 119.824219 276.152344 119.910156 275.859375 120 L 219.140625 120 C 218.378906 119.792969 217.589844 119.707031 216.796875 119.765625 C 216.5625 119.824219 216.328125 119.910156 216.09375 120 L 159.140625 120 C 158.378906 119.792969 157.589844 119.707031 156.796875 119.765625 C 156.5625 119.824219 156.328125 119.910156 156.09375 120 L 99.140625 120 C 98.378906 119.792969 97.589844 119.707031 96.796875 119.765625 C 96.5625 119.824219 96.328125 119.910156 96.09375 120 L 52.5 120 L 52.5 99.140625 C 61.496094 93.046875 67.5 82.851562 67.5 71.25 C 67.5 52.707031 52.292969 37.5 33.75 37.5 Z M 33.75 52.5 C 44.179688 52.5 52.5 60.820312 52.5 71.25 C 52.5 81.679688 44.179688 90 33.75 90 C 23.320312 90 15 81.679688 15 71.25 C 15 60.820312 23.320312 52.5 33.75 52.5 Z M 341.25 52.5 C 351.679688 52.5 360 60.820312 360 71.25 C 360 81.679688 351.679688 90 341.25 90 C 330.820312 90 322.5 81.679688 322.5 71.25 C 322.5 60.820312 330.820312 52.5 341.25 52.5 Z M 30 104.53125 C 31.261719 104.675781 32.460938 105 33.75 105 C 35.039062 105 36.238281 104.675781 37.5 104.53125 L 37.5 125.15625 C 37.058594 126.621094 37.058594 128.144531 37.5 129.609375 L 37.5 266.71875 C 36.679688 268.652344 36.679688 270.878906 37.5 272.8125 L 37.5 318.984375 C 36.300781 321.269531 36.300781 323.964844 37.5 326.25 L 37.5 345 L 30 345 Z M 337.5 104.53125 C 338.761719 104.675781 339.960938 105 341.25 105 C 342.539062 105 343.738281 104.675781 345 104.53125 L 345 345 L 337.5 345 L 337.5 324.609375 C 337.824219 323.378906 337.824219 322.089844 337.5 320.859375 L 337.5 272.109375 C 337.824219 270.878906 337.824219 269.589844 337.5 268.359375 L 337.5 128.90625 C 337.707031 127.910156 337.707031 126.855469 337.5 125.859375 Z M 52.5 135 L 90 135 L 90 262.265625 L 52.5 262.265625 Z M 105 135 L 150 135 L 150 262.265625 L 105 262.265625 Z M 165 135 L 210 135 L 210 262.265625 L 165 262.265625 Z M 225 135 L 270 135 L 270 262.265625 L 225 262.265625 Z M 285 135 L 322.5 135 L 322.5 262.265625 L 285 262.265625 Z M 52.5 277.734375 L 322.5 277.734375 L 322.5 314.765625 L 52.5 314.765625 Z M 52.5 277.734375 "/>
</g>
</svg>
