<?xml version="1.0" encoding="UTF-8"?>
<svg xmlns="http://www.w3.org/2000/svg" xmlns:xlink="http://www.w3.org/1999/xlink" width="375pt" height="375pt" viewBox="0 0 375 375" version="1.1">
<g id="surface5684">
<path style=" stroke:none;fill-rule:nonzero;fill:rgb(0%,0%,0%);fill-opacity:1;" d="M 277.5 37.5 C 256.785156 37.5 240 54.285156 240 75 C 240 95.714844 256.785156 112.5 277.5 112.5 C 298.214844 112.5 315 95.714844 315 75 C 315 54.285156 298.214844 37.5 277.5 37.5 Z M 198.75 82.5 C 192.128906 82.5 185.742188 85.050781 180.910156 89.558594 L 118.242188 140.066406 L 118.242188 140.15625 C 109.949219 145.722656 105 155.039062 105 165 C 105 175.429688 110.449219 185.097656 119.324219 190.546875 L 177.1875 229.921875 L 165.351562 300.207031 C 165.117188 301.378906 165 302.550781 165 303.75 C 165 314.089844 173.410156 322.5 183.75 322.5 C 193.710938 322.5 201.914062 314.707031 202.472656 304.777344 L 217.265625 220.195312 L 217.265625 220.167969 C 217.410156 219.285156 217.5 218.378906 217.5 217.5 C 217.5 212.550781 215.039062 207.890625 210.9375 205.105469 L 210.910156 205.050781 L 170.625 175.3125 L 211.550781 139.191406 L 242.753906 173.699219 L 242.839844 173.761719 C 245.652344 177.683594 250.167969 180 255 180 L 311.25 180 C 321.589844 180 330 171.589844 330 161.25 C 330 150.910156 321.589844 142.5 311.25 142.5 L 262.5 142.5 L 220.546875 94.160156 C 215.683594 86.863281 207.511719 82.5 198.75 82.5 Z M 82.5 210 C 45.324219 210 15 240.324219 15 277.5 C 15 314.675781 45.324219 345 82.5 345 C 119.675781 345 150 314.675781 150 277.5 C 150 240.324219 119.675781 210 82.5 210 Z M 292.5 210 C 255.324219 210 225 240.324219 225 277.5 C 225 314.675781 255.324219 345 292.5 345 C 329.675781 345 360 314.675781 360 277.5 C 360 240.324219 329.675781 210 292.5 210 Z M 82.5 225 C 111.589844 225 135 248.410156 135 277.5 C 135 306.589844 111.589844 330 82.5 330 C 53.410156 330 30 306.589844 30 277.5 C 30 248.410156 53.410156 225 82.5 225 Z M 292.5 225 C 321.589844 225 345 248.410156 345 277.5 C 345 306.589844 321.589844 330 292.5 330 C 263.410156 330 240 306.589844 240 277.5 C 240 248.410156 263.410156 225 292.5 225 Z M 292.5 225 "/>
</g>
</svg>
