<?xml version="1.0" encoding="UTF-8"?>
<svg xmlns="http://www.w3.org/2000/svg" xmlns:xlink="http://www.w3.org/1999/xlink" width="375pt" height="375pt" viewBox="0 0 375 375" version="1.1">
<g id="surface5626">
<path style=" stroke:none;fill-rule:nonzero;fill:rgb(0%,0%,0%);fill-opacity:1;" d="M 281.25 37.5 C 268.125 37.5 257.328125 42.691406 250.328125 50.566406 C 243.328125 58.441406 240 68.644531 240 78.75 C 240 88.855469 243.328125 99.058594 250.328125 106.933594 C 257.328125 114.808594 268.125 120 281.25 120 C 294.375 120 305.171875 114.808594 312.171875 106.933594 C 319.171875 99.058594 322.5 88.855469 322.5 78.75 C 322.5 68.644531 319.171875 58.441406 312.171875 50.566406 C 305.171875 42.691406 294.375 37.5 281.25 37.5 Z M 281.25 52.5 C 290.625 52.5 296.703125 55.746094 300.953125 60.527344 C 305.203125 65.308594 307.5 71.980469 307.5 78.75 C 307.5 85.519531 305.203125 92.191406 300.953125 96.972656 C 296.703125 101.753906 290.625 105 281.25 105 C 271.875 105 265.796875 101.753906 261.546875 96.972656 C 257.296875 92.191406 255 85.519531 255 78.75 C 255 71.980469 257.296875 65.308594 261.546875 60.527344 C 265.796875 55.746094 271.875 52.5 281.25 52.5 Z M 206.527344 82.5 C 198.808594 82.5 191.652344 85.777344 184.117188 90.132812 C 176.578125 94.488281 168.695312 100.191406 160.53125 106.214844 C 140.550781 120.960938 124.867188 133.238281 115.195312 141.121094 L 115.179688 141.121094 C 109.4375 145.820312 97.5 158.425781 97.5 178.800781 C 97.5 190.304688 104.046875 199.378906 111.535156 206.074219 C 119.019531 212.769531 127.832031 217.78125 134.808594 222.128906 C 148.125 230.425781 164.761719 240.886719 168.851562 243.457031 L 160.238281 311.996094 L 160.222656 312.4375 C 160.222656 312.4375 160.128906 317.6875 162.449219 323.394531 C 164.773438 329.101562 170.714844 336.164062 180.367188 337.457031 C 189.921875 338.734375 197.484375 333.773438 201.3125 329.046875 C 205.140625 324.320312 206.511719 319.335938 206.511719 319.335938 L 206.617188 318.984375 L 206.691406 318.617188 C 206.691406 318.617188 218.855469 252.90625 220.855469 240.441406 C 221.777344 234.675781 223.375 228.953125 222.261719 222.113281 C 221.144531 215.277344 216.625 208.597656 208.636719 202.910156 C 197.65625 195.089844 187.023438 189.511719 179.546875 185.375 C 183.953125 181.972656 186.789062 179.773438 194.269531 174.039062 C 200.207031 169.484375 206.25 164.882812 210.964844 161.324219 C 213.324219 159.542969 215.351562 158.015625 216.855469 156.914062 C 218.359375 155.8125 220.023438 154.789062 219.082031 155.316406 C 220.183594 154.695312 219.949219 154.757812 220.605469 154.351562 C 225.835938 161.226562 246.417969 188.363281 246.417969 188.363281 L 246.738281 188.773438 L 247.105469 189.140625 C 247.105469 189.140625 249.324219 191.171875 252.320312 192.511719 C 255.316406 193.847656 259.609375 195 265.167969 195 L 330 195 C 342.453125 195 352.5 184.953125 352.5 172.5 C 352.5 160.046875 342.453125 150 330 150 L 273.941406 150 C 270.644531 145.238281 245.011719 108.183594 239.222656 99.449219 C 231.207031 87.351562 218.609375 82.5 206.527344 82.5 Z M 206.527344 97.5 C 215.222656 97.5 221.378906 99.691406 226.714844 107.738281 C 233.394531 117.824219 263.832031 161.761719 263.832031 161.761719 L 266.074219 165 L 330 165 C 332.847656 165 337.5 169.652344 337.5 172.5 C 337.5 175.347656 332.847656 180 330 180 L 265.167969 180 C 261.632812 180 259.546875 179.3125 258.425781 178.8125 C 257.488281 178.394531 257.75 178.53125 257.8125 178.566406 C 256.882812 177.339844 234.617188 147.988281 231.09375 143.363281 C 229.652344 141.472656 227.730469 139.710938 225.132812 138.792969 C 222.535156 137.875 219.699219 138.175781 217.824219 138.824219 C 214.066406 140.117188 212.546875 141.78125 211.714844 142.25 L 211.714844 142.238281 C 210.011719 143.195312 209.578125 143.65625 207.980469 144.828125 C 206.378906 146.003906 204.316406 147.539062 201.929688 149.339844 C 197.152344 152.945312 191.097656 157.574219 185.140625 162.144531 C 173.226562 171.28125 161.703125 180.191406 161.703125 180.191406 L 152.578125 187.25 L 162.730469 192.730469 C 162.730469 192.730469 186.917969 205.875 199.9375 215.140625 C 205.949219 219.429688 207.003906 221.792969 207.449219 224.53125 C 207.898438 227.273438 207.070312 231.664062 206.042969 238.066406 C 204.277344 249.105469 192.253906 314.199219 192.054688 315.261719 C 192.027344 315.351562 191.332031 317.539062 189.652344 319.613281 C 187.941406 321.730469 186.542969 323.148438 182.359375 322.589844 C 178.269531 322.042969 177.394531 320.335938 176.339844 317.738281 C 175.3125 315.214844 175.257812 312.839844 175.253906 312.699219 L 184.9375 235.839844 L 180.878906 233.292969 C 180.878906 233.292969 157.699219 218.714844 142.75 209.398438 C 135.453125 204.851562 127.371094 200.097656 121.539062 194.882812 C 115.703125 189.667969 112.5 184.699219 112.5 178.800781 C 112.5 164.355469 121.203125 155.585938 124.6875 152.738281 C 134.113281 145.054688 149.644531 132.894531 169.4375 118.285156 C 177.503906 112.332031 185.101562 106.898438 191.628906 103.125 C 198.160156 99.351562 203.652344 97.5 206.527344 97.5 Z M 75 225 C 33.667969 225 0 258.667969 0 300 C 0 341.332031 33.667969 375 75 375 C 116.332031 375 150 341.332031 150 300 C 150 258.667969 116.332031 225 75 225 Z M 300 225 C 258.667969 225 225 258.667969 225 300 C 225 341.332031 258.667969 375 300 375 C 341.332031 375 375 341.332031 375 300 C 375 258.667969 341.332031 225 300 225 Z M 75 240 C 108.226562 240 135 266.773438 135 300 C 135 333.226562 108.226562 360 75 360 C 41.773438 360 15 333.226562 15 300 C 15 266.773438 41.773438 240 75 240 Z M 300 240 C 333.226562 240 360 266.773438 360 300 C 360 333.226562 333.226562 360 300 360 C 266.773438 360 240 333.226562 240 300 C 240 266.773438 266.773438 240 300 240 Z M 300 240 "/>
</g>
</svg>
