<?xml version="1.0" encoding="UTF-8"?>
<svg xmlns="http://www.w3.org/2000/svg" xmlns:xlink="http://www.w3.org/1999/xlink" width="375pt" height="375pt" viewBox="0 0 375 375" version="1.1">
<g id="surface6596">
<path style=" stroke:none;fill-rule:nonzero;fill:rgb(0%,0%,0%);fill-opacity:1;" d="M 186.328125 25.78125 C 184.042969 26.132812 182.050781 27.511719 180.9375 29.53125 L 0.9375 341.25 C -0.410156 343.59375 -0.410156 346.464844 0.964844 348.777344 C 2.316406 351.09375 4.804688 352.527344 7.5 352.5 L 367.5 352.5 C 370.195312 352.527344 372.683594 351.09375 374.035156 348.777344 C 375.410156 346.464844 375.410156 343.59375 374.0625 341.25 L 194.0625 29.53125 C 192.539062 26.777344 189.433594 25.285156 186.328125 25.78125 Z M 187.5 48.28125 L 354.375 337.5 L 20.625 337.5 Z M 178.828125 141.796875 C 177.214844 141.796875 176.25 142.761719 176.25 144.375 L 176.25 252.890625 C 176.25 254.503906 177.214844 255.703125 178.828125 255.703125 L 196.171875 255.703125 C 197.785156 255.703125 198.75 254.503906 198.75 252.890625 L 198.75 144.375 C 198.75 142.761719 197.785156 141.796875 196.171875 141.796875 Z M 177.1875 277.265625 C 176.191406 277.644531 175.78125 278.644531 175.78125 279.84375 L 175.78125 299.53125 C 175.78125 301.144531 176.746094 302.109375 178.359375 302.109375 L 196.640625 302.109375 C 198.253906 302.109375 199.21875 301.144531 199.21875 299.53125 L 199.21875 279.84375 C 199.21875 278.230469 198.253906 277.265625 196.640625 277.265625 L 178.359375 277.265625 C 177.949219 277.265625 177.511719 277.148438 177.1875 277.265625 Z M 177.1875 277.265625 "/>
</g>
</svg>
