<?xml version="1.0" encoding="UTF-8"?>
<svg xmlns="http://www.w3.org/2000/svg" xmlns:xlink="http://www.w3.org/1999/xlink" width="375pt" height="375pt" viewBox="0 0 375 375" version="1.1">
<g id="surface849">
<path style=" stroke:none;fill-rule:nonzero;fill:rgb(0%,0%,0%);fill-opacity:1;" d="M 187.5 22.5 C 96.375 22.5 22.5 96.375 22.5 187.5 C 22.5 270.226562 83.4375 338.527344 162.839844 350.460938 L 162.839844 231.234375 L 122.015625 231.234375 L 122.015625 187.859375 L 162.839844 187.859375 L 162.839844 159 C 162.839844 111.21875 186.121094 90.238281 225.832031 90.238281 C 244.851562 90.238281 254.910156 91.648438 259.671875 92.296875 L 259.671875 130.15625 L 232.582031 130.15625 C 215.722656 130.15625 209.835938 146.136719 209.835938 164.152344 L 209.835938 187.859375 L 259.246094 187.859375 L 252.539062 231.234375 L 209.835938 231.234375 L 209.835938 350.8125 C 290.371094 339.886719 352.5 271.027344 352.5 187.5 C 352.5 96.375 278.625 22.5 187.5 22.5 Z M 187.5 22.5 "/>
</g>
</svg>
