<?xml version="1.0" encoding="UTF-8"?>
<svg xmlns="http://www.w3.org/2000/svg" xmlns:xlink="http://www.w3.org/1999/xlink" width="375pt" height="375pt" viewBox="0 0 375 375" version="1.1">
<g id="surface797">
<path style=" stroke:none;fill-rule:nonzero;fill:rgb(0%,0%,0%);fill-opacity:1;" d="M 187.5 22.5 C 96.460938 22.5 22.5 96.460938 22.5 187.5 C 22.5 270.144531 83.457031 338.539062 162.847656 350.464844 L 171.460938 351.769531 L 171.460938 221.746094 L 132.480469 221.746094 L 132.480469 195.351562 L 171.460938 195.351562 L 171.460938 160.296875 C 171.460938 138.710938 176.640625 124.496094 185.214844 115.574219 C 193.789062 106.65625 206.460938 102.160156 224.089844 102.160156 C 238.191406 102.160156 243.675781 103.011719 248.890625 103.652344 L 248.890625 125.257812 L 230.535156 125.257812 C 220.121094 125.257812 211.578125 131.070312 207.144531 138.808594 C 202.707031 146.546875 201.328125 155.789062 201.328125 165.207031 L 201.328125 195.335938 L 247.25 195.335938 L 243.164062 221.734375 L 201.328125 221.734375 L 201.328125 351.972656 L 209.839844 350.816406 C 290.359375 339.894531 352.5 270.953125 352.5 187.5 C 352.5 96.460938 278.539062 22.5 187.5 22.5 Z M 187.5 37.5 C 270.433594 37.5 337.5 104.566406 337.5 187.5 C 337.5 260.472656 285.269531 320.488281 216.328125 334 L 216.328125 236.734375 L 256.027344 236.734375 L 264.742188 180.335938 L 216.328125 180.335938 L 216.328125 165.207031 C 216.328125 157.425781 217.75 150.453125 220.152344 146.265625 C 222.550781 142.078125 224.863281 140.257812 230.535156 140.257812 L 263.890625 140.257812 L 263.890625 90.074219 L 257.386719 89.195312 C 252.890625 88.585938 242.617188 87.160156 224.089844 87.160156 C 203.820312 87.160156 186.417969 92.679688 174.402344 105.175781 C 162.390625 117.671875 156.460938 136.277344 156.460938 160.296875 L 156.460938 180.351562 L 117.480469 180.351562 L 117.480469 236.746094 L 156.460938 236.746094 L 156.460938 333.53125 C 88.628906 319.160156 37.5 259.683594 37.5 187.5 C 37.5 104.566406 104.566406 37.5 187.5 37.5 Z M 187.5 37.5 "/>
</g>
</svg>
