<?xml version="1.0" encoding="UTF-8"?>
<svg xmlns="http://www.w3.org/2000/svg" xmlns:xlink="http://www.w3.org/1999/xlink" width="375pt" height="375pt" viewBox="0 0 375 375" version="1.1">
<g id="surface938">
<path style=" stroke:none;fill-rule:nonzero;fill:rgb(100%,100%,100%);fill-opacity:1;" d="M 177.65625 0 C 165.351562 0 154.980469 8.085938 151.40625 19.21875 C 126.328125 25.050781 103.828125 36.796875 84.84375 53.203125 C 82.675781 52.644531 80.363281 52.5 78.046875 52.5 L 57.65625 52.5 C 42.394531 52.5 30 64.660156 30 79.453125 L 30 96.09375 C 30 103.386719 35.183594 109.777344 41.953125 111.796875 C 37.941406 121.613281 34.832031 131.835938 32.8125 142.5 L 27.65625 142.5 C 12.394531 142.5 0 154.660156 0 169.453125 L 0 186.09375 C 0 194.910156 7.589844 202.5 16.40625 202.5 L 32.8125 202.5 C 36.183594 218.761719 41.746094 234.285156 49.6875 248.671875 C 38.320312 252.042969 30 262.355469 30 274.453125 L 30 291.09375 C 30 299.910156 37.589844 307.5 46.40625 307.5 L 78.75 307.5 L 48.28125 359.765625 L 45 359.765625 C 44.765625 359.765625 44.53125 359.765625 44.296875 359.765625 C 44.0625 359.765625 43.828125 359.765625 43.59375 359.765625 C 39.316406 360.144531 36.183594 363.925781 36.5625 368.203125 C 36.941406 372.480469 40.722656 375.613281 45 375.234375 L 97.5 375.234375 C 100.78125 375.207031 103.683594 373.097656 104.738281 369.988281 C 105.792969 366.886719 104.765625 363.425781 102.1875 361.40625 L 126.796875 317.578125 C 133.886719 320.652344 141.386719 323.261719 149.296875 325.3125 L 149.296875 336.09375 C 149.296875 345.613281 157.03125 352.5 165.703125 352.5 L 208.59375 352.5 C 217.410156 352.5 225 344.910156 225 336.09375 L 225 325.3125 C 232.792969 323.410156 240.441406 321.09375 247.96875 317.8125 L 272.578125 360.9375 C 269.53125 362.871094 268.214844 366.621094 269.386719 370.050781 C 270.558594 373.449219 273.925781 375.585938 277.5 375.234375 L 330 375.234375 C 334.277344 375.234375 337.734375 371.777344 337.734375 367.5 C 337.734375 363.222656 334.277344 359.765625 330 359.765625 L 326.71875 359.765625 L 296.71875 308.203125 L 329.296875 308.203125 C 338.816406 308.203125 345.703125 300.46875 345.703125 291.796875 L 345.703125 275.15625 C 345.703125 262.410156 337.058594 251.628906 325.3125 248.4375 C 333.253906 234.230469 339.167969 218.789062 342.1875 202.5 L 358.59375 202.5 C 367.410156 202.5 375 194.910156 375 186.09375 L 375 169.453125 C 375 154.191406 362.605469 141.796875 347.34375 141.796875 L 341.953125 141.796875 C 339.902344 131.394531 336.972656 121.40625 333.046875 111.796875 C 339.699219 110.011719 344.621094 104.441406 345.703125 97.96875 C 345.730469 97.589844 345.730469 97.175781 345.703125 96.796875 L 345.703125 80.15625 C 345.703125 64.894531 333.308594 52.5 318.046875 52.5 L 297.65625 52.5 C 295.136719 52.5 292.707031 52.824219 290.390625 53.4375 C 271.875 36.769531 248.816406 25.050781 223.59375 19.21875 C 220.078125 8.085938 209.972656 0 198.046875 0 Z M 179.53125 15 L 195.46875 15 C 195.207031 15.964844 195 16.964844 195 18.046875 L 195 19.453125 C 195 25.457031 199.542969 30 205.546875 30 L 206.953125 30 C 208.035156 30 209.035156 29.792969 210 29.53125 L 210 44.296875 C 210 44.621094 210.261719 45 208.59375 45 L 165.703125 45 C 165.378906 45 165 45.261719 165 43.59375 L 165 29.53125 C 165.964844 29.792969 166.964844 30 168.046875 30 L 169.453125 30 C 175.457031 30 180 25.457031 180 19.453125 L 180 18.046875 C 180 16.964844 179.792969 15.964844 179.53125 15 Z M 149.765625 34.921875 C 149.855469 34.894531 149.910156 34.949219 150 34.921875 L 150 43.59375 C 150 52.410156 157.03125 60 165.703125 60 L 208.59375 60 C 217.410156 60 225 52.96875 225 44.296875 L 225 34.921875 C 244.363281 40.136719 262.324219 49.335938 277.03125 61.640625 C 272.695312 66.328125 269.765625 72.394531 269.296875 78.984375 C 269.296875 79.128906 269.296875 79.308594 269.296875 79.453125 L 269.296875 96.09375 C 269.296875 105.613281 277.03125 112.5 285.703125 112.5 L 316.875 112.5 C 321.121094 122.019531 324.464844 131.777344 326.71875 141.796875 C 311.574219 141.914062 299.296875 154.277344 299.296875 169.453125 L 299.296875 186.09375 C 299.296875 195.613281 307.03125 202.5 315.703125 202.5 L 326.953125 202.5 C 323.613281 218.582031 317.460938 233.582031 308.671875 247.5 L 297.65625 247.5 C 285.761719 247.5 275.535156 255 271.640625 265.546875 L 228.28125 191.25 C 230.917969 185.535156 232.5 179.179688 232.5 172.5 C 232.5 147.746094 212.253906 127.5 187.5 127.5 C 162.746094 127.5 142.5 147.746094 142.5 172.5 C 142.5 179.0625 143.933594 185.390625 146.484375 191.015625 L 103.59375 264.375 C 99.375 254.441406 89.472656 247.5 78.046875 247.5 L 66.5625 247.5 C 57.949219 233.730469 51.941406 218.699219 48.28125 202.5 L 58.59375 202.5 C 67.410156 202.5 75 195.46875 75 186.796875 L 75 170.15625 C 75 154.894531 62.839844 142.5 48.046875 142.5 C 50.273438 132.214844 53.761719 122.253906 58.125 112.5 L 88.59375 112.5 C 97.410156 112.5 104.386719 105.792969 105.703125 97.96875 C 105.730469 97.589844 105.730469 97.175781 105.703125 96.796875 L 105.703125 80.15625 C 105.703125 72.949219 102.746094 66.5625 98.203125 61.640625 C 113.347656 49.308594 130.664062 40.105469 149.765625 34.921875 Z M 59.53125 67.5 L 75.46875 67.5 C 75.207031 68.464844 75 69.464844 75 70.546875 L 75 71.953125 C 75 77.957031 79.542969 82.5 85.546875 82.5 L 86.953125 82.5 C 88.300781 82.5 89.53125 82.207031 90.703125 81.796875 L 90.703125 95.859375 C 90.46875 96.824219 90.089844 97.5 88.59375 97.5 L 46.40625 97.5 C 44.738281 97.5 45 97.761719 45 96.09375 L 45 82.03125 C 45.964844 82.292969 46.964844 82.5 48.046875 82.5 L 49.453125 82.5 C 55.457031 82.5 60 77.957031 60 71.953125 L 60 70.546875 C 60 69.464844 59.792969 68.464844 59.53125 67.5 Z M 299.53125 67.5 L 315.46875 67.5 C 315.207031 68.464844 315 69.464844 315 70.546875 L 315 71.953125 C 315 77.957031 319.542969 82.5 325.546875 82.5 L 326.953125 82.5 C 328.300781 82.5 329.53125 82.207031 330.703125 81.796875 L 330.703125 95.859375 C 330.46875 96.824219 330.089844 97.5 328.59375 97.5 L 285.703125 97.5 C 285.378906 97.5 284.296875 97.058594 284.296875 96.09375 L 284.296875 81.796875 C 285.46875 82.207031 286.699219 82.5 288.046875 82.5 L 289.453125 82.5 C 295.457031 82.5 300 77.957031 300 71.953125 L 300 70.546875 C 300 69.464844 299.792969 68.464844 299.53125 67.5 Z M 187.5 142.5 C 204.167969 142.5 217.5 155.832031 217.5 172.5 C 217.5 177.394531 216.269531 182.019531 214.21875 186.09375 C 213.867188 186.535156 213.542969 187.003906 213.28125 187.5 C 213.019531 187.878906 212.785156 188.261719 212.578125 188.671875 C 212.488281 188.90625 212.402344 189.140625 212.34375 189.375 C 208.269531 195.441406 202.089844 199.777344 194.765625 201.5625 C 194.53125 201.621094 194.296875 201.503906 194.0625 201.5625 C 193.59375 201.589844 193.125 201.679688 192.65625 201.796875 C 192.421875 201.855469 192.1875 201.941406 191.953125 202.03125 C 190.488281 202.238281 189.023438 202.5 187.5 202.5 C 185.417969 202.5 183.371094 202.207031 181.40625 201.796875 C 181.316406 201.769531 181.261719 201.824219 181.171875 201.796875 C 180.9375 201.707031 180.703125 201.621094 180.46875 201.5625 C 167.253906 198.425781 157.5 186.738281 157.5 172.5 C 157.5 155.832031 170.832031 142.5 187.5 142.5 Z M 329.296875 156.796875 L 331.875 156.796875 C 334.425781 158.527344 337.761719 158.527344 340.3125 156.796875 L 345.703125 156.796875 C 345.292969 157.96875 345 159.199219 345 160.546875 L 345 161.953125 C 345 167.957031 349.542969 172.5 355.546875 172.5 L 356.953125 172.5 C 358.035156 172.5 359.035156 172.292969 360 172.03125 L 360 186.09375 C 360 187.761719 360.261719 187.5 358.59375 187.5 L 315.703125 187.5 C 315.378906 187.5 314.296875 187.058594 314.296875 186.09375 L 314.296875 171.796875 C 315.46875 172.207031 316.699219 172.5 318.046875 172.5 L 319.453125 172.5 C 325.457031 172.5 330 167.957031 330 161.953125 L 330 160.546875 C 330 159.199219 329.707031 157.96875 329.296875 156.796875 Z M 29.53125 157.5 L 35.859375 157.5 C 37.734375 158.292969 39.84375 158.292969 41.71875 157.5 L 45.46875 157.5 C 45.207031 158.464844 45 159.464844 45 160.546875 L 45 161.953125 C 45 167.957031 49.542969 172.5 55.546875 172.5 L 56.953125 172.5 C 58.035156 172.5 59.035156 172.292969 60 172.03125 L 60 186.796875 C 60 187.121094 60.261719 187.5 58.59375 187.5 L 40.78125 187.5 C 40.019531 187.292969 39.230469 187.207031 38.4375 187.265625 C 38.203125 187.324219 37.96875 187.410156 37.734375 187.5 L 16.40625 187.5 C 14.738281 187.5 15 187.761719 15 186.09375 L 15 172.03125 C 15.964844 172.292969 16.964844 172.5 18.046875 172.5 L 19.453125 172.5 C 25.457031 172.5 30 167.957031 30 161.953125 L 30 160.546875 C 30 159.464844 29.792969 158.464844 29.53125 157.5 Z M 155.859375 204.375 C 159.519531 208.035156 163.769531 211.054688 168.515625 213.28125 L 85.78125 359.765625 L 65.625 359.765625 L 102.1875 296.71875 C 104.238281 295.429688 105.527344 293.261719 105.703125 290.859375 Z M 218.90625 204.84375 L 270.46875 292.96875 C 270.730469 293.730469 271.144531 294.433594 271.640625 295.078125 L 275.859375 302.578125 C 276.183594 303.808594 276.824219 304.949219 277.734375 305.859375 L 309.140625 359.765625 L 289.21875 359.765625 L 206.015625 213.515625 C 210.792969 211.347656 215.183594 208.449219 218.90625 204.84375 Z M 183.515625 217.265625 C 184.804688 217.382812 186.183594 217.5 187.5 217.5 C 188.582031 217.5 189.726562 217.355469 190.78125 217.265625 L 240.46875 304.6875 C 234.933594 306.972656 229.21875 308.789062 223.359375 310.3125 C 219.582031 299.558594 209.386719 291.796875 197.34375 291.796875 L 176.953125 291.796875 C 164.910156 291.796875 154.714844 299.558594 150.9375 310.3125 C 145.222656 308.730469 139.628906 306.707031 134.296875 304.453125 Z M 59.53125 262.5 L 75.46875 262.5 C 75.207031 263.464844 75 264.464844 75 265.546875 L 75 266.953125 C 75 272.957031 79.542969 277.5 85.546875 277.5 L 86.953125 277.5 C 88.300781 277.5 89.53125 277.207031 90.703125 276.796875 L 90.703125 286.875 L 87.421875 292.5 L 46.40625 292.5 C 44.738281 292.5 45 292.761719 45 291.09375 L 45 277.03125 C 45.964844 277.292969 46.964844 277.5 48.046875 277.5 L 49.453125 277.5 C 55.457031 277.5 60 272.957031 60 266.953125 L 60 265.546875 C 60 264.464844 59.792969 263.464844 59.53125 262.5 Z M 299.53125 262.5 L 315.46875 262.5 C 315.207031 263.464844 315 264.464844 315 265.546875 L 315 266.953125 C 315 272.957031 319.542969 277.5 325.546875 277.5 L 326.953125 277.5 C 328.300781 277.5 329.53125 277.207031 330.703125 276.796875 L 330.703125 291.796875 C 330.703125 292.121094 330.261719 293.203125 329.296875 293.203125 L 287.8125 293.203125 L 285 288.28125 L 285 277.03125 C 285.964844 277.292969 286.964844 277.5 288.046875 277.5 L 289.453125 277.5 C 295.457031 277.5 300 272.957031 300 266.953125 L 300 265.546875 C 300 264.464844 299.792969 263.464844 299.53125 262.5 Z M 179.296875 306.796875 L 195.703125 306.796875 C 195.292969 307.96875 195 309.199219 195 310.546875 L 195 311.953125 C 195 317.957031 199.542969 322.5 205.546875 322.5 L 206.953125 322.5 C 207.863281 322.5 208.710938 322.472656 209.53125 322.265625 C 209.675781 322.5 209.824219 322.734375 210 322.96875 L 210 336.09375 C 210 337.761719 210.261719 337.5 208.59375 337.5 L 165.703125 337.5 C 165.378906 337.5 164.296875 337.058594 164.296875 336.09375 L 164.296875 322.96875 C 164.386719 322.675781 164.472656 322.355469 164.53125 322.03125 C 165.613281 322.382812 166.816406 322.5 168.046875 322.5 L 169.453125 322.5 C 175.457031 322.5 180 317.957031 180 311.953125 L 180 310.546875 C 180 309.199219 179.707031 307.96875 179.296875 306.796875 Z M 179.296875 306.796875 "/>
</g>
</svg>
