<?xml version="1.0" encoding="UTF-8"?>
<svg xmlns="http://www.w3.org/2000/svg" xmlns:xlink="http://www.w3.org/1999/xlink" width="375pt" height="375pt" viewBox="0 0 375 375" version="1.1">
<g id="surface878">
<path style=" stroke:none;fill-rule:nonzero;fill:rgb(100%,100%,100%);fill-opacity:1;" d="M 177.65625 0 C 165.351562 0 154.980469 8.085938 151.40625 19.21875 C 126.328125 25.050781 103.828125 36.796875 84.84375 53.203125 C 82.734375 52.644531 80.535156 52.5 78.28125 52.5 L 58.125 52.5 C 42.863281 52.5 30.46875 64.894531 30.46875 80.15625 L 30.46875 96.09375 C 30.46875 99.402344 31.347656 102.597656 33.046875 105.234375 C 34.160156 106.992188 35.597656 108.515625 37.265625 109.6875 C 37.324219 109.714844 37.441406 109.660156 37.5 109.6875 C 38.878906 110.625 40.3125 111.589844 41.953125 112.03125 C 38.027344 121.667969 34.832031 131.601562 32.8125 142.03125 L 27.65625 142.03125 C 12.394531 142.03125 0 154.660156 0 169.921875 L 0 185.625 C 0 187.824219 0.382812 189.988281 1.171875 191.953125 C 1.199219 192.011719 1.144531 192.128906 1.171875 192.1875 C 1.550781 193.097656 2.050781 193.945312 2.578125 194.765625 C 4.804688 198.371094 8.203125 200.917969 12.421875 201.796875 C 13.503906 202.058594 14.558594 202.03125 15.703125 202.03125 L 32.8125 202.03125 C 36.183594 218.464844 41.660156 234.140625 49.6875 248.671875 C 38.320312 252.160156 30 262.675781 30 275.15625 L 30 291.09375 C 30 300.351562 36.855469 307.5 45.703125 307.5 L 88.59375 307.5 C 97.851562 307.5 105 300.644531 105 291.796875 L 105 275.15625 C 105 259.863281 92.929688 247.5 78.046875 247.5 L 66.5625 247.5 C 57.863281 233.613281 51.941406 218.410156 48.28125 202.03125 L 58.59375 202.03125 C 61.902344 202.03125 65.097656 201.152344 67.734375 199.453125 C 71.308594 197.167969 73.945312 193.59375 74.765625 189.375 C 75 188.347656 75 187.410156 75 186.328125 L 75 169.921875 C 75 154.660156 62.839844 142.03125 48.046875 142.03125 C 50.300781 131.925781 53.816406 122.109375 58.125 112.5 L 88.828125 112.5 C 92.199219 112.5 95.507812 111.679688 98.203125 109.921875 C 100.839844 108.253906 102.832031 105.730469 104.0625 102.890625 C 104.472656 102.011719 104.765625 101.015625 105 100.078125 C 105.027344 100.019531 105 99.902344 105 99.84375 C 105.234375 98.816406 105.46875 97.878906 105.46875 96.796875 L 105.46875 80.15625 C 105.46875 72.949219 102.65625 66.5625 98.203125 61.640625 C 113.378906 49.277344 130.808594 40.105469 150 34.921875 L 150 43.59375 C 150 46.902344 150.878906 50.097656 152.578125 52.734375 C 153.691406 54.492188 155.128906 56.015625 156.796875 57.1875 C 156.855469 57.214844 156.972656 57.160156 157.03125 57.1875 C 158.671875 58.300781 160.429688 59.355469 162.421875 59.765625 C 163.503906 60.027344 164.558594 60 165.703125 60 L 208.59375 60 C 211.902344 60 215.097656 59.121094 217.734375 57.421875 C 221.308594 55.136719 223.945312 51.589844 224.765625 47.34375 C 225 46.316406 225 45.378906 225 44.296875 L 225 34.921875 C 244.425781 40.167969 262.292969 49.542969 277.03125 61.875 C 272.636719 66.769531 269.765625 73.066406 269.765625 80.15625 L 269.765625 96.09375 C 269.765625 98.410156 270.144531 100.429688 270.9375 102.421875 C 271.347656 103.386719 271.785156 104.355469 272.34375 105.234375 C 273.457031 106.992188 274.894531 108.515625 276.5625 109.6875 C 276.621094 109.714844 276.738281 109.660156 276.796875 109.6875 C 278.4375 110.800781 280.195312 111.855469 282.1875 112.265625 C 283.269531 112.527344 284.324219 112.5 285.46875 112.5 L 316.875 112.5 C 321.183594 122.136719 324.726562 131.925781 326.953125 142.03125 C 311.925781 142.292969 299.765625 154.832031 299.765625 169.921875 L 299.765625 185.625 C 299.765625 186.769531 299.792969 187.824219 300 188.90625 C 300.207031 189.960938 300.527344 190.988281 300.9375 191.953125 C 300.964844 192.011719 300.910156 192.128906 300.9375 192.1875 C 301.316406 193.097656 301.816406 193.945312 302.34375 194.765625 C 303.488281 196.582031 304.832031 198.019531 306.5625 199.21875 C 306.621094 199.246094 306.738281 199.191406 306.796875 199.21875 C 308.4375 200.332031 310.195312 201.386719 312.1875 201.796875 C 312.246094 201.824219 312.363281 201.769531 312.421875 201.796875 C 313.386719 201.972656 314.441406 202.03125 315.46875 202.03125 L 327.421875 202.03125 C 324.082031 218.496094 317.460938 233.789062 308.4375 247.96875 L 298.125 247.96875 C 282.832031 247.96875 270.46875 260.332031 270.46875 275.625 L 270.46875 291.328125 C 270.46875 294.785156 271.378906 298.066406 273.046875 300.703125 C 273.605469 301.582031 274.21875 302.316406 274.921875 303.046875 C 276.328125 304.542969 277.941406 305.742188 279.84375 306.5625 C 280.78125 306.972656 281.863281 307.292969 282.890625 307.5 C 283.917969 307.707031 285.058594 307.96875 286.171875 307.96875 L 328.828125 307.96875 C 338.085938 307.96875 345.46875 300.878906 345.46875 292.03125 L 345.46875 275.625 C 345.46875 262.792969 336.855469 252.042969 325.3125 248.90625 C 333.457031 234.464844 339.402344 218.644531 342.421875 202.03125 L 358.125 202.03125 C 361.496094 202.03125 364.804688 201.210938 367.5 199.453125 C 370.195312 197.722656 372.128906 195.351562 373.359375 192.421875 C 373.769531 191.542969 374.0625 190.546875 374.296875 189.609375 C 374.324219 189.550781 374.296875 189.433594 374.296875 189.375 C 374.53125 188.347656 374.765625 187.410156 374.765625 186.328125 L 374.765625 169.921875 C 374.765625 154.660156 362.34375 142.03125 347.578125 142.03125 L 341.953125 142.03125 C 339.933594 131.574219 336.972656 121.464844 333.046875 111.796875 C 334.597656 111.328125 336.152344 110.800781 337.5 109.921875 C 340.136719 108.253906 342.128906 105.730469 343.359375 102.890625 C 343.769531 102.011719 344.0625 101.015625 344.296875 100.078125 C 344.324219 100.019531 344.296875 99.902344 344.296875 99.84375 C 344.53125 98.816406 344.765625 97.878906 344.765625 96.796875 L 344.765625 80.15625 C 344.765625 64.894531 332.34375 52.5 317.578125 52.5 L 297.421875 52.5 C 294.988281 52.5 292.644531 52.851562 290.390625 53.4375 C 271.875 36.769531 248.816406 25.050781 223.59375 19.21875 C 220.078125 8.085938 209.972656 0 198.046875 0 Z M 177.65625 15 L 180 15 L 180 19.453125 C 180 25.457031 175.457031 30 169.453125 30 L 165 30 L 165 28.125 C 165.46875 26.925781 165.644531 25.636719 165.46875 24.375 C 166.875 18.894531 171.589844 15 177.65625 15 Z M 195 15 L 198.046875 15 C 203.847656 15 209.296875 19.746094 210 26.25 C 210 26.484375 210 26.71875 210 26.953125 C 210 27.1875 210 27.421875 210 27.65625 L 210 30 L 205.546875 30 C 199.542969 30 195 25.457031 195 19.453125 Z M 58.125 67.5 L 60.46875 67.5 L 60.46875 71.953125 C 60.46875 77.957031 55.925781 82.5 49.921875 82.5 L 45.46875 82.5 L 45.46875 80.15625 C 45.46875 72.917969 50.886719 67.5 58.125 67.5 Z M 75.46875 67.5 L 78.28125 67.5 C 84.492188 67.5 90.46875 72.917969 90.46875 80.15625 L 90.46875 82.5 L 85.78125 82.5 C 79.777344 82.5 75.46875 77.957031 75.46875 71.953125 Z M 297.421875 67.5 L 299.765625 67.5 L 299.765625 71.953125 C 299.765625 77.957031 295.222656 82.5 289.21875 82.5 L 284.765625 82.5 L 284.765625 80.15625 C 284.765625 72.917969 290.183594 67.5 297.421875 67.5 Z M 314.765625 67.5 L 317.578125 67.5 C 323.761719 67.5 329.765625 72.917969 329.765625 80.15625 L 329.765625 82.5 L 325.078125 82.5 C 319.074219 82.5 314.765625 77.957031 314.765625 71.953125 Z M 187.5 127.5 C 162.683594 127.5 142.5 147.683594 142.5 172.5 C 142.5 197.316406 162.683594 217.5 187.5 217.5 C 212.316406 217.5 232.5 197.316406 232.5 172.5 C 232.5 147.683594 212.316406 127.5 187.5 127.5 Z M 27.65625 157.03125 L 30 157.03125 L 30 161.71875 C 30 167.722656 25.457031 172.03125 19.453125 172.03125 L 15 172.03125 L 15 169.921875 C 15 162.683594 20.417969 157.03125 27.65625 157.03125 Z M 45 157.03125 L 48.046875 157.03125 C 54.257812 157.03125 60 162.683594 60 169.921875 L 60 172.03125 L 55.546875 172.03125 C 49.542969 172.03125 45 167.722656 45 161.71875 Z M 327.421875 157.03125 L 329.765625 157.03125 L 329.765625 161.71875 C 329.765625 167.722656 325.222656 172.03125 319.21875 172.03125 L 314.765625 172.03125 L 314.765625 169.921875 C 314.765625 162.683594 320.183594 157.03125 327.421875 157.03125 Z M 344.765625 157.03125 L 347.578125 157.03125 C 353.761719 157.03125 359.765625 162.683594 359.765625 169.921875 L 359.765625 172.03125 L 355.078125 172.03125 C 349.074219 172.03125 344.765625 167.722656 344.765625 161.71875 Z M 137.8125 206.015625 L 112.03125 250.3125 C 117.070312 257.371094 120 265.808594 120 275.15625 L 120 291.796875 C 120 309.050781 106.261719 322.5 88.59375 322.5 L 70.078125 322.5 L 48.28125 359.765625 L 45 359.765625 C 40.753906 359.765625 37.265625 363.253906 37.265625 367.5 C 37.265625 371.746094 40.753906 375.234375 45 375.234375 L 97.5 375.234375 C 101.746094 375.234375 105.234375 371.746094 105.234375 367.5 C 105.234375 364.949219 103.886719 362.8125 101.953125 361.40625 L 126.796875 317.578125 C 133.945312 320.652344 141.535156 323.292969 149.53125 325.3125 L 149.53125 335.625 C 149.53125 338.933594 150.613281 342.128906 152.34375 344.765625 C 152.371094 344.824219 152.316406 344.941406 152.34375 345 C 152.902344 345.820312 153.542969 346.40625 154.21875 347.109375 C 156.355469 349.425781 159.023438 351.121094 162.1875 351.796875 C 163.214844 352.03125 164.386719 352.03125 165.46875 352.03125 L 208.125 352.03125 C 211.496094 352.03125 214.832031 351.210938 217.5 349.453125 C 221.074219 347.167969 223.476562 343.621094 224.296875 339.375 C 224.53125 338.347656 224.53125 337.410156 224.53125 336.328125 L 224.53125 325.546875 C 232.5 323.613281 240.261719 321.152344 247.96875 317.8125 L 272.8125 361.640625 C 271.054688 363.046875 269.765625 365.066406 269.765625 367.5 C 269.765625 371.746094 273.253906 375.234375 277.5 375.234375 L 330 375.234375 C 334.246094 375.234375 337.734375 371.746094 337.734375 367.5 C 337.734375 363.253906 334.246094 359.765625 330 359.765625 L 326.71875 359.765625 L 305.15625 322.96875 L 286.171875 322.96875 C 268.917969 322.96875 255.46875 308.996094 255.46875 291.328125 L 255.46875 275.625 C 255.46875 266.425781 258.28125 257.988281 263.203125 251.015625 L 237.1875 206.25 C 228.425781 219.113281 214.804688 228.253906 198.984375 231.328125 L 240.703125 304.6875 C 234.960938 307.089844 228.957031 308.761719 222.890625 310.3125 C 219.050781 299.707031 209.089844 292.03125 197.578125 292.03125 L 177.421875 292.03125 C 165.558594 292.03125 155.15625 299.707031 151.171875 310.3125 C 145.402344 308.699219 139.6875 306.738281 134.296875 304.453125 L 175.546875 231.328125 C 159.902344 228.105469 146.457031 218.816406 137.8125 206.015625 Z M 57.65625 262.5 L 60 262.5 L 60 266.953125 C 60 272.957031 55.457031 277.5 49.453125 277.5 L 45 277.5 L 45 275.15625 C 45 268.007812 50.507812 262.5 57.65625 262.5 Z M 75 262.5 L 78.046875 262.5 C 84.550781 262.5 90 268.242188 90 275.15625 L 90 277.5 L 85.546875 277.5 C 79.542969 277.5 75 272.929688 75 266.953125 Z M 298.125 262.96875 L 300.46875 262.96875 L 300.46875 267.421875 C 300.46875 273.425781 295.925781 277.96875 289.921875 277.96875 L 285.46875 277.96875 L 285.46875 275.625 C 285.46875 268.476562 290.976562 262.96875 298.125 262.96875 Z M 315.46875 262.96875 L 318.28125 262.96875 C 324.785156 262.96875 330.46875 268.710938 330.46875 275.625 L 330.46875 277.96875 L 325.78125 277.96875 C 319.777344 277.96875 315.46875 273.425781 315.46875 267.421875 Z M 177.421875 307.03125 L 179.53125 307.03125 L 179.53125 311.71875 C 179.53125 317.722656 175.222656 322.03125 169.21875 322.03125 L 164.53125 322.03125 C 165.117188 320.535156 165.175781 318.894531 164.765625 317.34375 C 165.9375 311.394531 171.066406 307.03125 177.421875 307.03125 Z M 194.53125 307.03125 L 197.578125 307.03125 C 203.085938 307.03125 208.214844 311.511719 209.296875 317.578125 C 208.917969 319.042969 209.003906 320.597656 209.53125 322.03125 L 205.078125 322.03125 C 199.074219 322.03125 194.53125 317.722656 194.53125 311.71875 Z M 194.53125 307.03125 "/>
</g>
</svg>
