<?xml version="1.0" encoding="UTF-8"?>
<svg xmlns="http://www.w3.org/2000/svg" xmlns:xlink="http://www.w3.org/1999/xlink" width="375pt" height="375pt"
  viewBox="0 0 375 375" version="1.1">
  <g id="surface5332">
    <path style=" stroke:none;fill-rule:nonzero;fill:rgb(100%,100%,100%);fill-opacity:1;"
      d="M 187.5 14.398438 C 91.988281 14.398438 14.398438 91.988281 14.398438 187.5 C 14.398438 283.011719 91.988281 360.601562 187.5 360.601562 C 283.011719 360.601562 360.601562 283.011719 360.601562 187.5 C 360.601562 91.988281 283.011719 14.398438 187.5 14.398438 Z M 180 30.277344 L 180 104.78125 C 160.742188 104.324219 142.4375 102.171875 125.550781 98.644531 C 128.523438 89.636719 131.902344 81.265625 135.660156 73.753906 C 148.054688 48.960938 163.78125 33.871094 180 30.277344 Z M 195 30.277344 C 211.21875 33.871094 226.945312 48.960938 239.339844 73.753906 C 243.109375 81.289062 246.496094 89.691406 249.476562 98.730469 C 232.613281 102.226562 214.28125 104.335938 195 104.78125 Z M 143.789062 35.550781 C 135.648438 44.078125 128.390625 54.75 122.242188 67.046875 C 117.957031 75.617188 114.199219 85.070312 110.917969 95.15625 C 96.195312 91.1875 82.878906 86.191406 71.382812 80.390625 C 90.730469 59.421875 115.582031 43.636719 143.789062 35.550781 Z M 231.210938 35.550781 C 259.390625 43.628906 284.21875 59.390625 303.558594 80.332031 C 292.230469 86.238281 278.929688 91.289062 264.125 95.273438 C 260.835938 85.144531 257.058594 75.648438 252.757812 67.046875 C 246.609375 54.75 239.351562 44.078125 231.210938 35.550781 Z M 313.375 92.050781 C 332.101562 116.722656 343.871094 146.972656 345.410156 180 L 277.601562 180 C 277.054688 154.820312 273.835938 131.046875 268.332031 109.746094 C 285.160156 105.195312 300.328125 99.226562 313.375 92.050781 Z M 61.539062 92.167969 C 74.726562 99.171875 89.917969 105.066406 106.699219 109.613281 C 101.171875 130.949219 97.945312 154.769531 97.398438 180 L 29.589844 180 C 31.125 147.027344 42.863281 116.820312 61.539062 92.167969 Z M 121.316406 113.144531 C 139.5625 117.027344 159.277344 119.335938 180 119.792969 L 180 180 L 112.398438 180 C 112.957031 155.90625 116.105469 133.21875 121.316406 113.144531 Z M 253.710938 113.246094 C 258.90625 133.292969 262.046875 155.945312 262.601562 180 L 195 180 L 195 119.792969 C 215.734375 119.351562 235.472656 117.09375 253.710938 113.246094 Z M 29.589844 195 L 97.398438 195 C 97.945312 220.179688 101.164062 243.953125 106.667969 265.253906 C 89.839844 269.804688 74.671875 275.773438 61.625 282.949219 C 42.898438 258.277344 31.128906 228.027344 29.589844 195 Z M 112.398438 195 L 180 195 L 180 255.207031 C 159.265625 255.648438 139.527344 257.90625 121.289062 261.753906 C 116.09375 241.707031 112.953125 219.054688 112.398438 195 Z M 195 195 L 262.601562 195 C 262.042969 219.09375 258.894531 241.78125 253.683594 261.855469 C 235.4375 257.972656 215.722656 255.664062 195 255.207031 Z M 277.601562 195 L 345.410156 195 C 343.875 227.972656 332.136719 258.179688 313.460938 282.832031 C 300.273438 275.828125 285.082031 269.933594 268.300781 265.386719 C 273.828125 244.050781 277.054688 220.230469 277.601562 195 Z M 180 270.21875 L 180 344.722656 C 163.78125 341.128906 148.054688 326.039062 135.660156 301.246094 C 131.890625 293.710938 128.503906 285.308594 125.523438 276.269531 C 142.386719 272.773438 160.71875 270.664062 180 270.21875 Z M 195 270.21875 C 214.257812 270.675781 232.5625 272.828125 249.449219 276.355469 C 246.476562 285.363281 243.097656 293.734375 239.339844 301.246094 C 226.945312 326.039062 211.21875 341.128906 195 344.722656 Z M 110.875 279.726562 C 114.164062 289.855469 117.941406 299.351562 122.242188 307.953125 C 128.390625 320.25 135.648438 330.921875 143.789062 339.449219 C 115.609375 331.371094 90.78125 315.609375 71.441406 294.667969 C 82.769531 288.761719 96.070312 283.710938 110.875 279.726562 Z M 264.082031 279.84375 C 278.804688 283.8125 292.121094 288.808594 303.617188 294.609375 C 284.269531 315.578125 259.417969 331.363281 231.210938 339.449219 C 239.351562 330.921875 246.609375 320.25 252.757812 307.953125 C 257.042969 299.382812 260.800781 289.929688 264.082031 279.84375 Z M 264.082031 279.84375 " />
  </g>
</svg>