<?xml version="1.0" encoding="UTF-8"?>
<svg xmlns="http://www.w3.org/2000/svg" xmlns:xlink="http://www.w3.org/1999/xlink" width="375pt" height="375pt" viewBox="0 0 375 375" version="1.1">
<g id="surface4742">
<path style=" stroke:none;fill-rule:nonzero;fill:rgb(0%,0%,0%);fill-opacity:1;" d="M 187.5 15 C 92.316406 15 15 92.316406 15 187.5 C 15 282.683594 92.316406 360 187.5 360 C 282.683594 360 360 282.683594 360 187.5 C 360 92.316406 282.683594 15 187.5 15 Z M 187.5 30 C 274.570312 30 345 100.429688 345 187.5 C 345 274.570312 274.570312 345 187.5 345 C 100.429688 345 30 274.570312 30 187.5 C 30 100.429688 100.429688 30 187.5 30 Z M 135 137.34375 C 97.5 137.34375 90 172.5 90 187.5 C 90 208.503906 102.011719 237.65625 135 237.65625 C 150.761719 237.65625 159.082031 229.542969 163.59375 224.296875 L 165.703125 235.546875 L 176.25 235.546875 L 176.25 186.09375 L 136.40625 186.09375 L 136.40625 198.75 L 161.25 198.75 C 161.25 212.988281 153.75 225 135 225 C 120.761719 225 106.40625 214.453125 106.40625 188.203125 C 106.40625 183.691406 107.988281 151.40625 135 151.40625 C 155.246094 151.40625 158.144531 167.167969 158.90625 170.15625 L 174.84375 170.15625 C 174.84375 164.910156 168.75 137.34375 135 137.34375 Z M 240 137.34375 C 219.753906 137.34375 195 151.496094 195 187.5 C 195 203.996094 203.261719 237.65625 240 237.65625 C 270 237.65625 285 212.988281 285 187.5 C 285 158.996094 267.011719 137.34375 240 137.34375 Z M 240 150.703125 C 267.746094 150.703125 268.59375 182.988281 268.59375 187.5 C 268.59375 212.253906 255 224.296875 240 224.296875 C 215.246094 224.296875 211.40625 198.75 211.40625 187.5 C 211.40625 182.988281 212.988281 150.703125 240 150.703125 Z M 240 150.703125 "/>
</g>
</svg>
