<?xml version="1.0" encoding="UTF-8"?>
<svg xmlns="http://www.w3.org/2000/svg" xmlns:xlink="http://www.w3.org/1999/xlink" width="375pt" height="375pt" viewBox="0 0 375 375" version="1.1">
<g id="surface3013">
<path style=" stroke:none;fill-rule:nonzero;fill:rgb(0%,0%,0%);fill-opacity:1;" d="M 315 352.5 L 262.5 352.5 C 258.351562 352.5 255 349.140625 255 345 L 255 210 L 120 210 L 120 345 C 120 349.140625 116.648438 352.5 112.5 352.5 L 60 352.5 C 55.851562 352.5 52.5 349.140625 52.5 345 L 52.5 30 C 52.5 25.859375 55.851562 22.5 60 22.5 L 112.5 22.5 C 116.648438 22.5 120 25.859375 120 30 L 120 150 L 255 150 L 255 30 C 255 25.859375 258.351562 22.5 262.5 22.5 L 315 22.5 C 319.148438 22.5 322.5 25.859375 322.5 30 L 322.5 345 C 322.5 349.140625 319.148438 352.5 315 352.5 Z M 315 352.5 "/>
</g>
</svg>
