<?xml version="1.0" encoding="UTF-8"?>
<svg width="270px" height="330px" viewBox="0 0 270 330" version="1.1" xmlns="http://www.w3.org/2000/svg" xmlns:xlink="http://www.w3.org/1999/xlink">
    <title>H</title>
    <g id="Page-1" stroke="none" stroke-width="1" fill="none" fill-rule="evenodd">
        <g id="H" fill="#9B9B9B" fill-rule="nonzero">
            <path d="M262.5,330 L210,330 C205.851562,330 202.5,326.640625 202.5,322.5 L202.5,187.5 L67.5,187.5 L67.5,322.5 C67.5,326.640625 64.148438,330 60,330 L7.5,330 C3.351562,330 0,326.640625 0,322.5 L0,7.5 C0,3.359375 3.351562,0 7.5,0 L60,0 C64.148438,0 67.5,3.359375 67.5,7.5 L67.5,127.5 L202.5,127.5 L202.5,7.5 C202.5,3.359375 205.851562,0 210,0 L262.5,0 C266.648438,0 270,3.359375 270,7.5 L270,322.5 C270,326.640625 266.648438,330 262.5,330 Z" id="Path"></path>
        </g>
    </g>
</svg>