<?xml version="1.0" encoding="UTF-8"?>
<svg xmlns="http://www.w3.org/2000/svg" xmlns:xlink="http://www.w3.org/1999/xlink" width="375pt" height="375pt" viewBox="0 0 375 375" version="1.1">
<g id="surface6514">
<path style=" stroke:none;fill-rule:nonzero;fill:rgb(0%,0%,0%);fill-opacity:1;" d="M 97.777344 82.5 C 85.921875 82.5 74.617188 87.578125 66.738281 96.445312 L 17.5625 151.757812 C 6.996094 158.003906 -0.0820312 169.398438 -0.175781 182.316406 L -0.527344 232.074219 C -0.617188 244.359375 9.460938 254.535156 21.738281 254.546875 L 38.085938 254.558594 C 39.320312 263.179688 42.769531 271.515625 48.765625 278.261719 C 56.390625 286.839844 68.125 292.5 82.5 292.5 C 104.722656 292.5 122.46875 275.917969 126.050781 254.675781 L 248.746094 254.839844 C 250.03125 263.328125 252.855469 271.613281 258.765625 278.261719 C 266.390625 286.839844 278.125 292.5 292.5 292.5 C 314.714844 292.5 333.238281 276.199219 336.824219 254.972656 L 353.042969 254.984375 C 365.074219 254.996094 375 245.089844 375 233.058594 L 375 190.589844 C 375 172.214844 361.621094 156.421875 343.492188 153.398438 L 278.4375 142.558594 L 246.460938 96.855469 C 240.164062 87.859375 229.855469 82.5 218.878906 82.5 Z M 97.777344 97.5 L 157.5 97.5 L 157.5 142.5 L 67.03125 142.5 L 43.214844 145.488281 L 77.945312 106.40625 C 82.980469 100.738281 90.195312 97.5 97.777344 97.5 Z M 172.5 97.5 L 218.878906 97.5 C 224.984375 97.5 230.671875 100.457031 234.167969 105.453125 L 260.097656 142.5 L 172.5 142.5 Z M 67.96875 157.5 L 276.886719 157.5 L 341.03125 168.191406 C 352.03125 170.027344 360 179.445312 360 190.589844 L 360 233.058594 C 360 236.964844 356.976562 239.980469 353.070312 239.984375 L 336.8125 239.972656 C 333.199219 218.773438 314.691406 202.5 292.5 202.5 C 278.125 202.5 266.390625 208.160156 258.765625 216.738281 C 252.929688 223.300781 250.128906 231.46875 248.804688 239.839844 L 125.917969 239.675781 C 122.070312 218.757812 104.492188 202.5 82.5 202.5 C 68.125 202.5 56.390625 208.160156 48.765625 216.738281 C 42.972656 223.253906 39.503906 231.25 38.160156 239.558594 L 21.753906 239.546875 C 17.621094 239.542969 14.441406 236.335938 14.472656 232.191406 L 14.824219 182.433594 L 14.824219 182.417969 C 14.910156 171.890625 22.664062 163.167969 33.105469 161.863281 Z M 82.5 217.5 C 99.15625 217.5 112.5 230.84375 112.5 247.5 C 112.5 264.15625 99.15625 277.5 82.5 277.5 C 71.875 277.5 64.859375 273.785156 59.984375 268.300781 C 55.109375 262.816406 52.5 255.207031 52.5 247.5 C 52.5 239.792969 55.109375 232.183594 59.984375 226.699219 C 64.859375 221.214844 71.875 217.5 82.5 217.5 Z M 292.5 217.5 C 309.15625 217.5 322.5 230.84375 322.5 247.5 C 322.5 264.15625 309.15625 277.5 292.5 277.5 C 281.875 277.5 274.859375 273.785156 269.984375 268.300781 C 265.109375 262.816406 262.5 255.207031 262.5 247.5 C 262.5 239.792969 265.109375 232.183594 269.984375 226.699219 C 274.859375 221.214844 281.875 217.5 292.5 217.5 Z M 292.5 217.5 "/>
</g>
</svg>
