<?xml version="1.0" encoding="UTF-8"?>
<svg xmlns="http://www.w3.org/2000/svg" xmlns:xlink="http://www.w3.org/1999/xlink" width="375pt" height="375pt" viewBox="0 0 375 375" version="1.1">
<g id="surface9309">
<path style=" stroke:none;fill-rule:nonzero;fill:rgb(100%,100%,100%);fill-opacity:1;" d="M 187.222656 7.910156 C 185.648438 7.964844 184.128906 8.511719 182.886719 9.476562 L 10.386719 144.082031 C 7.117188 146.628906 6.535156 151.347656 9.082031 154.613281 C 11.628906 157.882812 16.347656 158.464844 19.613281 155.917969 L 30 147.816406 L 30 345 C 30 349.140625 33.359375 352.5 37.5 352.5 L 141.238281 352.5 C 142.050781 352.632812 142.875 352.632812 143.6875 352.5 L 231.238281 352.5 C 232.050781 352.632812 232.875 352.632812 233.6875 352.5 L 337.5 352.5 C 341.640625 352.5 345 349.140625 345 345 L 345 147.816406 L 355.386719 155.917969 C 358.652344 158.464844 363.371094 157.882812 365.917969 154.613281 C 368.46875 151.347656 367.882812 146.628906 364.613281 144.082031 L 307.5 99.519531 L 307.5 45 L 262.5 45 L 262.5 64.394531 L 192.113281 9.476562 C 190.71875 8.394531 188.984375 7.839844 187.222656 7.910156 Z M 187.5 24.917969 L 330 136.113281 L 330 337.5 L 240 337.5 L 240 195 L 135 195 L 135 337.5 L 45 337.5 L 45 136.113281 Z M 277.5 60 L 292.5 60 L 292.5 87.816406 L 277.5 76.097656 Z M 150 210 L 225 210 L 225 337.5 L 150 337.5 Z M 150 210 "/>
</g>
</svg>
