<?xml version="1.0" encoding="UTF-8"?>
<svg width="360.006191px" height="344.621094px" viewBox="0 0 360.006191 344.621094" version="1.1" xmlns="http://www.w3.org/2000/svg" xmlns:xlink="http://www.w3.org/1999/xlink">
    <title>Home(2)</title>
    <g id="Page-1" stroke="none" stroke-width="1" fill="none" fill-rule="evenodd">
        <g id="Home(2)" fill="#9B9B9B" fill-rule="nonzero">
            <path d="M180.003095,0 C178.370283,0 176.745283,0.519532 175.358564,1.570313 L2.85856434,136.203125 C-0.364092662,138.753906 -0.965654662,143.464844 1.58512634,146.765625 C4.13590734,149.988282 8.84684534,150.589844 12.1476263,148.039063 L22.5030953,139.953125 L22.5030953,337.121094 C22.5030953,341.246094 25.8780953,344.621094 30.0030953,344.621094 L135.003095,344.621094 L135.003095,209.621094 L225.003095,209.621094 L225.003095,344.621094 L330.003095,344.621094 C334.128095,344.621094 337.503095,341.246094 337.503095,337.121094 L337.503095,139.953125 L347.858564,148.039063 C349.284345,149.089844 350.854657,149.621094 352.503095,149.621094 C354.753095,149.621094 356.921064,148.640625 358.421064,146.765625 C360.971845,143.464844 360.370283,138.753906 357.147626,136.203125 L184.647626,1.570313 C183.260907,0.519532 181.635907,0 180.003095,0 Z M255.003095,29.621094 L255.003095,37.5 L300.003095,72.601563 L300.003095,29.621094 L255.003095,29.621094 Z" id="Shape"></path>
        </g>
    </g>
</svg>