<?xml version="1.0" encoding="UTF-8"?>
<svg width="360.009497px" height="344.695403px" viewBox="0 0 360.009497 344.695403" version="1.1" xmlns="http://www.w3.org/2000/svg" xmlns:xlink="http://www.w3.org/1999/xlink">
    <title>Home</title>
    <g id="Page-1" stroke="none" stroke-width="1" fill="none" fill-rule="evenodd">
        <g id="Home" fill="#9B9B9B" fill-rule="nonzero">
            <path d="M179.726576,0.00595003809 C178.152358,0.0606380381 176.632826,0.607513038 175.390639,1.57235604 L2.89063915,136.177825 C-0.378891851,138.7247 -0.960923851,143.44345 1.58595115,146.709075 C4.13282615,149.978606 8.85157615,150.560638 12.1172011,148.013763 L22.5039201,139.9122 L22.5039201,337.095794 C22.5039201,341.236419 25.8632951,344.595794 30.0039201,344.595794 L133.742201,344.595794 C134.554701,344.728606 135.37892,344.728606 136.19142,344.595794 L223.742201,344.595794 C224.554701,344.728606 225.37892,344.728606 226.19142,344.595794 L330.00392,344.595794 C334.144545,344.595794 337.50392,341.236419 337.50392,337.095794 L337.50392,139.9122 L347.890639,148.013763 C351.156264,150.560638 355.875014,149.978606 358.421889,146.709075 C360.97267,143.44345 360.386732,138.7247 357.117201,136.177825 L300.00392,91.615325 L300.00392,37.095794 L255.00392,37.095794 L255.00392,56.490325 L184.617201,1.57235604 C183.22267,0.490325038 181.488295,-0.0643619619 179.726576,0.00595003809 Z M180.00392,17.013763 L322.50392,128.209075 L322.50392,329.595794 L232.50392,329.595794 L232.50392,187.095794 L127.50392,187.095794 L127.50392,329.595794 L37.5039201,329.595794 L37.5039201,128.209075 L180.00392,17.013763 Z M270.00392,52.095794 L285.00392,52.095794 L285.00392,79.9122 L270.00392,68.19345 L270.00392,52.095794 Z M142.50392,202.095794 L217.50392,202.095794 L217.50392,329.595794 L142.50392,329.595794 L142.50392,202.095794 Z" id="Shape"></path>
        </g>
    </g>
</svg>