<?xml version="1.0" encoding="UTF-8"?>
<svg xmlns="http://www.w3.org/2000/svg" xmlns:xlink="http://www.w3.org/1999/xlink" width="375pt" height="375pt" viewBox="0 0 375 375" version="1.1">
<g id="surface9411">
<path style=" stroke:none;fill-rule:nonzero;fill:rgb(100%,100%,100%);fill-opacity:1;" d="M 187.5 7.878906 C 185.867188 7.878906 184.242188 8.398438 182.855469 9.449219 L 10.355469 144.082031 C 7.132812 146.632812 6.53125 151.34375 9.082031 154.644531 C 11.632812 157.867188 16.34375 158.46875 19.644531 155.917969 L 30 147.832031 L 30 345 C 30 349.125 33.375 352.5 37.5 352.5 L 142.5 352.5 L 142.5 217.5 L 232.5 217.5 L 232.5 352.5 L 337.5 352.5 C 341.625 352.5 345 349.125 345 345 L 345 147.832031 L 355.355469 155.917969 C 356.78125 156.96875 358.351562 157.5 360 157.5 C 362.25 157.5 364.417969 156.519531 365.917969 154.644531 C 368.46875 151.34375 367.867188 146.632812 364.644531 144.082031 L 192.144531 9.449219 C 190.757812 8.398438 189.132812 7.878906 187.5 7.878906 Z M 262.5 37.5 L 262.5 45.378906 L 307.5 80.480469 L 307.5 37.5 Z M 262.5 37.5 "/>
</g>
</svg>
