<?xml version="1.0" encoding="UTF-8"?>
<svg xmlns="http://www.w3.org/2000/svg" xmlns:xlink="http://www.w3.org/1999/xlink" width="375pt" height="375pt" viewBox="0 0 375 375" version="1.1">
<g id="surface7285">
<path style=" stroke:none;fill-rule:nonzero;fill:rgb(100%,100%,100%);fill-opacity:1;" d="M 187.5 75 C 111.300781 75 65.714844 81.738281 37.96875 92.8125 C 24.082031 98.347656 14.53125 105.089844 8.4375 112.96875 C 2.34375 120.847656 0 129.816406 0 138.046875 L 0 192.65625 C -0.441406 194.121094 -0.441406 195.644531 0 197.109375 L 0 375 L 60 375 L 60 352.5 L 315 352.5 L 315 375 L 375 375 L 375 196.40625 C 375.207031 195.410156 375.207031 194.355469 375 193.359375 L 375 138.046875 C 375 129.816406 372.65625 120.847656 366.5625 112.96875 C 360.46875 105.089844 350.917969 98.347656 337.03125 92.8125 C 309.285156 81.738281 263.699219 75 187.5 75 Z M 187.5 90 C 262.792969 90 307.265625 97.148438 331.640625 106.875 C 343.828125 111.738281 350.859375 116.980469 354.84375 122.109375 C 358.828125 127.238281 360 132.394531 360 138.046875 L 360 187.5 L 345 187.5 L 345 168.046875 C 345 153.28125 340.488281 139.714844 328.125 131.484375 C 315.761719 123.253906 297.628906 120 270 120 C 242.371094 120 224.238281 123.253906 211.875 131.484375 C 199.511719 139.714844 195 153.28125 195 168.046875 L 195 187.5 L 180 187.5 L 180 168.046875 C 180 153.28125 175.488281 139.714844 163.125 131.484375 C 150.761719 123.253906 132.628906 120 105 120 C 77.371094 120 59.238281 123.253906 46.875 131.484375 C 34.511719 139.714844 30 153.28125 30 168.046875 L 30 187.5 L 15 187.5 L 15 138.046875 C 15 132.394531 16.171875 127.238281 20.15625 122.109375 C 24.140625 116.980469 31.171875 111.738281 43.359375 106.875 C 67.734375 97.148438 112.207031 90 187.5 90 Z M 105 135 C 131.367188 135 147.042969 138.660156 154.921875 143.90625 C 162.800781 149.152344 165 155.800781 165 168.046875 L 165 187.5 L 45 187.5 L 45 168.046875 C 45 155.800781 47.199219 149.152344 55.078125 143.90625 C 62.957031 138.660156 78.632812 135 105 135 Z M 270 135 C 296.367188 135 312.042969 138.660156 319.921875 143.90625 C 327.800781 149.152344 330 155.800781 330 168.046875 L 330 187.5 L 210 187.5 L 210 168.046875 C 210 155.800781 212.199219 149.152344 220.078125 143.90625 C 227.957031 138.660156 243.632812 135 270 135 Z M 15 202.5 L 360 202.5 L 360 360 L 330 360 L 330 337.5 L 45 337.5 L 45 360 L 15 360 Z M 15 202.5 "/>
</g>
</svg>
