<?xml version="1.0" encoding="UTF-8"?>
<svg width="324px" height="252.000004px" viewBox="0 0 324 252.000004" version="1.1" xmlns="http://www.w3.org/2000/svg"
  xmlns:xlink="http://www.w3.org/1999/xlink">
  <title>Bed(2)</title>
  <g id="Page-1" stroke="none" stroke-width="1" fill="none" fill-rule="evenodd">
    <g id="Bed(2)" transform="translate(0, 0)" fill="#9B9B9B" fill-rule="nonzero">
      <path
        d="M162,0 C162,0 131.582031,-0.0351515114 100.828125,6.11719249 C85.449219,9.19141049 69.925781,13.7500045 57.667969,21.1054735 C45.410156,28.4609425 36,39.5 36,54 L36,108 C36,111.312504 38.6875,114 42,114 L72,114 C75.3125,114 78,111.312504 78,108 C78,108 77.949219,108.015629 78.257812,107.085942 C78.566406,106.156254 79.199219,104.78516 80.742188,103.242192 C83.828125,100.156254 91,96 108,96 C125,96 132.171875,100.156254 135.257812,103.242192 C136.800781,104.78516 137.433594,106.156254 137.742188,107.085942 C138.050781,108.015629 138,108 138,108 C138,111.312504 140.6875,114 144,114 L180,114 C183.3125,114 186,111.312504 186,108 C186,108 185.949219,108.015629 186.257812,107.085942 C186.566406,106.156254 187.199219,104.78516 188.742188,103.242192 C191.828125,100.156254 199,96 216,96 C233,96 240.171875,100.156254 243.257812,103.242192 C244.800781,104.78516 245.433594,106.156254 245.742188,107.085942 C246.050781,108.015629 246,108 246,108 C245.96875,110.164066 247.105469,112.175785 248.976562,113.265629 C250.84375,114.359379 253.15625,114.359379 255.023438,113.265629 C256.894531,112.175785 258.03125,110.164066 258,108 C258,108 257.949219,105.734379 257.132812,103.289066 C256.316406,100.843754 254.699219,97.7148485 251.742188,94.7578165 C245.828125,88.8437545 235,84 216,84 C197,84 186.171875,88.8437545 180.257812,94.7578165 C177.75,97.2656295 176.59375,99.7656295 175.6875,102 L148.3125,102 C147.40625,99.7656295 146.25,97.2656295 143.742188,94.7578165 C137.828125,88.8437545 127,84 108,84 C89,84 78.171875,88.8437545 72.257812,94.7578165 C69.75,97.2656295 68.59375,99.7656295 67.6875,102 L48,102 L48,54 C48,44.5 53.589844,37.5390665 63.832031,31.3945355 C74.074219,25.2500045 88.550781,20.8085985 103.171875,17.8828165 C132.417969,12.0351605 162,12 162,12 C162,12 191.582031,12.0351605 220.828125,17.8828165 C235.449219,20.8085985 249.925781,25.2500045 260.167969,31.3945355 C270.410156,37.5390665 276,44.5 276,54 L276,126 L36,126 C16.191406,126 0,142.19141 0,162 L0,246 C0,249.312504 2.6875,252 6,252 L48,252 C51.3125,252 54,249.312504 54,246 L54,234 C54,230.609379 56.609375,228 60,228 L264,228 C267.390625,228 270,230.609379 270,234 L270,246 C270,249.312504 272.6875,252 276,252 L318,252 C321.3125,252 324,249.312504 324,246 L324,162 C324,150.996098 319.019531,141.070316 311.191406,134.47266 C309.554688,133.06641 307.289062,132.648442 305.257812,133.375004 C303.226562,134.101566 301.742188,135.863285 301.371094,137.988285 C300.996094,140.113285 301.792969,142.273442 303.457031,143.648442 C308.6875,148.054692 312,154.59766 312,162 L312,240 L282,240 L282,234 C282,224.12891 273.871094,216 264,216 L60,216 C50.128906,216 42,224.12891 42,234 L42,240 L12,240 L12,162 C12,148.679692 22.679688,138 36,138 L282,138 C285.3125,138 288,135.312504 288,132 L288,54 C288,39.5 278.589844,28.4609425 266.332031,21.1054735 C254.074219,13.7500045 238.550781,9.19141049 223.171875,6.11719249 C192.417969,-0.0351515114 162,0 162,0 Z"
        id="Path"></path>
    </g>
  </g>
</svg>