<svg width="25" height="24" viewBox="0 0 25 24" fill="none" xmlns="http://www.w3.org/2000/svg">
  <g id="surface1260">
    <path id="Vector"
      d="M2.89983 0C2.11064 0 1.45993 0.813437 1.45993 1.8V10.9125C1.46168 10.95 1.46743 10.9875 1.47493 11.025C1.47493 11.0322 1.47493 11.0366 1.47493 11.0437C1.2592 11.4678 1.08321 11.9203 0.949969 12.4125C0.651739 13.5116 0.524498 14.7728 0.5 16.2V16.8C0.5 16.8188 0.5 16.8375 0.5 16.8562V24H3.85977V21.6C3.85977 21.1009 3.95726 20.8406 4.08475 20.6812C4.21224 20.5219 4.42048 20.4 4.8197 20.4H20.1786C20.5779 20.4 20.7861 20.5219 20.9136 20.6812C21.0411 20.8406 21.1386 21.1009 21.1386 21.6V24H24.4983V16.8937C24.5001 16.8634 24.5001 16.8303 24.4983 16.8C24.4983 16.5938 24.5021 16.3991 24.4983 16.2C24.4741 14.7728 24.3466 13.5116 24.0484 12.4125C23.9151 11.925 23.7371 11.4822 23.5234 11.0625C23.5326 11.0134 23.5384 10.9641 23.5384 10.9125V1.8C23.5384 0.813437 22.8877 0 22.0985 0H2.89983ZM2.89983 1.2H22.0985C22.3685 1.2 22.5785 1.4625 22.5785 1.8V9.69375C22.4602 9.56969 22.3347 9.45 22.2035 9.3375C21.8828 9.06094 21.5343 8.80312 21.1386 8.5875V6C21.1386 5.57812 20.9173 5.25 20.6736 5.04375C20.4299 4.8375 20.1319 4.69469 19.7587 4.575C19.0125 4.33594 17.9645 4.2 16.5789 4.2C15.1932 4.2 14.1453 4.33594 13.3991 4.575C13.0354 4.69219 12.7392 4.82594 12.4992 5.025C12.2592 4.82594 11.963 4.69219 11.5992 4.575C10.853 4.33594 9.8051 4.2 8.41945 4.2C7.0338 4.2 5.98587 4.33594 5.23967 4.575C4.86645 4.69469 4.56847 4.8375 4.32473 5.04375C4.081 5.25 3.85977 5.57812 3.85977 6V8.5875C3.46404 8.80312 3.11557 9.06094 2.79484 9.3375C2.6636 9.45 2.53811 9.56969 2.41987 9.69375V1.8C2.41987 1.4625 2.62985 1.2 2.89983 1.2ZM8.41945 5.4C9.75436 5.4 10.7443 5.54062 11.3592 5.7375C11.6667 5.83594 11.8785 5.95531 11.9742 6.0375C12.0135 6.07031 12.0155 6.075 12.0192 6.075V7.2C8.86367 7.22594 6.52783 7.52094 4.8197 8.175V6.075C4.82345 6.075 4.82545 6.07031 4.8647 6.0375C4.96044 5.95531 5.17218 5.83594 5.47965 5.7375C6.09461 5.54062 7.08454 5.4 8.41945 5.4ZM16.5789 5.4C17.9138 5.4 18.9037 5.54062 19.5187 5.7375C19.8262 5.83594 20.0379 5.95531 20.1336 6.0375C20.1729 6.07031 20.1749 6.075 20.1786 6.075V8.175C18.4705 7.52094 16.1347 7.22594 12.9791 7.2V6.075C12.9829 6.075 12.9849 6.07031 13.0241 6.0375C13.1199 5.95531 13.3316 5.83594 13.6391 5.7375C14.254 5.54062 15.244 5.4 16.5789 5.4ZM12.4092 8.4C12.4599 8.40938 12.5084 8.40938 12.5592 8.4C12.5742 8.4 12.5892 8.4 12.6042 8.4C17.4076 8.40938 20.1824 9.0375 21.6635 10.3125C22.4097 10.9547 22.8617 11.7516 23.1484 12.8062C23.3977 13.725 23.4992 14.8572 23.5234 16.2H1.47493C1.49918 14.8572 1.60067 13.725 1.84991 12.8062C2.13664 11.7516 2.5886 10.9547 3.3348 10.3125C4.81595 9.03531 7.59626 8.40719 12.4092 8.4ZM1.45993 17.4H23.5384V22.8H22.0985V21.6C22.0985 20.8991 21.956 20.2594 21.6035 19.8188C21.2511 19.3781 20.7393 19.2 20.1786 19.2H4.8197C4.25899 19.2 3.74727 19.3781 3.3948 19.8188C3.04232 20.2594 2.89983 20.8991 2.89983 21.6V22.8H1.45993V17.4Z"
      fill="#9B9B9B" />
  </g>
</svg>