<?xml version="1.0" encoding="UTF-8"?>
<svg width="375.000923px" height="300px" viewBox="0 0 375.000923 300" version="1.1" xmlns="http://www.w3.org/2000/svg"
  xmlns:xlink="http://www.w3.org/1999/xlink">
  <title>Bed(3)</title>
  <g id="Page-1" stroke="none" stroke-width="1" fill="none" fill-rule="evenodd">
    <g id="Bed(3)" fill="#9B9B9B" fill-rule="nonzero">
      <path
        d="M37.5004614,0 C25.1059304,0 15.0004614,10.105469 15.0004614,22.5 L15.0004614,126.09375 C24.7270234,117.65625 37.0317114,110.832031 52.5004614,105.46875 L52.5004614,75 C52.5004614,55.050781 86.5746804,52.5 116.250461,52.5 C145.926242,52.5 180.000461,55.050781 180.000461,75 L180.000461,90 C182.519992,89.972656 184.922336,90 187.500461,90 C190.078586,90 192.48093,89.972656 195.000461,90 L195.000461,75 C195.000461,55.050781 229.07468,52.5 258.750461,52.5 C288.426242,52.5 322.500461,55.050781 322.500461,75 L322.500461,105.234375 C337.941867,110.566406 350.184055,117.539062 360.000461,126.09375 L360.000461,22.5 C360.000461,10.105469 349.894992,0 337.500461,0 L37.5004614,0 Z M187.500461,105 C44.2973364,105 -0.11672657,131.484375 0.00023025994,202.5 L375.000693,202.5 C375.117649,131.015625 330.703586,105 187.500461,105 Z M0.000461429573,217.5 L0.000461429573,300 L52.5004614,300 L52.5004614,270 C52.5004614,259.21875 56.7192114,255 67.5004614,255 L307.500461,255 C318.281711,255 322.500461,259.21875 322.500461,270 L322.500461,300 L375.000461,300 L375.000461,217.5 L0.000461429573,217.5 Z"
        id="Shape"></path>
    </g>
  </g>
</svg>