<?xml version="1.0" encoding="UTF-8"?>
<svg width="16px" height="18px" viewBox="0 0 16 18" version="1.1" xmlns="http://www.w3.org/2000/svg"
  xmlns:xlink="http://www.w3.org/1999/xlink">
  <title>Group 9</title>
  <g id="Page-1" stroke="none" stroke-width="1" fill="none" fill-rule="evenodd">
    <g id="Group-9">
      <g id="Group-52-Copy" fill="#3B3B3B">
        <polygon id="Triangle" transform="translate(8, 15.5) rotate(-180) translate(-8, -15.5)"
          points="8 13 10.5 18 5.5 18"></polygon>
        <rect id="Rectangle" x="0" y="0" width="16" height="14" rx="7"></rect>
      </g>
      <g id="Bed(3)" transform="translate(2.5, 2)" fill="#FFFFFF" fill-rule="nonzero">
        <path
          d="M1.10001621,0 C0.736444639,0 0.440018641,0.30316407 0.440018641,0.675 L0.440018641,3.7828125 C0.725330074,3.5296875 1.08626626,3.32496093 1.54001459,3.1640625 L1.54001459,2.25 C1.54001459,1.65152343 2.53952133,1.575 3.41000768,1.575 C4.28049405,1.575 5.28000079,1.65152343 5.28000079,2.25 L5.28000079,2.7 C5.35390676,2.69917968 5.42437526,2.7 5.49999998,2.7 C5.5756247,2.7 5.6460932,2.69917968 5.71999917,2.7 L5.71999917,2.25 C5.71999917,1.65152343 6.71950591,1.575 7.58999228,1.575 C8.46047865,1.575 9.45998539,1.65152343 9.45998539,2.25 L9.45998539,3.15703125 C9.91293163,3.31699218 10.2720345,3.52617186 10.5599813,3.7828125 L10.5599813,0.675 C10.5599813,0.30316407 10.2635553,0 9.89998377,0 L1.10001621,0 Z M5.50000673,3.15 C1.29939047,3.15 -0.00341723903,3.94453125 6.72773952e-06,6.075 L10.9999933,6.075 C11.0034172,3.93046875 9.7006095,3.15 5.50000673,3.15 Z M2.02629571e-05,6.525 L2.02629571e-05,9 L1.54001459,9 L1.54001459,8.1 C1.54001459,7.7765625 1.66376413,7.65 1.98001297,7.65 L9.01998701,7.65 C9.33623584,7.65 9.45998539,7.7765625 9.45998539,8.1 L9.45998539,9 L10.9999797,9 L10.9999797,6.525 L2.02629571e-05,6.525 Z"
          id="Shape"></path>
      </g>
    </g>
  </g>
</svg>