<?xml version="1.0" encoding="UTF-8"?>
<svg xmlns="http://www.w3.org/2000/svg" xmlns:xlink="http://www.w3.org/1999/xlink" width="375pt" height="375pt" viewBox="0 0 375 375" version="1.1">
<g id="surface10557">
<path style=" stroke:none;fill-rule:nonzero;fill:rgb(100%,100%,100%);fill-opacity:1;" d="M 187.5 15 C 92.226562 15 15 92.226562 15 187.5 C 15 282.773438 92.226562 360 187.5 360 C 282.773438 360 360 282.773438 360 187.5 C 360 92.226562 282.773438 15 187.5 15 Z M 187.5 82.5 C 199.925781 82.5 210 92.574219 210 105 C 210 117.425781 199.925781 127.5 187.5 127.5 C 175.074219 127.5 165 117.425781 165 105 C 165 92.574219 175.074219 82.5 187.5 82.5 Z M 217.5 285 L 157.5 285 L 157.5 270 L 172.5 270 L 172.5 172.5 L 157.5 172.5 L 157.5 157.5 L 202.5 157.5 L 202.5 270 L 217.5 270 Z M 217.5 285 "/>
</g>
</svg>
