<?xml version="1.0" encoding="UTF-8"?>
<svg xmlns="http://www.w3.org/2000/svg" xmlns:xlink="http://www.w3.org/1999/xlink" width="375pt" height="375pt" viewBox="0 0 375 375" version="1.1">
<g id="surface10451">
<path style=" stroke:none;fill-rule:nonzero;fill:rgb(100%,100%,100%);fill-opacity:1;" d="M 187.5 15 C 92.320312 15 15 92.320312 15 187.5 C 15 282.679688 92.320312 360 187.5 360 C 282.679688 360 360 282.679688 360 187.5 C 360 92.320312 282.679688 15 187.5 15 Z M 187.5 30 C 274.574219 30 345 100.425781 345 187.5 C 345 274.574219 274.574219 345 187.5 345 C 100.425781 345 30 274.574219 30 187.5 C 30 100.425781 100.425781 30 187.5 30 Z M 187.5 82.5 C 175.074219 82.5 165 92.574219 165 105 C 165 117.425781 175.074219 127.5 187.5 127.5 C 199.925781 127.5 210 117.425781 210 105 C 210 92.574219 199.925781 82.5 187.5 82.5 Z M 157.5 157.5 L 157.5 172.5 L 172.5 172.5 L 172.5 270 L 157.5 270 L 157.5 285 L 217.5 285 L 217.5 270 L 202.5 270 L 202.5 157.5 Z M 157.5 157.5 "/>
</g>
</svg>
