<?xml version="1.0" encoding="UTF-8"?>
<svg xmlns="http://www.w3.org/2000/svg" xmlns:xlink="http://www.w3.org/1999/xlink" width="375pt" height="375pt" viewBox="0 0 375 375" version="1.1">
<g id="surface1338">
<path style=" stroke:none;fill-rule:nonzero;fill:rgb(0%,0%,0%);fill-opacity:1;" d="M 352.5 124.261719 L 347.722656 124.261719 C 335.242188 92.429688 313.648438 64.199219 284.640625 45.308594 C 255.75 25.214844 220.949219 14.917969 186.21875 15.113281 C 181.253906 15.140625 176.289062 15.390625 171.351562 15.847656 C 158.203125 17.0625 145.199219 19.824219 132.652344 24.128906 C 111.277344 30.816406 91.574219 42.140625 74.675781 56.761719 L 22.5 56.761719 C 10.09375 56.761719 0 66.855469 0 79.261719 L 0 124.261719 C 0 135.816406 8.789062 145.253906 20.015625 146.511719 C 8.257812 193.972656 17.894531 246.210938 46.3125 286.042969 C 76.246094 330.089844 127.746094 358.171875 181.207031 359.753906 C 181.214844 359.753906 181.230469 359.753906 181.238281 359.753906 C 237.773438 362.078125 293.976562 335.542969 327.03125 289.898438 C 327.046875 289.882812 327.058594 289.867188 327.074219 289.851562 C 343.101562 267.292969 353.542969 240.796875 357.734375 213.585938 C 367.613281 211.207031 375 202.359375 375 191.761719 L 375 146.761719 C 375 134.347656 364.90625 124.261719 352.5 124.261719 Z M 209.960938 37.246094 L 232.460938 44.746094 L 232.460938 59.746094 L 209.960938 44.746094 L 194.960938 37.246094 Z M 132.652344 39.988281 L 142.46875 45.496094 L 172.46875 44.746094 L 184.46875 50.753906 L 185.976562 47.003906 L 194.96875 52.996094 L 194.21875 55.253906 L 202.46875 59.753906 L 232.46875 89.753906 L 209.96875 104.753906 L 179.96875 134.753906 L 183.71875 142.253906 L 172.46875 134.753906 L 164.96875 134.753906 L 142.46875 142.253906 L 142.46875 179.753906 L 149.96875 179.753906 L 164.96875 172.253906 L 164.96875 187.253906 L 179.96875 187.253906 L 179.96875 194.753906 L 188.992188 199.261719 L 176.984375 199.261719 L 172.476562 194.753906 L 134.976562 179.753906 L 119.976562 172.253906 L 118.921875 169.085938 C 119.289062 169.140625 119.640625 169.265625 120.015625 169.265625 C 121.148438 169.265625 122.289062 169.011719 123.335938 168.488281 C 125.886719 167.226562 127.507812 164.640625 127.515625 161.789062 L 127.851562 79.34375 C 127.875 73.320312 125.550781 67.648438 121.296875 63.382812 C 117.382812 59.453125 112.261719 57.246094 106.777344 56.902344 L 102.472656 54.75 C 111.960938 48.683594 122.085938 43.703125 132.652344 39.988281 Z M 225 169.261719 L 213.710938 176.003906 L 189.71875 166.246094 L 195 161.761719 Z M 90.335938 131.761719 L 22.5 131.761719 C 18.367188 131.761719 15 128.390625 15 124.261719 L 15 79.261719 C 15 75.128906 18.367188 71.761719 22.5 71.761719 L 105.335938 71.761719 C 107.347656 71.761719 109.238281 72.539062 110.65625 73.964844 C 112.066406 75.382812 112.84375 77.273438 112.835938 79.28125 L 112.558594 146.699219 L 94.867188 133.273438 C 93.570312 132.292969 91.972656 131.761719 90.335938 131.761719 Z M 187.5 274.261719 L 120 274.261719 C 115.867188 274.261719 112.5 270.890625 112.5 266.761719 L 112.5 221.761719 C 112.5 217.628906 115.867188 214.261719 120 214.261719 L 202.5 214.261719 C 204.511719 214.261719 206.390625 215.039062 207.808594 216.464844 C 209.226562 217.890625 210 219.78125 210 221.78125 L 209.722656 289.199219 L 192.03125 275.773438 C 190.734375 274.792969 189.136719 274.261719 187.5 274.261719 Z M 292.460938 254.746094 L 284.960938 277.246094 L 269.960938 284.746094 L 203.210938 337.246094 L 208.777344 343.410156 C 208.378906 343.460938 207.984375 343.507812 207.59375 343.558594 L 194.960938 337.246094 L 206.761719 305.78125 L 212.625 310.230469 C 213.953125 311.234375 215.550781 311.753906 217.15625 311.753906 C 218.289062 311.753906 219.425781 311.496094 220.476562 310.972656 C 223.027344 309.710938 224.648438 307.125 224.65625 304.273438 L 225 221.835938 C 225.023438 215.8125 222.691406 210.140625 218.4375 205.875 C 214.183594 201.609375 208.523438 199.261719 202.5 199.261719 L 200.949219 199.261719 L 209.96875 194.753906 L 239.96875 194.003906 L 247.46875 202.253906 L 247.734375 202.386719 L 247.84375 229.296875 C 247.851562 232.140625 249.472656 234.734375 252.023438 235.996094 C 253.074219 236.511719 254.210938 236.773438 255.34375 236.773438 C 256.949219 236.773438 258.546875 236.257812 259.875 235.253906 L 279.863281 220.09375 L 296.21875 224.765625 L 299.96875 239.765625 Z M 360 191.761719 C 360 195.890625 356.632812 199.261719 352.5 199.261719 L 285 199.261719 C 283.363281 199.261719 281.765625 199.792969 280.46875 200.78125 L 262.777344 214.207031 L 262.5 146.78125 C 262.492188 144.773438 263.273438 142.882812 264.691406 141.464844 C 266.109375 140.039062 267.988281 139.261719 270 139.261719 L 352.5 139.261719 C 356.632812 139.261719 360 142.628906 360 146.761719 Z M 360 191.761719 "/>
</g>
</svg>
