<?xml version="1.0" encoding="UTF-8"?>
<svg xmlns="http://www.w3.org/2000/svg" xmlns:xlink="http://www.w3.org/1999/xlink" width="375pt" height="375pt" viewBox="0 0 375 375" version="1.1">
<g id="surface1274">
<path style=" stroke:none;fill-rule:nonzero;fill:rgb(100%,100%,100%);fill-opacity:1;" d="M 186.238281 15.367188 C 181.273438 15.394531 176.320312 15.640625 171.386719 16.097656 C 158.238281 17.3125 145.234375 20.070312 132.683594 24.375 C 113.582031 30.351562 95.835938 40.066406 80.214844 52.5 L 22.5 52.5 C 10.09375 52.5 0 62.59375 0 75 L 0 120 C 0 131.941406 9.363281 141.640625 21.121094 142.367188 C 7.636719 190.96875 17.050781 245.234375 46.347656 286.289062 C 76.273438 330.335938 127.785156 358.417969 181.246094 360 L 181.273438 360 C 237.808594 362.324219 294.019531 335.785156 327.070312 290.140625 L 327.113281 290.097656 C 344.078125 266.21875 354.867188 237.953125 358.519531 209.078125 C 367.992188 206.421875 375 197.804688 375 187.5 L 375 142.5 C 375 130.09375 364.90625 120 352.5 120 L 345.894531 120 C 333.652344 91.207031 313.867188 65.65625 287.796875 47.738281 C 286.875 46.578125 285.632812 45.714844 284.222656 45.261719 L 284.207031 45.261719 C 272.15625 36.9375 259.054688 30.40625 245.390625 25.53125 C 244.476562 24.585938 243.324219 23.90625 242.066406 23.539062 C 231.65625 20.5625 221.289062 17.332031 209.003906 16.507812 C 208.75 16.492188 208.496094 16.488281 208.242188 16.496094 C 207.882812 16.507812 207.519531 16.558594 207.160156 16.625 C 200.214844 15.824219 193.230469 15.328125 186.238281 15.367188 Z M 186.34375 30.425781 C 188 30.417969 189.652344 30.546875 191.308594 30.585938 L 189.699219 32.199219 C 186.765625 35.121094 186.773438 39.878906 189.699219 42.800781 C 190.523438 43.628906 191.523438 44.25 192.628906 44.621094 L 213.425781 51.5625 L 227.199219 65.300781 C 230.128906 68.226562 234.863281 68.226562 237.789062 65.300781 C 238.742188 64.351562 239.421875 63.164062 239.75 61.859375 L 245.023438 41.324219 C 256.003906 45.613281 266.5 51.140625 276.210938 57.90625 L 276.417969 58.035156 C 276.730469 58.238281 277.015625 58.480469 277.324219 58.683594 L 292.5 77.636719 L 292.5 82.5 C 292.5 85.589844 294.386719 88.355469 297.261719 89.488281 L 313.886719 96.003906 L 315.730469 120 L 270 120 C 263.96875 120 258.316406 122.355469 254.0625 126.621094 C 249.808594 130.886719 247.476562 136.558594 247.5 142.589844 L 247.707031 191.574219 L 245.550781 189.199219 C 244.082031 187.585938 241.992188 186.691406 239.808594 186.753906 L 209.808594 187.515625 C 208.707031 187.542969 207.628906 187.804688 206.644531 188.292969 L 194.429688 194.398438 L 175.078125 187.953125 L 150 177.917969 L 150 147.90625 L 166.214844 142.5 L 175.371094 142.5 L 177.042969 145.855469 C 178.894531 149.558594 183.398438 151.0625 187.105469 149.207031 C 190.808594 147.355469 192.3125 142.851562 190.457031 139.144531 L 189.125 136.480469 L 214.777344 110.832031 L 236.660156 96.238281 C 240.109375 93.9375 241.042969 89.289062 238.738281 85.839844 C 238.46875 85.425781 238.15625 85.042969 237.800781 84.699219 L 215.300781 62.199219 L 208.871094 55.765625 C 207.160156 53.164062 204.027344 51.890625 200.992188 52.558594 C 200.96875 52.566406 200.957031 52.566406 200.933594 52.574219 C 199.101562 52.949219 197.472656 53.996094 196.378906 55.519531 L 185.859375 66.035156 L 180 63.398438 L 180 45.335938 C 180.007812 45.113281 180 44.886719 179.984375 44.664062 L 179.984375 44.558594 C 179.804688 40.511719 176.441406 37.335938 172.382812 37.398438 C 171.960938 37.40625 171.550781 37.445312 171.136719 37.527344 L 144.347656 38.203125 L 142.308594 37.089844 C 152.21875 34.058594 162.4375 32.007812 172.761719 31.070312 C 177.269531 30.65625 181.804688 30.449219 186.34375 30.425781 Z M 22.5 67.5 L 105.335938 67.5 C 107.347656 67.5 109.246094 68.285156 110.652344 69.710938 C 112.070312 71.136719 112.84375 73.027344 112.835938 75.027344 L 112.558594 142.441406 L 94.878906 129.007812 C 93.574219 128.027344 91.972656 127.5 90.335938 127.5 L 22.5 127.5 C 18.359375 127.5 15 124.132812 15 120 L 15 75 C 15 70.867188 18.359375 67.5 22.5 67.5 Z M 270 135 L 352.5 135 C 356.640625 135 360 138.367188 360 142.5 L 360 187.5 C 360 191.632812 356.640625 195 352.5 195 L 285 195 C 283.363281 195 281.769531 195.535156 280.472656 196.523438 L 262.777344 209.941406 L 262.5 142.527344 C 262.492188 140.519531 263.28125 138.636719 264.699219 137.210938 C 266.105469 135.785156 267.988281 135 270 135 Z M 36.738281 142.5 L 87.816406 142.5 L 106.917969 156.988281 L 112.878906 174.871094 C 113.511719 176.761719 114.867188 178.324219 116.644531 179.207031 L 131.644531 186.707031 C 131.832031 186.800781 132.023438 186.882812 132.214844 186.957031 L 152.328125 195 L 120 195 C 107.59375 195 97.5 205.09375 97.5 217.5 L 97.5 262.5 C 97.5 274.90625 107.59375 285 120 285 L 184.980469 285 L 201.886719 297.816406 L 187.984375 334.863281 C 186.632812 338.457031 188.21875 342.492188 191.644531 344.207031 L 193.214844 345 C 189.417969 345.128906 185.617188 345.15625 181.816406 345 L 181.714844 345 C 133.210938 343.574219 85.777344 317.691406 58.710938 277.792969 C 58.679688 277.742188 58.644531 277.699219 58.609375 277.644531 C 31.261719 239.367188 22.921875 187.53125 36.738281 142.5 Z M 195.175781 157.472656 C 191.035156 157.304688 187.554688 160.523438 187.398438 164.664062 C 187.261719 168.046875 189.410156 171.097656 192.640625 172.121094 L 215.140625 179.621094 C 219.070312 180.933594 223.320312 178.804688 224.632812 174.871094 C 225.9375 170.941406 223.816406 166.691406 219.886719 165.378906 L 219.871094 165.378906 L 197.371094 157.878906 C 196.667969 157.632812 195.925781 157.5 195.175781 157.472656 Z M 120 210 L 202.5 210 C 204.511719 210 206.394531 210.785156 207.800781 212.210938 C 209.21875 213.636719 210.007812 215.527344 210 217.527344 L 209.722656 284.941406 L 192.042969 271.507812 C 190.734375 270.527344 189.136719 270 187.5 270 L 120 270 C 115.859375 270 112.5 266.632812 112.5 262.5 L 112.5 217.5 C 112.5 213.367188 115.859375 210 120 210 Z M 287.519531 210 L 343.066406 210 C 339.40625 235.433594 329.808594 260.410156 314.882812 281.410156 C 291.820312 313.226562 255.820312 334.960938 217.003906 342.320312 C 216.410156 340.789062 215.335938 339.492188 213.941406 338.628906 L 274.042969 291.371094 L 288.355469 284.207031 C 290.132812 283.316406 291.488281 281.761719 292.121094 279.871094 L 299.441406 257.871094 L 306.707031 243.339844 C 307.511719 241.742188 307.714844 239.917969 307.28125 238.183594 L 303.53125 223.183594 C 302.878906 220.582031 300.886719 218.511719 298.316406 217.777344 L 283.023438 213.414062 Z M 287.519531 210 "/>
</g>
</svg>
