<?xml version="1.0" encoding="UTF-8"?>
<svg xmlns="http://www.w3.org/2000/svg" xmlns:xlink="http://www.w3.org/1999/xlink" width="375pt" height="375pt" viewBox="0 0 375 375" version="1.1">
<g id="surface5772">
<path style=" stroke:none;fill-rule:nonzero;fill:rgb(0%,0%,0%);fill-opacity:1;" d="M 112.382812 89.898438 C 112.019531 89.90625 111.65625 89.941406 111.300781 90 L 101.585938 90 C 73.472656 90 48.25 107.480469 38.378906 133.800781 C 38.300781 134.003906 38.234375 134.214844 38.175781 134.429688 L 30.46875 162.320312 C 11.640625 171.289062 0 192.21875 0 219.933594 L 0 247.5 C 0 251.167969 2.660156 254.296875 6.269531 254.898438 L 46.816406 261.652344 C 51.25 275.128906 63.847656 285 78.75 285 C 93.339844 285 105.726562 275.539062 110.40625 262.5 L 279.59375 262.5 C 284.273438 275.539062 296.660156 285 311.25 285 C 325.839844 285 338.226562 275.539062 342.90625 262.5 L 367.5 262.5 C 371.640625 262.5 375 259.148438 375 255 L 375 202.5 C 375 192.71875 368.730469 184.386719 360 181.289062 L 360 179.222656 C 360 171.566406 354.257812 165.136719 346.433594 164.28125 L 267.628906 157.910156 L 247.691406 111.136719 C 247.632812 111 247.566406 110.863281 247.5 110.726562 C 246.472656 108.671875 245.222656 106.796875 243.867188 105 L 247.5 105 C 250.203125 105.039062 252.71875 103.617188 254.085938 101.28125 C 255.449219 98.945312 255.449219 96.054688 254.085938 93.71875 C 252.71875 91.382812 250.203125 89.960938 247.5 90 L 217.5 90 C 216.988281 89.996094 216.476562 90.046875 215.976562 90.144531 C 215.300781 90.109375 214.636719 90 213.957031 90 L 181.15625 90 C 180.734375 89.929688 180.308594 89.894531 179.882812 89.898438 C 179.519531 89.90625 179.15625 89.941406 178.800781 90 L 113.65625 90 C 113.234375 89.929688 112.808594 89.894531 112.382812 89.898438 Z M 101.585938 105 L 105 105 L 105 157.5 L 52.5 157.5 C 50.726562 157.5 48.992188 157.605469 47.285156 157.761719 L 52.484375 138.984375 C 60.203125 118.53125 79.710938 105 101.585938 105 Z M 120 105 L 172.5 105 L 172.5 157.5 L 120 157.5 Z M 187.5 105 L 213.957031 105 C 222.476562 105 230.222656 109.792969 234.050781 117.40625 L 251.148438 157.5 L 187.5 157.5 Z M 78.75 232.5 C 89.195312 232.5 97.5 240.804688 97.5 251.25 C 97.5 261.695312 89.195312 270 78.75 270 C 68.304688 270 60 261.695312 60 251.25 C 60 240.804688 68.304688 232.5 78.75 232.5 Z M 311.25 232.5 C 321.695312 232.5 330 240.804688 330 251.25 C 330 261.695312 321.695312 270 311.25 270 C 300.804688 270 292.5 261.695312 292.5 251.25 C 292.5 240.804688 300.804688 232.5 311.25 232.5 Z M 311.25 232.5 "/>
</g>
</svg>
