<?xml version="1.0" encoding="UTF-8"?>
<svg xmlns="http://www.w3.org/2000/svg" xmlns:xlink="http://www.w3.org/1999/xlink" width="375pt" height="375pt" viewBox="0 0 375 375" version="1.1">
<g id="surface455">
<path style=" stroke:none;fill-rule:nonzero;fill:rgb(0%,0%,0%);fill-opacity:1;" d="M 57.65625 0 C 5.15625 0 3.808594 47.253906 3.046875 56.25 L 18.046875 56.25 C 18.046875 49.511719 18.75 12.65625 56.25 12.65625 C 86.25 12.65625 90 40.488281 90 45 C 90 74.238281 48.75 72.011719 48.75 127.5 L 63.75 127.5 C 60.761719 79.511719 105 90 105 45 C 105 37.5 100.402344 0 57.65625 0 Z M 365.15625 29.0625 C 363.457031 29.296875 361.875 30.144531 360.703125 31.40625 L 331.875 60.234375 L 330.703125 59.296875 C 329.152344 57.628906 326.894531 56.777344 324.609375 56.953125 C 323.699219 57.097656 322.824219 57.421875 322.03125 57.890625 L 31.875 208.59375 C 29.441406 209.824219 27.863281 212.285156 27.773438 215.011719 C 27.65625 217.734375 29.0625 220.3125 31.40625 221.71875 C 31.40625 221.71875 46.550781 230.652344 62.8125 245.390625 C 78.164062 259.308594 93.839844 278.292969 98.90625 298.59375 L 56.953125 340.546875 L 56.484375 340.78125 C 50.390625 346.433594 40.371094 346.464844 34.453125 340.546875 C 28.683594 334.777344 28.566406 325.136719 33.75 318.984375 C 34.011719 318.691406 34.246094 318.371094 34.453125 318.046875 L 46.640625 306.09375 C 49.074219 303.839844 49.714844 300.261719 48.253906 297.304688 C 46.816406 294.316406 43.566406 292.675781 40.3125 293.203125 C 38.613281 293.4375 37.03125 294.285156 35.859375 295.546875 L 23.90625 307.5 C 23.113281 308.144531 22.5 308.933594 22.03125 309.84375 C 12.277344 321.738281 12.800781 339.375 23.671875 350.625 L 23.90625 351.09375 C 35.859375 363.046875 55.546875 363.046875 67.5 351.09375 L 109.453125 309.140625 C 161.953125 325.195312 180.46875 370.3125 180.46875 370.3125 C 181.550781 373.035156 184.128906 374.855469 187.03125 375 C 189.960938 375.144531 192.683594 373.59375 194.0625 371.015625 L 345 80.625 C 346.433594 77.722656 345.878906 74.238281 343.59375 71.953125 L 342.421875 70.78125 L 371.25 41.953125 C 373.476562 39.816406 374.152344 36.503906 372.949219 33.660156 C 371.777344 30.820312 368.933594 29.003906 365.859375 29.0625 C 365.625 29.0625 365.390625 29.0625 365.15625 29.0625 Z M 324.140625 73.828125 L 329.0625 78.75 L 187.265625 352.03125 C 177.128906 335.597656 154.6875 307.355469 113.203125 294.84375 C 106.992188 269.824219 89.355469 249.050781 72.890625 234.140625 C 60.613281 223.007812 55.105469 220.105469 49.21875 216.328125 Z M 45 142.5 L 45 165 L 67.5 165 L 67.5 142.5 Z M 45 142.5 "/>
</g>
</svg>
