<?xml version="1.0" encoding="UTF-8"?>
<svg xmlns="http://www.w3.org/2000/svg" xmlns:xlink="http://www.w3.org/1999/xlink" width="375pt" height="375pt" viewBox="0 0 375 375" version="1.1">
<g id="surface4956">
<path style=" stroke:none;fill-rule:nonzero;fill:rgb(0%,0%,0%);fill-opacity:1;" d="M 187.5 15.058594 C 92.320312 15.058594 15 92.378906 15 187.558594 C 15 278.34375 85.359375 352.824219 174.449219 359.515625 C 174.625 359.53125 174.800781 359.546875 174.976562 359.558594 C 179.117188 359.859375 183.28125 360.058594 187.5 360.058594 C 191.71875 360.058594 195.882812 359.859375 200.023438 359.558594 C 200.199219 359.546875 200.375 359.53125 200.550781 359.515625 C 289.640625 352.824219 360 278.34375 360 187.558594 C 360 92.378906 282.679688 15.058594 187.5 15.058594 Z M 187.5 30.058594 C 274.574219 30.058594 345 100.484375 345 187.558594 C 345 230.546875 327.785156 269.429688 299.925781 297.832031 C 288.007812 289.152344 273.277344 283.976562 260.082031 279.347656 C 244.453125 273.871094 229.667969 268.679688 225.570312 259.660156 C 224.925781 251.957031 224.984375 245.941406 225.042969 239.035156 L 225.058594 236.105469 C 231.71875 229.765625 240.09375 216.390625 242.957031 204.039062 C 247.910156 201.398438 253.960938 195.070312 255.777344 179.910156 C 256.683594 172.390625 254.542969 166.5625 251.542969 162.65625 C 255.59375 148.742188 263.652344 113.523438 249.535156 90.792969 C 243.566406 81.183594 234.558594 75.121094 222.714844 72.730469 C 216.0625 64.496094 203.507812 60 186.722656 60 C 161.214844 60.472656 142.515625 68.285156 131.175781 83.21875 C 117.804688 100.84375 115.277344 127.472656 123.648438 162.40625 C 120.550781 166.316406 118.316406 172.226562 119.238281 179.898438 C 121.0625 195.054688 127.089844 201.382812 132.042969 204.023438 C 134.90625 216.390625 143.273438 229.765625 149.941406 236.105469 L 149.957031 238.960938 C 150.015625 245.898438 150.074219 251.925781 149.429688 259.660156 C 145.320312 268.703125 130.460938 273.949219 114.753906 279.492188 C 101.640625 284.125 86.996094 289.308594 75.101562 297.875 C 47.222656 269.472656 30 230.566406 30 187.558594 C 30 100.484375 100.425781 30.058594 187.5 30.058594 Z M 187.5 30.058594 "/>
</g>
</svg>
