<?xml version="1.0" encoding="UTF-8"?>
<svg xmlns="http://www.w3.org/2000/svg" xmlns:xlink="http://www.w3.org/1999/xlink" width="375pt" height="375pt" viewBox="0 0 375 375" version="1.1">
<g id="surface4750">
<path style=" stroke:none;fill-rule:nonzero;fill:rgb(100%,100%,100%);fill-opacity:1;" d="M 187.5 15.058594 C 92.320312 15.058594 15 92.378906 15 187.558594 C 15 282.738281 92.320312 360.058594 187.5 360.058594 C 282.679688 360.058594 360 282.738281 360 187.558594 C 360 92.378906 282.679688 15.058594 187.5 15.058594 Z M 187.5 30.058594 C 274.574219 30.058594 345 100.484375 345 187.558594 C 345 230.554688 327.78125 269.445312 299.910156 297.847656 C 286.1875 287.773438 269.460938 282.71875 255.292969 277.675781 C 247.3125 274.835938 240.140625 272.023438 234.902344 268.886719 C 229.886719 265.882812 227.101562 262.796875 225.628906 259.246094 C 224.941406 250.648438 225.082031 243.722656 225.132812 235.546875 C 226.039062 234.640625 227.207031 234.007812 228.136719 232.910156 C 230.324219 230.324219 232.554688 227.183594 234.683594 223.652344 C 238.332031 217.59375 240.988281 210.1875 242.476562 202.675781 C 244.746094 201.515625 247.175781 201.265625 249.023438 198.910156 C 252.4375 194.5625 254.738281 188.441406 255.761719 179.910156 C 256.667969 172.382812 254.242188 167.203125 251.117188 163.226562 C 254.480469 152.242188 258.640625 134.769531 257.226562 116.691406 C 256.449219 106.742188 253.945312 96.730469 247.925781 88.402344 C 242.175781 80.453125 232.84375 74.738281 220.898438 72.671875 C 213.3125 64.058594 201.261719 60 186.855469 60 L 186.722656 60 C 154.453125 60.59375 133.632812 73.949219 124.714844 94.320312 C 116.238281 113.695312 118.0625 137.8125 124.144531 162.917969 C 120.875 166.894531 118.3125 172.171875 119.238281 179.910156 C 120.265625 188.4375 122.566406 194.5625 125.976562 198.910156 C 127.824219 201.265625 130.25 201.515625 132.523438 202.675781 C 134.011719 210.179688 136.667969 217.578125 140.316406 223.636719 C 142.445312 227.171875 144.671875 230.308594 146.863281 232.894531 C 147.792969 233.992188 148.957031 234.640625 149.867188 235.546875 C 149.917969 243.71875 150.054688 250.640625 149.371094 259.246094 C 147.902344 262.78125 145.121094 265.871094 140.113281 268.886719 C 134.882812 272.035156 127.71875 274.863281 119.75 277.71875 C 105.597656 282.792969 88.878906 287.882812 75.117188 297.875 C 47.230469 269.46875 30 230.570312 30 187.558594 C 30 100.484375 100.425781 30.058594 187.5 30.058594 Z M 186.914062 75.015625 C 200.746094 75.027344 209.445312 79.125 211.832031 83.304688 L 213.660156 86.511719 L 217.308594 87.011719 C 226.730469 88.320312 231.996094 91.976562 235.765625 97.191406 C 239.539062 102.40625 241.632812 109.6875 242.269531 117.863281 C 243.546875 134.210938 238.867188 153.515625 235.898438 162.449219 L 234.007812 168.121094 L 239.121094 171.226562 C 238.601562 170.910156 241.523438 172.640625 240.863281 178.125 C 240.0625 184.796875 238.359375 188.199219 237.214844 189.652344 C 236.074219 191.109375 235.585938 190.921875 235.707031 190.914062 L 229.527344 191.425781 L 228.867188 197.59375 C 228.300781 202.890625 225.320312 210.117188 221.835938 215.902344 C 220.09375 218.796875 218.238281 221.371094 216.679688 223.214844 C 215.121094 225.054688 213.460938 226.195312 214.085938 225.863281 L 210.074219 227.957031 L 210.074219 232.5 C 210.074219 242.433594 209.667969 250.554688 210.71875 262.121094 L 210.804688 263.113281 L 211.15625 264.050781 C 214.109375 271.996094 220.269531 277.597656 227.199219 281.746094 C 234.125 285.898438 242.074219 288.894531 250.269531 291.8125 C 263.777344 296.617188 277.855469 301.347656 288.589844 308.335938 C 261.242188 331.242188 226.015625 345.058594 187.5 345.058594 C 149 345.058594 113.78125 331.253906 86.441406 308.363281 C 97.234375 301.417969 111.335938 296.671875 124.820312 291.839844 C 133.007812 288.90625 140.9375 285.894531 147.847656 281.734375 C 154.757812 277.574219 160.894531 271.96875 163.84375 264.050781 L 164.195312 263.113281 L 164.28125 262.121094 C 165.324219 250.5625 164.925781 242.441406 164.925781 232.5 L 164.925781 227.957031 L 160.914062 225.847656 C 161.542969 226.179688 159.878906 225.039062 158.320312 223.199219 C 156.761719 221.359375 154.90625 218.796875 153.164062 215.902344 C 149.679688 210.117188 146.699219 202.882812 146.132812 197.59375 L 145.472656 191.425781 L 139.292969 190.914062 C 139.40625 190.921875 138.925781 191.109375 137.785156 189.652344 C 136.640625 188.199219 134.9375 184.800781 134.136719 178.125 C 133.480469 172.636719 136.4375 170.886719 135.878906 171.226562 L 140.640625 168.339844 L 139.246094 162.933594 C 132.792969 138.097656 131.820312 115.496094 138.457031 100.328125 C 145.089844 85.171875 158.375 75.558594 186.914062 75.015625 Z M 186.914062 75.015625 "/>
</g>
</svg>
