<?xml version="1.0" encoding="UTF-8"?>
<svg xmlns="http://www.w3.org/2000/svg" xmlns:xlink="http://www.w3.org/1999/xlink" width="375pt" height="375pt"
  viewBox="0 0 375 375" version="1.1">
  <g id="surface511">
    <path style=" stroke:none;fill-rule:nonzero;fill:rgb(0%,0%,0%);fill-opacity:1;"
      d="M 175.796875 30 C 162.671875 30 151.871094 35.191406 144.871094 43.066406 C 137.875 50.941406 134.546875 61.144531 134.546875 71.25 C 134.546875 81.355469 137.875 91.558594 144.871094 99.433594 C 151.871094 107.308594 162.671875 112.5 175.796875 112.5 C 188.921875 112.5 199.703125 107.308594 206.703125 99.433594 C 213.703125 91.558594 217.046875 81.355469 217.046875 71.25 C 217.046875 70.535156 216.902344 69.824219 216.871094 69.113281 C 216.867188 69.03125 216.859375 68.957031 216.855469 68.878906 C 216.371094 59.566406 213.15625 50.324219 206.703125 43.066406 C 199.703125 35.191406 188.921875 30 175.796875 30 Z M 176.9375 45.101562 C 177.464844 45.117188 177.925781 45.195312 178.433594 45.234375 C 184.226562 45.777344 189.871094 48.203125 194.355469 52.691406 C 201.542969 59.882812 201.96875 69.640625 199.085938 78.632812 L 168.414062 47.957031 C 171.304688 47.03125 173.964844 45.097656 176.9375 45.101562 Z M 154.480469 55.238281 L 191.96875 92.722656 C 188.023438 95.664062 182.84375 97.5 175.796875 97.5 C 166.421875 97.5 160.328125 94.253906 156.078125 89.472656 C 151.828125 84.691406 149.546875 78.019531 149.546875 71.25 C 149.546875 65.4375 151.316406 59.773438 154.480469 55.238281 Z M 223.59375 120 C 207.023438 120 194.730469 129.898438 185.800781 141.824219 L 159.125 176.878906 L 125.683594 149.105469 C 114.601562 139.902344 97.921875 141.441406 88.710938 152.519531 C 88.710938 152.523438 88.710938 152.53125 88.710938 152.535156 C 79.507812 163.617188 81.046875 180.28125 92.125 189.492188 L 146.660156 234.769531 C 147.925781 235.910156 147.304688 235.300781 147.070312 235.09375 C 147.183594 235.195312 147.300781 235.292969 147.421875 235.386719 C 148.535156 236.253906 148.589844 236.203125 148.152344 235.871094 C 157.667969 242.867188 170.445312 242.121094 179.546875 235.0625 L 179.546875 260.082031 L 127.878906 297.773438 C 127.835938 297.800781 127.792969 297.832031 127.75 297.863281 C 118.050781 305.25 114.753906 318.480469 119.78125 329.558594 C 119.863281 329.746094 120.085938 329.816406 120.175781 330 L 90 330 C 87.296875 329.960938 84.78125 331.382812 83.414062 333.71875 C 82.050781 336.054688 82.050781 338.945312 83.414062 341.28125 C 84.78125 343.617188 87.296875 345.039062 90 345 L 322.5 345 C 325.203125 345.039062 327.71875 343.617188 329.085938 341.28125 C 330.449219 338.945312 330.449219 336.054688 329.085938 333.71875 C 327.71875 331.382812 325.203125 329.960938 322.5 330 L 289.554688 330 C 291.230469 326.554688 292.355469 322.8125 292.355469 318.75 C 292.355469 304.339844 280.511719 292.5 266.105469 292.5 L 260.230469 292.5 C 265.757812 285.703125 269.53125 277.398438 269.53125 268.007812 L 269.53125 164.046875 C 269.53125 139.8125 249.71875 120 225.484375 120 Z M 223.59375 135 L 225.484375 135 C 241.613281 135 254.53125 147.917969 254.53125 164.046875 L 254.53125 268.007812 C 254.53125 281.625 243.65625 292.5 230.039062 292.5 L 199.511719 292.5 C 196.808594 292.460938 194.292969 293.882812 192.925781 296.21875 C 191.5625 298.554688 191.5625 301.445312 192.925781 303.78125 C 194.292969 306.117188 196.808594 307.539062 199.511719 307.5 L 266.105469 307.5 C 272.410156 307.5 277.355469 312.445312 277.355469 318.75 C 277.355469 325.054688 272.410156 330 266.105469 330 L 143.65625 330 C 139.695312 330 135.085938 326.988281 133.449219 323.363281 C 131.484375 319.039062 133.074219 312.671875 136.847656 309.800781 L 191.46875 269.941406 C 193.402344 268.53125 194.542969 266.285156 194.546875 263.890625 L 194.546875 217.191406 L 216.886719 187.734375 C 218.601562 185.605469 219.027344 182.710938 217.988281 180.179688 C 216.953125 177.648438 214.621094 175.882812 211.902344 175.570312 C 209.1875 175.257812 206.515625 176.449219 204.933594 178.683594 L 181.964844 208.972656 C 181.589844 209.316406 181.25 209.695312 180.953125 210.101562 C 180.953125 210.101562 179.351562 212.324219 177.964844 214.246094 L 173.789062 219.753906 C 173.46875 220.175781 173.195312 220.625 172.96875 221.105469 C 172.746094 221.394531 172.183594 222.121094 172.324219 221.953125 C 172.320312 221.957031 172.3125 221.960938 172.308594 221.96875 C 168.4375 226.628906 161.855469 227.332031 157.03125 223.785156 C 156.996094 223.753906 156.964844 223.726562 156.929688 223.695312 C 156.363281 223.296875 156.0625 223.085938 156.019531 223.066406 L 101.71875 177.964844 C 96.867188 173.929688 96.230469 166.960938 100.253906 162.113281 C 104.289062 157.273438 111.246094 156.628906 116.089844 160.648438 L 155.550781 193.417969 C 157.125 194.722656 159.160156 195.328125 161.191406 195.09375 C 163.21875 194.863281 165.066406 193.8125 166.304688 192.1875 L 197.785156 150.863281 C 197.792969 150.851562 197.804688 150.835938 197.8125 150.820312 C 205.355469 140.742188 212.726562 135 223.59375 135 Z M 156.472656 223.433594 C 156.566406 223.503906 156.53125 223.472656 156.664062 223.578125 L 157.03125 223.886719 C 156.390625 223.316406 155.578125 222.617188 156.695312 223.621094 C 156.621094 223.558594 156.550781 223.496094 156.472656 223.433594 Z M 156.472656 223.433594 " />
  </g>
</svg>