<?xml version="1.0" encoding="UTF-8"?>
<svg xmlns="http://www.w3.org/2000/svg" xmlns:xlink="http://www.w3.org/1999/xlink" width="375pt" height="375pt" viewBox="0 0 375 375" version="1.1">
<g id="surface5054">
<path style=" stroke:none;fill-rule:nonzero;fill:rgb(0%,0%,0%);fill-opacity:1;" d="M 90 15 C 48.632812 15 15 48.632812 15 90 C 15 137.316406 81.355469 218.816406 84.199219 222.277344 L 90 229.308594 L 95.769531 222.277344 C 98.613281 218.847656 165 137.8125 165 90 C 165 48.632812 131.367188 15 90 15 Z M 90 67.5 C 102.421875 67.5 112.5 77.578125 112.5 90 C 112.5 102.421875 102.421875 112.5 90 112.5 C 77.578125 112.5 67.5 102.421875 67.5 90 C 67.5 77.578125 77.578125 67.5 90 67.5 Z M 285 150 C 243.632812 150 210 183.632812 210 225 C 210 271.582031 276.355469 353.761719 279.167969 357.214844 L 284.972656 364.335938 L 290.769531 357.304688 C 293.613281 353.878906 360 273.046875 360 225 C 360 183.632812 326.367188 150 285 150 Z M 285 202.5 C 297.421875 202.5 307.5 212.578125 307.5 225 C 307.5 237.421875 297.421875 247.5 285 247.5 C 272.578125 247.5 262.5 237.421875 262.5 225 C 262.5 212.578125 272.578125 202.5 285 202.5 Z M 285 202.5 "/>
</g>
</svg>
