<?xml version="1.0" encoding="UTF-8"?>
<svg xmlns="http://www.w3.org/2000/svg" xmlns:xlink="http://www.w3.org/1999/xlink" width="375pt" height="375pt" viewBox="0 0 375 375" version="1.1">
<g id="surface4636">
<path style=" stroke:none;fill-rule:nonzero;fill:rgb(0%,0%,0%);fill-opacity:1;" d="M 90 15 C 48.660156 15 15 48.691406 15 90 C 15 116.308594 32.785156 148.097656 49.921875 174.726562 C 67.089844 201.386719 84.199219 222.277344 84.199219 222.277344 L 90 229.308594 L 95.769531 222.277344 C 95.769531 222.277344 112.910156 201.535156 130.050781 174.960938 C 147.1875 148.359375 165 116.542969 165 90 C 165 48.691406 131.339844 15 90 15 Z M 90 30 C 123.222656 30 150 56.777344 150 90 C 150 109.128906 134.0625 141.066406 117.449219 166.816406 C 103.738281 188.085938 94.394531 199.277344 90 204.726562 C 85.636719 199.246094 76.289062 187.941406 62.578125 166.640625 C 45.964844 140.800781 30 108.839844 30 90 C 30 56.777344 56.777344 30 90 30 Z M 90 60 C 73.503906 60 60 73.535156 60 90 C 60 106.464844 73.503906 120 90 120 C 106.496094 120 120 106.464844 120 90 C 120 73.535156 106.496094 60 90 60 Z M 90 75 C 98.378906 75 105 81.621094 105 90 C 105 98.378906 98.378906 105 90 105 C 81.621094 105 75 98.378906 75 90 C 75 81.621094 81.621094 75 90 75 Z M 285 150 C 243.660156 150 210 183.691406 210 225 C 210 251.015625 227.8125 282.746094 244.921875 309.464844 C 262.058594 336.183594 279.167969 357.214844 279.167969 357.214844 L 284.941406 364.335938 L 290.769531 357.277344 C 290.769531 357.277344 307.910156 336.589844 325.050781 310.050781 C 342.1875 283.476562 360 251.628906 360 225 C 360 183.691406 326.339844 150 285 150 Z M 285 165 C 318.222656 165 345 191.777344 345 225 C 345 244.277344 329.0625 276.183594 312.449219 301.902344 C 298.738281 323.113281 289.425781 334.277344 285.027344 339.726562 C 280.691406 334.21875 271.289062 322.792969 257.578125 301.378906 C 240.9375 275.449219 225 243.425781 225 225 C 225 191.777344 251.777344 165 285 165 Z M 285 195 C 268.503906 195 255 208.535156 255 225 C 255 241.464844 268.503906 255 285 255 C 301.496094 255 315 241.464844 315 225 C 315 208.535156 301.496094 195 285 195 Z M 285 210 C 293.378906 210 300 216.621094 300 225 C 300 233.378906 293.378906 240 285 240 C 276.621094 240 270 233.378906 270 225 C 270 216.621094 276.621094 210 285 210 Z M 285 210 "/>
</g>
</svg>
