<?xml version="1.0" encoding="UTF-8"?>
<svg xmlns="http://www.w3.org/2000/svg" xmlns:xlink="http://www.w3.org/1999/xlink" width="375pt" height="375pt" viewBox="0 0 375 375" version="1.1">
<g id="surface4182">
<path style=" stroke:none;fill-rule:nonzero;fill:rgb(0%,0%,0%);fill-opacity:1;" d="M 6.5625 15 C 2.785156 15.46875 -0.03125 18.691406 0 22.5 L 0 307.5 C -0.03125 310.402344 1.613281 313.035156 4.21875 314.296875 L 94.21875 359.296875 C 96.300781 360.292969 98.699219 360.292969 100.78125 359.296875 L 187.734375 315.703125 L 281.953125 359.296875 C 284.0625 360.234375 286.496094 360.144531 288.515625 359.0625 L 371.015625 314.0625 C 373.449219 312.773438 374.972656 310.253906 375 307.5 L 375 22.5 C 374.972656 19.894531 373.59375 17.460938 371.339844 16.113281 C 369.082031 14.765625 366.300781 14.707031 363.984375 15.9375 L 284.765625 59.0625 L 190.546875 15.703125 C 188.554688 14.765625 186.210938 14.765625 184.21875 15.703125 L 97.5 59.0625 L 10.78125 15.703125 C 9.464844 15.058594 7.996094 14.824219 6.5625 15 Z M 195 33.984375 L 277.5 72.1875 L 277.5 340.78125 L 195 302.8125 Z M 15 34.6875 L 90 72.1875 L 90 340.3125 L 15 302.8125 Z M 180 34.6875 L 180 302.8125 L 105 340.3125 L 105 72.1875 Z M 360 35.15625 L 360 303.046875 L 292.5 339.84375 L 292.5 71.953125 Z M 360 35.15625 "/>
</g>
</svg>
