<?xml version="1.0" encoding="UTF-8"?>
<svg xmlns="http://www.w3.org/2000/svg" xmlns:xlink="http://www.w3.org/1999/xlink" width="375pt" height="375pt"
  viewBox="0 0 375 375" version="1.1">
  <g id="surface3984">
    <path style=" stroke:none;fill-rule:nonzero;fill:rgb(100%,100%,100%);fill-opacity:1;"
      d="M 187.5 0.46875 C 129.871094 0.46875 82.96875 47.371094 82.96875 105 C 82.96875 152.753906 108.019531 207.511719 132.65625 251.015625 C 157.292969 294.519531 181.875 326.71875 181.875 326.71875 C 183.191406 328.503906 185.273438 329.589844 187.5 329.589844 C 189.726562 329.589844 191.808594 328.503906 193.125 326.71875 C 193.125 326.71875 217.734375 294.082031 242.34375 250.3125 C 266.953125 206.542969 292.03125 151.757812 292.03125 105 C 292.03125 47.371094 245.128906 0.46875 187.5 0.46875 Z M 187.5 14.53125 C 237.597656 14.53125 277.96875 54.902344 277.96875 105 C 277.96875 146.660156 254.296875 200.625 230.15625 243.515625 C 210.441406 278.582031 194.035156 301.582031 187.5 310.546875 C 180.9375 301.699219 164.53125 278.996094 144.84375 244.21875 C 120.730469 201.621094 97.03125 147.773438 97.03125 105 C 97.03125 54.902344 137.402344 14.53125 187.5 14.53125 Z M 187.5 60.234375 C 158.730469 60.234375 135.234375 83.730469 135.234375 112.5 C 135.234375 141.269531 158.730469 164.765625 187.5 164.765625 C 216.269531 164.765625 239.765625 141.269531 239.765625 112.5 C 239.765625 83.730469 216.269531 60.234375 187.5 60.234375 Z M 187.5 74.765625 C 208.449219 74.765625 225.234375 91.550781 225.234375 112.5 C 225.234375 133.449219 208.449219 150.234375 187.5 150.234375 C 166.550781 150.234375 149.765625 133.449219 149.765625 112.5 C 149.765625 91.550781 166.550781 74.765625 187.5 74.765625 Z M 113.671875 256.171875 C 83.671875 260.566406 58.300781 267.511719 39.609375 276.5625 C 30.261719 281.074219 22.527344 286.113281 16.875 292.03125 C 11.222656 297.949219 7.5 305.300781 7.5 313.125 C 7.5 323.847656 14.355469 333.019531 24.140625 340.3125 C 33.925781 347.605469 47.136719 353.496094 63.28125 358.59375 C 95.535156 368.789062 139.21875 375 187.5 375 C 235.78125 375 279.464844 368.789062 311.71875 358.59375 C 327.863281 353.496094 341.074219 347.605469 350.859375 340.3125 C 360.644531 333.019531 367.5 323.847656 367.5 313.125 C 367.5 305.332031 363.777344 297.949219 358.125 292.03125 C 352.472656 286.113281 344.738281 281.074219 335.390625 276.5625 C 316.699219 267.511719 291.328125 260.566406 261.328125 256.171875 C 257.199219 255.527344 253.300781 258.371094 252.65625 262.5 C 252.011719 266.628906 254.855469 270.527344 258.984375 271.171875 C 287.929688 275.417969 312.304688 282.160156 328.828125 290.15625 C 337.089844 294.167969 343.476562 298.535156 347.34375 302.578125 C 351.210938 306.621094 352.5 309.988281 352.5 313.125 C 352.5 317.433594 349.628906 322.382812 341.953125 328.125 C 334.277344 333.867188 322.355469 339.519531 307.265625 344.296875 C 277.089844 353.816406 234.492188 360 187.5 360 C 140.507812 360 97.910156 353.816406 67.734375 344.296875 C 52.644531 339.519531 40.722656 333.867188 33.046875 328.125 C 25.371094 322.382812 22.5 317.433594 22.5 313.125 C 22.5 309.988281 23.789062 306.621094 27.65625 302.578125 C 31.523438 298.535156 37.910156 294.167969 46.171875 290.15625 C 62.695312 282.160156 87.070312 275.417969 116.015625 271.171875 C 120.144531 270.527344 122.988281 266.628906 122.34375 262.5 C 121.699219 258.371094 117.800781 255.527344 113.671875 256.171875 Z M 113.671875 256.171875 " />
  </g>
</svg>