<?xml version="1.0" encoding="UTF-8"?>
<svg xmlns="http://www.w3.org/2000/svg" xmlns:xlink="http://www.w3.org/1999/xlink" width="375pt" height="375pt" viewBox="0 0 375 375" version="1.1">
<g id="surface6914">
<path style=" stroke:none;fill-rule:nonzero;fill:rgb(0%,0%,0%);fill-opacity:1;" d="M 187.5 22.792969 C 179.75 22.792969 172 26.542969 167.722656 34.058594 L 10.546875 310.488281 C 2.003906 325.515625 13.058594 345 30.335938 345 L 344.664062 345 C 361.941406 345 372.992188 325.507812 364.453125 310.472656 L 207.277344 34.058594 C 203 26.542969 195.25 22.792969 187.5 22.792969 Z M 187.5 37.207031 C 190.058594 37.207031 192.617188 38.632812 194.238281 41.484375 L 351.417969 317.886719 L 351.402344 317.886719 C 354.636719 323.582031 350.949219 330 344.664062 330 L 30.335938 330 C 24.050781 330 20.351562 323.585938 23.582031 317.902344 L 180.761719 41.484375 C 182.382812 38.632812 184.941406 37.207031 187.5 37.207031 Z M 179.984375 127.5 C 175.84375 127.5 172.5 130.859375 172.5 135 L 172.5 240 C 172.5 244.140625 175.824219 247.5 179.972656 247.5 L 195 247.5 C 199.140625 247.5 202.484375 244.140625 202.484375 240 L 202.5 135 C 202.5 130.859375 199.164062 127.5 195.015625 127.5 Z M 179.984375 270 C 175.84375 270 172.5 273.359375 172.5 277.5 L 172.5 292.5 C 172.5 296.640625 175.835938 300 179.984375 300 L 195.015625 300 C 199.15625 300 202.5 296.640625 202.5 292.5 L 202.5 277.5 C 202.5 273.359375 199.164062 270 195.015625 270 Z M 179.984375 270 "/>
</g>
</svg>
