<?xml version="1.0" encoding="UTF-8"?>
<svg xmlns="http://www.w3.org/2000/svg" xmlns:xlink="http://www.w3.org/1999/xlink" width="375pt" height="375pt" viewBox="0 0 375 375" version="1.1">
<g id="surface10181">
<path style=" stroke:none;fill-rule:nonzero;fill:rgb(100%,100%,100%);fill-opacity:1;" d="M 202.5 30 C 173.59375 30 150 53.59375 150 82.5 C 150 87.707031 150.820312 92.730469 152.242188 97.5 L 37.5 97.5 C 25.164062 97.5 15 107.664062 15 120 L 15 255 C 15 267.335938 25.164062 277.5 37.5 277.5 L 120.378906 277.5 C 124.1875 319.472656 159.554688 352.5 202.5 352.5 C 240.894531 352.5 271.808594 325.566406 280.957031 289.980469 C 289.824219 295.804688 299.882812 300 311.25 300 C 342.226562 300 367.5 274.726562 367.5 243.75 L 367.5 157.5 C 367.5 153.359375 364.140625 150 360 150 L 195 150 L 195 134.429688 C 197.457031 134.78125 199.953125 135 202.5 135 C 231.40625 135 255 111.40625 255 82.5 C 255 53.59375 231.40625 30 202.5 30 Z M 202.5 45 C 223.300781 45 240 61.699219 240 82.5 C 240 103.300781 223.300781 120 202.5 120 C 199.886719 120 197.367188 119.667969 194.910156 119.164062 C 194.457031 107.214844 184.550781 97.5 172.5 97.5 L 168.164062 97.5 C 166.152344 92.910156 165 87.871094 165 82.5 C 165 61.699219 181.699219 45 202.5 45 Z M 315 60 C 303.125 60 293.265625 64.722656 286.890625 71.894531 C 280.515625 79.066406 277.5 88.332031 277.5 97.5 C 277.5 106.667969 280.515625 115.933594 286.890625 123.105469 C 293.265625 130.277344 303.125 135 315 135 C 326.875 135 336.734375 130.277344 343.109375 123.105469 C 349.484375 115.933594 352.5 106.667969 352.5 97.5 C 352.5 88.332031 349.484375 79.066406 343.109375 71.894531 C 336.734375 64.722656 326.875 60 315 60 Z M 315 75 C 323.125 75 328.265625 77.777344 331.890625 81.855469 C 335.515625 85.933594 337.5 91.667969 337.5 97.5 C 337.5 103.332031 335.515625 109.066406 331.890625 113.144531 C 328.265625 117.222656 323.125 120 315 120 C 306.875 120 301.734375 117.222656 298.109375 113.144531 C 294.484375 109.066406 292.5 103.332031 292.5 97.5 C 292.5 91.667969 294.484375 85.933594 298.109375 81.855469 C 301.734375 77.777344 306.875 75 315 75 Z M 37.5 112.5 L 172.5 112.5 C 176.738281 112.5 180 115.761719 180 120 L 180 122.738281 C 179.609375 124.097656 179.609375 125.539062 180 126.898438 L 180 156.238281 C 179.867188 157.050781 179.867188 157.875 180 158.6875 L 180 255 C 180 259.238281 176.738281 262.5 172.5 262.5 L 128.761719 262.5 C 127.949219 262.367188 127.125 262.367188 126.3125 262.5 L 37.5 262.5 C 33.261719 262.5 30 259.238281 30 255 L 30 120 C 30 115.761719 33.261719 112.5 37.5 112.5 Z M 67.5 142.5 L 67.5 157.5 L 97.5 157.5 L 97.5 232.5 L 112.5 232.5 L 112.5 157.5 L 142.5 157.5 L 142.5 142.5 Z M 195 165 L 270 165 L 270 270 C 270 307.371094 239.871094 337.5 202.5 337.5 C 167.671875 337.5 139.15625 311.3125 135.441406 277.5 L 172.5 277.5 C 184.835938 277.5 195 267.335938 195 255 Z M 285 165 L 352.5 165 L 352.5 243.75 C 352.5 266.621094 334.121094 285 311.25 285 C 300.726562 285 291.386719 280.882812 284.105469 274.4375 C 284.195312 272.886719 285 271.574219 285 270 Z M 285 165 "/>
</g>
</svg>
