<?xml version="1.0" encoding="UTF-8"?>
<svg xmlns="http://www.w3.org/2000/svg" xmlns:xlink="http://www.w3.org/1999/xlink" width="375pt" height="375pt" viewBox="0 0 375 375" version="1.1">
<g id="surface10213">
<path style=" stroke:none;fill-rule:nonzero;fill:rgb(100%,100%,100%);fill-opacity:1;" d="M 206.25 37.5 C 180.601562 37.5 159.519531 57.300781 157.644531 82.5 L 180 82.5 C 200.699219 82.5 217.5 99.300781 217.5 120 L 217.5 133.652344 C 239.023438 128.628906 255 109.273438 255 86.25 C 255 59.324219 233.175781 37.5 206.25 37.5 Z M 318.75 67.5 C 300.109375 67.5 285 82.609375 285 101.25 C 285 119.890625 300.109375 135 318.75 135 C 337.390625 135 352.5 119.890625 352.5 101.25 C 352.5 82.609375 337.390625 67.5 318.75 67.5 Z M 45 97.5 C 32.59375 97.5 22.5 107.59375 22.5 120 L 22.5 255 C 22.5 267.40625 32.59375 277.5 45 277.5 L 180 277.5 C 192.40625 277.5 202.5 267.40625 202.5 255 L 202.5 120 C 202.5 107.59375 192.40625 97.5 180 97.5 Z M 75 142.5 L 150 142.5 L 150 157.5 L 120 157.5 L 120 232.5 L 105 232.5 L 105 157.5 L 75 157.5 Z M 217.5 157.5 L 217.5 255 C 217.5 275.699219 200.699219 292.5 180 292.5 L 136.496094 292.5 C 139.496094 307.199219 146.773438 320.328125 156.972656 330.527344 C 170.546875 344.101562 189.300781 352.5 210 352.5 C 251.398438 352.5 285 318.898438 285 277.5 L 285 157.5 Z M 300 157.5 L 300 277.5 C 300 283.648438 299.394531 289.65625 298.269531 295.429688 C 304.496094 298.355469 311.398438 300 318.75 300 C 345.675781 300 367.5 278.175781 367.5 251.25 L 367.5 157.5 Z M 300 157.5 "/>
</g>
</svg>
