<?xml version="1.0" encoding="UTF-8"?>
<svg xmlns="http://www.w3.org/2000/svg" xmlns:xlink="http://www.w3.org/1999/xlink" width="375pt" height="375pt" viewBox="0 0 375 375" version="1.1">
<g id="surface1951">
<path style=" stroke:none;fill-rule:nonzero;fill:rgb(0%,0%,0%);fill-opacity:1;" d="M 67.5 142.5 C 42.683594 142.5 22.5 162.683594 22.5 187.5 C 22.5 212.316406 42.683594 232.5 67.5 232.5 C 92.316406 232.5 112.5 212.316406 112.5 187.5 C 112.5 162.683594 92.316406 142.5 67.5 142.5 Z M 187.5 142.5 C 162.683594 142.5 142.5 162.683594 142.5 187.5 C 142.5 212.316406 162.683594 232.5 187.5 232.5 C 212.316406 232.5 232.5 212.316406 232.5 187.5 C 232.5 162.683594 212.316406 142.5 187.5 142.5 Z M 307.5 142.5 C 282.683594 142.5 262.5 162.683594 262.5 187.5 C 262.5 212.316406 282.683594 232.5 307.5 232.5 C 332.316406 232.5 352.5 212.316406 352.5 187.5 C 352.5 162.683594 332.316406 142.5 307.5 142.5 Z M 307.5 142.5 "/>
</g>
</svg>
