<?xml version="1.0" encoding="UTF-8"?>
<svg xmlns="http://www.w3.org/2000/svg" xmlns:xlink="http://www.w3.org/1999/xlink" width="375pt" height="375pt" viewBox="0 0 375 375" version="1.1">
<g id="surface9697">
<path style=" stroke:none;fill-rule:nonzero;fill:rgb(100%,100%,100%);fill-opacity:1;" d="M 187.5 15 C 92.316406 15 15 92.316406 15 187.5 C 15 282.683594 92.316406 360 187.5 360 C 282.683594 360 360 282.683594 360 187.5 C 360 92.316406 282.683594 15 187.5 15 Z M 187.5 30 C 274.570312 30 345 100.429688 345 187.5 C 345 274.570312 274.570312 345 187.5 345 C 100.429688 345 30 274.570312 30 187.5 C 30 100.429688 100.429688 30 187.5 30 Z M 97.5 157.5 C 81.003906 157.5 67.5 171.003906 67.5 187.5 C 67.5 203.996094 81.003906 217.5 97.5 217.5 C 113.996094 217.5 127.5 203.996094 127.5 187.5 C 127.5 171.003906 113.996094 157.5 97.5 157.5 Z M 187.5 157.5 C 171.003906 157.5 157.5 171.003906 157.5 187.5 C 157.5 203.996094 171.003906 217.5 187.5 217.5 C 203.996094 217.5 217.5 203.996094 217.5 187.5 C 217.5 171.003906 203.996094 157.5 187.5 157.5 Z M 277.5 157.5 C 261.003906 157.5 247.5 171.003906 247.5 187.5 C 247.5 203.996094 261.003906 217.5 277.5 217.5 C 293.996094 217.5 307.5 203.996094 307.5 187.5 C 307.5 171.003906 293.996094 157.5 277.5 157.5 Z M 97.5 172.5 C 105.878906 172.5 112.5 179.121094 112.5 187.5 C 112.5 195.878906 105.878906 202.5 97.5 202.5 C 89.121094 202.5 82.5 195.878906 82.5 187.5 C 82.5 179.121094 89.121094 172.5 97.5 172.5 Z M 187.5 172.5 C 195.878906 172.5 202.5 179.121094 202.5 187.5 C 202.5 195.878906 195.878906 202.5 187.5 202.5 C 179.121094 202.5 172.5 195.878906 172.5 187.5 C 172.5 179.121094 179.121094 172.5 187.5 172.5 Z M 277.5 172.5 C 285.878906 172.5 292.5 179.121094 292.5 187.5 C 292.5 195.878906 285.878906 202.5 277.5 202.5 C 269.121094 202.5 262.5 195.878906 262.5 187.5 C 262.5 179.121094 269.121094 172.5 277.5 172.5 Z M 277.5 172.5 "/>
</g>
</svg>
