<?xml version="1.0" encoding="UTF-8"?>
<svg width="345px" height="345px" viewBox="0 0 345 345" version="1.1" xmlns="http://www.w3.org/2000/svg" xmlns:xlink="http://www.w3.org/1999/xlink">
    <title>View More</title>
    <g id="Page-1" stroke="none" stroke-width="1" fill="none" fill-rule="evenodd">
        <g id="View-More" fill="#9B9B9B" fill-rule="nonzero">
            <path d="M172.5,0 C77.316406,0 0,77.316406 0,172.5 C0,267.683594 77.316406,345 172.5,345 C267.683594,345 345,267.683594 345,172.5 C345,77.316406 267.683594,0 172.5,0 Z M172.5,15 C259.570312,15 330,85.429688 330,172.5 C330,259.570312 259.570312,330 172.5,330 C85.429688,330 15,259.570312 15,172.5 C15,85.429688 85.429688,15 172.5,15 Z M82.5,142.5 C66.003906,142.5 52.5,156.003906 52.5,172.5 C52.5,188.996094 66.003906,202.5 82.5,202.5 C98.996094,202.5 112.5,188.996094 112.5,172.5 C112.5,156.003906 98.996094,142.5 82.5,142.5 Z M172.5,142.5 C156.003906,142.5 142.5,156.003906 142.5,172.5 C142.5,188.996094 156.003906,202.5 172.5,202.5 C188.996094,202.5 202.5,188.996094 202.5,172.5 C202.5,156.003906 188.996094,142.5 172.5,142.5 Z M262.5,142.5 C246.003906,142.5 232.5,156.003906 232.5,172.5 C232.5,188.996094 246.003906,202.5 262.5,202.5 C278.996094,202.5 292.5,188.996094 292.5,172.5 C292.5,156.003906 278.996094,142.5 262.5,142.5 Z M82.5,157.5 C90.878906,157.5 97.5,164.121094 97.5,172.5 C97.5,180.878906 90.878906,187.5 82.5,187.5 C74.121094,187.5 67.5,180.878906 67.5,172.5 C67.5,164.121094 74.121094,157.5 82.5,157.5 Z M172.5,157.5 C180.878906,157.5 187.5,164.121094 187.5,172.5 C187.5,180.878906 180.878906,187.5 172.5,187.5 C164.121094,187.5 157.5,180.878906 157.5,172.5 C157.5,164.121094 164.121094,157.5 172.5,157.5 Z M262.5,157.5 C270.878906,157.5 277.5,164.121094 277.5,172.5 C277.5,180.878906 270.878906,187.5 262.5,187.5 C254.121094,187.5 247.5,180.878906 247.5,172.5 C247.5,164.121094 254.121094,157.5 262.5,157.5 Z" id="Shape"></path>
        </g>
    </g>
</svg>