<?xml version="1.0" encoding="UTF-8"?>
<svg xmlns="http://www.w3.org/2000/svg" xmlns:xlink="http://www.w3.org/1999/xlink" width="375pt" height="375pt" viewBox="0 0 375 375" version="1.1">
<g id="surface11475">
<path style=" stroke:none;fill-rule:nonzero;fill:rgb(100%,100%,100%);fill-opacity:1;" d="M 306.796875 22.5 C 298.503906 22.5 292.5 28.386719 292.5 36.796875 C 292.5 45.089844 298.476562 51.09375 306.796875 51.09375 C 315.117188 51.09375 320.859375 45.089844 320.859375 36.796875 C 320.859375 28.386719 315.089844 22.5 306.796875 22.5 Z M 157.265625 37.5 C 122.109375 38.144531 99.753906 53.292969 90 75.9375 C 80.714844 97.5 82.410156 124.628906 89.0625 152.109375 C 85.488281 156.300781 82.644531 161.925781 83.671875 170.390625 C 84.785156 179.621094 87.332031 186.183594 90.9375 190.78125 C 92.929688 193.300781 95.535156 193.535156 97.96875 194.765625 C 99.285156 202.617188 101.484375 210.46875 104.765625 217.03125 C 106.640625 220.808594 108.777344 224.296875 110.859375 227.109375 C 111.796875 228.371094 113.144531 229.101562 114.140625 230.15625 C 114.199219 239.503906 114.257812 247.207031 113.4375 257.109375 C 110.917969 263.085938 105.496094 267.800781 97.03125 272.34375 C 88.214844 277.058594 76.757812 281.25 65.15625 286.640625 C 53.554688 292.03125 41.542969 298.800781 32.109375 309.140625 C 22.675781 319.480469 16.113281 333.515625 15 352.03125 L 14.53125 360 L 300.46875 360 L 300 352.03125 C 298.886719 333.515625 292.292969 319.480469 282.890625 309.140625 C 273.488281 298.800781 261.652344 292.058594 250.078125 286.640625 C 238.503906 281.222656 227.226562 277.058594 218.4375 272.34375 C 210.027344 267.800781 204.550781 263.113281 202.03125 257.109375 C 201.210938 247.238281 201.269531 239.503906 201.328125 230.15625 C 202.324219 229.074219 203.671875 228.371094 204.609375 227.109375 C 206.660156 224.269531 208.621094 220.78125 210.46875 217.03125 C 213.660156 210.46875 215.976562 202.589844 217.265625 194.765625 C 219.609375 193.535156 222.128906 193.242188 224.0625 190.78125 C 227.667969 186.183594 230.214844 179.621094 231.328125 170.390625 C 232.324219 162.1875 229.570312 156.769531 226.171875 152.578125 C 229.832031 140.683594 234.519531 121.464844 232.96875 101.71875 C 232.121094 90.9375 229.363281 80.183594 222.890625 71.25 C 216.796875 62.839844 206.925781 56.691406 194.296875 54.375 C 186.855469 44.621094 174.316406 37.5 157.5 37.5 Z M 157.5 52.5 C 157.589844 52.5 157.644531 52.5 157.734375 52.5 C 171.972656 52.589844 181.40625 59.152344 184.6875 64.921875 L 186.5625 67.96875 L 190.078125 68.4375 C 200.507812 69.902344 206.484375 74.089844 210.703125 79.921875 C 214.921875 85.753906 217.265625 93.894531 217.96875 102.890625 C 219.375 120.878906 214.191406 141.824219 210.9375 151.640625 L 209.0625 157.5 L 214.21875 160.546875 C 213.894531 160.339844 217.089844 162.511719 216.328125 168.75 C 215.449219 176.105469 213.691406 179.910156 212.34375 181.640625 C 210.996094 183.371094 210.292969 183.28125 210.234375 183.28125 L 203.90625 183.75 L 203.203125 189.84375 C 202.5 196.316406 199.894531 204.257812 196.875 210.46875 C 195.351562 213.574219 193.800781 216.300781 192.421875 218.203125 C 191.042969 220.105469 189.609375 221.160156 190.3125 220.78125 L 186.328125 222.890625 L 186.328125 227.34375 C 186.328125 238.214844 185.886719 247.121094 187.03125 259.6875 L 187.03125 260.625 L 187.5 261.5625 C 191.691406 272.839844 200.976562 279.988281 211.171875 285.46875 C 221.367188 290.949219 232.96875 295.195312 243.75 300.234375 C 254.53125 305.273438 264.347656 311.160156 271.640625 319.21875 C 277.472656 325.636719 281.367188 334.21875 283.359375 345 L 31.640625 345 C 33.660156 334.21875 37.5 325.636719 43.359375 319.21875 C 50.714844 311.160156 60.644531 305.273438 71.484375 300.234375 C 82.324219 295.195312 93.839844 290.949219 104.0625 285.46875 C 114.285156 279.988281 123.75 272.871094 127.96875 261.5625 L 128.4375 259.6875 C 129.582031 247.121094 129.140625 238.214844 129.140625 227.34375 L 129.140625 222.890625 L 125.15625 220.78125 C 125.832031 221.132812 124.21875 220.105469 122.8125 218.203125 C 121.40625 216.300781 119.675781 213.574219 118.125 210.46875 C 115.019531 204.257812 112.472656 196.261719 111.796875 189.84375 L 111.09375 183.75 L 104.765625 183.28125 C 104.707031 183.28125 104.003906 183.371094 102.65625 181.640625 C 101.308594 179.910156 99.550781 176.105469 98.671875 168.75 C 97.941406 162.511719 101.105469 160.339844 100.78125 160.546875 L 105.703125 157.5 L 104.296875 152.109375 C 97.265625 124.980469 96.238281 99.636719 103.828125 82.03125 C 111.386719 64.480469 126.417969 53.144531 157.5 52.5 Z M 285 67.5 L 285 82.5 L 300 82.5 L 300 157.5 L 285 157.5 L 285 172.5 L 330 172.5 L 330 157.5 L 315 157.5 L 315 67.5 Z M 285 67.5 "/>
</g>
</svg>
