<?xml version="1.0" encoding="UTF-8"?>
<svg xmlns="http://www.w3.org/2000/svg" xmlns:xlink="http://www.w3.org/1999/xlink" width="375pt" height="375pt" viewBox="0 0 375 375" version="1.1">
<g id="surface11521">
<path style=" stroke:none;fill-rule:nonzero;fill:rgb(100%,100%,100%);fill-opacity:1;" d="M 306.796875 22.5 C 298.535156 22.5 292.5 28.535156 292.5 36.796875 C 292.5 45.058594 298.535156 51.09375 306.796875 51.09375 C 315.058594 51.09375 321.09375 45.058594 321.09375 36.796875 C 321.09375 28.535156 315.058594 22.5 306.796875 22.5 Z M 157.5 37.5 C 130.488281 38.261719 110.246094 46.550781 97.5 63.046875 C 82.5 82.558594 79.542969 113.144531 89.296875 151.40625 C 85.546875 155.15625 83.144531 161.894531 83.90625 170.15625 C 85.402344 186.652344 92.253906 193.417969 97.5 196.40625 C 99.753906 209.152344 107.167969 224.355469 113.90625 231.09375 L 113.90625 234.84375 C 113.90625 242.34375 113.964844 249.082031 113.203125 257.34375 C 108.691406 267.832031 95.246094 273.808594 78.75 280.546875 C 51.738281 291.796875 17.988281 306.035156 15 351.796875 L 14.296875 360 L 300.703125 360 L 300.703125 351.796875 C 297.714844 306.796875 263.964844 291.796875 236.953125 280.546875 C 221.191406 273.808594 207.011719 267.832031 202.5 257.34375 C 201.738281 249.082031 201.796875 242.34375 201.796875 234.84375 L 201.796875 231.09375 C 208.535156 224.355469 215.949219 209.152344 218.203125 196.40625 C 223.449219 193.417969 229.542969 186.652344 231.796875 170.15625 C 233.292969 161.894531 230.332031 155.917969 227.34375 151.40625 C 231.855469 136.40625 240 98.347656 225 73.59375 C 218.261719 63.105469 208.449219 56.160156 195.703125 53.90625 C 188.203125 43.417969 173.996094 37.5 157.5 37.5 Z M 285 67.5 L 285 82.5 L 300 82.5 L 300 157.5 L 285 157.5 L 285 172.5 L 330 172.5 L 330 157.5 L 315 157.5 L 315 67.5 Z M 285 67.5 "/>
</g>
</svg>
