<?xml version="1.0" encoding="UTF-8"?>
<svg xmlns="http://www.w3.org/2000/svg" xmlns:xlink="http://www.w3.org/1999/xlink" width="375pt" height="375pt" viewBox="0 0 375 375" version="1.1">
<g id="surface1867">
<path style=" stroke:none;fill-rule:nonzero;fill:rgb(0%,0%,0%);fill-opacity:1;" d="M 67.5 142.5 C 42.746094 142.5 22.5 162.746094 22.5 187.5 C 22.5 212.253906 42.746094 232.5 67.5 232.5 C 92.253906 232.5 112.5 212.253906 112.5 187.5 C 112.5 162.746094 92.253906 142.5 67.5 142.5 Z M 187.5 142.5 C 162.746094 142.5 142.5 162.746094 142.5 187.5 C 142.5 212.253906 162.746094 232.5 187.5 232.5 C 212.253906 232.5 232.5 212.253906 232.5 187.5 C 232.5 162.746094 212.253906 142.5 187.5 142.5 Z M 307.5 142.5 C 282.746094 142.5 262.5 162.746094 262.5 187.5 C 262.5 212.253906 282.746094 232.5 307.5 232.5 C 332.253906 232.5 352.5 212.253906 352.5 187.5 C 352.5 162.746094 332.253906 142.5 307.5 142.5 Z M 67.5 157.5 C 84.167969 157.5 97.5 170.832031 97.5 187.5 C 97.5 204.167969 84.167969 217.5 67.5 217.5 C 50.832031 217.5 37.5 204.167969 37.5 187.5 C 37.5 170.832031 50.832031 157.5 67.5 157.5 Z M 187.5 157.5 C 204.167969 157.5 217.5 170.832031 217.5 187.5 C 217.5 204.167969 204.167969 217.5 187.5 217.5 C 170.832031 217.5 157.5 204.167969 157.5 187.5 C 157.5 170.832031 170.832031 157.5 187.5 157.5 Z M 307.5 157.5 C 324.167969 157.5 337.5 170.832031 337.5 187.5 C 337.5 204.167969 324.167969 217.5 307.5 217.5 C 290.832031 217.5 277.5 204.167969 277.5 187.5 C 277.5 170.832031 290.832031 157.5 307.5 157.5 Z M 307.5 157.5 "/>
</g>
</svg>
