<?xml version="1.0" encoding="UTF-8"?>
<svg xmlns="http://www.w3.org/2000/svg" xmlns:xlink="http://www.w3.org/1999/xlink" width="375pt" height="375pt" viewBox="0 0 375 375" version="1.1">
<g id="surface4430">
<path style=" stroke:none;fill-rule:nonzero;fill:rgb(100%,100%,100%);fill-opacity:1;" d="M 48.75 0 C 44.003906 0 42.917969 2.34375 41.953125 3.515625 C 40.988281 4.6875 40.285156 5.800781 39.609375 7.03125 C 38.292969 9.492188 37.03125 12.511719 35.625 16.171875 C 32.8125 23.527344 29.503906 33.425781 26.484375 44.0625 C 21.183594 62.785156 16.316406 83.527344 15.234375 98.90625 C 6.445312 101.980469 0 110.246094 0 120 C 0 129.699219 6.328125 137.957031 15 141.09375 L 15 367.5 C 15 371.628906 18.371094 375 22.5 375 L 150 375 C 154.128906 375 157.5 371.628906 157.5 367.5 L 157.5 339.84375 C 157.5 329.386719 165.058594 318.925781 173.671875 311.25 C 180.496094 305.15625 184.980469 303.074219 187.5 301.640625 C 190.019531 303.074219 194.503906 305.15625 201.328125 311.25 C 209.941406 318.925781 217.5 329.386719 217.5 339.84375 L 217.5 367.5 C 217.5 371.628906 220.871094 375 225 375 L 352.5 375 C 356.628906 375 360 371.628906 360 367.5 L 360 141.09375 C 368.671875 137.957031 375 129.699219 375 120 C 375 110.15625 368.410156 101.925781 359.53125 98.90625 C 358.476562 83.410156 353.878906 62.667969 348.515625 43.828125 C 345.496094 33.191406 342.1875 23.496094 339.375 16.171875 C 337.96875 12.511719 336.707031 9.492188 335.390625 7.03125 C 334.714844 5.800781 334.011719 4.6875 333.046875 3.515625 C 332.082031 2.34375 330.996094 0 326.25 0 C 321.503906 0 320.417969 2.34375 319.453125 3.515625 C 318.488281 4.6875 317.785156 5.800781 317.109375 7.03125 C 315.792969 9.492188 314.53125 12.511719 313.125 16.171875 C 310.3125 23.527344 307.003906 33.425781 303.984375 44.0625 C 298.652344 62.902344 293.789062 83.527344 292.734375 98.90625 C 283.945312 101.980469 277.5 110.246094 277.5 120 C 277.5 129.699219 283.828125 137.957031 292.5 141.09375 L 292.5 217.5 L 284.765625 217.5 C 282.511719 178.476562 262.707031 155.039062 242.109375 140.15625 C 231.183594 132.246094 220.078125 126.445312 211.171875 121.40625 C 202.265625 116.367188 195.820312 111.707031 193.828125 108.515625 C 192.332031 106.113281 189.609375 104.765625 186.796875 105 C 186.5625 105 186.328125 105 186.09375 105 C 184.042969 105.441406 182.253906 106.699219 181.171875 108.515625 C 179.179688 111.738281 172.734375 116.367188 163.828125 121.40625 C 154.921875 126.445312 143.816406 132.246094 132.890625 140.15625 C 112.292969 155.039062 92.488281 178.476562 90.234375 217.5 L 82.5 217.5 L 82.5 141.09375 C 91.171875 137.957031 97.5 129.699219 97.5 120 C 97.5 110.246094 91.054688 101.980469 82.265625 98.90625 C 81.183594 83.4375 76.316406 62.519531 71.015625 43.828125 C 67.996094 33.191406 64.6875 23.496094 61.875 16.171875 C 60.46875 12.511719 59.207031 9.492188 57.890625 7.03125 C 57.214844 5.800781 56.511719 4.6875 55.546875 3.515625 C 54.582031 2.34375 53.496094 0 48.75 0 Z M 48.75 23.671875 C 51.183594 30.207031 53.789062 38.582031 56.484375 48.046875 C 61.378906 65.246094 65.480469 84.519531 66.796875 97.5 L 30.703125 97.5 C 32.019531 84.582031 36.121094 65.246094 41.015625 48.046875 C 43.710938 38.554688 46.316406 30.207031 48.75 23.671875 Z M 326.25 23.671875 C 328.683594 30.207031 331.289062 38.582031 333.984375 48.046875 C 338.847656 65.128906 342.949219 84.492188 344.296875 97.5 L 308.203125 97.5 C 309.550781 84.550781 313.652344 65.15625 318.515625 48.046875 C 321.210938 38.554688 323.816406 30.207031 326.25 23.671875 Z M 21.328125 112.5 C 21.652344 112.527344 21.941406 112.527344 22.265625 112.5 C 22.355469 112.5 22.410156 112.5 22.5 112.5 C 26.71875 112.5 30 115.78125 30 120 C 30 123.894531 27.1875 126.796875 23.4375 127.265625 C 23.347656 127.265625 23.292969 127.265625 23.203125 127.265625 C 22.734375 127.207031 22.265625 127.207031 21.796875 127.265625 C 21.707031 127.265625 21.652344 127.265625 21.5625 127.265625 C 17.8125 126.796875 15 123.894531 15 120 C 15 116.160156 17.667969 113.027344 21.328125 112.5 Z M 43.59375 112.5 L 53.90625 112.5 C 53.027344 114.84375 52.5 117.363281 52.5 120 C 52.5 129.699219 58.828125 137.957031 67.5 141.09375 L 67.5 223.59375 C 67.441406 224.0625 67.441406 224.53125 67.5 225 L 67.5 360 L 30 360 L 30 141.09375 C 38.671875 137.957031 45 129.699219 45 120 C 45 117.363281 44.472656 114.84375 43.59375 112.5 Z M 74.296875 112.5 L 75 112.5 C 75.234375 112.5 75.46875 112.472656 75.703125 112.5 C 79.597656 112.851562 82.5 116.015625 82.5 120 C 82.5 123.984375 79.597656 127.148438 75.703125 127.5 C 75.46875 127.5 75.234375 127.5 75 127.5 C 70.78125 127.5 67.5 124.21875 67.5 120 C 67.5 116.015625 70.402344 112.851562 74.296875 112.5 Z M 299.296875 112.5 C 299.441406 112.5 299.621094 112.5 299.765625 112.5 C 300 112.5 300.234375 112.5 300.46875 112.5 C 304.480469 112.734375 307.5 115.925781 307.5 120 C 307.5 123.984375 304.570312 126.914062 300.703125 127.265625 C 300.234375 127.207031 299.765625 127.207031 299.296875 127.265625 C 299.207031 127.265625 299.152344 127.265625 299.0625 127.265625 C 295.3125 126.796875 292.5 123.894531 292.5 120 C 292.5 116.015625 295.402344 112.851562 299.296875 112.5 Z M 321.09375 112.5 L 331.40625 112.5 C 330.558594 114.871094 330 117.363281 330 120 C 330 129.699219 336.328125 137.957031 345 141.09375 L 345 360 L 307.5 360 L 307.5 225 C 307.5 224.765625 307.5 224.53125 307.5 224.296875 L 307.5 141.09375 C 316.171875 137.957031 322.5 129.699219 322.5 120 C 322.5 117.363281 321.941406 114.871094 321.09375 112.5 Z M 352.5 112.5 C 356.71875 112.5 360 115.78125 360 120 C 360 123.984375 357.097656 127.148438 353.203125 127.5 C 352.96875 127.5 352.734375 127.5 352.5 127.5 C 348.28125 127.5 345 124.21875 345 120 C 345 115.78125 348.28125 112.5 352.5 112.5 Z M 187.5 123.046875 C 192.160156 127.265625 197.433594 130.988281 203.671875 134.53125 C 212.957031 139.804688 223.621094 145.253906 233.4375 152.34375 C 251.746094 165.585938 267.714844 183.515625 269.765625 217.5 L 105.234375 217.5 C 107.285156 183.515625 123.253906 165.585938 141.5625 152.34375 C 151.378906 145.253906 161.808594 139.804688 171.09375 134.53125 C 177.332031 130.988281 182.839844 127.265625 187.5 123.046875 Z M 82.5 232.5 L 292.5 232.5 L 292.5 360 L 232.5 360 L 232.5 339.84375 C 232.5 322.617188 221.308594 309.285156 211.171875 300.234375 C 201.035156 291.183594 191.015625 285.9375 191.015625 285.9375 C 188.816406 284.765625 186.183594 284.765625 183.984375 285.9375 C 183.984375 285.9375 173.964844 291.183594 163.828125 300.234375 C 153.691406 309.285156 142.5 322.617188 142.5 339.84375 L 142.5 360 L 82.5 360 Z M 82.5 232.5 "/>
</g>
</svg>
