<?xml version="1.0" encoding="UTF-8"?>
<svg xmlns="http://www.w3.org/2000/svg" xmlns:xlink="http://www.w3.org/1999/xlink" width="375pt" height="375pt" viewBox="0 0 375 375" version="1.1">
<g id="surface4462">
<path style=" stroke:none;fill-rule:nonzero;fill:rgb(100%,100%,100%);fill-opacity:1;" d="M 46.875 0 C 42.539062 0.617188 37.382812 5.597656 26.484375 44.0625 C 24.402344 51.417969 18.722656 72.363281 16.171875 90.234375 C 23.203125 90.527344 29.707031 93.164062 34.6875 97.5 L 62.8125 97.5 C 67.792969 93.164062 74.296875 90.527344 81.328125 90.234375 C 78.808594 72.277344 73.097656 51.183594 71.015625 43.828125 C 58.566406 -0.03125 53.527344 0 48.75 0 C 48.164062 0 47.488281 -0.0898438 46.875 0 Z M 324.375 0 C 320.039062 0.617188 314.882812 5.597656 303.984375 44.0625 C 301.902344 51.417969 296.222656 72.363281 293.671875 90.234375 C 300.703125 90.527344 307.207031 93.164062 312.1875 97.5 L 340.3125 97.5 C 345.292969 93.164062 351.796875 90.527344 358.828125 90.234375 C 356.308594 72.277344 350.597656 51.183594 348.515625 43.828125 C 336.066406 -0.03125 331.027344 0 326.25 0 C 325.664062 0 324.988281 -0.0898438 324.375 0 Z M 15 105 C 6.707031 105 0 111.707031 0 120 C 0 128.292969 6.707031 135 15 135 C 23.292969 135 30 128.292969 30 120 C 30 111.707031 23.292969 105 15 105 Z M 82.5 105 C 74.207031 105 67.5 111.707031 67.5 120 C 67.5 128.292969 74.207031 135 82.5 135 C 90.792969 135 97.5 128.292969 97.5 120 C 97.5 111.707031 90.792969 105 82.5 105 Z M 187.5 105 C 184.921875 105 182.550781 106.316406 181.171875 108.515625 C 178.242188 113.230469 169.277344 118.269531 159.84375 123.515625 C 136.144531 136.699219 104.035156 154.511719 98.4375 202.5 L 276.328125 202.5 C 270.207031 155.417969 238.59375 136.582031 215.15625 123.515625 C 205.722656 118.269531 196.757812 113.203125 193.828125 108.515625 C 192.449219 106.316406 190.078125 105 187.5 105 Z M 292.5 105 C 284.207031 105 277.5 111.707031 277.5 120 C 277.5 128.292969 284.207031 135 292.5 135 C 300.792969 135 307.5 128.292969 307.5 120 C 307.5 111.707031 300.792969 105 292.5 105 Z M 360 105 C 351.707031 105 345 111.707031 345 120 C 345 128.292969 351.707031 135 360 135 C 368.292969 135 375 128.292969 375 120 C 375 111.707031 368.292969 105 360 105 Z M 43.828125 112.5 C 44.441406 114.902344 45 117.394531 45 120 C 45 136.550781 31.550781 150 15 150 L 15 367.5 C 15 371.660156 18.339844 375 22.5 375 L 75 375 C 75.089844 375 75.144531 375 75.234375 375 C 75.324219 375 75.378906 375 75.46875 375 L 82.5 375 L 82.5 150 C 65.949219 150 52.5 136.550781 52.5 120 C 52.5 117.394531 53.058594 114.902344 53.671875 112.5 Z M 321.328125 112.5 C 321.941406 114.902344 322.5 117.394531 322.5 120 C 322.5 136.550781 309.050781 150 292.5 150 L 292.5 375 L 352.5 375 C 356.660156 375 360 371.660156 360 367.5 L 360 150 C 343.449219 150 330 136.550781 330 120 C 330 117.394531 330.558594 114.902344 331.171875 112.5 Z M 97.5 217.5 L 97.5 375 L 150 375 C 154.128906 375 157.5 371.660156 157.5 367.5 L 157.5 339.84375 C 157.5 322.96875 176.746094 307.734375 187.5 301.171875 C 198.28125 307.707031 217.5 322.878906 217.5 339.84375 L 217.5 367.5 C 217.5 371.660156 220.839844 375 225 375 L 277.5 375 L 277.5 217.5 Z M 97.5 217.5 "/>
</g>
</svg>
