<?xml version="1.0" encoding="UTF-8"?>
<svg width="46px" height="46px" viewBox="0 0 46 46" version="1.1" xmlns="http://www.w3.org/2000/svg" xmlns:xlink="http://www.w3.org/1999/xlink">
    <title>Group 107</title>
    <g id="Page-1" stroke="none" stroke-width="1" fill="none" fill-rule="evenodd">
        <g id="Group-107">
            <g id="Group-99">
                <circle id="Oval" fill-opacity="0.65" fill="#9E9D9D" cx="23" cy="23" r="23"></circle>
                <g id="Group-52" transform="translate(15, 15)" fill="#3B3B3B">
                    <polygon id="Triangle" transform="translate(7.5, 15.5) rotate(-180) translate(-7.5, -15.5)" points="7.5 13 10 18 5 18"></polygon>
                    <rect id="Rectangle" x="0" y="0" width="16" height="14" rx="7"></rect>
                </g>
            </g>
            <g id="Mosque(2)" transform="translate(17.2, 16)" fill="#FFFFFF" fill-rule="nonzero">
                <path d="M1.4375,0.00122440734 C1.30453123,0.0201494908 1.14640623,0.172867581 0.8121875,1.35233054 C0.748338549,1.57787424 0.574161451,2.22012875 0.4959375,2.76811728 C0.7115625,2.77710071 0.911015617,2.85795145 1.06375,2.99090606 L1.92625,2.99090606 C2.07898438,2.85795145 2.2784375,2.77710071 2.4940625,2.76811728 C2.41679688,2.21749363 2.24166145,1.5706875 2.1778125,1.3451438 C1.79603645,0.000266176042 1.64150522,0.00122440734 1.495,0.00122440734 C1.47703123,0.00122440734 1.45630728,-0.00153050918 1.4375,0.00122440734 Z M9.9475,0.00122440734 C9.81453123,0.0201494908 9.65640623,0.172867581 9.3221875,1.35233054 C9.25833855,1.57787424 9.08416145,2.22012875 9.0059375,2.76811728 C9.2215625,2.77710071 9.42101562,2.85795145 9.57375,2.99090606 L10.43625,2.99090606 C10.5889844,2.85795145 10.7884375,2.77710071 11.0040625,2.76811728 C10.9267969,2.21749363 10.7516615,1.5706875 10.6878125,1.3451438 C10.3060365,0.000266176042 10.1515052,0.00122440734 10.005,0.00122440734 C9.98703123,0.00122440734 9.96630728,-0.00153050918 9.9475,0.00122440734 Z M0.46,3.22088157 C0.205682284,3.22088157 0,3.42654196 0,3.6808326 C0,3.93512324 0.205682284,4.14078362 0.46,4.14078362 C0.714317716,4.14078362 0.92,3.93512324 0.92,3.6808326 C0.92,3.42654196 0.714317716,3.22088157 0.46,3.22088157 Z M2.53,3.22088157 C2.27568228,3.22088157 2.07,3.42654196 2.07,3.6808326 C2.07,3.93512324 2.27568228,4.14078362 2.53,4.14078362 C2.78431772,4.14078362 2.99,3.93512324 2.99,3.6808326 C2.99,3.42654196 2.78431772,3.22088157 2.53,3.22088157 Z M5.75,3.22088157 C5.6709375,3.22088157 5.59822395,3.26124706 5.5559375,3.32868259 C5.46609377,3.47325575 5.19117188,3.62777053 4.901875,3.78863362 C4.17509895,4.19288746 3.19041145,4.7390793 3.01875,6.21056323 L8.4740625,6.21056323 C8.28634895,4.766868 7.316875,4.18929407 6.598125,3.78863362 C6.30882812,3.62777053 6.03390623,3.47241729 5.9440625,3.32868259 C5.90177605,3.26124706 5.8290625,3.22088157 5.75,3.22088157 Z M8.97,3.22088157 C8.71568228,3.22088157 8.51,3.42654196 8.51,3.6808326 C8.51,3.93512324 8.71568228,4.14078362 8.97,4.14078362 C9.22431772,4.14078362 9.43,3.93512324 9.43,3.6808326 C9.43,3.42654196 9.22431772,3.22088157 8.97,3.22088157 Z M11.04,3.22088157 C10.7856823,3.22088157 10.58,3.42654196 10.58,3.6808326 C10.58,3.93512324 10.7856823,4.14078362 11.04,4.14078362 C11.2943177,4.14078362 11.5,3.93512324 11.5,3.6808326 C11.5,3.42654196 11.2943177,3.22088157 11.04,3.22088157 Z M1.3440625,3.45085709 C1.36286978,3.52452112 1.38,3.60094005 1.38,3.6808326 C1.38,4.18833584 0.967557284,4.60073464 0.46,4.60073464 L0.46,11.2700245 C0.46,11.397589 0.562421883,11.5 0.69,11.5 L2.3,11.5 C2.30275522,11.5 2.30443228,11.5 2.3071875,11.5 C2.30994272,11.5 2.31161978,11.5 2.314375,11.5 L2.53,11.5 L2.53,4.60073464 C2.02244272,4.60073464 1.61,4.18833584 1.61,3.6808326 C1.61,3.60094005 1.62713022,3.52452112 1.6459375,3.45085709 L1.3440625,3.45085709 Z M9.8540625,3.45085709 C9.87286978,3.52452112 9.89,3.60094005 9.89,3.6808326 C9.89,4.18833584 9.47755728,4.60073464 8.97,4.60073464 L8.97,11.5 L10.81,11.5 C10.9375781,11.5 11.04,11.397589 11.04,11.2700245 L11.04,4.60073464 C10.5324427,4.60073464 10.12,4.18833584 10.12,3.6808326 C10.12,3.60094005 10.1371302,3.52452112 10.1559375,3.45085709 L9.8540625,3.45085709 Z M2.99,6.67051425 L2.99,11.5 L4.6,11.5 C4.72661978,11.5 4.83,11.397589 4.83,11.2700245 L4.83,10.4219898 C4.83,9.90454489 5.42021355,9.43740713 5.75,9.23617856 C6.080625,9.43656867 6.67,9.90178996 6.67,10.4219898 L6.67,11.2700245 C6.67,11.397589 6.77242188,11.5 6.9,11.5 L8.51,11.5 L8.51,6.67051425 L2.99,6.67051425 Z" id="Shape"></path>
            </g>
        </g>
    </g>
</svg>