<?xml version="1.0" encoding="UTF-8"?>
<svg width="16px" height="18px" viewBox="0 0 16 18" version="1.1" xmlns="http://www.w3.org/2000/svg"
  xmlns:xlink="http://www.w3.org/1999/xlink">
  <title>Group 8</title>
  <g id="Page-1" stroke="none" stroke-width="1" fill="none" fill-rule="evenodd">
    <g id="Group-8">
      <g id="Group-52-Copy-2" fill="#3B3B3B">
        <polygon id="Triangle" transform="translate(8, 15.5) rotate(-180) translate(-8, -15.5)"
          points="8 13 10.5 18 5.5 18"></polygon>
        <rect id="Rectangle" x="0" y="0" width="16" height="14" rx="7"></rect>
      </g>
      <g id="Mosque1" transform="translate(3, 2)" fill="#FFFFFF" fill-rule="nonzero">
        <path
          d="M7.31212798,3.88235294 C7.48802548,3.53699447 7.67857143,3.05997241 7.67857143,2.64705882 C7.67857143,1.23391544 5,0 5,0 C5,0 2.32142857,1.23391544 2.32142857,2.64705882 C2.32142857,3.05997241 2.51197452,3.53699447 2.68787202,3.88235294 L7.31212798,3.88235294 Z M9.38499815,1.94117647 C9.38499815,1.94117647 9.46428571,1.78929229 9.46428571,1.70381435 C9.46428571,1.41142003 8.92857143,1.05882353 8.92857143,1.05882353 C8.92857143,1.05882353 8.39285714,1.41142003 8.39285714,1.70381435 C8.39285714,1.78929229 8.4721447,1.94117647 8.4721447,1.94117647 L9.38499815,1.94117647 Z M2.67857143,4.41176471 L2.67857143,9 L3.92857143,9 C3.92857143,9 3.92857143,7.23529412 3.92857143,6.88235294 C3.92857143,6.17647059 5,5.47058824 5,5.47058824 C5,5.47058824 6.07142857,6.17647059 6.07142857,6.88235294 C6.07142857,7.23529412 6.07142857,9 6.07142857,9 L7.32142857,9 L7.32142857,4.41176471 L2.67857143,4.41176471 Z M9.38499815,2.29411765 L8.4721447,2.29411765 L8.39285714,4.76470588 L7.67857143,4.76470588 L7.85714286,9 L10,9 L10,4.76470588 L9.46428571,4.76470588 L9.38499815,2.29411765 Z M9.28571429,8.11764706 L8.57142857,8.11764706 C8.57142857,8.11764706 8.57142857,7.05882353 8.57142857,6.70588235 C8.57142857,6.35294118 8.92857143,6.17647059 8.92857143,6.17647059 C8.92857143,6.17647059 9.28571429,6.35294118 9.28571429,6.70588235 C9.28571429,7.05882353 9.28571429,8.11764706 9.28571429,8.11764706 Z M1.5278553,1.94117647 C1.5278553,1.94117647 1.60714286,1.78929229 1.60714286,1.70381435 C1.60714286,1.41142003 1.07142857,1.05882353 1.07142857,1.05882353 C1.07142857,1.05882353 0.535714286,1.41142003 0.535714286,1.70381435 C0.535714286,1.78929229 0.615001845,1.94117647 0.615001845,1.94117647 L1.5278553,1.94117647 Z M1.5278553,2.29411765 L0.615001845,2.29411765 L0.535714286,4.76470588 L0,4.76470588 L0,9 L2.14285714,9 L2.32142857,4.76470588 L1.60714286,4.76470588 L1.5278553,2.29411765 Z M1.42857143,8.11764706 L0.714285714,8.11764706 C0.714285714,8.11764706 0.714285714,7.05882353 0.714285714,6.70588235 C0.714285714,6.35294118 1.07142857,6.17647059 1.07142857,6.17647059 C1.07142857,6.17647059 1.42857143,6.35294118 1.42857143,6.70588235 C1.42857143,7.05882353 1.42857143,8.11764706 1.42857143,8.11764706 Z"
          id="Shape"></path>
      </g>
    </g>
  </g>
</svg>