<?xml version="1.0" encoding="UTF-8"?>
<svg width="375px" height="375px" viewBox="0 0 375 375" version="1.1" xmlns="http://www.w3.org/2000/svg" xmlns:xlink="http://www.w3.org/1999/xlink">
    <title>Mosque</title>
    <g id="Page-1" stroke="none" stroke-width="1" fill="none" fill-rule="evenodd">
        <g id="Mosque" fill="#9B9B9B" fill-rule="nonzero">
            <path d="M48.75,0 C44.003906,0 42.917969,2.34375 41.953125,3.515625 C40.988281,4.6875 40.285156,5.800781 39.609375,7.03125 C38.292969,9.492188 37.03125,12.511719 35.625,16.171875 C32.8125,23.527344 29.503906,33.425781 26.484375,44.0625 C21.183594,62.785156 16.316406,83.527344 15.234375,98.90625 C6.445312,101.980469 0,110.246094 0,120 C0,129.699219 6.328125,137.957031 15,141.09375 L15,367.5 C15,371.628906 18.371094,375 22.5,375 L150,375 C154.128906,375 157.5,371.628906 157.5,367.5 L157.5,339.84375 C157.5,329.386719 165.058594,318.925781 173.671875,311.25 C180.496094,305.15625 184.980469,303.074219 187.5,301.640625 C190.019531,303.074219 194.503906,305.15625 201.328125,311.25 C209.941406,318.925781 217.5,329.386719 217.5,339.84375 L217.5,367.5 C217.5,371.628906 220.871094,375 225,375 L352.5,375 C356.628906,375 360,371.628906 360,367.5 L360,141.09375 C368.671875,137.957031 375,129.699219 375,120 C375,110.15625 368.410156,101.925781 359.53125,98.90625 C358.476562,83.410156 353.878906,62.667969 348.515625,43.828125 C345.496094,33.191406 342.1875,23.496094 339.375,16.171875 C337.96875,12.511719 336.707031,9.492188 335.390625,7.03125 C334.714844,5.800781 334.011719,4.6875 333.046875,3.515625 C332.082031,2.34375 330.996094,0 326.25,0 C321.503906,0 320.417969,2.34375 319.453125,3.515625 C318.488281,4.6875 317.785156,5.800781 317.109375,7.03125 C315.792969,9.492188 314.53125,12.511719 313.125,16.171875 C310.3125,23.527344 307.003906,33.425781 303.984375,44.0625 C298.652344,62.902344 293.789062,83.527344 292.734375,98.90625 C283.945312,101.980469 277.5,110.246094 277.5,120 C277.5,129.699219 283.828125,137.957031 292.5,141.09375 L292.5,217.5 L284.765625,217.5 C282.511719,178.476562 262.707031,155.039062 242.109375,140.15625 C231.183594,132.246094 220.078125,126.445312 211.171875,121.40625 C202.265625,116.367188 195.820312,111.707031 193.828125,108.515625 C192.332031,106.113281 189.609375,104.765625 186.796875,105 C186.5625,105 186.328125,105 186.09375,105 C184.042969,105.441406 182.253906,106.699219 181.171875,108.515625 C179.179688,111.738281 172.734375,116.367188 163.828125,121.40625 C154.921875,126.445312 143.816406,132.246094 132.890625,140.15625 C112.292969,155.039062 92.488281,178.476562 90.234375,217.5 L82.5,217.5 L82.5,141.09375 C91.171875,137.957031 97.5,129.699219 97.5,120 C97.5,110.246094 91.054688,101.980469 82.265625,98.90625 C81.183594,83.4375 76.316406,62.519531 71.015625,43.828125 C67.996094,33.191406 64.6875,23.496094 61.875,16.171875 C60.46875,12.511719 59.207031,9.492188 57.890625,7.03125 C57.214844,5.800781 56.511719,4.6875 55.546875,3.515625 C54.582031,2.34375 53.496094,0 48.75,0 Z M48.75,23.671875 C51.183594,30.207031 53.789062,38.582031 56.484375,48.046875 C61.378906,65.246094 65.480469,84.519531 66.796875,97.5 L30.703125,97.5 C32.019531,84.582031 36.121094,65.246094 41.015625,48.046875 C43.710938,38.554688 46.316406,30.207031 48.75,23.671875 Z M326.25,23.671875 C328.683594,30.207031 331.289062,38.582031 333.984375,48.046875 C338.847656,65.128906 342.949219,84.492188 344.296875,97.5 L308.203125,97.5 C309.550781,84.550781 313.652344,65.15625 318.515625,48.046875 C321.210938,38.554688 323.816406,30.207031 326.25,23.671875 Z M21.328125,112.5 C21.652344,112.527344 21.941406,112.527344 22.265625,112.5 C22.355469,112.5 22.410156,112.5 22.5,112.5 C26.71875,112.5 30,115.78125 30,120 C30,123.894531 27.1875,126.796875 23.4375,127.265625 C23.347656,127.265625 23.292969,127.265625 23.203125,127.265625 C22.734375,127.207031 22.265625,127.207031 21.796875,127.265625 C21.707031,127.265625 21.652344,127.265625 21.5625,127.265625 C17.8125,126.796875 15,123.894531 15,120 C15,116.160156 17.667969,113.027344 21.328125,112.5 Z M43.59375,112.5 L53.90625,112.5 C53.027344,114.84375 52.5,117.363281 52.5,120 C52.5,129.699219 58.828125,137.957031 67.5,141.09375 L67.5,223.59375 C67.441406,224.0625 67.441406,224.53125 67.5,225 L67.5,360 L30,360 L30,141.09375 C38.671875,137.957031 45,129.699219 45,120 C45,117.363281 44.472656,114.84375 43.59375,112.5 Z M74.296875,112.5 L75,112.5 C75.234375,112.5 75.46875,112.472656 75.703125,112.5 C79.597656,112.851562 82.5,116.015625 82.5,120 C82.5,123.984375 79.597656,127.148438 75.703125,127.5 C75.46875,127.5 75.234375,127.5 75,127.5 C70.78125,127.5 67.5,124.21875 67.5,120 C67.5,116.015625 70.402344,112.851562 74.296875,112.5 Z M299.296875,112.5 C299.441406,112.5 299.621094,112.5 299.765625,112.5 C300,112.5 300.234375,112.5 300.46875,112.5 C304.480469,112.734375 307.5,115.925781 307.5,120 C307.5,123.984375 304.570312,126.914062 300.703125,127.265625 C300.234375,127.207031 299.765625,127.207031 299.296875,127.265625 C299.207031,127.265625 299.152344,127.265625 299.0625,127.265625 C295.3125,126.796875 292.5,123.894531 292.5,120 C292.5,116.015625 295.402344,112.851562 299.296875,112.5 Z M321.09375,112.5 L331.40625,112.5 C330.558594,114.871094 330,117.363281 330,120 C330,129.699219 336.328125,137.957031 345,141.09375 L345,360 L307.5,360 L307.5,225 C307.5,224.765625 307.5,224.53125 307.5,224.296875 L307.5,141.09375 C316.171875,137.957031 322.5,129.699219 322.5,120 C322.5,117.363281 321.941406,114.871094 321.09375,112.5 Z M352.5,112.5 C356.71875,112.5 360,115.78125 360,120 C360,123.984375 357.097656,127.148438 353.203125,127.5 C352.96875,127.5 352.734375,127.5 352.5,127.5 C348.28125,127.5 345,124.21875 345,120 C345,115.78125 348.28125,112.5 352.5,112.5 Z M187.5,123.046875 C192.160156,127.265625 197.433594,130.988281 203.671875,134.53125 C212.957031,139.804688 223.621094,145.253906 233.4375,152.34375 C251.746094,165.585938 267.714844,183.515625 269.765625,217.5 L105.234375,217.5 C107.285156,183.515625 123.253906,165.585938 141.5625,152.34375 C151.378906,145.253906 161.808594,139.804688 171.09375,134.53125 C177.332031,130.988281 182.839844,127.265625 187.5,123.046875 Z M82.5,232.5 L292.5,232.5 L292.5,360 L232.5,360 L232.5,339.84375 C232.5,322.617188 221.308594,309.285156 211.171875,300.234375 C201.035156,291.183594 191.015625,285.9375 191.015625,285.9375 C188.816406,284.765625 186.183594,284.765625 183.984375,285.9375 C183.984375,285.9375 173.964844,291.183594 163.828125,300.234375 C153.691406,309.285156 142.5,322.617188 142.5,339.84375 L142.5,360 L82.5,360 L82.5,232.5 Z" id="Shape"></path>
        </g>
    </g>
</svg>