<?xml version="1.0" encoding="UTF-8"?>
<svg xmlns="http://www.w3.org/2000/svg" xmlns:xlink="http://www.w3.org/1999/xlink" width="375pt" height="375pt"
  viewBox="0 0 375 375" version="1.1">
  <g id="surface4966">
    <path style=" stroke:none;fill-rule:nonzero;fill:rgb(100%,100%,100%);fill-opacity:1;"
      d="M 127.5 15 C 102.746094 15 82.5 35.246094 82.5 60 C 82.5 74.882812 89.824219 88.125 101.015625 96.328125 C 95.011719 99.347656 89.53125 103.242188 84.84375 108.046875 C 79.394531 106.113281 73.59375 105 67.5 105 C 38.582031 105 15 128.582031 15 157.5 C 15 175.871094 24.519531 192.1875 38.90625 201.5625 C 15.996094 212.402344 0 235.605469 0 262.5 L 0 296.25 C -0.03125 298.652344 1.113281 300.910156 3.046875 302.34375 C 3.046875 302.34375 8.347656 306.09375 18.515625 309.140625 C 28.683594 312.1875 44.386719 315 67.5 315 C 90.613281 315 106.316406 312.1875 116.484375 309.140625 C 117.800781 308.761719 118.855469 308.378906 120 307.96875 L 120 341.25 C 119.972656 343.652344 121.113281 345.910156 123.046875 347.34375 C 123.046875 347.34375 128.347656 351.09375 138.515625 354.140625 C 148.683594 357.1875 164.386719 360 187.5 360 C 210.613281 360 226.316406 357.1875 236.484375 354.140625 C 246.652344 351.09375 251.953125 347.34375 251.953125 347.34375 C 253.886719 345.910156 255.027344 343.652344 255 341.25 L 255 307.96875 C 256.144531 308.378906 257.199219 308.761719 258.515625 309.140625 C 268.683594 312.1875 284.386719 315 307.5 315 C 330.613281 315 346.316406 312.1875 356.484375 309.140625 C 366.652344 306.09375 371.953125 302.34375 371.953125 302.34375 C 373.886719 300.910156 375.027344 298.652344 375 296.25 L 375 262.5 C 375 235.605469 359.003906 212.402344 336.09375 201.5625 C 350.480469 192.1875 360 175.871094 360 157.5 C 360 128.582031 336.417969 105 307.5 105 C 300.964844 105 294.753906 106.316406 288.984375 108.515625 C 284.269531 103.566406 278.699219 99.433594 272.578125 96.328125 C 283.769531 88.125 291.09375 74.882812 291.09375 60 C 291.09375 35.246094 270.847656 15 246.09375 15 C 221.339844 15 201.09375 35.246094 201.09375 60 C 201.09375 74.882812 208.417969 88.125 219.609375 96.328125 C 202.382812 104.824219 189.785156 121.171875 186.796875 140.859375 C 183.808594 121.144531 171.238281 104.792969 153.984375 96.328125 C 165.175781 88.125 172.5 74.882812 172.5 60 C 172.5 35.246094 152.253906 15 127.5 15 Z M 127.5 30 C 144.167969 30 157.5 43.332031 157.5 60 C 157.5 76.667969 144.167969 90 127.5 90 C 110.832031 90 97.5 76.667969 97.5 60 C 97.5 43.332031 110.832031 30 127.5 30 Z M 246.09375 30 C 262.761719 30 276.09375 43.332031 276.09375 60 C 276.09375 76.667969 262.761719 90 246.09375 90 C 229.425781 90 216.09375 76.667969 216.09375 60 C 216.09375 43.332031 229.425781 30 246.09375 30 Z M 127.5 105 C 152.785156 105 172.5 124.714844 172.5 150 L 172.5 152.34375 C 150.9375 158.878906 135 178.855469 135 202.5 C 135 220.871094 144.519531 237.1875 158.90625 246.5625 C 149.503906 251.015625 141.445312 257.550781 135 265.546875 L 135 262.5 C 135 235.605469 119.003906 212.402344 96.09375 201.5625 C 110.480469 192.1875 120 175.871094 120 157.5 C 120 140.390625 111.652344 125.15625 98.90625 115.546875 C 106.699219 108.894531 116.367188 105 127.5 105 Z M 246.09375 105 C 257.550781 105 267.511719 109.011719 275.390625 116.015625 C 263.027344 125.625 255 140.714844 255 157.5 C 255 175.871094 264.519531 192.1875 278.90625 201.5625 C 255.996094 212.402344 240 235.605469 240 262.5 L 240 265.546875 C 233.554688 257.550781 225.496094 251.015625 216.09375 246.5625 C 230.480469 237.1875 240 220.871094 240 202.5 C 240 178.332031 223.417969 157.910156 201.09375 151.875 L 201.09375 150 C 201.09375 124.714844 220.808594 105 246.09375 105 Z M 67.5 120 C 73.332031 120 78.75 121.40625 83.671875 123.75 C 96.269531 129.785156 105 142.527344 105 157.5 C 105 178.300781 88.300781 195 67.5 195 C 46.699219 195 30 178.300781 30 157.5 C 30 136.699219 46.699219 120 67.5 120 Z M 307.5 120 C 328.300781 120 345 136.699219 345 157.5 C 345 178.300781 328.300781 195 307.5 195 C 286.699219 195 270 178.300781 270 157.5 C 270 143.644531 277.410156 131.660156 288.515625 125.15625 C 288.574219 125.128906 288.691406 125.183594 288.75 125.15625 C 289.863281 124.921875 290.886719 124.453125 291.796875 123.75 C 292.058594 123.632812 292.238281 123.398438 292.5 123.28125 C 292.644531 123.222656 292.824219 123.136719 292.96875 123.046875 C 297.449219 121.144531 302.316406 120 307.5 120 Z M 187.5 165 C 208.300781 165 225 181.699219 225 202.5 C 225 223.300781 208.300781 240 187.5 240 C 166.699219 240 150 223.300781 150 202.5 C 150 181.699219 166.699219 165 187.5 165 Z M 67.5 210 C 96.417969 210 120 233.582031 120 262.5 L 120 291.328125 C 118.886719 292.003906 118.449219 292.761719 112.265625 294.609375 C 103.683594 297.1875 89.386719 300 67.5 300 C 45.613281 300 31.316406 297.1875 22.734375 294.609375 C 16.550781 292.761719 16.113281 292.003906 15 291.328125 L 15 262.5 C 15 233.582031 38.582031 210 67.5 210 Z M 307.5 210 C 336.417969 210 360 233.582031 360 262.5 L 360 291.328125 C 358.886719 292.003906 358.449219 292.761719 352.265625 294.609375 C 343.683594 297.1875 329.386719 300 307.5 300 C 285.613281 300 271.316406 297.1875 262.734375 294.609375 C 256.550781 292.761719 256.113281 292.003906 255 291.328125 L 255 262.5 C 255 233.582031 278.582031 210 307.5 210 Z M 187.5 255 C 216.417969 255 240 278.582031 240 307.5 L 240 336.328125 C 238.886719 337.003906 238.449219 337.761719 232.265625 339.609375 C 223.683594 342.1875 209.386719 345 187.5 345 C 165.613281 345 151.316406 342.1875 142.734375 339.609375 C 136.550781 337.761719 136.113281 337.003906 135 336.328125 L 135 307.5 C 135 278.582031 158.582031 255 187.5 255 Z M 187.5 255 " />
  </g>
</svg>