<?xml version="1.0" encoding="UTF-8"?>
<svg xmlns="http://www.w3.org/2000/svg" xmlns:xlink="http://www.w3.org/1999/xlink" width="375pt" height="375pt" viewBox="0 0 375 375" version="1.1">
<g id="surface8961">
<path style=" stroke:none;fill-rule:nonzero;fill:rgb(100%,100%,100%);fill-opacity:1;" d="M 201.796875 37.5 C 135.292969 37.5 110.597656 88.886719 129.609375 132.421875 C 127.238281 134.003906 123.425781 138.957031 124.21875 147.65625 C 125.800781 163.476562 132.917969 167.253906 136.875 168.046875 C 138.457031 183.074219 147.980469 200.597656 153.515625 202.96875 C 153.515625 213.253906 153.371094 221.863281 152.578125 232.96875 C 140.449219 264.816406 62.929688 257.433594 52.96875 314.53125 C 52.527344 317.019531 55.105469 322.5 60.234375 322.5 L 315 322.5 C 322.617188 322.5 322.472656 316.875 322.03125 314.296875 C 311.894531 257.433594 234.550781 264.785156 222.421875 232.96875 C 221.628906 221.074219 221.484375 213.253906 221.484375 202.96875 C 227.019531 200.597656 235.839844 182.285156 237.421875 168.046875 C 241.378906 168.046875 247.707031 163.269531 250.078125 147.421875 C 250.871094 138.722656 247.617188 133.214844 244.453125 132.421875 C 257.109375 116.601562 254.824219 51.796875 208.125 51.796875 Z M 113.671875 75 C 63.605469 75.847656 41.660156 115.691406 56.71875 149.765625 C 55.105469 150.558594 51.941406 154.746094 52.734375 161.953125 C 54.347656 174.785156 59.121094 177.890625 62.34375 177.890625 C 63.925781 189.902344 71.015625 203.378906 75 205.78125 C 75 213.777344 75.089844 213.542969 74.296875 223.125 C 67.792969 243.632812 0 242.109375 0 292.5 C 0 292.5 0 300 7.5 300 L 41.484375 300 C 52.941406 267.597656 84.082031 255.117188 107.578125 245.859375 C 120.527344 240.761719 133.800781 235.605469 137.8125 229.21875 C 138.253906 222.246094 138.488281 216.328125 138.515625 209.765625 C 131.394531 201.621094 126.09375 188.933594 123.515625 178.125 C 117.421875 173.613281 110.832031 164.941406 109.21875 148.828125 C 108.515625 141.183594 110.128906 134.824219 112.734375 129.84375 C 106.785156 111.355469 107.167969 92.050781 113.671875 75 Z M 285 75 C 277.824219 75 269.355469 75.585938 261.328125 76.875 C 267.332031 94.480469 267.566406 115.519531 262.265625 130.546875 C 264.609375 135.703125 265.691406 141.972656 265.078125 148.828125 L 264.84375 149.296875 L 264.84375 149.765625 C 262.617188 164.503906 257.199219 173.464844 250.78125 178.359375 C 248.347656 188.496094 243.398438 201.300781 236.484375 209.53125 C 236.511719 215.976562 236.746094 221.777344 237.1875 229.21875 C 241.199219 235.605469 254.503906 240.761719 267.421875 245.859375 C 290.886719 255.089844 322.03125 267.597656 333.515625 300 L 367.5 300 C 375 300 375 292.734375 375 292.734375 C 375.027344 234.726562 310.808594 248.464844 301.171875 221.953125 C 300.351562 213.105469 300.234375 213.925781 300.234375 205.078125 C 304.246094 202.675781 311.628906 189.167969 312.421875 177.890625 C 315.644531 177.890625 320.417969 174.582031 322.03125 161.71875 C 322.824219 155.300781 320.449219 150.558594 318.046875 149.765625 C 327.714844 136.902344 326.132812 86.25 289.921875 86.25 Z M 285 75 "/>
</g>
</svg>
