<?xml version="1.0" encoding="UTF-8"?>
<svg xmlns="http://www.w3.org/2000/svg" xmlns:xlink="http://www.w3.org/1999/xlink" width="375pt" height="375pt" viewBox="0 0 375 375" version="1.1">
<g id="surface8921">
<path style=" stroke:none;fill-rule:nonzero;fill:rgb(100%,100%,100%);fill-opacity:1;" d="M 201.09375 37.5 C 167.667969 37.5 143.230469 50.714844 130.3125 70.3125 C 127.644531 74.324219 125.652344 78.542969 123.984375 82.96875 L 122.109375 79.21875 C 120.878906 76.699219 118.359375 75.058594 115.546875 75 C 89.589844 75 70.195312 85.546875 60 101.25 C 50.683594 115.574219 50.128906 133.59375 56.015625 150.46875 C 55.546875 151.230469 54.550781 151.640625 54.140625 152.578125 C 52.734375 155.714844 51.972656 159.667969 52.5 164.296875 C 52.5 164.386719 52.5 164.441406 52.5 164.53125 C 53.347656 171.355469 55.078125 176.25 57.890625 180 C 59.089844 181.582031 60.996094 181.582031 62.578125 182.578125 C 63.691406 188.144531 65.273438 193.683594 67.5 198.28125 C 68.816406 201.035156 70.222656 203.410156 71.71875 205.546875 C 72.214844 206.277344 73.066406 206.777344 73.59375 207.421875 C 73.59375 213.164062 73.386719 218.320312 72.890625 225 C 71.542969 228.425781 68.261719 231.445312 62.109375 234.609375 C 55.808594 237.832031 47.371094 240.820312 38.671875 244.6875 C 29.972656 248.554688 20.683594 253.242188 13.359375 260.859375 C 6.035156 268.476562 0.847656 279.140625 0 292.734375 C -0.117188 294.816406 0.617188 296.835938 2.019531 298.332031 C 3.457031 299.855469 5.417969 300.703125 7.5 300.703125 L 54.140625 300.703125 C 52.996094 304.980469 52.089844 309.582031 51.796875 314.53125 C 51.679688 316.613281 52.410156 318.632812 53.816406 320.128906 C 55.253906 321.652344 57.214844 322.5 59.296875 322.5 L 315.703125 322.5 C 317.785156 322.5 319.746094 321.652344 321.183594 320.128906 C 322.589844 318.632812 323.320312 316.613281 323.203125 314.53125 C 322.878906 309.285156 321.886719 304.511719 320.625 300 L 367.5 300 C 369.582031 300 371.542969 299.152344 372.980469 297.628906 C 374.386719 296.132812 375.117188 294.113281 375 292.03125 C 374.152344 278.464844 368.90625 267.773438 361.640625 260.15625 C 354.375 252.539062 345.410156 247.851562 336.796875 243.984375 C 328.183594 240.117188 319.832031 237.128906 313.59375 233.90625 C 307.644531 230.832031 304.480469 227.667969 303.046875 224.296875 C 302.550781 218.230469 302.34375 212.839844 302.34375 206.71875 C 302.839844 206.074219 303.722656 205.546875 304.21875 204.84375 C 305.714844 202.734375 306.914062 200.300781 308.203125 197.578125 C 310.285156 193.152344 311.808594 187.878906 312.65625 182.578125 C 314.179688 181.613281 315.964844 181.523438 317.109375 180 C 319.921875 176.25 321.652344 171.355469 322.5 164.53125 C 323.027344 160.402344 322.558594 156.535156 321.328125 153.28125 C 320.976562 152.371094 319.6875 151.816406 319.21875 150.9375 C 320.859375 147.097656 322.734375 143.464844 323.203125 138.75 C 323.878906 131.746094 323.320312 123.894531 321.328125 116.25 C 319.335938 108.605469 315.878906 101.015625 309.84375 95.15625 C 304.980469 90.410156 298.125 87.628906 290.390625 86.484375 L 287.34375 79.453125 C 286.144531 76.757812 283.476562 75.027344 280.546875 75 C 270.175781 75 259.128906 76.027344 248.90625 79.21875 C 246.238281 73.300781 242.722656 67.675781 237.890625 63.046875 C 231.472656 56.863281 222.449219 53.175781 212.109375 52.03125 L 207.890625 41.953125 C 206.691406 39.257812 204.023438 37.527344 201.09375 37.5 Z M 196.171875 52.96875 L 200.15625 61.640625 C 201.355469 64.335938 204.023438 66.066406 206.953125 66.09375 C 216.269531 66.09375 222.597656 69.050781 227.578125 73.828125 C 232.558594 78.605469 236.105469 85.402344 238.125 93.046875 C 240.144531 100.691406 240.703125 109.042969 240 116.015625 C 239.296875 122.988281 236.925781 128.613281 235.546875 130.3125 C 234.113281 132.128906 233.613281 134.503906 234.140625 136.730469 C 234.699219 138.984375 236.25 140.859375 238.359375 141.796875 C 238.242188 141.738281 238.359375 141.738281 238.59375 142.265625 C 239.003906 143.230469 239.441406 145.402344 239.296875 148.125 C 239.269531 148.359375 239.324219 148.359375 239.296875 148.59375 C 238.269531 154.804688 236.511719 158.496094 235.3125 160.078125 C 234.699219 160.898438 234.257812 161.160156 234.140625 161.25 C 230.597656 161.542969 227.785156 164.296875 227.34375 167.8125 C 226.730469 173.410156 224.558594 180.703125 221.953125 186.328125 C 220.664062 189.140625 219.113281 191.511719 217.96875 193.125 C 217.089844 194.324219 216.210938 195 216.328125 195 C 213.808594 196.316406 212.285156 198.957031 212.34375 201.796875 C 212.34375 211.550781 212.285156 219.375 213.046875 230.859375 C 213.105469 231.589844 213.253906 232.292969 213.515625 232.96875 C 217.527344 243.515625 226.582031 249.871094 236.484375 254.765625 C 246.386719 259.660156 257.578125 263.320312 268.125 267.890625 C 278.671875 272.460938 288.488281 277.96875 295.546875 285.234375 C 301.027344 290.859375 304.363281 298.300781 306.328125 307.5 L 68.671875 307.5 C 70.636719 298.300781 73.972656 290.859375 79.453125 285.234375 C 86.511719 277.96875 96.328125 272.460938 106.875 267.890625 C 117.421875 263.320312 128.613281 259.660156 138.515625 254.765625 C 148.417969 249.871094 157.472656 243.515625 161.484375 232.96875 C 161.746094 232.292969 161.894531 231.589844 161.953125 230.859375 C 162.714844 220.078125 162.65625 211.550781 162.65625 201.796875 C 162.714844 198.957031 161.191406 196.316406 158.671875 195 C 158.671875 195 158.613281 194.910156 158.4375 194.765625 C 158.378906 194.738281 158.292969 194.792969 158.203125 194.765625 C 157.851562 194.472656 157.355469 193.855469 156.796875 193.125 C 155.597656 191.542969 153.957031 189.082031 152.578125 186.328125 C 149.824219 180.847656 147.566406 173.90625 146.953125 168.046875 C 146.601562 164.765625 144.113281 162.097656 140.859375 161.484375 C 140.128906 161.339844 136.289062 161.511719 135 148.59375 C 134.472656 142.824219 137.199219 141.121094 136.875 141.328125 C 140.011719 139.335938 141.210938 135.351562 139.6875 131.953125 C 134.882812 120.910156 133.359375 109.511719 135 98.90625 C 136.699219 97.003906 137.34375 94.335938 136.640625 91.875 C 138.046875 87.214844 140.039062 82.851562 142.734375 78.75 C 152.082031 64.597656 169.660156 54.230469 196.171875 52.96875 Z M 275.859375 90.703125 L 278.203125 95.859375 C 279.316406 98.644531 282.011719 100.488281 285 100.546875 C 291.679688 100.546875 295.839844 102.566406 299.296875 105.9375 C 302.753906 109.308594 305.300781 114.316406 306.796875 120 C 308.292969 125.683594 308.699219 131.863281 308.203125 137.109375 C 307.707031 142.355469 305.917969 146.628906 305.15625 147.65625 C 303.839844 149.355469 303.339844 151.523438 303.75 153.632812 C 304.128906 155.742188 305.417969 157.589844 307.265625 158.671875 C 307.527344 159.347656 307.734375 160.808594 307.5 162.65625 C 306.855469 167.8125 305.714844 170.332031 305.15625 171.09375 C 301.640625 171.535156 298.886719 174.347656 298.59375 177.890625 C 298.332031 181.757812 296.542969 187.148438 294.609375 191.25 C 293.644531 193.300781 292.644531 194.941406 291.796875 196.171875 C 291.152344 197.082031 290.566406 197.785156 290.625 197.8125 C 288.605469 199.191406 287.371094 201.472656 287.34375 203.90625 C 287.34375 212.167969 287.253906 218.527344 288.046875 227.109375 C 288.136719 227.753906 288.28125 228.371094 288.515625 228.984375 C 291.707031 237.800781 298.917969 243.308594 306.5625 247.265625 C 314.207031 251.222656 322.824219 254.035156 330.703125 257.578125 C 338.582031 261.121094 345.730469 265.3125 350.859375 270.703125 C 354.433594 274.453125 356.808594 279.199219 358.359375 285 L 315 285 C 314.765625 285 314.53125 285 314.296875 285 C 311.953125 281.160156 309.316406 277.761719 306.328125 274.6875 C 297.070312 265.167969 285.527344 259.191406 274.21875 254.296875 C 262.910156 249.402344 251.777344 245.625 243.28125 241.40625 C 235.078125 237.332031 230.183594 232.996094 228.046875 228.046875 C 227.488281 219.050781 227.34375 212.316406 227.34375 204.375 C 228.136719 203.464844 229.425781 202.792969 230.15625 201.796875 C 232.058594 199.128906 233.933594 196.144531 235.546875 192.65625 C 238.359375 186.5625 240.027344 179.472656 241.171875 172.5 C 243.222656 171.269531 245.683594 171.328125 247.265625 169.21875 C 250.546875 164.855469 252.800781 158.816406 254.0625 150.46875 C 254.152344 150.324219 254.238281 150.144531 254.296875 150 C 254.765625 144.84375 254.035156 140.246094 252.421875 136.40625 C 252.011719 135.441406 250.636719 135.207031 250.078125 134.296875 C 252.511719 129.375 254.121094 123.839844 254.765625 117.421875 C 255.527344 109.921875 255.261719 101.746094 253.59375 93.515625 C 260.332031 91.667969 268.242188 90.996094 275.859375 90.703125 Z M 111.328125 90.9375 L 114.140625 96.328125 C 115.195312 98.582031 117.304688 100.167969 119.765625 100.546875 C 118.769531 111.445312 120.46875 122.753906 124.453125 133.59375 C 121.613281 137.488281 119.324219 142.707031 120 150 C 121.316406 163.097656 127.175781 169.308594 132.890625 172.734375 C 134.089844 179.910156 136.261719 187.175781 139.21875 193.125 C 140.949219 196.582031 142.851562 199.660156 144.84375 202.265625 C 145.574219 203.230469 146.863281 203.761719 147.65625 204.609375 C 147.65625 212.550781 147.511719 219.667969 146.953125 228.046875 C 144.816406 232.996094 139.921875 237.332031 131.71875 241.40625 C 123.222656 245.625 112.089844 249.402344 100.78125 254.296875 C 89.472656 259.191406 77.929688 265.167969 68.671875 274.6875 C 65.507812 277.941406 62.667969 281.574219 60.234375 285.703125 C 60.144531 285.703125 60.089844 285.703125 60 285.703125 L 16.875 285.703125 C 18.457031 279.902344 20.769531 275.15625 24.375 271.40625 C 29.558594 266.015625 36.796875 261.824219 44.765625 258.28125 C 52.734375 254.738281 61.199219 251.925781 68.90625 247.96875 C 76.613281 244.011719 83.964844 238.769531 87.1875 229.921875 C 87.449219 229.246094 87.597656 228.542969 87.65625 227.8125 C 88.417969 218.527344 88.59375 212.34375 88.59375 204.84375 C 88.652344 202.175781 87.332031 199.6875 85.078125 198.28125 C 84.84375 198.019531 84.347656 197.488281 83.90625 196.875 C 83.027344 195.613281 81.886719 193.855469 80.859375 191.71875 C 78.808594 187.472656 77.019531 181.964844 76.40625 177.421875 C 75.910156 174.082031 73.214844 171.472656 69.84375 171.09375 C 69.285156 170.332031 68.144531 167.8125 67.5 162.65625 C 67.265625 160.519531 67.675781 159.285156 67.96875 158.671875 C 71.015625 156.589844 72.097656 152.636719 70.546875 149.296875 C 64.335938 135.234375 65.417969 120.585938 72.65625 109.453125 C 79.308594 99.199219 92.226562 92.109375 111.328125 90.9375 Z M 111.328125 90.9375 "/>
</g>
</svg>
