<?xml version="1.0" encoding="UTF-8"?>
<svg xmlns="http://www.w3.org/2000/svg" xmlns:xlink="http://www.w3.org/1999/xlink" width="375pt" height="375pt"
  viewBox="0 0 375 375" version="1.1">
  <g id="surface4046">
    <path style=" stroke:none;fill-rule:nonzero;fill:rgb(100%,100%,100%);fill-opacity:1;"
      d="M 88.800781 22.410156 C 83.027344 21.941406 76.613281 23.613281 70.691406 27.773438 C 65.480469 31.40625 54.230469 40.339844 43.710938 50.449219 C 38.464844 55.488281 33.457031 60.730469 29.589844 65.886719 C 25.691406 71.042969 22.292969 75.761719 22.5 82.617188 C 22.707031 88.769531 23.320312 106.964844 36.417969 134.855469 C 49.511719 162.714844 74.910156 200.949219 124.453125 250.519531 C 174.023438 300.089844 212.253906 325.488281 240.117188 338.582031 C 267.980469 351.679688 286.199219 352.292969 292.355469 352.5 C 299.179688 352.707031 303.894531 349.308594 309.050781 345.410156 C 314.207031 341.511719 319.453125 336.535156 324.492188 331.289062 C 334.570312 320.769531 343.503906 309.519531 347.136719 304.308594 C 355.429688 292.5 354.050781 278.554688 344.824219 272.082031 C 339.023438 268.007812 285.675781 232.5 277.644531 227.578125 C 269.503906 222.597656 260.128906 224.855469 251.746094 229.277344 C 245.15625 232.761719 227.316406 242.988281 222.214844 245.917969 C 218.378906 243.488281 203.816406 233.789062 172.5 202.472656 C 141.152344 171.152344 131.484375 156.589844 129.050781 152.753906 C 131.980469 147.65625 142.175781 129.902344 145.691406 123.191406 C 150.089844 114.84375 152.550781 105.378906 147.304688 97.175781 C 145.105469 93.691406 135.117188 78.488281 125.039062 63.222656 C 114.933594 47.957031 105.351562 33.488281 102.863281 30.027344 L 102.863281 30 C 99.609375 25.519531 94.542969 22.878906 88.800781 22.410156 Z M 87.421875 37.734375 C 89.472656 37.996094 90.703125 38.816406 90.703125 38.816406 C 91.902344 40.488281 102.421875 56.25 112.5 71.484375 C 122.578125 86.746094 132.863281 102.394531 134.648438 105.234375 C 134.941406 105.675781 135.351562 110.652344 132.421875 116.191406 L 132.421875 116.222656 C 129.113281 122.519531 113.671875 149.503906 113.671875 149.503906 L 111.535156 153.28125 L 113.730469 157.03125 C 113.730469 157.03125 125.246094 176.457031 161.863281 213.074219 C 198.515625 249.699219 217.941406 261.238281 217.941406 261.238281 L 221.691406 263.4375 L 225.46875 261.300781 C 225.46875 261.300781 252.394531 245.886719 258.75 242.550781 C 264.285156 239.648438 269.269531 240.027344 269.855469 240.378906 C 275.039062 243.574219 332.667969 281.863281 336.210938 284.355469 C 336.328125 284.441406 339.464844 289.191406 334.894531 295.691406 L 334.863281 295.691406 C 332.109375 299.648438 323.085938 311.105469 313.683594 320.886719 C 308.964844 325.78125 304.128906 330.351562 300.027344 333.425781 C 295.925781 336.503906 292.265625 337.472656 292.851562 337.5 C 286.464844 337.292969 272.371094 337.148438 246.503906 324.988281 C 220.636719 312.863281 183.722656 288.574219 135.058594 239.882812 C 86.425781 191.25 62.136719 154.335938 49.980469 128.4375 C 37.851562 102.566406 37.707031 88.476562 37.5 82.121094 C 37.527344 82.707031 38.496094 79.011719 41.574219 74.910156 C 44.648438 70.808594 49.191406 65.949219 54.082031 61.230469 C 63.894531 51.824219 75.324219 42.800781 79.277344 40.050781 L 79.277344 40.078125 C 82.527344 37.792969 85.371094 37.5 87.421875 37.734375 Z M 87.421875 37.734375 " />
  </g>
</svg>