<?xml version="1.0" encoding="UTF-8"?>
<svg width="16px" height="18px" viewBox="0 0 16 18" version="1.1" xmlns="http://www.w3.org/2000/svg"
  xmlns:xlink="http://www.w3.org/1999/xlink">
  <title>Group 52</title>
  <g id="Page-1" stroke="none" stroke-width="1" fill="none" fill-rule="evenodd">
    <g id="Group-52">
      <polygon id="Triangle" fill="#3B3B3B" transform="translate(8, 15.5) rotate(-180) translate(-8, -15.5)"
        points="8 13 10.5 18 5.5 18"></polygon>
      <rect id="Rectangle" fill="#3B3B3B" x="0" y="0" width="16" height="14" rx="7"></rect>
      <g id="Restaurant(2)" transform="translate(5, 2)" fill="#FFFFFF" fill-rule="nonzero">
        <path
          d="M1.16424116,0.00239269965 L1.16424116,2.40181845 C1.16424116,2.5122087 1.08974359,2.6017706 0.997920998,2.6017706 C0.906098406,2.6017706 0.831600832,2.5122087 0.831600832,2.40181845 L0.831600832,0.0336352225 C0.424289663,0.0910173294 0.267671507,0.209426484 0.233887734,0.239835873 L0.176715177,0.296072414 L0.166320166,0.377302973 C0.159476779,0.443328825 0,2.00191416 0,3.00167489 C0.000173239085,3.78669533 0.375692995,4.12255247 0.623700624,4.34510337 C0.735620236,4.44549601 0.831600832,4.53255851 0.831600832,4.60129206 C0.831600832,4.76500288 0.804660424,5.14522439 0.774428274,5.58230727 C0.725225225,6.29057526 0.664760904,7.1693233 0.665280665,7.80052639 C0.665280665,9.44429966 0.833593214,9.99916687 1.33056133,10 L1.33575884,10 C1.4989605,10 1.70010394,9.95365693 1.82952183,9.58135019 C1.94291406,9.25580312 1.9961885,8.68875131 1.995842,7.80052639 C1.995842,7.17046886 1.93546432,6.28911729 1.88669439,5.58230727 C1.85628898,5.14324569 1.82952183,4.76583601 1.82952183,4.60129206 C1.82952183,4.53412064 1.92697505,4.44914098 2.03742204,4.35135188 C2.28655579,4.13098795 2.66112266,3.79887994 2.66112266,3.00167489 C2.66112266,2.34224937 2.50164588,0.46332404 2.49480249,0.383551478 L2.48440748,0.283575405 L2.41683992,0.233587368 C2.39319127,0.216612258 2.22106722,0.100077641 1.82952183,0.039883727 L1.82952183,2.40181845 C1.82952183,2.5122087 1.75502426,2.6017706 1.66320166,2.6017706 C1.57137907,2.6017706 1.4968815,2.5122087 1.4968815,2.40181845 L1.4968815,0.00864120421 C1.43537767,0.00582937049 1.37344075,0.00239269965 1.3045738,0.00239269965 C1.25632364,0.00239269965 1.20850659,0.000830572176 1.16424116,0.00239269965 Z M4.64137214,0.00239269965 C4.62794525,0.00499624188 4.6177235,0.0145772769 4.6049896,0.0211382133 C3.26663203,0.71055655 3.16042966,2.3323559 3.16008316,2.81421975 C3.16060292,3.48687128 3.43130631,4.07193957 3.66943867,4.58879505 C3.84208246,4.96349705 4.00225224,5.32070322 4.002079,5.60105279 C4.002079,5.74164415 3.95764034,5.90941648 3.8981289,6.12592717 C3.80266804,6.47282332 3.66961191,6.95135464 3.66943867,7.60057425 C3.66909217,9.57572655 4.12162162,9.99333493 4.5010395,9.9937515 C4.95278933,9.99291836 5,9.5057433 5,8.40038283 C5,7.93466096 4.94360706,6.91584228 4.89085239,6.01970259 C4.85446985,5.39620597 4.81791406,4.81165838 4.81808732,4.63253458 C4.81826058,4.34385367 4.82882883,3.51457297 4.83367983,2.95168685 C4.83619196,2.66415151 4.83367983,2.44316272 4.83367983,2.40181845 L4.83367983,0.202344846 C4.83367983,0.135173428 4.80751905,0.0706055478 4.76091476,0.0336352225 C4.72583161,0.00572523542 4.68173944,-0.00531377598 4.64137214,0.00239269965 Z"
          id="Shape"></path>
      </g>
    </g>
  </g>
</svg>