<?xml version="1.0" encoding="UTF-8"?>
<svg xmlns="http://www.w3.org/2000/svg" xmlns:xlink="http://www.w3.org/1999/xlink" width="375pt" height="375pt" viewBox="0 0 375 375" version="1.1">
<g id="surface7819">
<path style=" stroke:none;fill-rule:nonzero;fill:rgb(100%,100%,100%);fill-opacity:1;" d="M 133.800781 0 C 116.339844 0 104.707031 1.933594 97.207031 4.042969 C 93.457031 5.066406 90.730469 6.152344 88.828125 7.058594 C 86.953125 7.96875 85.488281 9.023438 85.488281 9.023438 L 82.96875 10.898438 L 82.558594 14.0625 C 82.558594 14.0625 75 74.035156 75 112.5 C 75 135.644531 86.339844 149.441406 96.472656 157.792969 C 101.574219 161.980469 106.289062 165.117188 109.160156 167.667969 C 112.03125 170.214844 112.5 171.238281 112.5 172.5 C 112.5 179.558594 110.625 200.449219 108.75 223.621094 C 106.875 246.796875 104.972656 272.753906 105 292.5 C 105 328.183594 107.488281 347.402344 112.527344 359.386719 C 115.078125 365.363281 118.59375 369.726562 122.929688 372.1875 C 127.238281 374.675781 131.628906 375 135 375 C 138.339844 375 142.761719 374.707031 147.070312 372.214844 C 151.40625 369.753906 154.949219 365.363281 157.472656 359.386719 C 162.511719 347.433594 165.027344 328.152344 165 292.5 C 165 272.785156 163.125 246.796875 161.25 223.621094 C 159.347656 200.449219 157.5 179.589844 157.5 172.5 C 157.5 171.210938 157.941406 170.273438 160.78125 167.785156 C 163.652344 165.292969 168.398438 162.1875 173.464844 158.027344 C 183.660156 149.738281 195 135.910156 195 112.5 C 195 86.339844 187.472656 14.238281 187.472656 14.238281 L 187.058594 10.519531 L 183.867188 8.582031 C 183.867188 8.582031 179.441406 6.035156 171.445312 3.984375 C 163.449219 1.933594 151.261719 0 133.800781 0 Z M 232.527344 0 C 230.535156 0 228.632812 0.792969 227.199219 2.199219 C 225.792969 3.605469 225 5.507812 225 7.5 L 225 90 C 225 95.273438 225.730469 157.472656 225.730469 173.644531 C 225.761719 180.558594 223.710938 209.121094 221.628906 238.683594 C 219.582031 268.242188 217.5 299.324219 217.5 315 C 217.5 337.707031 218.175781 350.917969 221.074219 360.207031 C 222.539062 364.832031 224.855469 368.878906 228.515625 371.457031 C 232.175781 374.035156 236.367188 374.648438 240 374.648438 C 240 374.675781 240 374.675781 240 374.648438 C 248.320312 374.648438 258.957031 369.402344 265.957031 355.871094 C 272.957031 342.304688 277.5 320.769531 277.5 285 C 277.5 264.871094 273.488281 249.257812 269.648438 237.042969 C 265.808594 224.792969 262.5 215.886719 262.5 210 C 262.5 199.511719 270.964844 184.335938 280.574219 166.785156 C 290.214844 149.238281 300.527344 128.933594 300.558594 105.585938 C 300.558594 105.558594 300.558594 105.558594 300.558594 105.558594 C 300.558594 92.488281 298.476562 72.628906 289.277344 52.644531 C 280.078125 32.667969 263.464844 12.597656 235.457031 0.617188 C 234.519531 0.207031 233.527344 0 232.527344 0 Z M 133.800781 15 C 136.964844 15 139.746094 15.117188 142.5 15.234375 L 142.5 90 C 142.472656 92.695312 143.878906 95.214844 146.222656 96.589844 C 148.566406 97.941406 151.433594 97.941406 153.777344 96.589844 C 156.121094 95.214844 157.527344 92.695312 157.5 90 L 157.5 16.582031 C 161.542969 17.199219 165.089844 17.839844 167.722656 18.515625 C 171.824219 19.570312 171.796875 19.804688 172.878906 20.300781 C 173.527344 26.628906 180 90.46875 180 112.5 C 180 131.484375 172.589844 139.425781 164.003906 146.394531 C 159.726562 149.910156 155.097656 152.839844 150.910156 156.503906 C 146.71875 160.167969 142.5 165.558594 142.5 172.5 C 142.5 181.847656 144.402344 201.738281 146.277344 224.855469 C 148.152344 247.941406 150 273.75 150 292.5 C 150.027344 327.394531 146.980469 345.644531 143.671875 353.554688 C 142.003906 357.511719 140.597656 358.652344 139.628906 359.207031 C 138.660156 359.765625 137.402344 360 135.027344 360 L 135 360 C 132.628906 360 131.367188 359.765625 130.402344 359.179688 C 129.402344 358.621094 128.027344 357.480469 126.355469 353.554688 C 123.046875 345.644531 120 327.394531 120 292.5 C 119.972656 273.722656 121.816406 247.941406 123.722656 224.855469 C 125.597656 201.769531 127.5 181.847656 127.5 172.5 C 127.5 165.527344 123.308594 160.167969 119.152344 156.445312 C 114.960938 152.753906 110.332031 149.765625 106.027344 146.222656 C 97.441406 139.128906 90 131.160156 90 112.5 C 90 78.164062 96.238281 26.339844 97.003906 19.980469 C 98.113281 19.511719 99.113281 19.074219 101.25 18.457031 C 103.972656 17.695312 107.753906 16.933594 112.5 16.289062 L 112.5 90 C 112.472656 92.695312 113.878906 95.214844 116.222656 96.589844 C 118.566406 97.941406 121.433594 97.941406 123.777344 96.589844 C 126.121094 95.214844 127.527344 92.695312 127.5 90 L 127.5 15.175781 C 129.582031 15.117188 131.484375 15 133.800781 15 Z M 240 21.445312 C 257.050781 31.757812 269.089844 44.707031 275.625 58.917969 C 283.59375 76.199219 285.558594 94.128906 285.558594 105.585938 C 285.527344 124.425781 276.855469 142.410156 267.421875 159.582031 C 258.019531 176.746094 247.5 192.683594 247.5 210 C 247.5 220.488281 251.691406 229.921875 255.351562 241.523438 C 258.984375 253.125 262.5 266.835938 262.5 285 C 262.5 319.453125 257.785156 338.996094 252.628906 348.984375 C 247.472656 358.945312 243.136719 359.648438 240 359.648438 C 237.949219 359.648438 237.421875 359.355469 237.1875 359.207031 C 236.953125 359.0625 236.25 358.476562 235.402344 355.691406 C 233.644531 350.15625 232.5 337.292969 232.5 315 C 232.5 300.675781 234.550781 269.238281 236.601562 239.738281 C 238.652344 210.207031 240.761719 183.074219 240.730469 173.613281 C 240.730469 157.03125 240 93.925781 240 90 Z M 240 21.445312 "/>
</g>
</svg>
