<?xml version="1.0" encoding="UTF-8"?>
<svg xmlns="http://www.w3.org/2000/svg" xmlns:xlink="http://www.w3.org/1999/xlink" width="375pt" height="375pt" viewBox="0 0 375 375" version="1.1">
<g id="surface7989">
<path style=" stroke:none;fill-rule:nonzero;fill:rgb(100%,100%,100%);fill-opacity:1;" d="M 127.5 0 L 127.5 90 C 127.5 94.140625 124.140625 97.5 120 97.5 C 115.859375 97.5 112.5 94.140625 112.5 90 L 112.5 1.171875 C 94.132812 3.324219 87.070312 7.765625 85.546875 8.90625 L 82.96875 11.015625 L 82.5 14.0625 C 82.191406 16.539062 75 75 75 112.5 C 75.007812 141.945312 91.941406 154.542969 103.125 162.890625 C 108.171875 166.65625 112.5 169.921875 112.5 172.5 C 112.5 178.640625 111.285156 192.902344 109.921875 209.296875 C 107.703125 235.863281 104.976562 268.824219 105 292.5 C 105 354.15625 112.589844 374.96875 135 375 L 135.234375 375 C 142.59375 375 151.664062 373.261719 157.5 359.296875 C 162.613281 347.085938 165.015625 325.816406 165 292.5 C 165 268.867188 162.277344 235.808594 160.078125 209.296875 C 158.707031 192.828125 157.5 178.671875 157.5 172.5 C 157.5 169.980469 161.894531 166.792969 166.875 163.125 C 178.109375 154.859375 195 142.402344 195 112.5 C 195 87.765625 187.808594 17.289062 187.5 14.296875 L 187.03125 10.546875 L 183.984375 8.671875 C 182.917969 8.035156 175.15625 3.664062 157.5 1.40625 L 157.5 90 C 157.5 94.140625 154.140625 97.5 150 97.5 C 145.859375 97.5 142.5 94.140625 142.5 90 L 142.5 0.234375 C 139.726562 0.128906 136.933594 0 133.828125 0 C 131.652344 0 129.496094 -0.0585938 127.5 0 Z M 284.296875 0 C 283.691406 0.0976562 283.230469 0.457031 282.65625 0.703125 C 222.304688 26.5625 217.515625 87.394531 217.5 105.46875 C 217.523438 130.699219 229.730469 152.644531 240.46875 172.03125 C 248.253906 186.085938 255.476562 199.484375 255.46875 210 C 255.46875 215.273438 253.464844 221.566406 250.78125 229.6875 C 246.476562 242.699219 240.476562 260.648438 240.46875 285 C 240.453125 359.085938 260.859375 374.75 277.96875 374.765625 C 298.339844 374.734375 300.46875 356.460938 300.46875 315 C 300.46875 297.53125 297.925781 259.316406 295.546875 225.703125 C 293.90625 202.316406 292.257812 180.390625 292.265625 173.671875 C 292.273438 162.84375 292.75 131.738281 292.96875 110.625 C 293.082031 99.839844 292.96875 91.550781 292.96875 90 L 292.96875 7.5 C 292.96875 4.980469 291.789062 2.558594 289.6875 1.171875 C 288.105469 0.125 286.117188 -0.289062 284.296875 0 Z M 284.296875 0 "/>
</g>
</svg>
