<?xml version="1.0" encoding="UTF-8"?>
<svg width="225.558594px" height="375px" viewBox="0 0 225.558594 375" version="1.1" xmlns="http://www.w3.org/2000/svg" xmlns:xlink="http://www.w3.org/1999/xlink">
    <title>Restaurant</title>
    <g id="Page-1" stroke="none" stroke-width="1" fill="none" fill-rule="evenodd">
        <g id="Restaurant" fill="#9B9B9B" fill-rule="nonzero">
            <path d="M58.800781,0 C41.339844,0 29.707031,1.933594 22.207031,4.042969 C18.457031,5.066406 15.730469,6.152344 13.828125,7.058594 C11.953125,7.96875 10.488281,9.023438 10.488281,9.023438 L7.96875,10.898438 L7.558594,14.0625 C7.558594,14.0625 0,74.035156 0,112.5 C0,135.644531 11.339844,149.441406 21.472656,157.792969 C26.574219,161.980469 31.289062,165.117188 34.160156,167.667969 C37.03125,170.214844 37.5,171.238281 37.5,172.5 C37.5,179.558594 35.625,200.449219 33.75,223.621094 C31.875,246.796875 29.972656,272.753906 30,292.5 C30,328.183594 32.488281,347.402344 37.527344,359.386719 C40.078125,365.363281 43.59375,369.726562 47.929688,372.1875 C52.238281,374.675781 56.628906,375 60,375 C63.339844,375 67.761719,374.707031 72.070312,372.214844 C76.40625,369.753906 79.949219,365.363281 82.472656,359.386719 C87.511719,347.433594 90.027344,328.152344 90,292.5 C90,272.785156 88.125,246.796875 86.25,223.621094 C84.347656,200.449219 82.5,179.589844 82.5,172.5 C82.5,171.210938 82.941406,170.273438 85.78125,167.785156 C88.652344,165.292969 93.398438,162.1875 98.464844,158.027344 C108.660156,149.738281 120,135.910156 120,112.5 C120,86.339844 112.472656,14.238281 112.472656,14.238281 L112.058594,10.519531 L108.867188,8.582031 C108.867188,8.582031 104.441406,6.035156 96.445312,3.984375 C88.449219,1.933594 76.261719,0 58.800781,0 Z M157.527344,0 C155.535156,0 153.632812,0.792969 152.199219,2.199219 C150.792969,3.605469 150,5.507812 150,7.5 L150,90 C150,95.273438 150.730469,157.472656 150.730469,173.644531 C150.761719,180.558594 148.710938,209.121094 146.628906,238.683594 C144.582031,268.242188 142.5,299.324219 142.5,315 C142.5,337.707031 143.175781,350.917969 146.074219,360.207031 C147.539062,364.832031 149.855469,368.878906 153.515625,371.457031 C157.175781,374.035156 161.367188,374.648438 165,374.648438 C165,374.675781 165,374.675781 165,374.648438 C173.320312,374.648438 183.957031,369.402344 190.957031,355.871094 C197.957031,342.304688 202.5,320.769531 202.5,285 C202.5,264.871094 198.488281,249.257812 194.648438,237.042969 C190.808594,224.792969 187.5,215.886719 187.5,210 C187.5,199.511719 195.964844,184.335938 205.574219,166.785156 C215.214844,149.238281 225.527344,128.933594 225.558594,105.585938 C225.558594,105.558594 225.558594,105.558594 225.558594,105.558594 C225.558594,92.488281 223.476562,72.628906 214.277344,52.644531 C205.078125,32.667969 188.464844,12.597656 160.457031,0.617188 C159.519531,0.207031 158.527344,0 157.527344,0 Z M58.800781,15 C61.964844,15 64.746094,15.117188 67.5,15.234375 L67.5,90 C67.472656,92.695312 68.878906,95.214844 71.222656,96.589844 C73.566406,97.941406 76.433594,97.941406 78.777344,96.589844 C81.121094,95.214844 82.527344,92.695312 82.5,90 L82.5,16.582031 C86.542969,17.199219 90.089844,17.839844 92.722656,18.515625 C96.824219,19.570312 96.796875,19.804688 97.878906,20.300781 C98.527344,26.628906 105,90.46875 105,112.5 C105,131.484375 97.589844,139.425781 89.003906,146.394531 C84.726562,149.910156 80.097656,152.839844 75.910156,156.503906 C71.71875,160.167969 67.5,165.558594 67.5,172.5 C67.5,181.847656 69.402344,201.738281 71.277344,224.855469 C73.152344,247.941406 75,273.75 75,292.5 C75.027344,327.394531 71.980469,345.644531 68.671875,353.554688 C67.003906,357.511719 65.597656,358.652344 64.628906,359.207031 C63.660156,359.765625 62.402344,360 60.027344,360 L60,360 C57.628906,360 56.367188,359.765625 55.402344,359.179688 C54.402344,358.621094 53.027344,357.480469 51.355469,353.554688 C48.046875,345.644531 45,327.394531 45,292.5 C44.972656,273.722656 46.816406,247.941406 48.722656,224.855469 C50.597656,201.769531 52.5,181.847656 52.5,172.5 C52.5,165.527344 48.308594,160.167969 44.152344,156.445312 C39.960938,152.753906 35.332031,149.765625 31.027344,146.222656 C22.441406,139.128906 15,131.160156 15,112.5 C15,78.164062 21.238281,26.339844 22.003906,19.980469 C23.113281,19.511719 24.113281,19.074219 26.25,18.457031 C28.972656,17.695312 32.753906,16.933594 37.5,16.289062 L37.5,90 C37.472656,92.695312 38.878906,95.214844 41.222656,96.589844 C43.566406,97.941406 46.433594,97.941406 48.777344,96.589844 C51.121094,95.214844 52.527344,92.695312 52.5,90 L52.5,15.175781 C54.582031,15.117188 56.484375,15 58.800781,15 Z M165,21.445312 C182.050781,31.757812 194.089844,44.707031 200.625,58.917969 C208.59375,76.199219 210.558594,94.128906 210.558594,105.585938 C210.527344,124.425781 201.855469,142.410156 192.421875,159.582031 C183.019531,176.746094 172.5,192.683594 172.5,210 C172.5,220.488281 176.691406,229.921875 180.351562,241.523438 C183.984375,253.125 187.5,266.835938 187.5,285 C187.5,319.453125 182.785156,338.996094 177.628906,348.984375 C172.472656,358.945312 168.136719,359.648438 165,359.648438 C162.949219,359.648438 162.421875,359.355469 162.1875,359.207031 C161.953125,359.0625 161.25,358.476562 160.402344,355.691406 C158.644531,350.15625 157.5,337.292969 157.5,315 C157.5,300.675781 159.550781,269.238281 161.601562,239.738281 C163.652344,210.207031 165.761719,183.074219 165.730469,173.613281 C165.730469,157.03125 165,93.925781 165,90 L165,21.445312 Z" id="Shape"></path>
        </g>
    </g>
</svg>