<svg xmlns="http://www.w3.org/2000/svg" width="15" height="24" viewBox="0 0 15 24" fill="none">
  <path fill-rule="evenodd" clip-rule="evenodd"
    d="M9.83224 0.0789089C9.89985 0.0339092 9.97673 0.00965941 10.0536 0.00215942C10.1327 -0.00559053 10.2114 0.00765942 10.2847 0.0396592C14.1555 1.6934 14.458 5.59887 14.46 6.75586C14.458 8.3701 13.6787 9.77635 12.9893 11.0176L12.9819 11.031C12.487 11.9243 12.0184 12.7702 12.0202 13.4401C12.0202 13.7758 12.1554 14.1883 12.3282 14.7076L12.3307 14.7151C12.6047 15.547 12.98 16.6865 12.9818 18.24C12.9818 22.9818 11.6746 23.9775 10.5777 23.9775C9.27055 23.9757 9.13532 22.8133 9.13532 20.16C9.13532 19.0425 9.30636 16.6033 9.45836 14.4526C9.56529 12.9563 9.66496 11.5426 9.66296 11.1133C9.66296 10.5139 9.64763 8.94376 9.63507 7.65595C9.63309 7.45284 9.63117 7.25676 9.6294 7.07261L9.62824 6.96624C9.6213 6.32929 9.61613 5.8542 9.61613 5.76012V0.480156C9.61613 0.318907 9.69701 0.166908 9.83224 0.0789089ZM3.36564 0.0059094C3.49336 0.00215942 3.62683 0.000159437 3.76556 0.000159437C3.9649 0.000159437 4.14871 0.0059094 4.32726 0.0134093V5.76012C4.32726 6.02437 4.54337 6.24012 4.80806 6.24012C5.07276 6.24012 5.28887 6.02437 5.28887 5.76012V0.0901588C6.42152 0.234408 6.91159 0.508406 6.9792 0.549406L7.1838 0.673405L7.21034 0.911403C7.21148 0.923167 7.21431 0.951289 7.21861 0.994081C7.2842 1.64698 7.6929 5.71496 7.6929 7.20011C7.6929 9.11435 6.60357 9.91334 5.88236 10.4418L5.862 10.4569C5.55336 10.6849 5.28887 10.8803 5.28887 11.0401C5.28887 11.4288 5.36379 12.3218 5.45075 13.3583L5.45415 13.3988C5.59513 15.0958 5.76968 17.2068 5.76968 18.72C5.77143 20.8518 5.61942 22.2093 5.29062 22.9913C4.917 23.8857 4.32726 24 3.85396 24H3.8447C2.40779 23.9982 1.92323 22.6668 1.92323 18.72C1.92147 17.205 2.09777 15.0901 2.24051 13.3893C2.32891 12.3393 2.40403 11.4338 2.40403 11.0401C2.40403 10.8762 2.12792 10.6695 1.80753 10.4298L1.80127 10.4251C1.08357 9.89259 0 9.08435 0 7.20011C0 4.89771 0.428673 1.36139 0.480116 0.937012C0.482296 0.919025 0.483799 0.906629 0.484563 0.900153L0.510857 0.697655L0.672378 0.575906C0.770041 0.502656 1.22631 0.210158 2.40403 0.0714089V5.76012C2.40403 6.02437 2.62014 6.24012 2.88484 6.24012C3.14953 6.24012 3.36564 6.02437 3.36564 5.76012V0.0059094Z"
    fill="#9B9B9B" />
</svg>