<?xml version="1.0" encoding="UTF-8"?>
<svg width="225.46875px" height="375.089748px" viewBox="0 0 225.46875 375.089748" version="1.1" xmlns="http://www.w3.org/2000/svg" xmlns:xlink="http://www.w3.org/1999/xlink">
    <title>Restaurant(2)</title>
    <g id="Page-1" stroke="none" stroke-width="1" fill="none" fill-rule="evenodd">
        <g id="Restaurant(2)" fill="#9B9B9B" fill-rule="nonzero">
            <path d="M52.5,0.0897477108 L52.5,90.0897477 C52.5,94.2303727 49.140625,97.5897477 45,97.5897477 C40.859375,97.5897477 37.5,94.2303727 37.5,90.0897477 L37.5,1.26162271 C19.132812,3.41396671 12.070312,7.85537271 10.546875,8.99599771 L7.96875,11.1053727 L7.5,14.1522477 C7.191406,16.6288097 0,75.0897477 0,112.589748 C0.007812,142.03506 16.941406,154.632717 28.125,162.980373 C33.171875,166.745998 37.5,170.011623 37.5,172.589748 C37.5,178.730373 36.285156,192.992092 34.921875,209.386623 C32.703125,235.953029 29.976562,268.913967 30,292.589748 C30,354.245998 37.589844,375.058498 60,375.089748 L60.234375,375.089748 C67.59375,375.089748 76.664062,373.351467 82.5,359.386623 C87.613281,347.175686 90.015625,325.906154 90,292.589748 C90,268.956936 87.277344,235.898342 85.078125,209.386623 C83.707031,192.917873 82.5,178.761623 82.5,172.589748 C82.5,170.070217 86.894531,166.882717 91.875,163.214748 C103.109375,154.949123 120,142.492092 120,112.589748 C120,87.8553727 112.808594,17.3788097 112.5,14.3866227 L112.03125,10.6366227 L108.984375,8.76162271 C107.917969,8.12490371 100.15625,3.75380971 82.5,1.49599771 L82.5,90.0897477 C82.5,94.2303727 79.140625,97.5897477 75,97.5897477 C70.859375,97.5897477 67.5,94.2303727 67.5,90.0897477 L67.5,0.324122711 C64.726562,0.218653711 61.933594,0.0897477108 58.828125,0.0897477108 C56.652344,0.0897477108 54.496094,0.0311539108 52.5,0.0897477108 Z M209.296875,0.0897477108 C208.691406,0.187403911 208.230469,0.546778711 207.65625,0.792872711 C147.304688,26.6522477 142.515625,87.4842787 142.5,105.558498 C142.523438,130.788967 154.730469,152.734279 165.46875,172.120998 C173.253906,186.175686 180.476562,199.574123 180.46875,210.089748 C180.46875,215.363186 178.464844,221.656154 175.78125,229.777248 C171.476562,242.788967 165.476562,260.738186 165.46875,285.089748 C165.453125,359.175686 185.859375,374.839748 202.96875,374.855373 C223.339844,374.824123 225.46875,356.550686 225.46875,315.089748 C225.46875,297.620998 222.925781,259.406154 220.546875,225.792873 C218.90625,202.406154 217.257812,180.480373 217.265625,173.761623 C217.273438,162.933498 217.75,131.828029 217.96875,110.714748 C218.082031,99.9295917 217.96875,91.6405287 217.96875,90.0897477 L217.96875,7.58974771 C217.96875,5.07021671 216.789062,2.64834171 214.6875,1.26162271 C213.105469,0.214747711 211.117188,-0.199314289 209.296875,0.0897477108 Z" id="Shape"></path>
        </g>
    </g>
</svg>