<?xml version="1.0" encoding="UTF-8"?>
<svg width="46px" height="46px" viewBox="0 0 46 46" version="1.1" xmlns="http://www.w3.org/2000/svg" xmlns:xlink="http://www.w3.org/1999/xlink">
    <title>Group 99</title>
    <g id="Page-1" stroke="none" stroke-width="1" fill="none" fill-rule="evenodd">
        <g id="Group-99">
            <circle id="Oval" fill-opacity="0.65" fill="#9E9D9D" cx="23" cy="23" r="23"></circle>
            <g id="Group-52" transform="translate(15, 15)">
                <polygon id="Triangle" fill="#3B3B3B" transform="translate(7.5, 15.5) rotate(-180) translate(-7.5, -15.5)" points="7.5 13 10 18 5 18"></polygon>
                <rect id="Rectangle" fill="#3B3B3B" x="0" y="0" width="16" height="14" rx="7"></rect>
                <g id="Restaurant(2)" transform="translate(3, 1)" fill="#FFFFFF" fill-rule="nonzero">
                    <path d="M1.86278586,0.00311050954 L1.86278586,3.12236399 C1.86278586,3.26587131 1.74358974,3.38230178 1.5966736,3.38230178 C1.44975745,3.38230178 1.33056133,3.26587131 1.33056133,3.12236399 L1.33056133,0.0437257892 C0.678863461,0.118322528 0.428274411,0.272254429 0.374220374,0.311786635 L0.282744283,0.384894138 L0.266112266,0.490493865 C0.255162846,0.576327472 0,2.60248841 0,3.90217736 C0.000277182536,4.92270393 0.601108792,5.35931822 0.997920998,5.64863438 C1.17699238,5.77914481 1.33056133,5.89232606 1.33056133,5.98167968 C1.33056133,6.19450374 1.28745668,6.6887917 1.23908524,7.25699946 C1.16036036,8.17774784 1.06361745,9.32012029 1.06444906,10.1406843 C1.06444906,12.2775896 1.33374914,12.9989169 2.12889813,13 L2.13721414,13 C2.3983368,13 2.7201663,12.939754 2.92723493,12.4557553 C3.1086625,12.0325441 3.19390159,11.2953767 3.19334719,10.1406843 C3.19334719,9.32160952 3.09674291,8.17585248 3.01871102,7.25699946 C2.97006236,6.68621939 2.92723493,6.19558681 2.92723493,5.98167968 C2.92723493,5.89435683 3.08316007,5.78388327 3.25987526,5.65675744 C3.65848926,5.37028433 4.25779626,4.93854392 4.25779626,3.90217736 C4.25779626,3.04492419 4.00263341,0.602321251 3.99168399,0.498616921 L3.97505198,0.368648026 L3.86694387,0.303663579 C3.82910604,0.281595935 3.55370755,0.130100933 2.92723493,0.0518488451 L2.92723493,3.12236399 C2.92723493,3.26587131 2.80803881,3.38230178 2.66112266,3.38230178 C2.51420651,3.38230178 2.3950104,3.26587131 2.3950104,3.12236399 L2.3950104,0.0112335655 C2.29660428,0.00757818164 2.19750521,0.00311050954 2.08731809,0.00311050954 C2.01011782,0.00311050954 1.93361054,0.00107974383 1.86278586,0.00311050954 Z M7.42619543,0.00311050955 C7.4047124,0.00649511445 7.3883576,0.0189504599 7.36798337,0.0274796773 C5.22661124,0.923723515 5.05668746,3.03206267 5.05613306,3.65848568 C5.05696467,4.53293266 5.4900901,5.29352144 5.87110187,5.96543356 C6.14733194,6.45254617 6.40360359,6.91691418 6.4033264,7.28136862 C6.4033264,7.4641374 6.33222454,7.68224143 6.23700624,7.96370532 C6.08426887,8.41467032 5.87137905,9.03676103 5.87110187,9.88074652 C5.87054747,12.4484445 6.59459459,12.9913354 7.2016632,12.9918769 C7.92446293,12.9907939 8,12.3574663 8,10.9204977 C8,10.3150592 7.9097713,8.99059497 7.82536383,7.82561337 C7.76715177,7.01506777 7.70866249,6.25515589 7.70893971,6.02229495 C7.70921693,5.64700977 7.72612613,4.56894486 7.73388773,3.83719291 C7.73790713,3.46339696 7.73388773,3.17611153 7.73388773,3.12236399 L7.73388773,0.263048299 C7.73388773,0.175725457 7.69203047,0.0917872121 7.61746362,0.0437257892 C7.56133057,0.00744280604 7.49078311,-0.00690790877 7.42619543,0.00311050955 Z" id="Shape"></path>
                </g>
            </g>
        </g>
    </g>
</svg>