<?xml version="1.0" encoding="UTF-8"?>
<svg xmlns="http://www.w3.org/2000/svg" xmlns:xlink="http://www.w3.org/1999/xlink" width="375pt" height="375pt" viewBox="0 0 375 375" version="1.1">
<g id="surface7150">
<path style=" stroke:none;fill-rule:nonzero;fill:rgb(0%,0%,0%);fill-opacity:1;" d="M 157.5 22.5 C 87.160156 22.5 30 79.660156 30 150 C 30 220.339844 87.160156 277.5 157.5 277.5 C 185.332031 277.5 211.054688 268.535156 232.03125 253.359375 L 330.703125 351.796875 L 351.796875 330.703125 L 254.296875 232.96875 C 273.457031 210.644531 285 181.667969 285 150 C 285 79.660156 227.839844 22.5 157.5 22.5 Z M 157.5 37.5 C 219.726562 37.5 270 87.773438 270 150 C 270 212.226562 219.726562 262.5 157.5 262.5 C 95.273438 262.5 45 212.226562 45 150 C 45 87.773438 95.273438 37.5 157.5 37.5 Z M 157.5 37.5 "/>
</g>
</svg>
