<?xml version="1.0" encoding="UTF-8"?>
<svg xmlns="http://www.w3.org/2000/svg" xmlns:xlink="http://www.w3.org/1999/xlink" width="375pt" height="375pt" viewBox="0 0 375 375" version="1.1">
<g id="surface4076">
<path style=" stroke:none;fill-rule:nonzero;fill:rgb(0%,0%,0%);fill-opacity:1;" d="M 353.699219 159.15625 L 309.375 151.914062 C 306.78125 143.015625 303.234375 134.46875 298.792969 126.375 L 324.667969 89.496094 C 326.761719 86.519531 326.398438 82.460938 323.828125 79.882812 L 294.660156 50.730469 C 292.058594 48.136719 287.960938 47.796875 284.976562 49.949219 L 248.65625 76.058594 C 240.488281 71.542969 231.863281 67.957031 222.914062 65.355469 L 215.183594 21.210938 C 214.550781 17.625 211.441406 15 207.796875 15 L 166.546875 15 C 162.871094 15 159.734375 17.664062 159.140625 21.292969 L 151.972656 65.199219 C 142.972656 67.785156 134.332031 71.332031 126.195312 75.789062 L 89.96875 49.914062 C 86.976562 47.773438 82.90625 48.121094 80.300781 50.707031 L 51.148438 79.859375 C 48.578125 82.433594 48.21875 86.484375 50.308594 89.460938 L 75.800781 125.933594 C 71.265625 134.144531 67.648438 142.835938 65.015625 151.882812 L 21.285156 159.164062 C 17.671875 159.765625 15.015625 162.898438 15.015625 166.558594 L 15.015625 207.808594 C 15.015625 211.449219 17.625 214.558594 21.203125 215.199219 L 64.933594 222.953125 C 67.550781 231.976562 71.167969 240.667969 75.71875 248.902344 L 49.914062 285 C 47.78125 287.976562 48.121094 292.066406 50.707031 294.667969 L 79.867188 323.851562 C 82.441406 326.421875 86.496094 326.78125 89.476562 324.691406 L 126 299.109375 C 134.199219 303.613281 142.859375 307.191406 151.835938 309.789062 L 159.15625 353.746094 C 159.75 357.351562 162.878906 360 166.546875 360 L 207.796875 360 C 211.433594 360 214.546875 357.390625 215.175781 353.8125 L 223.011719 309.636719 C 232.003906 306.988281 240.621094 303.390625 248.738281 298.875 L 285.523438 324.683594 C 288.511719 326.789062 292.558594 326.421875 295.140625 323.851562 L 324.300781 294.667969 C 326.894531 292.066406 327.234375 287.960938 325.078125 284.976562 L 298.84375 248.550781 C 303.292969 240.449219 306.824219 231.886719 309.398438 222.988281 L 353.78125 215.199219 C 357.375 214.566406 359.984375 211.449219 359.984375 207.808594 L 359.984375 166.558594 C 359.992188 162.886719 357.328125 159.75 353.699219 159.15625 Z M 187.5 240 C 158.503906 240 135 216.496094 135 187.5 C 135 158.503906 158.503906 135 187.5 135 C 216.496094 135 240 158.503906 240 187.5 C 240 216.496094 216.496094 240 187.5 240 Z M 187.5 240 "/>
</g>
</svg>
