<?xml version="1.0" encoding="UTF-8"?>
<svg xmlns="http://www.w3.org/2000/svg" xmlns:xlink="http://www.w3.org/1999/xlink" width="375pt" height="375pt" viewBox="0 0 375 375" version="1.1">
<g id="surface3808">
<path style=" stroke:none;fill-rule:nonzero;fill:rgb(100%,100%,100%);fill-opacity:1;" d="M 166.539062 15 C 162.867188 15 159.734375 17.660156 159.140625 21.285156 L 151.847656 65.949219 C 143.074219 68.5 134.710938 71.941406 126.824219 76.230469 L 89.972656 49.90625 C 86.992188 47.78125 82.910156 48.113281 80.316406 50.699219 L 51.136719 79.847656 C 48.5625 82.425781 48.210938 86.476562 50.300781 89.457031 L 76.230469 126.546875 C 71.875 134.476562 68.355469 142.890625 65.742188 151.742188 L 21.269531 159.140625 C 17.660156 159.75 15.015625 162.875 15.015625 166.539062 L 15.015625 207.789062 C 15.007812 211.425781 17.613281 214.546875 21.195312 215.183594 L 65.699219 223.066406 C 68.296875 231.90625 71.796875 240.324219 76.15625 248.261719 L 49.90625 284.984375 C 47.78125 287.964844 48.113281 292.046875 50.699219 294.636719 L 79.863281 323.816406 C 82.433594 326.390625 86.476562 326.746094 89.457031 324.667969 L 126.621094 298.652344 C 134.527344 302.964844 142.914062 306.433594 151.714844 309.007812 L 159.140625 353.730469 C 159.742188 357.347656 162.871094 360 166.539062 360 L 207.789062 360 C 211.429688 360.003906 214.550781 357.390625 215.183594 353.804688 L 223.140625 308.90625 C 231.90625 306.292969 240.25 302.773438 248.113281 298.433594 L 285.527344 324.683594 C 288.507812 326.773438 292.5625 326.421875 295.136719 323.847656 L 324.300781 294.652344 C 326.898438 292.050781 327.226562 287.953125 325.078125 284.972656 L 298.402344 247.941406 C 302.667969 240.113281 306.105469 231.816406 308.65625 223.109375 L 353.789062 215.199219 C 357.378906 214.566406 359.992188 211.445312 359.984375 207.800781 L 359.984375 166.550781 C 359.984375 162.882812 357.324219 159.75 353.699219 159.15625 L 308.644531 151.785156 C 306.074219 143.089844 302.628906 134.808594 298.359375 126.988281 L 324.667969 89.503906 C 326.757812 86.519531 326.40625 82.46875 323.832031 79.894531 L 294.652344 50.726562 C 292.050781 48.132812 287.953125 47.804688 284.972656 49.949219 L 248.042969 76.507812 C 240.175781 72.1875 231.824219 68.683594 223.035156 66.09375 L 215.183594 21.210938 C 214.558594 17.617188 211.4375 14.996094 207.789062 15 Z M 172.925781 30 L 201.488281 30 L 208.960938 72.640625 C 209.46875 75.5625 211.648438 77.910156 214.527344 78.632812 C 225.496094 81.367188 235.796875 85.699219 245.199219 91.390625 C 247.769531 92.949219 251.019531 92.820312 253.460938 91.070312 L 288.558594 65.84375 L 308.761719 86.042969 L 283.769531 121.65625 C 282.0625 124.082031 281.949219 127.285156 283.476562 129.828125 C 289.113281 139.210938 293.386719 149.449219 296.117188 160.355469 C 296.84375 163.261719 299.230469 165.453125 302.183594 165.9375 L 344.984375 172.941406 L 344.984375 201.503906 L 302.09375 209.035156 C 299.171875 209.550781 296.828125 211.746094 296.117188 214.628906 C 293.417969 225.523438 289.140625 235.761719 283.503906 245.140625 C 281.960938 247.710938 282.09375 250.953125 283.84375 253.386719 L 309.183594 288.558594 L 288.984375 308.773438 L 253.433594 283.828125 C 250.992188 282.121094 247.773438 282.015625 245.230469 283.566406 C 235.875 289.257812 225.5625 293.609375 214.628906 296.382812 C 211.765625 297.101562 209.59375 299.4375 209.078125 302.34375 L 201.503906 345 L 172.894531 345 L 165.835938 302.535156 C 165.34375 299.582031 163.144531 297.203125 160.238281 296.484375 C 149.265625 293.777344 138.914062 289.453125 129.449219 283.769531 C 126.910156 282.25 123.710938 282.363281 121.289062 284.0625 L 86.015625 308.773438 L 65.800781 288.53125 L 90.730469 253.683594 C 92.472656 251.242188 92.59375 247.996094 91.039062 245.433594 C 85.292969 235.941406 80.949219 225.59375 78.207031 214.570312 C 77.492188 211.703125 75.15625 209.523438 72.246094 209.003906 L 30.015625 201.503906 L 30.015625 172.894531 L 72.214844 165.878906 C 75.164062 165.390625 77.542969 163.199219 78.265625 160.296875 C 81.03125 149.234375 85.375 138.890625 91.097656 129.417969 C 92.640625 126.878906 92.539062 123.667969 90.835938 121.230469 L 66.195312 86.015625 L 86.425781 65.800781 L 121.390625 90.792969 C 123.824219 92.523438 127.050781 92.652344 129.609375 91.113281 C 139.027344 85.457031 149.398438 81.164062 160.386719 78.472656 C 163.304688 77.753906 165.511719 75.359375 165.996094 72.394531 Z M 187.5 127.5 C 154.453125 127.5 127.5 154.453125 127.5 187.5 C 127.5 220.546875 154.453125 247.5 187.5 247.5 C 220.546875 247.5 247.5 220.546875 247.5 187.5 C 247.5 154.453125 220.546875 127.5 187.5 127.5 Z M 187.5 142.5 C 212.441406 142.5 232.5 162.558594 232.5 187.5 C 232.5 212.441406 212.441406 232.5 187.5 232.5 C 162.558594 232.5 142.5 212.441406 142.5 187.5 C 142.5 162.558594 162.558594 142.5 187.5 142.5 Z M 187.5 142.5 "/>
</g>
</svg>
