<svg width="29" height="29" viewBox="0 0 29 29" fill="none" xmlns="http://www.w3.org/2000/svg">
  <g id="Group 138">
    <g id="Group 68">
      <circle id="Oval" cx="14.5" cy="14.5" r="13.5" fill="#989898" stroke="#9B9B9B" />
    </g>
    <g id="surface1036">
      <path id="Vector"
        d="M15.4998 9.05221C15.3692 9.0722 15.272 9.20967 15.273 9.37214V11.6317C12.2881 11.7441 10.6788 13.6937 9.88472 15.6308C9.07946 17.5942 9.0511 19.5088 9.05015 19.57V19.59V19.61C9.0461 19.7861 9.15859 19.9349 9.30134 19.9399C9.44408 19.9449 9.56467 19.8061 9.56872 19.63V19.61C9.57075 19.58 9.62855 18.6114 10.3709 17.5804C11.1001 16.5695 12.5231 15.5497 15.273 15.4809V17.6904C15.273 17.8129 15.3297 17.9253 15.4197 17.9792C15.51 18.0328 15.6164 18.0178 15.6943 17.9403L19.8428 13.7812C19.9045 13.7201 19.94 13.6287 19.94 13.5313C19.94 13.4338 19.9045 13.3425 19.8428 13.2813L15.6943 9.12219C15.6396 9.0672 15.5696 9.04221 15.4998 9.05221ZM15.7915 10.042L19.2675 13.5313L15.7915 17.0205V15.1309C15.7915 14.9548 15.675 14.811 15.5322 14.811C12.4847 14.811 10.8418 15.9669 9.98195 17.1605C9.94954 17.2055 9.93131 17.2455 9.90093 17.2905C10.0103 16.8506 10.1541 16.3807 10.3466 15.9108C11.1032 14.0662 12.5474 12.2515 15.5322 12.2515C15.675 12.2515 15.7915 12.1077 15.7915 11.9316V10.042Z"
        fill="#47484A" />
    </g>
  </g>
</svg>