<?xml version="1.0" encoding="UTF-8"?>
<svg width="28px" height="28px" viewBox="0 0 28 28" version="1.1" xmlns="http://www.w3.org/2000/svg" xmlns:xlink="http://www.w3.org/1999/xlink">
    <title>Group 68</title>
    <g id="Page-1" stroke="none" stroke-width="1" fill="none" fill-rule="evenodd">
        <g id="Group-68">
            <circle id="Oval" stroke="#989898" fill="#989898" cx="14" cy="14" r="13.5"></circle>
            <g id="Share(4)" transform="translate(8.5556, 8.5556)" fill="#47484A" fill-rule="nonzero">
                <path d="M0,0 L0,10.6296296 C0,10.7727623 0.116126543,10.8888889 0.259259259,10.8888889 L10.6296296,10.8888889 C10.7727623,10.8888889 10.8888889,10.7727623 10.8888889,10.6296296 L10.8888889,7.25925926 L10.3703704,7.25925926 L10.3703704,10.3703704 L0.518518519,10.3703704 L0.518518519,0 L0,0 Z M8.81224922,0.256693664 C8.70679012,0.256693664 8.61186342,0.320698311 8.57216436,0.418460657 C8.53246527,0.516223002 8.55596066,0.628298602 8.63157794,0.701755393 L9.74450231,1.81481481 L8.04365354,1.81481481 C5.44403934,1.75013502 3.7595293,2.43568675 2.7728588,3.73292823 C1.78618827,5.03016975 1.51194058,6.87212576 1.55555556,9.07907021 C1.5583912,9.22233795 1.67667823,9.33616897 1.81981095,9.33338518 C1.96307869,9.33049769 2.07690971,9.21221066 2.07407407,9.06907794 C2.03140432,6.91182485 2.31564428,5.1904514 3.18551313,4.04687498 C4.05538194,2.9032986 5.52546296,2.27094906 8.03042053,2.33333333 L9.74450231,2.33333333 L8.63157794,3.44639276 C8.56379243,3.51134259 8.53651621,3.60788967 8.56014659,3.69876543 C8.58391202,3.7896412 8.65480325,3.86053242 8.74567901,3.88429786 C8.83655478,3.90792823 8.93310185,3.88065201 8.99805169,3.8128665 L10.7369792,2.07407407 L8.99805169,0.335281644 C8.94930556,0.285050163 8.88233025,0.256693664 8.81224922,0.256693664 Z" id="Shape"></path>
            </g>
        </g>
    </g>
</svg>