<?xml version="1.0" encoding="UTF-8"?>
<svg xmlns="http://www.w3.org/2000/svg" xmlns:xlink="http://www.w3.org/1999/xlink" width="375pt" height="375pt" viewBox="0 0 375 375" version="1.1">
<g id="surface3584">
<path style=" stroke:none;fill-rule:nonzero;fill:rgb(0%,0%,0%);fill-opacity:1;" d="M 30 30 L 30 337.5 C 30 341.640625 33.359375 345 37.5 345 L 337.5 345 C 341.640625 345 345 341.640625 345 337.5 L 345 240 L 330 240 L 330 330 L 45 330 L 45 30 Z M 284.925781 37.425781 C 281.875 37.425781 279.128906 39.277344 277.980469 42.105469 C 276.832031 44.933594 277.511719 48.175781 279.699219 50.300781 L 311.894531 82.5 L 262.691406 82.5 C 187.488281 80.628906 138.757812 100.460938 110.214844 137.988281 C 81.671875 175.515625 73.738281 228.800781 75 292.644531 C 75.082031 296.789062 78.503906 300.082031 82.644531 300 C 86.789062 299.917969 90.082031 296.496094 90 292.355469 C 88.765625 229.949219 96.988281 180.152344 122.152344 147.070312 C 147.316406 113.988281 189.84375 95.695312 262.308594 97.5 L 311.894531 97.5 L 279.699219 129.699219 C 277.738281 131.578125 276.949219 134.371094 277.632812 137 C 278.320312 139.628906 280.371094 141.679688 283 142.367188 C 285.628906 143.050781 288.421875 142.261719 290.300781 140.300781 L 340.605469 90 L 290.300781 39.699219 C 288.890625 38.246094 286.953125 37.425781 284.925781 37.425781 Z M 284.925781 37.425781 "/>
</g>
</svg>
