<?xml version="1.0" encoding="UTF-8"?>
<svg xmlns="http://www.w3.org/2000/svg" xmlns:xlink="http://www.w3.org/1999/xlink" width="375pt" height="375pt" viewBox="0 0 375 375" version="1.1">
<g id="surface2342">
<path style=" stroke:none;fill-rule:nonzero;fill:rgb(0%,0%,0%);fill-opacity:1;" d="M 300 0 C 259.011719 0 225.585938 32.988281 225 73.828125 C 225 74.207031 225 74.621094 225 75 C 225 102.65625 239.972656 126.679688 262.265625 139.6875 C 273.339844 146.160156 286.261719 150 300 150 C 341.367188 150 375 116.367188 375 75 C 375 33.632812 341.367188 0 300 0 Z M 210.46875 81.328125 L 133.828125 119.765625 C 151.667969 135.234375 163.386719 157.5 164.765625 182.578125 L 242.34375 143.671875 C 224.238281 128.464844 212.253906 106.316406 210.46875 81.328125 Z M 75 112.5 C 33.632812 112.5 0 146.132812 0 187.5 C 0 228.867188 33.632812 262.5 75 262.5 C 90.378906 262.5 104.558594 257.8125 116.484375 249.84375 C 136.613281 236.394531 150 213.542969 150 187.5 C 150 160.574219 135.675781 136.992188 114.375 123.75 C 102.890625 116.601562 89.472656 112.5 75 112.5 Z M 164.765625 192.421875 C 163.386719 217.472656 151.875 239.972656 134.0625 255.46875 L 210.46875 293.671875 C 212.253906 268.683594 224.035156 246.5625 242.109375 231.328125 Z M 300 225 C 284.53125 225 270.234375 229.832031 258.28125 237.890625 C 238.269531 251.367188 225 274.074219 225 300 C 225 300.117188 225 300.117188 225 300.234375 C 224.675781 300.261719 224.386719 300.441406 224.0625 300.46875 L 225 300.9375 C 225.496094 341.863281 258.957031 375 300 375 C 341.367188 375 375 341.367188 375 300 C 375 258.632812 341.367188 225 300 225 Z M 300 225 "/>
</g>
</svg>
