<?xml version="1.0" encoding="UTF-8"?>
<svg xmlns="http://www.w3.org/2000/svg" xmlns:xlink="http://www.w3.org/1999/xlink" width="375pt" height="375pt" viewBox="0 0 375 375" version="1.1">
<g id="surface5218">
<path style=" stroke:none;fill-rule:nonzero;fill:rgb(0%,0%,0%);fill-opacity:1;" d="M 0 52.5 L 0 73.359375 C 22.589844 93.023438 152.242188 205.878906 162.496094 214.820312 C 173.039062 224.007812 183.496094 225 187.5 225 C 191.503906 225 201.960938 224.007812 212.503906 214.820312 C 223.140625 205.550781 360.34375 86.144531 375 73.386719 L 375 52.5 Z M 0 93.238281 L 0 281.441406 L 113.363281 191.925781 C 76.605469 159.921875 24.234375 114.335938 0 93.238281 Z M 375 93.265625 C 352.117188 113.179688 298.917969 159.484375 261.636719 191.9375 L 305.375 226.347656 C 312.949219 212.179688 327.839844 202.5 345 202.5 C 356.535156 202.5 367.027344 206.886719 375 214.042969 Z M 124.878906 201.941406 L 0 300.558594 L 0 322.5 L 214.042969 322.5 C 206.886719 314.527344 202.5 304.035156 202.5 292.5 C 202.5 267.683594 222.683594 247.5 247.5 247.5 C 256.972656 247.5 265.765625 250.453125 273.019531 255.46875 L 300.175781 243.839844 C 300.234375 243.082031 300.371094 242.347656 300.46875 241.597656 L 250.105469 201.957031 C 235.578125 214.601562 225.003906 223.808594 222.347656 226.128906 C 207.972656 238.644531 193.179688 240 187.484375 240 C 181.792969 240 167.015625 238.636719 152.636719 226.113281 C 150.003906 223.816406 139.433594 214.617188 124.878906 201.941406 Z M 346.246094 217.527344 C 344.257812 217.445312 342.242188 217.550781 340.210938 217.878906 C 323.941406 220.519531 312.757812 236.039062 315.394531 252.304688 C 315.460938 252.71875 315.632812 253.085938 315.71875 253.492188 L 270.101562 273.03125 C 264.585938 266.644531 256.535156 262.5 247.5 262.5 C 231.019531 262.5 217.5 276.019531 217.5 292.5 C 217.5 308.980469 231.019531 322.5 247.5 322.5 C 255.925781 322.5 263.550781 318.941406 269.019531 313.285156 L 316.097656 337.292969 C 315.023438 341.269531 314.695312 345.5 315.394531 349.804688 C 318.035156 366.070312 333.550781 377.257812 349.820312 374.621094 C 366.085938 371.980469 377.257812 356.460938 374.621094 340.195312 C 371.980469 323.929688 356.476562 312.742188 340.210938 315.378906 C 333.59375 316.453125 327.886719 319.726562 323.539062 324.242188 L 276.355469 300.191406 C 277.023438 297.71875 277.5 295.171875 277.5 292.5 C 277.5 290.433594 277.289062 288.414062 276.886719 286.464844 L 322.367188 266.96875 C 328.972656 274.597656 339.183594 278.828125 349.804688 277.105469 C 366.070312 274.464844 377.257812 258.960938 374.621094 242.695312 C 372.308594 228.460938 360.148438 218.125 346.246094 217.527344 Z M 345.660156 232.5 C 352.667969 232.765625 358.636719 237.867188 359.808594 245.097656 C 361.148438 253.363281 355.683594 260.96875 347.417969 262.308594 C 339.152344 263.648438 331.546875 258.167969 330.207031 249.902344 C 328.863281 241.636719 334.347656 234.03125 342.613281 232.691406 C 343.644531 232.523438 344.65625 232.460938 345.660156 232.5 Z M 247.5 277.5 C 255.875 277.5 262.5 284.125 262.5 292.5 C 262.5 300.875 255.875 307.5 247.5 307.5 C 239.125 307.5 232.5 300.875 232.5 292.5 C 232.5 284.125 239.125 277.5 247.5 277.5 Z M 345.660156 330 C 352.667969 330.265625 358.636719 335.367188 359.808594 342.597656 C 361.148438 350.863281 355.683594 358.46875 347.417969 359.808594 C 339.152344 361.148438 331.546875 355.667969 330.207031 347.402344 C 328.863281 339.136719 334.347656 331.53125 342.613281 330.191406 C 343.644531 330.023438 344.65625 329.960938 345.660156 330 Z M 345.660156 330 "/>
</g>
</svg>
