<?xml version="1.0" encoding="UTF-8"?>
<svg xmlns="http://www.w3.org/2000/svg" xmlns:xlink="http://www.w3.org/1999/xlink" width="375pt" height="375pt" viewBox="0 0 375 375" version="1.1">
<g id="surface2112">
<path style=" stroke:none;fill-rule:nonzero;fill:rgb(100%,100%,100%);fill-opacity:1;" d="M 0 52.5 L 0 322.5 L 214.042969 322.5 C 210.15625 318.164062 207.109375 313.09375 205.121094 307.5 L 15 307.5 L 15 288.851562 L 124.90625 201.941406 C 134.050781 209.914062 150.542969 224.289062 152.636719 226.113281 C 165.394531 237.21875 178.90625 240 187.5 240 C 196.089844 240 209.605469 237.234375 222.363281 226.128906 C 224.457031 224.304688 240.949219 209.925781 250.09375 201.957031 L 300.441406 241.902344 C 301.121094 236.429688 302.769531 231.261719 305.246094 226.582031 L 261.589844 191.9375 C 300.886719 157.695312 346.910156 117.578125 360 106.171875 L 360 205.121094 C 365.59375 207.109375 370.664062 210.15625 375 214.042969 L 375 52.5 Z M 15 67.5 L 360 67.5 L 360 86.277344 C 356.84375 89.027344 223.589844 205.167969 212.503906 214.820312 C 202.78125 223.285156 192.875 225 187.5 225 C 182.128906 225 172.222656 223.273438 162.496094 214.804688 C 151.410156 205.152344 18.15625 89.015625 15 86.265625 Z M 15 106.15625 L 113.394531 191.910156 L 15 269.738281 Z M 345 217.5 C 328.519531 217.5 315 231.019531 315 247.5 C 315 249.558594 315.214844 251.589844 315.613281 253.535156 L 270.101562 273.03125 C 264.585938 266.644531 256.535156 262.5 247.5 262.5 C 231.019531 262.5 217.5 276.019531 217.5 292.5 C 217.5 308.980469 231.019531 322.5 247.5 322.5 C 255.925781 322.5 263.550781 318.941406 269.019531 313.285156 L 316.144531 337.308594 C 315.476562 339.78125 315 342.328125 315 345 C 315 361.480469 328.519531 375 345 375 C 361.480469 375 375 361.480469 375 345 C 375 328.519531 361.480469 315 345 315 C 336.570312 315 328.949219 318.566406 323.480469 324.230469 L 276.355469 300.191406 C 277.023438 297.71875 277.5 295.171875 277.5 292.5 C 277.5 290.441406 277.285156 288.410156 276.886719 286.464844 L 322.398438 266.96875 C 327.914062 273.355469 335.964844 277.5 345 277.5 C 361.480469 277.5 375 263.980469 375 247.5 C 375 231.019531 361.480469 217.5 345 217.5 Z M 345 232.5 C 353.375 232.5 360 239.125 360 247.5 C 360 255.875 353.375 262.5 345 262.5 C 336.625 262.5 330 255.875 330 247.5 C 330 239.125 336.625 232.5 345 232.5 Z M 247.5 277.5 C 255.875 277.5 262.5 284.125 262.5 292.5 C 262.5 300.875 255.875 307.5 247.5 307.5 C 239.125 307.5 232.5 300.875 232.5 292.5 C 232.5 284.125 239.125 277.5 247.5 277.5 Z M 345 330 C 353.375 330 360 336.625 360 345 C 360 353.375 353.375 360 345 360 C 336.625 360 330 353.375 330 345 C 330 336.625 336.625 330 345 330 Z M 345 330 "/>
</g>
</svg>
