<?xml version="1.0" encoding="UTF-8"?>
<svg width="283.936744px" height="330.451612px" viewBox="0 0 283.936744 330.451612" version="1.1"
  xmlns="http://www.w3.org/2000/svg" xmlns:xlink="http://www.w3.org/1999/xlink">
  <title>Double Up</title>
  <g id="Page-1" stroke="none" stroke-width="1" fill="none" fill-rule="evenodd">
    <g id="Double-Up"
      transform="translate(141.9684, 165.2258) rotate(90) translate(-141.9684, -165.2258)translate(-23.2574, 23.2574)"
      fill="#A9A9A9" fill-rule="nonzero">
      <path
        d="M165.225806,0 L4.6203369,160.605469 C0.694555898,164.355469 -0.887475102,169.949219 0.487524898,175.222657 C1.8664309,180.46875 5.9679939,184.570313 11.2140869,185.949219 C16.4875249,187.324219 22.0812749,185.742188 25.8312749,181.816407 L165.225806,42.421876 L304.620337,181.816407 C308.370337,185.742188 313.964087,187.324219 319.237525,185.949219 C324.483618,184.570313 328.585181,180.46875 329.964087,175.222657 C331.339087,169.949219 329.757056,164.355469 325.831275,160.605469 L165.225806,0 Z M165.225806,97.5 L4.6203369,258.105469 C0.694555898,261.855469 -0.887475102,267.449219 0.487524898,272.722657 C1.8664309,277.96875 5.9679939,282.070313 11.2140869,283.449219 C16.4875249,284.824219 22.0812749,283.242188 25.8312749,279.316407 L165.225806,139.921876 L304.620337,279.316407 C308.370337,283.242188 313.964087,284.824219 319.237525,283.449219 C324.483618,282.070313 328.585181,277.96875 329.964087,272.722657 C331.339087,267.449219 329.757056,261.855469 325.831275,258.105469 L165.225806,97.5 Z"
        id="Shape"></path>
    </g>
  </g>
</svg>