<?xml version="1.0" encoding="UTF-8"?>
<svg width="16px" height="18px" viewBox="0 0 16 18" version="1.1" xmlns="http://www.w3.org/2000/svg"
  xmlns:xlink="http://www.w3.org/1999/xlink">
  <title>Group 7</title>
  <g id="Page-1" stroke="none" stroke-width="1" fill="none" fill-rule="evenodd">
    <g id="Group-7">
      <g id="Group-52-Copy-3" fill="#3B3B3B">
        <polygon id="Triangle" transform="translate(8, 15.5) rotate(-180) translate(-8, -15.5)"
          points="8 13 10.5 18 5.5 18"></polygon>
        <rect id="Rectangle" x="0" y="0" width="16" height="14" rx="7"></rect>
      </g>
      <g id="Stadium(2)" transform="translate(3, 2)" fill="#FFFFFF" fill-rule="nonzero">
        <path
          d="M2.91666667,0 L2.91666667,1.72997344 C2.27495661,1.85140503 1.70833333,2.0268732 1.25,2.2467357 L1.25,1.73559806 C1.52712672,1.60643259 1.80620661,1.47907507 2.08333333,1.3499096 L0.833333333,0.771376916 L0.833333333,2.47794791 C0.306206611,2.81351695 0,3.22049862 0,3.66404035 L0,3.76046246 C0,3.95521505 0.0729166667,4.14414213 0.208333333,4.32543578 C0.264539944,4.40257348 0.335394972,4.47961073 0.416666667,4.55484006 C0.600043389,4.72257438 0.841688361,4.88066646 1.12706164,5.02148294 C1.16883681,5.04267572 1.21028644,5.06396891 1.25401475,5.08325333 C1.32693142,5.11991384 1.40397136,5.1529585 1.48318142,5.18379349 C1.52897136,5.20307792 1.57725694,5.22025311 1.6251085,5.23953754 C1.67100694,5.2569136 1.71690539,5.27228087 1.76269531,5.28965693 C2.45019531,5.53653773 3.30425347,5.70447291 4.2501085,5.76232618 C4.35839844,5.76815167 4.46473525,5.77397719 4.57519531,5.77779388 C4.60015192,5.77970224 4.62706164,5.77970224 4.65418836,5.77970224 C4.69791667,5.7816106 4.74186197,5.78341851 4.78559028,5.78341851 C4.85644531,5.78532687 4.92708333,5.78532687 5,5.78532687 C5.11046006,5.78532687 5.22287328,5.78351897 5.33127169,5.77970224 C5.38953994,5.77970224 5.44585503,5.77749256 5.50206164,5.77367586 C5.58962672,5.7717675 5.67708333,5.76624331 5.76247831,5.76232618 C6.02712672,5.74495012 6.28526475,5.71793182 6.53526475,5.68518849 C7.22894967,5.59449143 7.85405817,5.44202398 8.3748915,5.23953754 C8.42274306,5.22025311 8.47102864,5.20307792 8.51681858,5.18379349 C8.58767361,5.15677522 8.6561415,5.12573933 8.72070311,5.09490436 C9.51236978,4.73623418 10,4.26567418 10,3.76046246 L10,3.66404035 C10,3.22049862 9.69379339,2.81351695 9.16666667,2.47794791 L9.16666667,1.73559806 C9.44379339,1.60643259 9.72287328,1.47907507 10,1.3499096 L8.75,0.771376916 L8.75,2.2467357 C8.29166667,2.0268732 7.72504339,1.85140503 7.08333333,1.72997344 L7.08333333,0.964221145 C7.36046006,0.835055674 7.63953994,0.707698157 7.91666667,0.578532687 L6.66666667,0 L6.66666667,1.66026827 C6.14789497,1.58313058 5.58745661,1.54275383 5,1.54275383 C4.41254339,1.54275383 3.85210503,1.58313058 3.33333333,1.66026827 L3.33333333,0.964221145 C3.61046006,0.835055674 3.88953994,0.707698157 4.16666667,0.578532687 L2.91666667,0 Z M3.38747831,2.04404839 L3.59776475,2.63051582 C4.04568142,2.54956141 4.51671006,2.50697498 5,2.50697498 C5.48328994,2.50697498 5.95431858,2.54956141 6.40223525,2.63051582 L6.61252169,2.04404839 C6.65006511,2.04987388 6.68532986,2.05559894 6.72276475,2.06142446 C6.80403644,2.07297503 6.88530817,2.08663483 6.96451822,2.10210253 L6.96657986,2.10210253 L7.02918836,2.11375353 L6.8123915,2.71528691 C7.37065972,2.84836953 7.88324653,3.04101287 8.31868489,3.28397651 L8.73122831,2.67079214 C8.86046006,2.73828762 8.97710503,2.81180948 9.07921006,2.88703881 L8.66655817,3.49831485 C8.95410156,3.69698457 9.19563803,3.9204629 9.38107639,4.16352698 C9.30197483,4.2599491 9.20203994,4.35235362 9.08127169,4.43913353 C8.92078994,4.21354597 8.70605469,4.00734324 8.44563803,3.82414122 L8.19585503,4.19245362 C8.42078994,4.34100394 8.58355033,4.50883869 8.67306858,4.68812356 C8.55642361,4.74597683 8.43131511,4.80372966 8.29589844,4.85575741 C8.07085503,4.36018793 6.79578994,3.85688458 5,3.85688458 C3.20421006,3.85688458 1.92914497,4.36018793 1.70410156,4.85575741 C1.56868489,4.80372966 1.44357639,4.74597683 1.32693142,4.68812356 C1.41644967,4.50883869 1.57921006,4.34100394 1.80414497,4.19245362 L1.55436197,3.82414122 C1.29394531,4.00734324 1.07921006,4.21354597 0.918728306,4.43913353 C0.797960056,4.35235362 0.698025167,4.2599491 0.618923611,4.16352698 C0.804361972,3.9204629 1.04589844,3.69698457 1.33344183,3.49831485 L0.920789944,2.88703881 C1.02289497,2.81180948 1.13953994,2.73828762 1.26877169,2.67079214 L1.68131511,3.28397651 C2.11675347,3.04101287 2.62934028,2.84836953 3.1876085,2.71528691 L2.97081164,2.11375353 L3.03342014,2.10210253 L3.03548178,2.10210253 C3.11469183,2.08663483 3.19596356,2.07297503 3.27723525,2.06142446 C3.31467014,2.05559894 3.34993489,2.04987388 3.38747831,2.04404839 Z M5,2.89266343 C4.5625,2.89266343 4.13541667,2.92942438 3.73122831,2.99882819 L3.92296006,3.53296654 C4.26464844,3.49248934 4.625,3.47119612 5,3.47119612 C5.375,3.47119612 5.73535156,3.49248934 6.07703994,3.53296654 L6.26877169,2.99882819 C5.86458333,2.92942438 5.4375,2.89266343 5,2.89266343 Z M3.31868489,3.07988304 C2.78743489,3.20332343 2.30403644,3.38270875 1.89984808,3.60829631 L2.16026475,3.99398477 C2.52484808,3.82233332 2.98339844,3.68533357 3.50423178,3.59473697 L3.31868489,3.07988304 Z M6.68131511,3.07988304 L6.49576822,3.59473697 C7.01660156,3.68533357 7.47515192,3.82233332 7.83973525,3.99398477 L8.10015192,3.60829631 C7.69596356,3.38270875 7.21256511,3.20332343 6.68131511,3.07988304 Z M0,4.70549962 L0,6.94239224 C0,7.88351224 1.37293836,8.66272347 3.33333333,8.94616432 C3.46875,8.96735708 3.60828994,8.98463271 3.75,9 L3.75,6.9529384 C3.75,6.84054637 3.84830728,6.74954801 3.96972656,6.74954801 L6.03027344,6.74954801 C6.15169272,6.74954801 6.25,6.84054637 6.25,6.9529384 L6.25,9 C6.39171006,8.98463271 6.53125,8.96735708 6.66666667,8.94616432 C8.62706164,8.66272347 10,7.88351224 10,6.94239224 L10,4.70549962 C9.18956164,5.57520701 7.27918836,6.17101532 5,6.17101532 C3.04796006,6.17101532 1.36664497,5.73329909 0.416666667,5.06216101 C0.341688361,5.01013323 0.272894972,4.95609668 0.208333333,4.90015177 C0.133355028,4.83848178 0.0645616389,4.7729951 0,4.70549962 Z"
          id="Shape"></path>
      </g>
    </g>
  </g>
</svg>