<?xml version="1.0" encoding="UTF-8"?>
<svg xmlns="http://www.w3.org/2000/svg" xmlns:xlink="http://www.w3.org/1999/xlink" width="375pt" height="375pt" viewBox="0 0 375 375" version="1.1">
<g id="surface6929">
<path style=" stroke:none;fill-rule:nonzero;fill:rgb(100%,100%,100%);fill-opacity:1;" d="M 112.5 15 L 112.5 82.28125 C 89.398438 87.003906 69 93.828125 52.5 102.378906 L 52.5 82.5 C 62.476562 77.476562 72.523438 72.523438 82.5 67.5 L 37.5 45 L 37.5 111.371094 C 18.523438 124.421875 7.5 140.25 7.5 157.5 L 7.5 161.25 C 7.5 168.824219 10.125 176.171875 15 183.222656 C 17.023438 186.222656 19.574219 189.21875 22.5 192.144531 C 29.101562 198.667969 37.800781 204.816406 48.074219 210.292969 C 49.578125 211.117188 51.070312 211.945312 52.644531 212.695312 C 55.269531 214.121094 58.042969 215.40625 60.894531 216.605469 C 62.542969 217.355469 64.28125 218.023438 66.003906 218.773438 C 67.65625 219.449219 69.308594 220.046875 70.957031 220.722656 C 95.707031 230.324219 126.453125 236.855469 160.503906 239.105469 C 164.402344 239.332031 168.230469 239.558594 172.207031 239.707031 C 173.105469 239.78125 174.074219 239.78125 175.050781 239.78125 C 176.625 239.855469 178.207031 239.925781 179.78125 239.925781 C 182.332031 240 184.875 240 187.5 240 C 191.476562 240 195.523438 239.929688 199.425781 239.78125 C 201.523438 239.78125 203.550781 239.695312 205.574219 239.546875 C 208.726562 239.472656 211.875 239.257812 214.949219 239.105469 C 224.476562 238.429688 233.769531 237.378906 242.769531 236.105469 C 267.742188 232.578125 290.246094 226.648438 308.996094 218.773438 C 310.71875 218.023438 312.457031 217.355469 314.105469 216.605469 C 316.65625 215.554688 319.121094 214.347656 321.445312 213.148438 C 349.945312 199.199219 367.5 180.898438 367.5 161.25 L 367.5 157.5 C 367.5 140.25 356.476562 124.421875 337.5 111.371094 L 337.5 82.5 C 347.476562 77.476562 357.523438 72.523438 367.5 67.5 L 322.5 45 L 322.5 102.378906 C 306 93.828125 285.601562 87.003906 262.5 82.28125 L 262.5 52.5 C 272.476562 47.476562 282.523438 42.523438 292.5 37.5 L 247.5 15 L 247.5 79.570312 C 228.824219 76.570312 208.648438 75 187.5 75 C 166.351562 75 146.175781 76.570312 127.5 79.570312 L 127.5 52.5 C 137.476562 47.476562 147.523438 42.523438 157.5 37.5 Z M 129.449219 94.496094 L 137.019531 117.304688 C 153.144531 114.15625 170.101562 112.5 187.5 112.5 C 204.898438 112.5 221.855469 114.15625 237.980469 117.304688 L 245.550781 94.496094 C 246.902344 94.722656 248.171875 94.945312 249.519531 95.171875 C 252.445312 95.621094 255.371094 96.152344 258.222656 96.753906 L 258.296875 96.753906 L 260.550781 97.207031 L 252.746094 120.601562 C 272.84375 125.777344 291.296875 133.269531 306.972656 142.71875 L 321.824219 118.871094 C 326.476562 121.496094 330.675781 124.355469 334.351562 127.28125 L 319.496094 151.054688 C 329.847656 158.78125 338.542969 167.472656 345.21875 176.925781 C 342.371094 180.675781 338.773438 184.269531 334.425781 187.644531 C 328.648438 178.871094 320.917969 170.851562 311.542969 163.726562 L 302.550781 178.050781 C 310.648438 183.828125 316.507812 190.355469 319.730469 197.328125 C 315.53125 199.578125 311.027344 201.824219 306.152344 203.847656 C 298.050781 184.574219 252.148438 165 187.5 165 C 122.851562 165 76.949219 184.574219 68.847656 203.847656 C 63.972656 201.824219 59.46875 199.578125 55.269531 197.328125 C 58.492188 190.355469 64.351562 183.828125 72.449219 178.050781 L 63.457031 163.726562 C 54.082031 170.851562 46.351562 178.871094 40.574219 187.644531 C 36.226562 184.269531 32.628906 180.675781 29.78125 176.925781 C 36.457031 167.472656 45.152344 158.78125 55.503906 151.054688 L 40.648438 127.28125 C 44.324219 124.355469 48.523438 121.496094 53.175781 118.871094 L 68.027344 142.71875 C 83.703125 133.269531 102.15625 125.777344 122.253906 120.601562 L 114.449219 97.207031 L 116.703125 96.753906 L 116.777344 96.753906 C 119.628906 96.152344 122.554688 95.621094 125.480469 95.171875 C 126.828125 94.945312 128.097656 94.722656 129.449219 94.496094 Z M 187.5 127.5 C 171.75 127.5 156.375 128.929688 141.824219 131.628906 L 148.726562 152.402344 C 161.027344 150.828125 174 150 187.5 150 C 201 150 213.972656 150.828125 226.273438 152.402344 L 233.175781 131.628906 C 218.625 128.929688 203.25 127.5 187.5 127.5 Z M 126.972656 134.78125 C 107.847656 139.582031 90.445312 146.558594 75.894531 155.332031 L 85.269531 170.332031 C 98.394531 163.65625 114.902344 158.328125 133.652344 154.804688 Z M 248.027344 134.78125 L 241.347656 154.804688 C 260.097656 158.328125 276.605469 163.65625 289.730469 170.332031 L 299.105469 155.332031 C 284.554688 146.558594 267.152344 139.582031 248.027344 134.78125 Z M 7.5 198.003906 L 7.5 285 C 7.5 321.601562 56.925781 351.90625 127.5 362.929688 C 132.375 363.753906 137.398438 364.425781 142.5 365.023438 L 142.5 285.410156 C 142.5 281.039062 146.039062 277.5 150.410156 277.5 L 224.589844 277.5 C 228.960938 277.5 232.5 281.039062 232.5 285.410156 L 232.5 365.023438 C 237.601562 364.425781 242.625 363.753906 247.5 362.929688 C 318.074219 351.90625 367.5 321.601562 367.5 285 L 367.5 198.003906 C 338.324219 231.828125 269.550781 255 187.5 255 C 117.226562 255 56.699219 237.976562 22.5 211.875 C 19.800781 209.851562 17.324219 207.75 15 205.574219 C 12.300781 203.175781 9.824219 200.628906 7.5 198.003906 Z M 7.5 198.003906 "/>
</g>
</svg>
