<?xml version="1.0" encoding="UTF-8"?>
<svg xmlns="http://www.w3.org/2000/svg" xmlns:xlink="http://www.w3.org/1999/xlink" width="375pt" height="375pt" viewBox="0 0 375 375" version="1.1">
<g id="surface6889">
<path style=" stroke:none;fill-rule:nonzero;fill:rgb(100%,100%,100%);fill-opacity:1;" d="M 112.5 15 L 112.5 82.355469 C 93.996094 86.15625 77.070312 91.265625 62.535156 97.589844 C 59.035156 99.109375 55.726562 100.726562 52.5 102.378906 L 52.5 82.5 L 82.5 67.5 L 37.5 45 L 37.5 111.3125 C 32.148438 114.992188 27.261719 118.875 23.175781 123.074219 C 14.417969 132.078125 9.324219 142.703125 8.304688 154.011719 C 7.761719 155.09375 7.484375 156.289062 7.5 157.5 L 7.5 285 C 7.484375 286.199219 7.753906 287.382812 8.292969 288.457031 C 9.300781 299.777344 14.410156 310.414062 23.175781 319.425781 C 32.855469 329.375 46.285156 337.847656 62.535156 344.910156 C 95.03125 359.039062 138.984375 367.5 187.5 367.5 C 236.015625 367.5 279.96875 359.039062 312.464844 344.910156 C 328.714844 337.847656 342.144531 329.375 351.824219 319.425781 C 360.582031 310.421875 365.675781 299.796875 366.695312 288.488281 C 367.238281 287.40625 367.515625 286.210938 367.5 285 L 367.5 157.5 C 367.515625 156.300781 367.246094 155.117188 366.707031 154.042969 C 365.699219 142.722656 360.589844 132.085938 351.824219 123.074219 C 347.738281 118.875 342.851562 114.992188 337.5 111.3125 L 337.5 82.5 L 367.5 67.5 L 322.5 45 L 322.5 102.378906 C 319.273438 100.726562 315.964844 99.109375 312.464844 97.589844 C 297.929688 91.265625 281.003906 86.15625 262.5 82.355469 L 262.5 52.5 L 292.5 37.5 L 247.5 15 L 247.5 79.644531 C 228.710938 76.679688 208.578125 75 187.5 75 C 166.421875 75 146.289062 76.679688 127.5 79.644531 L 127.5 52.5 L 157.5 37.5 Z M 187.5 90 C 207.960938 90 227.476562 91.671875 245.566406 94.554688 L 238.035156 117.160156 C 222.019531 114.140625 205.066406 112.5 187.5 112.5 C 169.933594 112.5 152.980469 114.140625 136.964844 117.160156 L 129.433594 94.554688 C 147.523438 91.671875 167.039062 90 187.5 90 Z M 114.519531 97.292969 L 122.199219 120.351562 C 101.894531 125.480469 83.5 132.996094 67.867188 142.457031 C 63.003906 134.671875 58.140625 126.890625 53.277344 119.105469 C 57.941406 116.394531 62.925781 113.769531 68.511719 111.34375 C 81.652344 105.628906 97.285156 100.894531 114.519531 97.292969 Z M 260.480469 97.292969 C 277.714844 100.894531 293.347656 105.628906 306.488281 111.34375 C 312.074219 113.769531 317.058594 116.394531 321.722656 119.105469 C 316.859375 126.890625 311.996094 134.671875 307.132812 142.457031 C 291.503906 132.996094 273.101562 125.480469 252.800781 120.351562 Z M 40.796875 127.410156 C 45.691406 135.242188 50.582031 143.078125 55.472656 150.910156 C 45.238281 158.601562 36.574219 167.238281 29.910156 176.734375 C 24.964844 170.332031 22.5 163.9375 22.5 157.5 C 22.5 149.476562 26.148438 141.527344 33.925781 133.535156 C 35.941406 131.464844 38.253906 129.425781 40.796875 127.410156 Z M 334.203125 127.410156 C 336.746094 129.425781 339.058594 131.464844 341.074219 133.535156 C 348.851562 141.527344 352.5 149.476562 352.5 157.5 C 352.5 163.9375 350.035156 170.332031 345.089844 176.734375 C 338.425781 167.238281 329.761719 158.601562 319.527344 150.910156 C 324.417969 143.078125 329.308594 135.242188 334.203125 127.410156 Z M 187.5 127.5 C 203.433594 127.5 218.738281 129.023438 233.1875 131.703125 L 226.113281 152.914062 C 213.757812 151.328125 201.082031 150 187.5 150 C 173.917969 150 161.246094 151.328125 148.886719 152.914062 L 141.8125 131.703125 C 156.261719 129.023438 171.566406 127.5 187.5 127.5 Z M 127.046875 134.898438 L 133.84375 155.257812 C 122.175781 157.453125 110.777344 159.917969 101.089844 163.402344 C 95.128906 165.550781 90.921875 168.582031 85.808594 171.167969 C 82.550781 165.949219 79.285156 160.738281 76.027344 155.523438 C 90.464844 146.875 107.773438 139.789062 127.046875 134.898438 Z M 247.953125 134.898438 C 267.226562 139.789062 284.535156 146.875 298.972656 155.523438 C 295.714844 160.738281 292.449219 165.949219 289.191406 171.167969 C 284.078125 168.582031 279.871094 165.550781 273.910156 163.402344 C 264.222656 159.917969 252.824219 157.453125 241.15625 155.257812 Z M 63.617188 163.945312 C 66.542969 168.625 69.46875 173.300781 72.394531 177.980469 C 64.726562 183.484375 58.878906 189.816406 55.519531 197.199219 C 49.988281 194.132812 44.984375 190.917969 40.78125 187.589844 C 46.359375 179.132812 54.082031 171.160156 63.617188 163.945312 Z M 311.382812 163.945312 C 320.917969 171.160156 328.640625 179.132812 334.21875 187.589844 C 330.015625 190.917969 325.011719 194.132812 319.480469 197.199219 C 316.121094 189.816406 310.273438 183.484375 302.605469 177.980469 C 305.53125 173.300781 308.457031 168.625 311.382812 163.945312 Z M 187.5 165 C 218.855469 165 247.464844 169.820312 268.828125 177.511719 C 289.300781 184.878906 302.304688 195.15625 306.078125 203.816406 C 276.164062 216.738281 234.050781 225 187.5 225 C 140.949219 225 98.835938 216.738281 68.921875 203.816406 C 72.691406 195.15625 85.683594 184.878906 106.15625 177.511719 C 127.523438 169.820312 156.144531 165 187.5 165 Z M 22.5 190.972656 C 22.777344 191.265625 22.890625 191.632812 23.175781 191.925781 C 32.855469 201.875 46.285156 210.347656 62.535156 217.410156 C 95.03125 231.539062 138.984375 240 187.5 240 C 236.015625 240 279.96875 231.539062 312.464844 217.410156 C 328.714844 210.347656 342.144531 201.875 351.824219 191.925781 C 352.109375 191.632812 352.222656 191.265625 352.5 190.972656 L 352.5 285 C 352.5 293.023438 348.851562 300.972656 341.074219 308.964844 C 333.296875 316.957031 321.457031 324.648438 306.488281 331.15625 C 290.121094 338.273438 269.96875 343.917969 247.5 347.636719 L 247.5 270 C 247.5 265.859375 244.140625 262.5 240 262.5 L 135 262.5 C 130.859375 262.5 127.5 265.859375 127.5 270 L 127.5 347.636719 C 105.03125 343.917969 84.878906 338.273438 68.511719 331.15625 C 53.542969 324.648438 41.703125 316.957031 33.925781 308.964844 C 26.148438 300.972656 22.5 293.023438 22.5 285 Z M 142.5 277.5 L 232.5 277.5 L 232.5 349.777344 C 218.167969 351.5 203.121094 352.5 187.5 352.5 C 171.878906 352.5 156.832031 351.5 142.5 349.777344 Z M 142.5 277.5 "/>
</g>
</svg>
