<?xml version="1.0" encoding="UTF-8"?>
<svg xmlns="http://www.w3.org/2000/svg" xmlns:xlink="http://www.w3.org/1999/xlink" width="375pt" height="375pt" viewBox="0 0 375 375" version="1.1">
<g id="surface1268">
<path style=" stroke:none;fill-rule:nonzero;fill:rgb(0%,0%,0%);fill-opacity:1;" d="M 7.5 75 L 7.5 150 C 7.5 169.109375 14.609375 179.984375 21.183594 186.003906 C 24.46875 189.015625 27.308594 191.003906 28.652344 192.363281 C 29.996094 193.722656 30 193.609375 30 195 L 30 270 C 30 286.195312 30.59375 295.875 33.074219 303.136719 C 34.316406 306.765625 36.304688 310.070312 39.390625 312.246094 C 42.476562 314.421875 46.042969 315 48.941406 315 C 52.125 315 55.933594 314.074219 58.871094 311.644531 C 61.8125 309.214844 63.535156 305.882812 64.671875 302.226562 C 66.949219 294.914062 67.5 285.246094 67.5 270 L 67.5 195 C 67.5 193.609375 67.371094 194.03125 68.628906 192.863281 C 69.882812 191.691406 72.746094 189.886719 76.097656 187.046875 C 82.804688 181.367188 90 170.652344 90 151.261719 L 90 75 Z M 322.164062 75.015625 C 318.160156 75.195312 315.003906 78.492188 315 82.5 L 315 263.761719 C 315 279.019531 315.675781 290.285156 318.003906 298.84375 C 319.164062 303.121094 320.742188 306.859375 323.570312 309.945312 C 326.398438 313.03125 330.832031 315 335.011719 315 C 340.851562 315 345.214844 310.484375 347.226562 306.460938 C 349.238281 302.4375 350.207031 297.996094 350.933594 293.128906 C 352.382812 283.398438 352.5 271.957031 352.5 262.5 L 352.5 210 C 352.5 203.003906 355.625 195.828125 359.457031 186.328125 C 363.289062 176.828125 367.5 165.113281 367.5 150 C 367.5 141.007812 366.019531 127.230469 360.117188 113.113281 C 354.214844 99 343.601562 84.488281 325.796875 75.761719 C 324.667969 75.210938 323.417969 74.957031 322.164062 75.015625 Z M 198.75 82.5 C 138.621094 82.5 90 131.121094 90 191.25 C 90 251.378906 138.621094 300 198.75 300 C 258.878906 300 307.5 251.378906 307.5 191.25 C 307.5 131.121094 258.878906 82.5 198.75 82.5 Z M 22.5 90 L 30 90 L 30 142.5 C 29.960938 145.203125 31.382812 147.71875 33.71875 149.085938 C 36.054688 150.449219 38.945312 150.449219 41.28125 149.085938 C 43.617188 147.71875 45.039062 145.203125 45 142.5 L 45 90 L 52.5 90 L 52.5 142.5 C 52.460938 145.203125 53.882812 147.71875 56.21875 149.085938 C 58.554688 150.449219 61.445312 150.449219 63.78125 149.085938 C 66.117188 147.71875 67.539062 145.203125 67.5 142.5 L 67.5 90 L 75 90 L 75 151.261719 C 75 167.492188 70.945312 171.753906 66.402344 175.605469 C 64.128906 177.53125 61.367188 179.132812 58.402344 181.890625 C 55.441406 184.644531 52.5 189.515625 52.5 195 L 52.5 270 C 52.5 284.753906 51.585938 293.835938 50.363281 297.773438 C 49.75 299.742188 49.21875 300.160156 49.320312 300.074219 C 49.425781 299.988281 49.820312 300 48.941406 300 C 47.773438 300 47.867188 299.875 48.046875 300 C 48.226562 300.125 47.871094 300.03125 47.269531 298.269531 C 46.066406 294.75 45 285.679688 45 270 L 45 195 C 45 189.515625 42.191406 184.714844 39.316406 181.816406 C 36.441406 178.917969 33.65625 177.089844 31.316406 174.945312 C 26.640625 170.65625 22.5 165.894531 22.5 150 Z M 198.75 97.5 C 250.835938 97.5 292.5 139.164062 292.5 191.25 C 292.5 243.335938 250.835938 285 198.75 285 C 146.664062 285 105 243.335938 105 191.25 C 105 139.164062 146.664062 97.5 198.75 97.5 Z M 330 97.527344 C 337.207031 103.808594 342.960938 110.945312 346.289062 118.902344 C 351.167969 130.570312 352.5 142.738281 352.5 150 C 352.5 162.386719 349.210938 171.609375 345.542969 180.703125 C 341.875 189.796875 337.5 198.867188 337.5 210 L 337.5 262.5 C 337.5 271.792969 337.296875 282.851562 336.09375 290.933594 C 335.570312 294.449219 334.785156 296.921875 334.101562 298.609375 C 333.625 297.855469 333.074219 297.097656 332.476562 294.902344 C 330.894531 289.085938 330 278.5 330 263.761719 Z M 195.089844 120.101562 C 194.917969 120.101562 194.746094 120.105469 194.574219 120.117188 C 157.132812 122.265625 127.5 153.300781 127.5 191.25 C 127.5 230.597656 159.402344 262.5 198.75 262.5 C 236.699219 262.5 267.734375 232.867188 269.882812 195.425781 C 270.121094 192.703125 268.855469 190.066406 266.585938 188.542969 C 264.3125 187.023438 261.394531 186.859375 258.96875 188.113281 C 256.539062 189.367188 254.984375 191.84375 254.910156 194.574219 C 253.207031 224.273438 228.945312 247.5 198.75 247.5 C 167.449219 247.5 142.5 222.550781 142.5 191.25 C 142.5 161.054688 165.726562 136.792969 195.425781 135.089844 C 199.441406 134.835938 202.542969 131.457031 202.449219 127.433594 C 202.359375 123.410156 199.113281 120.175781 195.089844 120.101562 Z M 195.089844 120.101562 "/>
</g>
</svg>
