<?xml version="1.0" encoding="UTF-8"?>
<svg xmlns="http://www.w3.org/2000/svg" xmlns:xlink="http://www.w3.org/1999/xlink" width="375pt" height="375pt" viewBox="0 0 375 375" version="1.1">
<g id="surface1378">
<path style=" stroke:none;fill-rule:nonzero;fill:rgb(0%,0%,0%);fill-opacity:1;" d="M 7.5 75 L 7.5 150 C 7.5 175.105469 18.222656 183.867188 25.3125 189.609375 C 29.269531 192.800781 30 193.535156 30 195 L 30 270 C 30 296.339844 27.421875 315 45 315 C 63.574219 315 60 291.09375 60 270 L 60 195 C 60 193.855469 60.089844 193.332031 64.21875 190.3125 C 71.457031 184.980469 82.5 176.953125 82.5 151.171875 L 82.5 75 L 67.5 75 L 67.5 142.5 C 67.5 146.628906 64.160156 150 60 150 C 55.839844 150 52.5 146.628906 52.5 142.5 L 52.5 75 L 37.5 75 L 37.5 142.5 C 37.5 146.628906 34.160156 150 30 150 C 25.839844 150 22.5 146.628906 22.5 142.5 L 22.5 75 Z M 329.53125 75 C 328.269531 75.058594 327.097656 75.496094 326.015625 76.171875 C 323.816406 77.550781 322.5 79.921875 322.5 82.5 L 322.5 263.671875 C 322.5 289.597656 319.042969 315 337.5 315 C 353.644531 315 352.5 290.15625 352.5 262.5 L 352.5 210 C 352.5 203.347656 355.253906 196.730469 358.359375 189.140625 C 362.667969 178.566406 367.5 166.640625 367.5 150 C 367.5 141.003906 372.949219 95.15625 333.28125 75.703125 C 332.109375 75.117188 330.792969 74.941406 329.53125 75 Z M 198.75 82.5 C 138.777344 82.5 90 131.277344 90 191.25 C 90 251.222656 138.777344 300 198.75 300 C 258.722656 300 307.5 251.222656 307.5 191.25 C 307.5 131.277344 258.722656 82.5 198.75 82.5 Z M 194.53125 120.234375 C 198.660156 120.058594 202.265625 123.136719 202.5 127.265625 C 202.734375 131.394531 199.597656 134.765625 195.46875 135 C 165.792969 136.699219 142.5 161.457031 142.5 191.25 C 142.5 222.277344 167.722656 247.5 198.75 247.5 C 228.542969 247.5 253.300781 224.207031 255 194.53125 C 255.234375 190.402344 258.605469 187.292969 262.734375 187.5 C 266.863281 187.734375 270 191.339844 269.765625 195.46875 C 267.628906 233.085938 236.484375 262.5 198.75 262.5 C 159.464844 262.5 127.5 230.535156 127.5 191.25 C 127.5 153.515625 156.914062 122.402344 194.53125 120.234375 Z M 194.53125 120.234375 "/>
</g>
</svg>
