<?xml version="1.0" encoding="UTF-8"?>
<svg xmlns="http://www.w3.org/2000/svg" xmlns:xlink="http://www.w3.org/1999/xlink" width="375pt" height="375pt" viewBox="0 0 375 375" version="1.1">
<g id="surface10243">
<path style=" stroke:none;fill-rule:nonzero;fill:rgb(100%,100%,100%);fill-opacity:1;" d="M 111.09375 37.5 C 110.683594 37.558594 110.300781 37.617188 109.921875 37.734375 L 63.984375 49.6875 C 63.839844 49.746094 63.660156 49.832031 63.515625 49.921875 C 63.515625 49.921875 41.191406 56.542969 30.234375 75.703125 C 15.175781 100.546875 0.9375 125.15625 0.9375 125.15625 C -0.117188 126.972656 -0.351562 129.140625 0.265625 131.160156 C 0.878906 133.152344 2.316406 134.792969 4.21875 135.703125 L 49.21875 156.796875 C 50.246094 157.265625 51.355469 157.527344 52.5 157.5 L 52.5 285 C 52.5 289.128906 55.871094 292.5 60 292.5 L 123.984375 292.5 L 120 318.28125 C 119.675781 320.273438 120.144531 322.324219 121.347656 323.964844 C 122.519531 325.574219 124.335938 326.660156 126.328125 326.953125 L 287.578125 352.5 C 289.570312 352.824219 291.621094 352.355469 293.261719 351.152344 C 294.871094 349.980469 295.957031 348.164062 296.25 346.171875 L 315.46875 225 L 315.703125 225.703125 C 317.199219 229.128906 321.003906 230.949219 324.609375 229.921875 L 369.609375 217.265625 C 371.601562 216.679688 373.269531 215.273438 374.207031 213.425781 C 375.144531 211.550781 375.261719 209.386719 374.53125 207.421875 C 374.53125 207.421875 363.191406 176.746094 353.4375 149.765625 L 353.671875 149.765625 C 346.289062 128.527344 324.140625 119.296875 324.140625 119.296875 C 324.140625 119.207031 324.140625 119.152344 324.140625 119.0625 L 273.515625 96.09375 C 268.769531 87.214844 267.597656 85.078125 262.5 75.46875 C 262.441406 75.351562 262.324219 75.351562 262.265625 75.234375 C 251.980469 55.078125 228.515625 48.984375 228.515625 48.984375 C 228.425781 48.984375 228.371094 48.984375 228.28125 48.984375 L 182.578125 37.734375 C 179.089844 36.824219 175.457031 38.496094 173.90625 41.71875 C 173.90625 41.71875 164.503906 60.703125 146.25 60.703125 C 127.996094 60.703125 118.59375 41.71875 118.59375 41.71875 C 117.214844 38.878906 114.230469 37.175781 111.09375 37.5 Z M 108.75 53.4375 C 112.761719 60.207031 123.253906 75.703125 146.25 75.703125 C 169.246094 75.703125 179.738281 60.207031 183.75 53.4375 L 224.53125 63.515625 L 224.765625 63.515625 C 225.117188 63.632812 242.902344 69.550781 249.140625 82.03125 C 249.140625 82.121094 249.140625 82.175781 249.140625 82.265625 C 260.917969 104.53125 271.433594 124.011719 274.6875 130.078125 L 246.09375 144.140625 L 239.53125 127.734375 C 238.242188 124.308594 234.667969 122.285156 231.066406 122.988281 C 227.460938 123.660156 224.910156 126.886719 225 130.546875 L 225 277.5 L 135.9375 277.5 C 134.0625 276.707031 131.953125 276.707031 130.078125 277.5 L 67.5 277.5 L 67.5 130.546875 C 67.589844 126.886719 65.039062 123.660156 61.433594 122.988281 C 57.832031 122.285156 54.257812 124.308594 52.96875 127.734375 L 48.28125 139.6875 L 18.28125 125.625 C 21.535156 120 30.324219 104.558594 43.125 83.4375 C 43.214844 83.347656 43.269531 83.292969 43.359375 83.203125 C 50.417969 70.871094 68.4375 64.21875 68.4375 64.21875 Z M 285.234375 117.890625 L 317.8125 132.890625 C 317.8125 132.890625 334.777344 141.445312 339.375 154.6875 C 347.839844 178.097656 355.253906 198.253906 357.65625 204.84375 L 326.71875 213.75 L 318.984375 195 C 317.636719 191.925781 314.441406 190.105469 311.132812 190.546875 C 307.824219 190.988281 305.183594 193.566406 304.6875 196.875 L 282.421875 336.328125 L 136.171875 313.359375 L 139.21875 292.5 L 232.5 292.5 C 236.628906 292.5 240 289.128906 240 285 L 240 161.71875 C 241.875 162.304688 243.894531 162.128906 245.625 161.25 L 288.28125 140.15625 C 290.128906 139.246094 291.503906 137.636719 292.121094 135.703125 C 292.734375 133.738281 292.527344 131.628906 291.5625 129.84375 C 291.5625 129.84375 286.550781 120.351562 285.234375 117.890625 Z M 143.203125 122.34375 C 134.207031 122.34375 126.855469 125.332031 122.34375 129.84375 C 117.097656 134.355469 114.84375 141.652344 114.84375 151.40625 L 132.65625 151.40625 L 132.65625 144.84375 C 132.65625 142.589844 133.535156 140.949219 134.296875 139.453125 C 135.058594 138.691406 135.847656 137.167969 137.34375 136.40625 C 138.839844 135.644531 140.246094 135 142.5 135 C 145.488281 135 147.800781 135.792969 149.296875 138.046875 C 150.792969 139.542969 151.40625 143.144531 151.40625 147.65625 C 151.40625 149.910156 151.464844 152.253906 150.703125 153.75 C 149.941406 156.003906 149.355469 157.410156 148.59375 158.90625 C 147.097656 160.402344 146.339844 161.894531 144.84375 162.65625 C 143.347656 163.417969 141.707031 164.296875 139.453125 164.296875 L 132.65625 164.296875 L 132.65625 176.953125 L 139.453125 176.953125 C 142.441406 176.953125 144.753906 177.832031 146.25 178.59375 C 147.746094 179.355469 149.238281 180.847656 150 182.34375 C 150.761719 183.839844 151.40625 185.246094 151.40625 187.5 C 152.167969 188.996094 152.34375 191.339844 152.34375 193.59375 L 152.34375 199.453125 C 152.34375 201.707031 151.464844 203.347656 150.703125 204.84375 C 149.941406 206.339844 149.152344 207.832031 147.65625 208.59375 C 146.160156 209.355469 144.050781 210 141.796875 210 C 138.046875 210 135.089844 208.535156 133.59375 205.546875 C 132.097656 202.558594 131.25 197.957031 131.25 191.953125 L 112.5 191.953125 L 112.5 192.65625 C 112.5 202.410156 114.785156 210.089844 119.296875 216.09375 C 123.808594 221.339844 130.402344 223.59375 140.15625 223.59375 C 146.894531 223.59375 152.285156 222.042969 156.796875 220.546875 C 160.546875 219.050781 164.152344 216.738281 166.40625 213.75 C 168.660156 210.761719 170.332031 207.65625 171.09375 203.90625 L 173.203125 192.65625 C 173.203125 185.917969 171.707031 181.464844 169.453125 176.953125 C 166.464844 173.203125 162.097656 170.214844 156.09375 169.453125 C 161.339844 167.957031 165.089844 165.703125 167.34375 161.953125 C 169.597656 158.203125 171.09375 153.660156 171.09375 147.65625 C 171.09375 138.660156 168.839844 131.953125 163.59375 128.203125 C 159.082031 124.453125 152.199219 122.34375 143.203125 122.34375 Z M 143.203125 122.34375 "/>
</g>
</svg>
