<?xml version="1.0" encoding="UTF-8"?>
<svg xmlns="http://www.w3.org/2000/svg" xmlns:xlink="http://www.w3.org/1999/xlink" width="375pt" height="375pt" viewBox="0 0 375 375" version="1.1">
<g id="surface10289">
<path style=" stroke:none;fill-rule:nonzero;fill:rgb(100%,100%,100%);fill-opacity:1;" d="M 112.5 37.5 C 111.652344 37.410156 110.800781 37.5 109.921875 37.734375 L 63.515625 49.921875 C 62.578125 50.246094 40.429688 57.832031 30.234375 75.703125 C 15.351562 100.253906 1.082031 124.894531 0.9375 125.15625 C -0.117188 126.972656 -0.410156 129.257812 0.234375 131.25 C 0.878906 133.242188 2.316406 134.824219 4.21875 135.703125 L 49.21875 156.796875 C 50.214844 157.265625 51.417969 157.5 52.5 157.5 L 52.5 285 C 52.5 289.160156 55.871094 292.5 60 292.5 L 232.5 292.5 C 236.660156 292.5 240 289.160156 240 285 L 240 161.71875 C 241.847656 162.304688 243.894531 162.097656 245.625 161.25 L 288.28125 140.15625 C 290.097656 139.246094 291.417969 137.636719 292.03125 135.703125 C 292.644531 133.769531 292.527344 131.628906 291.5625 129.84375 C 291.5625 129.84375 275.917969 100.808594 262.5 75.46875 C 252.890625 56.25 229.542969 49.335938 228.28125 48.984375 L 182.578125 37.734375 C 179.179688 36.914062 175.457031 38.554688 173.90625 41.71875 C 173.527344 42.511719 164.386719 60.703125 146.25 60.703125 C 128.113281 60.703125 118.972656 42.480469 118.59375 41.71875 C 117.421875 39.285156 115.050781 37.734375 112.5 37.5 Z M 296.015625 106.40625 C 301.261719 116.191406 304.921875 122.8125 304.921875 122.8125 C 307.824219 128.175781 308.175781 134.589844 306.328125 140.390625 C 304.480469 146.160156 300.292969 151.054688 294.84375 153.75 L 255 173.203125 L 255 285 C 255 297.394531 244.894531 307.5 232.5 307.5 L 121.640625 307.5 L 120 318.28125 C 119.386719 322.355469 122.253906 326.308594 126.328125 326.953125 L 287.578125 352.5 C 287.957031 352.558594 288.371094 352.5 288.75 352.5 C 290.332031 352.5 291.914062 352.03125 293.203125 351.09375 C 294.816406 349.921875 295.957031 348.136719 296.25 346.171875 L 315.234375 225 L 315.703125 225.703125 C 317.167969 229.191406 320.976562 230.976562 324.609375 229.921875 L 369.609375 217.265625 C 371.628906 216.707031 373.125 215.363281 374.0625 213.515625 C 375.027344 211.640625 375.261719 209.386719 374.53125 207.421875 C 374.53125 207.421875 363.398438 176.660156 353.671875 149.765625 C 346.699219 129.726562 325.078125 119.503906 324.140625 119.0625 Z M 143.203125 122.34375 C 152.199219 122.34375 159.082031 124.453125 163.59375 128.203125 C 168.839844 131.953125 171.09375 138.660156 171.09375 147.65625 C 171.09375 153.660156 169.597656 158.203125 167.34375 161.953125 C 165.089844 165.703125 161.339844 167.957031 156.09375 169.453125 C 162.097656 170.214844 166.464844 173.203125 169.453125 176.953125 C 171.707031 181.464844 173.203125 185.917969 173.203125 192.65625 L 171.09375 203.90625 C 170.332031 207.65625 168.660156 210.730469 166.40625 213.75 C 164.152344 216.738281 160.546875 219.050781 156.796875 220.546875 C 152.285156 222.042969 146.894531 223.59375 140.15625 223.59375 C 130.402344 223.59375 123.808594 221.339844 119.296875 216.09375 C 114.785156 210.089844 112.5 202.410156 112.5 192.65625 L 112.5 191.953125 L 131.25 191.953125 C 131.25 197.957031 132.097656 202.527344 133.59375 205.546875 C 135.089844 208.535156 138.046875 210 141.796875 210 C 144.050781 210 146.160156 209.355469 147.65625 208.59375 C 149.152344 207.832031 149.941406 206.339844 150.703125 204.84375 C 151.464844 203.347656 152.34375 201.707031 152.34375 199.453125 L 152.34375 193.59375 C 152.34375 191.339844 152.167969 188.996094 151.40625 187.5 C 151.40625 185.246094 150.761719 183.839844 150 182.34375 C 149.238281 180.847656 147.746094 179.355469 146.25 178.59375 C 144.753906 177.832031 142.441406 176.953125 139.453125 176.953125 L 132.65625 176.953125 L 132.65625 164.296875 L 139.453125 164.296875 C 141.707031 164.296875 143.347656 163.417969 144.84375 162.65625 C 146.339844 161.894531 147.097656 160.402344 148.59375 158.90625 C 149.355469 157.410156 149.941406 156.003906 150.703125 153.75 C 151.464844 152.253906 151.40625 149.910156 151.40625 147.65625 C 151.40625 143.144531 150.792969 139.542969 149.296875 138.046875 C 147.800781 135.792969 145.488281 135 142.5 135 C 140.246094 135 138.839844 135.644531 137.34375 136.40625 C 135.847656 137.167969 135.058594 138.691406 134.296875 139.453125 C 133.535156 140.949219 132.65625 142.589844 132.65625 144.84375 L 132.65625 151.40625 L 114.84375 151.40625 C 114.84375 141.652344 117.097656 134.355469 122.34375 129.84375 C 126.855469 125.332031 134.207031 122.34375 143.203125 122.34375 Z M 143.203125 122.34375 "/>
</g>
</svg>
