<?xml version="1.0" encoding="UTF-8"?>
<svg xmlns="http://www.w3.org/2000/svg" xmlns:xlink="http://www.w3.org/1999/xlink" width="375pt" height="375pt" viewBox="0 0 375 375" version="1.1">
<g id="surface889">
<path style=" stroke:none;fill-rule:nonzero;fill:rgb(0%,0%,0%);fill-opacity:1;" d="M 346.027344 49.140625 C 340.402344 44.371094 331.566406 43.6875 322.433594 47.355469 L 322.417969 47.355469 C 312.808594 51.210938 50.460938 163.738281 39.78125 168.335938 C 37.835938 169.011719 20.871094 175.34375 22.621094 189.441406 C 24.179688 202.15625 37.816406 207.421875 39.480469 208.027344 L 106.175781 230.863281 C 110.601562 245.59375 126.914062 299.941406 130.523438 311.550781 C 132.773438 318.789062 136.441406 328.296875 142.867188 330.253906 C 148.507812 332.429688 154.117188 330.441406 157.746094 327.59375 L 198.523438 289.769531 L 264.351562 341.109375 L 265.921875 342.046875 C 270.390625 344.023438 274.671875 345.015625 278.761719 345.015625 C 281.917969 345.015625 284.949219 344.421875 287.84375 343.238281 C 297.703125 339.1875 301.648438 329.789062 302.0625 328.726562 L 351.234375 73.148438 C 354.234375 59.496094 350.0625 52.550781 346.027344 49.140625 Z M 165 240 L 142.5 300 L 120 225 L 292.5 97.5 Z M 165 240 "/>
</g>
</svg>
