<?xml version="1.0" encoding="UTF-8"?>
<svg xmlns="http://www.w3.org/2000/svg" xmlns:xlink="http://www.w3.org/1999/xlink" width="375pt" height="375pt" viewBox="0 0 375 375" version="1.1">
<g id="surface909">
<path style=" stroke:none;fill-rule:nonzero;fill:rgb(0%,0%,0%);fill-opacity:1;" d="M 332.828125 44.898438 C 329.175781 45.058594 325.617188 46.074219 322.410156 47.359375 C 319.238281 48.632812 300.964844 56.433594 273.984375 67.96875 C 247.003906 79.503906 211.925781 94.527344 177.160156 109.425781 C 107.621094 139.214844 39.289062 168.53125 39.285156 168.53125 L 39.785156 168.339844 C 39.785156 168.339844 35.660156 169.71875 31.480469 172.632812 C 29.390625 174.089844 27.140625 175.96875 25.296875 178.710938 C 23.457031 181.453125 22.109375 185.339844 22.617188 189.449219 C 24.398438 203.882812 39.359375 207.980469 39.359375 207.980469 L 39.417969 208.007812 L 106.1875 230.859375 C 107.890625 236.539062 126.4375 298.445312 130.519531 311.558594 C 132.769531 318.804688 134.878906 322.988281 137.082031 325.839844 C 138.179688 327.265625 139.335938 328.371094 140.609375 329.179688 C 141.117188 329.5 141.648438 329.742188 142.175781 329.957031 C 142.1875 329.960938 142.195312 329.949219 142.207031 329.957031 C 142.273438 329.984375 142.332031 329.988281 142.398438 330.015625 L 142.222656 329.972656 C 142.34375 330.019531 142.464844 330.101562 142.589844 330.144531 C 142.824219 330.230469 142.972656 330.226562 143.277344 330.292969 C 150.921875 332.960938 157.25 328.007812 157.25 328.007812 L 157.515625 327.800781 L 198.53125 289.761719 L 265.09375 341.660156 L 265.925781 342.042969 C 277.578125 347.214844 288.113281 344.328125 293.949219 339.582031 C 299.785156 334.832031 302.082031 328.710938 302.082031 328.710938 L 302.328125 328.066406 L 351.238281 73.140625 C 352.492188 67.4375 352.667969 62.507812 351.488281 58.050781 C 350.308594 53.597656 347.441406 49.722656 343.84375 47.578125 C 340.246094 45.433594 336.480469 44.738281 332.828125 44.898438 Z M 333.222656 60.144531 C 334.707031 60.078125 335.804688 60.246094 336.152344 60.453125 C 336.5 60.660156 336.65625 60.632812 336.988281 61.890625 C 337.320312 63.144531 337.5 65.792969 336.589844 69.933594 L 336.5625 70.019531 L 287.929688 323.464844 C 287.816406 323.722656 286.800781 326.066406 284.488281 327.949219 C 282.125 329.871094 279.5 331.371094 272.535156 328.449219 L 199.746094 271.683594 L 197.695312 270.074219 L 197.652344 270.117188 L 175.882812 253.785156 L 298.214844 109.863281 C 300.132812 107.609375 300.546875 104.4375 299.273438 101.765625 C 297.996094 99.09375 295.269531 97.421875 292.308594 97.5 C 290.894531 97.535156 289.519531 97.972656 288.339844 98.761719 L 111.328125 216.769531 L 44.457031 193.871094 C 44.457031 193.871094 37.816406 190.175781 37.5 187.601562 C 37.480469 187.460938 37.402344 187.589844 37.75 187.074219 C 38.09375 186.5625 38.960938 185.695312 40.050781 184.9375 C 42.222656 183.421875 44.707031 182.503906 44.707031 182.503906 L 44.957031 182.417969 L 45.207031 182.316406 C 45.207031 182.316406 113.542969 153 183.074219 123.207031 C 217.84375 108.3125 252.914062 93.300781 279.886719 81.769531 C 306.855469 70.238281 326.34375 61.9375 327.992188 61.273438 C 329.871094 60.523438 331.738281 60.214844 333.222656 60.144531 Z M 252.097656 140.949219 L 159.332031 250.09375 L 159.285156 250.136719 C 159.140625 250.3125 159.003906 250.492188 158.878906 250.679688 C 158.730469 250.882812 158.59375 251.09375 158.464844 251.308594 C 157.945312 252.191406 157.613281 253.175781 157.484375 254.195312 C 157.484375 254.214844 157.484375 254.234375 157.484375 254.253906 L 145.402344 308.597656 C 145.199219 308.011719 145.058594 307.796875 144.84375 307.105469 L 144.84375 307.089844 C 141.003906 294.757812 123.503906 236.371094 121.082031 228.296875 Z M 169.804688 267.980469 L 186.472656 280.488281 L 161.980469 303.191406 Z M 169.804688 267.980469 "/>
</g>
</svg>
