<?xml version="1.0" encoding="UTF-8"?>
<svg xmlns="http://www.w3.org/2000/svg" xmlns:xlink="http://www.w3.org/1999/xlink" width="375pt" height="375pt" viewBox="0 0 375 375" version="1.1">
<g id="surface7623">
<path style=" stroke:none;fill-rule:nonzero;fill:rgb(100%,100%,100%);fill-opacity:1;" d="M 187.5 7.5 C 160.519531 7.5 138.398438 17.722656 125.390625 36.09375 C 111.269531 56.015625 108.691406 84.316406 118.125 114.375 C 115.136719 118.386719 112.734375 124.6875 113.4375 133.125 C 115.664062 149.355469 121.757812 155.949219 126.796875 158.671875 C 129.347656 172.207031 136.582031 186.355469 143.203125 193.125 C 143.230469 194.792969 142.558594 212.226562 142.5 212.34375 L 142.5 270 C 137.019531 270 131.925781 271.640625 127.5 274.21875 L 127.5 225.9375 C 121.261719 229.246094 113.761719 232.355469 105.703125 235.546875 C 76.433594 247.148438 40.019531 261.5625 37.5 307.5 L 37.5 375 L 337.5 375 L 337.5 307.03125 C 334.980469 261.355469 298.386719 246.886719 269.0625 235.3125 C 261.09375 232.148438 253.738281 229.21875 247.5 225.9375 L 247.5 274.21875 C 243.074219 271.640625 237.980469 270 232.5 270 L 232.5 213.515625 C 232.238281 213.046875 231.09375 200.800781 231.09375 193.125 C 237.597656 186.269531 244.394531 171.914062 247.265625 158.90625 C 252.65625 156.355469 259.308594 149.792969 260.859375 132.65625 C 261.589844 124.128906 259.425781 117.890625 256.171875 113.90625 C 260.566406 98.4375 267.65625 64.074219 253.359375 41.953125 C 247.03125 32.136719 237.597656 26.132812 225 23.90625 C 217.589844 13.886719 203.320312 7.5 187.5 7.5 Z M 168.75 270.703125 L 206.25 270.703125 C 209.238281 270.703125 212.285156 272.902344 213.046875 275.15625 L 217.5 285 L 232.5 285 C 240.761719 285 247.5 291.738281 247.5 300 L 247.5 345 C 247.5 353.261719 240.761719 360 232.5 360 L 142.5 360 C 134.238281 360 127.5 353.261719 127.5 345 L 127.5 300 C 127.5 298.972656 127.527344 297.917969 127.734375 296.953125 C 129.140625 290.128906 135.292969 285 142.5 285 L 158.203125 285 L 161.953125 275.15625 C 163.449219 272.167969 165.761719 270.703125 168.75 270.703125 Z M 187.5 300 C 175.078125 300 165 310.078125 165 322.5 C 165 334.921875 175.078125 345 187.5 345 C 199.921875 345 210 334.921875 210 322.5 C 210 310.078125 199.921875 300 187.5 300 Z M 187.5 300 "/>
</g>
</svg>
