<?xml version="1.0" encoding="UTF-8"?>
<svg xmlns="http://www.w3.org/2000/svg" xmlns:xlink="http://www.w3.org/1999/xlink" width="375pt" height="375pt" viewBox="0 0 375 375" version="1.1">
<g id="surface7535">
<path style=" stroke:none;fill-rule:nonzero;fill:rgb(100%,100%,100%);fill-opacity:1;" d="M 187.5 7.5 C 157.355469 7.5 134.0625 20.246094 122.109375 41.015625 C 110.742188 60.761719 109.863281 86.953125 118.59375 114.609375 C 115.285156 118.710938 112.5 124.277344 113.203125 132.65625 L 113.203125 133.125 C 114.464844 142.265625 117.214844 148.710938 120.703125 153.28125 C 122.402344 155.507812 124.921875 155.566406 127.03125 156.796875 C 128.292969 164.910156 130.691406 172.910156 134.0625 179.53125 C 135.964844 183.28125 137.871094 186.589844 139.921875 189.375 C 140.859375 190.664062 142.207031 191.367188 143.203125 192.421875 C 143.320312 200.332031 143.644531 202.707031 142.5 212.109375 C 140.246094 217.792969 134.621094 222.332031 125.625 226.875 C 116.222656 231.621094 103.917969 235.988281 91.40625 241.40625 C 78.894531 246.824219 66.210938 253.332031 56.015625 263.671875 C 45.820312 274.011719 38.527344 288.339844 37.5 307.03125 L 37.5 367.5 L 52.5 367.5 L 52.5 307.5 C 53.4375 292.355469 58.683594 282.246094 66.5625 274.21875 C 74.53125 266.105469 85.722656 260.332031 97.5 255.234375 C 107.550781 250.898438 117.917969 247.207031 127.5 242.8125 L 127.5 270 L 142.5 270 L 142.5 234.375 C 149.003906 229.714844 154.363281 223.917969 157.03125 216.09375 L 157.5 214.6875 C 159.050781 202.355469 158.203125 200.769531 158.203125 189.84375 L 158.203125 185.390625 L 154.453125 183.28125 C 155.011719 183.605469 153.542969 182.402344 152.109375 180.46875 C 150.675781 178.535156 148.972656 175.839844 147.421875 172.734375 C 144.285156 166.550781 141.472656 158.847656 140.859375 152.34375 L 140.390625 145.546875 L 134.0625 145.546875 C 133.800781 145.429688 133.097656 145.050781 132.421875 144.140625 C 131.105469 142.410156 129.230469 138.371094 128.203125 131.484375 C 128.203125 131.339844 128.203125 131.394531 128.203125 131.25 C 128.175781 131.132812 128.230469 131.132812 128.203125 131.015625 C 128.085938 125.332031 131.601562 122.167969 131.015625 122.578125 L 135.703125 119.296875 L 133.828125 113.671875 C 124.597656 87.449219 126.003906 64.511719 135.234375 48.515625 C 144.464844 32.519531 161.394531 22.5 187.5 22.5 C 201.738281 22.5 211.261719 29.441406 213.984375 34.453125 L 215.859375 37.734375 L 219.609375 38.203125 C 229.628906 39.347656 235.285156 42.949219 239.296875 48.046875 C 243.308594 53.144531 245.769531 60.324219 246.5625 68.4375 C 248.175781 84.667969 243.632812 104.0625 240.46875 113.90625 L 238.359375 120 L 243.984375 123.046875 C 243.925781 123.253906 246.386719 125.742188 246.09375 131.25 C 246.09375 131.367188 246.09375 131.367188 246.09375 131.484375 C 245.390625 138.542969 243.574219 142.527344 242.34375 144.140625 C 241.082031 145.78125 240.441406 145.546875 240.703125 145.546875 L 234.140625 145.546875 L 233.4375 151.875 C 232.472656 158.644531 229.714844 166.496094 226.640625 172.734375 C 225.117188 175.839844 223.332031 178.800781 221.953125 180.703125 C 220.574219 182.605469 219.230469 183.632812 219.84375 183.28125 L 216.09375 185.390625 L 216.09375 189.84375 C 216.09375 201.09375 216.035156 202.207031 216.796875 214.21875 L 216.796875 215.390625 L 217.265625 216.328125 C 220.222656 224.0625 225.878906 229.746094 232.5 234.375 L 232.5 270 L 247.5 270 L 247.5 242.8125 C 257.167969 247.207031 267.683594 250.898438 277.734375 255.234375 C 289.511719 260.332031 300.496094 266.105469 308.4375 274.21875 C 316.289062 282.246094 321.5625 292.355469 322.5 307.5 L 322.5 367.5 L 337.5 367.5 L 337.5 307.03125 C 336.472656 288.339844 329.355469 274.042969 319.21875 263.671875 C 309.082031 253.300781 296.339844 246.824219 283.828125 241.40625 C 271.316406 235.988281 258.925781 231.652344 249.375 226.875 C 240.117188 222.246094 234.316406 217.527344 231.796875 211.640625 C 231.269531 202.96875 231.09375 199.894531 231.09375 192.1875 C 231.972656 191.191406 233.292969 190.546875 234.140625 189.375 C 236.132812 186.589844 238.152344 183.253906 240 179.53125 C 243.253906 172.96875 245.742188 164.910156 247.265625 157.03125 C 249.667969 155.800781 252.421875 155.714844 254.296875 153.28125 C 257.902344 148.566406 260.011719 141.855469 260.859375 132.65625 C 261.535156 124.660156 259.101562 118.945312 255.46875 114.609375 C 258.925781 103.007812 263.113281 84.988281 261.328125 66.796875 C 260.332031 56.808594 257.695312 46.816406 251.25 38.671875 C 245.214844 31.054688 235.546875 25.808594 223.59375 23.90625 C 216.417969 14.472656 204.082031 7.5 187.5 7.5 Z M 168.75 263.203125 C 163.242188 263.203125 157.792969 267.097656 155.390625 271.875 L 155.15625 272.109375 L 154.921875 272.578125 L 153.046875 277.5 L 142.5 277.5 C 130.167969 277.5 120 287.667969 120 300 L 120 345 C 120 357.332031 130.167969 367.5 142.5 367.5 L 232.5 367.5 C 244.832031 367.5 255 357.332031 255 345 L 255 300 C 255 287.667969 244.832031 277.5 232.5 277.5 L 222.1875 277.5 L 220.078125 272.8125 L 219.84375 272.109375 L 219.609375 272.109375 C 218.464844 269.386719 216.769531 267.449219 214.6875 266.015625 C 212.371094 264.433594 209.621094 263.203125 206.25 263.203125 Z M 168.984375 278.203125 L 206.015625 278.203125 C 206.042969 278.261719 206.191406 278.378906 206.25 278.4375 L 210.703125 288.046875 L 212.8125 292.5 L 232.5 292.5 C 236.660156 292.5 240 295.839844 240 300 L 240 345 C 240 349.160156 236.660156 352.5 232.5 352.5 L 142.5 352.5 C 138.339844 352.5 135 349.160156 135 345 L 135 300 C 135 295.839844 138.339844 292.5 142.5 292.5 L 163.359375 292.5 L 165.234375 287.578125 L 168.75 278.671875 C 168.894531 278.378906 168.984375 278.292969 168.984375 278.203125 Z M 187.5 300 C 175.078125 300 165 310.078125 165 322.5 C 165 334.921875 175.078125 345 187.5 345 C 199.921875 345 210 334.921875 210 322.5 C 210 310.078125 199.921875 300 187.5 300 Z M 187.5 300 "/>
</g>
</svg>
