<?xml version="1.0" encoding="UTF-8"?>
<svg xmlns="http://www.w3.org/2000/svg" xmlns:xlink="http://www.w3.org/1999/xlink" width="375pt" height="375pt" viewBox="0 0 375 375" version="1.1">
<g id="surface5414">
<path style=" stroke:none;fill-rule:nonzero;fill:rgb(0%,0%,0%);fill-opacity:1;" d="M 146.25 0 C 133.066406 0 122.316406 9.816406 120.46875 22.5 L 112.5 22.5 C 83.554688 22.5 60 45.117188 60 72.890625 L 60 287.109375 C 60 306.445312 71.394531 323.203125 88.125 331.640625 L 52.03125 361.640625 C 48.808594 364.308594 48.308594 369.082031 50.976562 372.304688 C 53.644531 375.527344 58.417969 376.027344 61.640625 373.359375 L 105 337.03125 C 107.460938 337.382812 109.949219 337.5 112.5 337.5 L 262.5 337.5 C 265.050781 337.5 267.539062 337.382812 270 337.03125 L 313.359375 373.359375 C 316.582031 376.027344 321.355469 375.527344 324.023438 372.304688 C 326.691406 369.082031 326.191406 364.308594 322.96875 361.640625 L 286.875 331.640625 C 303.605469 323.203125 315 306.445312 315 287.109375 L 315 72.890625 C 315 45.117188 291.445312 22.5 262.5 22.5 L 254.53125 22.5 C 252.683594 9.816406 241.933594 0 228.75 0 C 215.566406 0 204.816406 9.816406 202.96875 22.5 L 172.03125 22.5 C 170.183594 9.816406 159.433594 0 146.25 0 Z M 146.25 15 C 152.460938 15 157.5 20.039062 157.5 26.25 C 157.5 32.460938 152.460938 37.5 146.25 37.5 C 140.039062 37.5 135 32.460938 135 26.25 C 135 20.039062 140.039062 15 146.25 15 Z M 228.75 15 C 234.960938 15 240 20.039062 240 26.25 C 240 32.460938 234.960938 37.5 228.75 37.5 C 222.539062 37.5 217.5 32.460938 217.5 26.25 C 217.5 20.039062 222.539062 15 228.75 15 Z M 142.5 75 L 232.5 75 C 236.660156 75 240 78.371094 240 82.5 L 240 97.5 L 135 97.5 L 135 82.5 C 135 78.371094 138.371094 75 142.5 75 Z M 112.5 112.5 L 262.5 112.5 C 270.792969 112.5 277.5 118.738281 277.5 126.328125 L 277.5 181.171875 C 277.5 188.761719 270.792969 195 262.5 195 L 112.5 195 C 104.207031 195 97.5 188.761719 97.5 181.171875 L 97.5 126.328125 C 97.5 118.738281 104.207031 112.5 112.5 112.5 Z M 120 247.5 C 132.421875 247.5 142.5 257.578125 142.5 270 C 142.5 282.421875 132.421875 292.5 120 292.5 C 107.578125 292.5 97.5 282.421875 97.5 270 C 97.5 257.578125 107.578125 247.5 120 247.5 Z M 255 247.5 C 267.421875 247.5 277.5 257.578125 277.5 270 C 277.5 282.421875 267.421875 292.5 255 292.5 C 242.578125 292.5 232.5 282.421875 232.5 270 C 232.5 257.578125 242.578125 247.5 255 247.5 Z M 255 247.5 "/>
</g>
</svg>
