<?xml version="1.0" encoding="UTF-8"?>
<svg xmlns="http://www.w3.org/2000/svg" xmlns:xlink="http://www.w3.org/1999/xlink" width="375pt" height="375pt" viewBox="0 0 375 375" version="1.1">
<g id="surface5310">
<path style=" stroke:none;fill-rule:nonzero;fill:rgb(0%,0%,0%);fill-opacity:1;" d="M 146.25 0 C 133.152344 0 122.109375 9.902344 120.234375 22.5 L 112.5 22.5 C 83.789062 22.5 60 44.972656 60 72.890625 L 60 287.109375 C 60 306.472656 71.511719 323.203125 88.125 331.640625 L 52.03125 361.640625 C 48.808594 364.308594 48.308594 369.082031 50.976562 372.304688 C 53.644531 375.527344 58.417969 376.027344 61.640625 373.359375 L 105 337.03125 C 107.433594 337.355469 109.980469 337.5 112.5 337.5 L 262.5 337.5 C 265.019531 337.5 267.566406 337.355469 270 337.03125 L 313.359375 373.359375 C 316.582031 376.027344 321.355469 375.527344 324.023438 372.304688 C 326.691406 369.082031 326.191406 364.308594 322.96875 361.640625 L 286.875 331.640625 C 303.488281 323.203125 315 306.472656 315 287.109375 L 315 72.890625 C 315 44.972656 291.210938 22.5 262.5 22.5 L 254.765625 22.5 C 252.890625 9.902344 241.847656 0 228.75 0 C 215.652344 0 204.609375 9.902344 202.734375 22.5 L 172.265625 22.5 C 170.390625 9.902344 159.347656 0 146.25 0 Z M 146.25 15 C 152.550781 15 157.5 19.949219 157.5 26.25 C 157.5 32.550781 152.550781 37.5 146.25 37.5 C 139.949219 37.5 135 32.550781 135 26.25 C 135 19.949219 139.949219 15 146.25 15 Z M 228.75 15 C 235.050781 15 240 19.949219 240 26.25 C 240 32.550781 235.050781 37.5 228.75 37.5 C 223.386719 37.5 218.933594 34.011719 217.734375 29.0625 C 217.734375 28.917969 217.734375 28.738281 217.734375 28.59375 C 217.734375 28.535156 217.734375 28.449219 217.734375 28.359375 C 217.617188 27.683594 217.5 26.953125 217.5 26.25 C 217.5 19.949219 222.449219 15 228.75 15 Z M 112.5 37.5 L 122.8125 37.5 C 127.089844 46.230469 135.9375 52.5 146.25 52.5 C 156.5625 52.5 165.410156 46.230469 169.6875 37.5 L 205.3125 37.5 C 209.589844 46.230469 218.4375 52.5 228.75 52.5 C 239.0625 52.5 247.910156 46.230469 252.1875 37.5 L 262.5 37.5 C 283.476562 37.5 300 53.496094 300 72.890625 L 300 287.109375 C 300 306.503906 283.476562 322.5 262.5 322.5 L 112.5 322.5 C 91.523438 322.5 75 306.503906 75 287.109375 L 75 72.890625 C 75 53.496094 91.523438 37.5 112.5 37.5 Z M 142.5 67.5 C 134.296875 67.5 127.5 74.296875 127.5 82.5 L 127.5 97.5 L 112.5 97.5 C 100.488281 97.5 90 106.816406 90 118.828125 L 90 181.171875 C 90 193.183594 100.488281 202.5 112.5 202.5 L 262.5 202.5 C 274.511719 202.5 285 193.183594 285 181.171875 L 285 118.828125 C 285 106.816406 274.511719 97.5 262.5 97.5 L 247.5 97.5 L 247.5 82.5 C 247.5 74.296875 240.703125 67.5 232.5 67.5 Z M 142.5 82.5 L 232.5 82.5 L 232.5 97.5 L 142.5 97.5 Z M 112.5 112.5 L 262.5 112.5 C 267.070312 112.5 270 115.664062 270 118.828125 L 270 181.171875 C 270 184.335938 267.070312 187.5 262.5 187.5 L 112.5 187.5 C 107.929688 187.5 105 184.335938 105 181.171875 L 105 118.828125 C 105 115.664062 107.929688 112.5 112.5 112.5 Z M 120 240 C 103.503906 240 90 253.503906 90 270 C 90 286.496094 103.503906 300 120 300 C 136.496094 300 150 286.496094 150 270 C 150 253.503906 136.496094 240 120 240 Z M 255 240 C 238.503906 240 225 253.503906 225 270 C 225 286.496094 238.503906 300 255 300 C 271.496094 300 285 286.496094 285 270 C 285 253.503906 271.496094 240 255 240 Z M 120 255 C 128.378906 255 135 261.621094 135 270 C 135 278.378906 128.378906 285 120 285 C 111.621094 285 105 278.378906 105 270 C 105 261.621094 111.621094 255 120 255 Z M 255 255 C 263.378906 255 270 261.621094 270 270 C 270 278.378906 263.378906 285 255 285 C 246.621094 285 240 278.378906 240 270 C 240 261.621094 246.621094 255 255 255 Z M 255 255 "/>
</g>
</svg>
