<?xml version="1.0" encoding="UTF-8"?>
<svg xmlns="http://www.w3.org/2000/svg" xmlns:xlink="http://www.w3.org/1999/xlink" width="375pt" height="375pt" viewBox="0 0 375 375" version="1.1">
<g id="surface737">
<path style=" stroke:none;fill-rule:nonzero;fill:rgb(0%,0%,0%);fill-opacity:1;" d="M 256.640625 41.015625 C 211.785156 41.015625 175.3125 77.488281 175.3125 122.34375 C 175.3125 125.039062 175.988281 127.675781 176.25 130.3125 C 120.792969 125.011719 71.746094 98.292969 38.4375 57.421875 C 36.886719 55.457031 34.480469 54.402344 31.964844 54.582031 C 29.472656 54.753906 27.246094 56.191406 26.015625 58.359375 C 19.011719 70.402344 15 84.257812 15 99.140625 C 15 117.160156 21.445312 133.652344 31.40625 147.1875 C 29.472656 146.339844 27.363281 145.871094 25.546875 144.84375 C 23.230469 143.613281 20.449219 143.671875 18.191406 145.019531 C 15.9375 146.367188 14.558594 148.800781 14.53125 151.40625 L 14.53125 152.34375 C 14.53125 179.972656 28.828125 203.964844 49.921875 218.671875 C 49.6875 218.644531 49.453125 218.730469 49.21875 218.671875 C 46.640625 218.230469 44.035156 219.140625 42.304688 221.105469 C 40.574219 223.066406 40.019531 225.792969 40.78125 228.28125 C 49.160156 254.324219 70.546875 274.21875 97.03125 281.484375 C 75.9375 294.023438 51.472656 301.40625 25.078125 301.40625 C 19.363281 301.40625 13.886719 301.113281 8.4375 300.46875 C 4.921875 300 1.550781 302.050781 0.382812 305.390625 C -0.820312 308.730469 0.5 312.449219 3.515625 314.296875 C 37.355469 336.003906 77.519531 348.75 120.703125 348.75 C 190.691406 348.75 245.597656 319.511719 282.421875 277.734375 C 319.246094 235.957031 338.4375 181.699219 338.4375 131.015625 C 338.4375 128.878906 338.261719 126.796875 338.203125 124.6875 C 351.941406 114.167969 364.21875 101.835938 373.828125 87.421875 C 375.730469 84.636719 375.527344 80.917969 373.332031 78.339844 C 371.160156 75.761719 367.5 74.972656 364.453125 76.40625 C 360.585938 78.136719 356.074219 78.308594 352.03125 79.6875 C 357.363281 72.566406 361.933594 64.894531 364.6875 56.25 C 365.625 53.292969 364.597656 50.039062 362.167969 48.105469 C 359.738281 46.199219 356.339844 45.964844 353.671875 47.578125 C 340.871094 55.167969 326.691406 60.496094 311.71875 63.75 C 297.1875 50.15625 278.058594 41.015625 256.640625 41.015625 Z M 256.640625 56.015625 C 275.769531 56.015625 293.058594 64.191406 305.15625 77.109375 C 306.972656 78.984375 309.636719 79.777344 312.1875 79.21875 C 321.972656 77.285156 331.261719 74.441406 340.3125 70.78125 C 335.097656 77.8125 328.652344 83.816406 321.09375 88.359375 C 317.667969 90.027344 316.054688 93.984375 317.316406 97.589844 C 318.542969 101.160156 322.292969 103.242188 326.015625 102.421875 C 333.515625 101.511719 340.195312 98.464844 347.34375 96.5625 C 340.925781 103.503906 333.894531 109.777344 326.25 115.3125 C 324.167969 116.835938 323.027344 119.296875 323.203125 121.875 C 323.320312 124.921875 323.4375 127.941406 323.4375 131.015625 C 323.4375 177.890625 305.449219 228.777344 271.171875 267.65625 C 236.894531 306.535156 186.5625 333.75 120.703125 333.75 C 90.792969 333.75 62.550781 327.128906 37.03125 315.46875 C 68.671875 313.035156 97.851562 301.847656 121.40625 283.359375 C 123.867188 281.394531 124.832031 278.113281 123.839844 275.128906 C 122.839844 272.136719 120.089844 270.089844 116.953125 270 C 92.226562 269.558594 71.511719 255.175781 60.46875 234.84375 C 60.878906 234.84375 61.230469 234.84375 61.640625 234.84375 C 69.050781 234.84375 76.378906 233.90625 83.203125 232.03125 C 86.484375 231.066406 88.738281 228.019531 88.621094 224.589844 C 88.503906 221.160156 86.074219 218.230469 82.734375 217.5 C 56.042969 212.109375 36.035156 190.371094 31.40625 163.359375 C 38.964844 165.964844 46.699219 168.019531 55.078125 168.28125 C 58.503906 168.488281 61.613281 166.347656 62.667969 163.097656 C 63.722656 159.84375 62.433594 156.269531 59.53125 154.453125 C 41.71875 142.527344 30 122.226562 30 99.140625 C 30 90.585938 32.226562 82.734375 35.15625 75.234375 C 72.65625 116.394531 125.15625 143.730469 184.453125 146.71875 C 186.796875 146.835938 189.082031 145.871094 190.605469 144.082031 C 192.128906 142.265625 192.714844 139.863281 192.1875 137.578125 C 191.042969 132.714844 190.3125 127.558594 190.3125 122.34375 C 190.3125 85.605469 219.902344 56.015625 256.640625 56.015625 Z M 256.640625 56.015625 "/>
</g>
</svg>
