<?xml version="1.0" encoding="UTF-8"?>
<svg xmlns="http://www.w3.org/2000/svg" xmlns:xlink="http://www.w3.org/1999/xlink" width="375pt" height="375pt" viewBox="0 0 375 375" version="1.1">
<g id="surface703">
<path style=" stroke:none;fill-rule:nonzero;fill:rgb(0%,0%,0%);fill-opacity:1;" d="M 375.46875 78.28125 C 361.613281 84.433594 346.757812 88.566406 331.144531 90.441406 C 347.082031 80.886719 359.324219 65.769531 365.066406 47.785156 C 350.183594 56.601562 333.632812 63.019531 316.082031 66.472656 C 302.019531 51.472656 281.980469 42.128906 259.804688 42.128906 C 217.207031 42.128906 182.667969 76.640625 182.667969 119.238281 C 182.667969 125.273438 183.371094 131.160156 184.6875 136.816406 C 120.585938 133.59375 63.777344 102.890625 25.722656 56.222656 C 19.074219 67.644531 15.292969 80.886719 15.292969 95.011719 C 15.292969 121.757812 28.886719 145.371094 49.597656 159.230469 C 36.941406 158.816406 25.050781 155.332031 14.648438 149.558594 C 14.648438 149.882812 14.648438 150.207031 14.648438 150.527344 C 14.648438 187.910156 41.25 219.050781 76.496094 226.171875 C 70.050781 227.929688 63.222656 228.867188 56.191406 228.867188 C 51.210938 228.867188 46.378906 228.398438 41.660156 227.460938 C 51.503906 258.074219 79.980469 280.429688 113.699219 281.042969 C 87.332031 301.730469 54.082031 314.035156 17.929688 314.035156 C 11.691406 314.035156 5.566406 313.683594 -0.441406 312.949219 C 33.660156 334.863281 74.207031 347.605469 117.773438 347.605469 C 259.628906 347.605469 337.207031 230.097656 337.207031 128.203125 C 337.207031 124.863281 337.121094 121.496094 337.003906 118.214844 C 352.058594 107.34375 365.128906 93.75 375.46875 78.28125 Z M 375.46875 78.28125 "/>
</g>
</svg>
