<?xml version="1.0" encoding="UTF-8"?>
<svg xmlns="http://www.w3.org/2000/svg" xmlns:xlink="http://www.w3.org/1999/xlink" width="375pt" height="375pt" viewBox="0 0 375 375" version="1.1">
<g id="surface5850">
<path style=" stroke:none;fill-rule:nonzero;fill:rgb(0%,0%,0%);fill-opacity:1;" d="M 108.75 150 C 106.667969 150 105 151.667969 105 153.75 L 105 221.25 C 105 223.332031 106.667969 225 108.75 225 L 157.5 225 C 166.550781 225 180 218.996094 180 202.5 C 180 192.917969 175.429688 186.972656 169.894531 183.605469 C 171.472656 180.585938 172.5 176.953125 172.5 172.5 C 172.5 156.003906 159.050781 150 150 150 Z M 213.75 150 C 211.667969 150 210 151.667969 210 153.75 L 210 221.25 C 210 223.332031 211.667969 225 213.75 225 L 269.152344 225 C 269.972656 225 270.761719 224.53125 271.144531 223.738281 L 277.410156 211.054688 C 277.675781 210.585938 277.324219 210 276.769531 210 L 225 210 L 225 198.75 C 225 196.667969 226.667969 195 228.75 195 L 254.0625 195 C 254.910156 195 255.675781 194.53125 256.054688 193.738281 L 262.410156 181.082031 C 262.675781 180.585938 262.292969 180 261.769531 180 L 225 180 L 225 165 L 268.945312 165 C 269.765625 165 270.527344 164.53125 270.9375 163.800781 L 277.410156 151.082031 C 277.675781 150.585938 277.324219 150 276.769531 150 Z M 303.722656 150 C 301.640625 150 300 151.667969 300 153.75 L 300 222.746094 C 300 223.972656 301.027344 225 302.253906 225 L 315 225 L 315 210 C 315 205.871094 318.371094 202.5 322.5 202.5 L 344.882812 202.5 L 357.628906 223.855469 C 358.035156 224.558594 358.769531 225 359.558594 225 L 374.269531 225 C 374.824219 225 375.175781 224.386719 374.882812 223.855469 L 360.792969 199.949219 C 369.636719 196.054688 375 187.644531 375 176.25 C 375 160.3125 364.6875 150 348.75 150 Z M 2.253906 150.558594 C 1.027344 150.558594 0 151.582031 0 152.8125 L 0 195 C 0 206.339844 7.851562 227.8125 37.5 227.8125 C 67.148438 227.8125 75 206.339844 75 195 L 75 150.558594 L 62.253906 150.558594 C 61.027344 150.558594 60 151.582031 60 152.8125 L 60 194.910156 C 59.941406 197.902344 58.59375 212.8125 37.5 212.8125 C 16.40625 212.8125 15.058594 197.929688 15 195 L 15 150.558594 Z M 120 165 L 149.910156 165 C 153.371094 165.089844 157.5 166.464844 157.5 172.5 C 157.5 178.097656 153.957031 179.675781 150.761719 179.972656 C 150.351562 179.972656 150.175781 179.972656 149.910156 180 L 120 180 Z M 315 165 L 348.75 165 C 358.828125 165 360 171.417969 360 176.25 C 360 181.082031 358.828125 187.5 348.75 187.5 L 315 187.5 Z M 123.75 195 L 157.410156 195 C 160.871094 195.089844 165 196.464844 165 202.5 C 165 208.535156 160.871094 209.910156 157.410156 210 L 120 210 L 120 198.75 C 120 196.667969 121.667969 195 123.75 195 Z M 123.75 195 "/>
</g>
</svg>
