<?xml version="1.0" encoding="UTF-8"?>
<svg xmlns="http://www.w3.org/2000/svg" xmlns:xlink="http://www.w3.org/1999/xlink" width="375pt" height="375pt" viewBox="0 0 375 375" version="1.1">
<g id="surface2952">
<path style=" stroke:none;fill-rule:nonzero;fill:rgb(0%,0%,0%);fill-opacity:1;" d="M 187.5 30 C 92.460938 30 15 96.589844 15 179.941406 C 15 228.339844 41.484375 270.46875 82.207031 297.980469 C 82.148438 299.589844 82.265625 302.226562 80.128906 310.078125 C 77.519531 319.832031 72.1875 333.542969 61.40625 349.011719 L 53.730469 360 L 67.121094 360 C 113.554688 360 140.417969 329.738281 144.582031 324.871094 C 158.410156 328.125 172.644531 329.910156 187.5 329.910156 C 282.539062 329.910156 360 263.320312 360 179.941406 C 360 96.589844 282.539062 30 187.5 30 Z M 230.800781 240 L 186.914062 211.613281 L 143.058594 240 L 156.503906 189.519531 L 115.957031 156.5625 L 168.105469 153.75 L 186.914062 105 L 205.722656 153.75 L 257.902344 156.5625 L 217.324219 189.519531 Z M 230.800781 240 "/>
</g>
</svg>
