<?xml version="1.0" encoding="UTF-8"?>
<svg xmlns="http://www.w3.org/2000/svg" xmlns:xlink="http://www.w3.org/1999/xlink" width="375pt" height="375pt" viewBox="0 0 375 375" version="1.1">
<g id="surface2684">
<path style=" stroke:none;fill-rule:nonzero;fill:rgb(100%,100%,100%);fill-opacity:1;" d="M 187.5 30 C 92.460938 30 15 96.589844 15 179.972656 C 15 228.339844 41.484375 270.46875 82.207031 297.980469 C 82.148438 299.589844 82.265625 302.226562 80.15625 310.078125 C 77.519531 319.832031 72.1875 333.542969 61.40625 349.011719 L 53.730469 360 L 67.148438 360 C 113.554688 360 140.417969 329.738281 144.582031 324.871094 C 158.410156 328.125 172.617188 329.882812 187.5 329.882812 C 282.511719 329.882812 360 263.292969 360 179.941406 C 360 96.589844 282.539062 30 187.5 30 Z M 187.5 45 C 274.335938 45 345 105.527344 345 179.972656 C 345 254.386719 274.335938 314.910156 187.5 314.910156 C 174.230469 314.910156 161.308594 313.386719 148.007812 310.285156 L 139.101562 308.203125 L 133.183594 315.117188 C 128.058594 321.121094 110.800781 338.761719 82.382812 343.710938 C 87.832031 333.925781 91.933594 323.964844 94.597656 313.972656 C 96.707031 306.238281 97.089844 302.167969 97.175781 298.59375 L 97.527344 290.246094 L 90.585938 285.558594 C 52.089844 259.511719 30 221.015625 30 179.972656 C 30 105.527344 100.664062 45 187.5 45 Z M 186.914062 97.5 C 183.839844 97.5 181.027344 99.402344 179.910156 102.304688 L 162.890625 146.511719 L 115.546875 149.089844 C 112.441406 149.269531 109.777344 151.316406 108.808594 154.246094 C 107.839844 157.207031 108.808594 160.429688 111.210938 162.394531 L 148.007812 192.277344 L 135.820312 238.066406 C 135 241.054688 136.144531 244.246094 138.632812 246.066406 C 139.949219 247.03125 141.503906 247.5 143.058594 247.5 C 144.464844 247.5 145.898438 247.089844 147.128906 246.300781 L 186.914062 220.546875 L 226.730469 246.300781 C 229.308594 247.96875 232.675781 247.910156 235.195312 246.066406 C 237.714844 244.246094 238.828125 241.054688 238.007812 238.066406 L 225.820312 192.277344 L 262.617188 162.394531 C 265.019531 160.429688 265.988281 157.207031 265.050781 154.246094 C 264.082031 151.289062 261.386719 149.238281 258.28125 149.0625 L 210.964844 146.511719 L 193.917969 102.304688 C 192.800781 99.402344 190.019531 97.5 186.914062 97.5 Z M 186.914062 97.5 "/>
</g>
</svg>
