<?xml version="1.0" encoding="UTF-8"?>
<svg xmlns="http://www.w3.org/2000/svg" xmlns:xlink="http://www.w3.org/1999/xlink" width="375pt" height="375pt" viewBox="0 0 375 375" version="1.1">
<g id="surface9787">
<path style=" stroke:none;fill-rule:nonzero;fill:rgb(100%,100%,100%);fill-opacity:1;" d="M 187.5 15 C 92.371094 15 15 92.371094 15 187.5 C 15 282.628906 92.371094 360 187.5 360 C 282.628906 360 360 282.628906 360 187.5 C 360 92.371094 282.628906 15 187.5 15 Z M 97.5 210 C 85.078125 210 75 199.921875 75 187.5 C 75 175.078125 85.078125 165 97.5 165 C 109.921875 165 120 175.078125 120 187.5 C 120 199.921875 109.921875 210 97.5 210 Z M 187.5 210 C 175.078125 210 165 199.921875 165 187.5 C 165 175.078125 175.078125 165 187.5 165 C 199.921875 165 210 175.078125 210 187.5 C 210 199.921875 199.921875 210 187.5 210 Z M 277.5 210 C 265.078125 210 255 199.921875 255 187.5 C 255 175.078125 265.078125 165 277.5 165 C 289.921875 165 300 175.078125 300 187.5 C 300 199.921875 289.921875 210 277.5 210 Z M 277.5 210 "/>
</g>
</svg>
