<?xml version="1.0" encoding="UTF-8"?>
<svg xmlns="http://www.w3.org/2000/svg" xmlns:xlink="http://www.w3.org/1999/xlink" width="375pt" height="375pt" viewBox="0 0 375 375" version="1.1">
<g id="surface1627">
<path style=" stroke:none;fill-rule:nonzero;fill:rgb(0%,0%,0%);fill-opacity:1;" d="M 202.5 15 C 181.878906 15 165 31.878906 165 52.5 C 165 73.121094 181.878906 90 202.5 90 C 223.121094 90 240 73.121094 240 52.5 C 240 31.878906 223.121094 15 202.5 15 Z M 202.5 30 C 215.011719 30 225 39.988281 225 52.5 C 225 65.011719 215.011719 75 202.5 75 C 189.988281 75 180 65.011719 180 52.5 C 180 39.988281 189.988281 30 202.5 30 Z M 174.082031 97.5 C 165.839844 97.5 157.816406 100.214844 151.273438 105.21875 L 106.640625 139.410156 C 106.367188 139.621094 106.105469 139.851562 105.863281 140.097656 C 103.292969 142.1875 101.171875 144.851562 99.710938 147.949219 C 99.480469 148.3125 99.277344 148.695312 99.113281 149.089844 L 77.839844 199.261719 C 76.113281 202.410156 75 206.066406 75 210 C 75 222.335938 85.164062 232.5 97.5 232.5 C 107.386719 232.5 115.773438 225.976562 118.738281 217.046875 L 137.125 175.808594 L 145.664062 169.554688 C 141.550781 186.410156 136.40625 207.566406 136.40625 207.566406 C 136.242188 208.203125 136.164062 208.859375 136.171875 209.515625 C 135.597656 211.949219 135.039062 214.457031 135.015625 217.308594 C 135 217.378906 134.984375 217.445312 134.972656 217.515625 L 124.277344 271.15625 L 89.632812 315.835938 C 89.597656 315.882812 89.566406 315.933594 89.53125 315.980469 C 87 319.410156 82.5 325.378906 82.5 333.75 C 82.5 348.160156 94.339844 360 108.75 360 C 119.21875 360 126.390625 353.1875 130.648438 347.972656 C 130.699219 347.914062 130.746094 347.855469 130.796875 347.796875 L 168.136719 299.269531 C 168.742188 298.480469 169.183594 297.578125 169.4375 296.617188 L 176.410156 270.46875 L 189.140625 282.085938 L 202.894531 337.339844 L 202.71875 336.238281 C 202.945312 338.609375 203.589844 341.050781 204.535156 343.449219 C 204.632812 343.8125 205.648438 347.898438 209.164062 351.855469 C 212.835938 355.988281 219.5625 359.941406 228.707031 360 C 243.082031 360.082031 254.28125 347.988281 254.28125 333.925781 C 254.28125 330.652344 253.964844 327.078125 252.628906 323.113281 L 252.800781 323.699219 L 237.746094 263.320312 C 237.503906 262.355469 237.078125 261.449219 236.484375 260.652344 L 203.1875 215.992188 L 212.535156 181.597656 L 223.972656 194.296875 C 224.917969 195.34375 226.136719 196.105469 227.488281 196.496094 L 269.574219 208.519531 L 269.589844 208.519531 C 269.589844 208.519531 269.605469 208.519531 269.605469 208.519531 C 269.636719 208.53125 269.691406 208.546875 269.75 208.566406 C 269.882812 208.601562 270.0625 208.660156 270.292969 208.726562 C 270.75 208.851562 271.375 209.019531 272.09375 209.195312 C 273.53125 209.542969 274.992188 210 277.5 210 C 289.84375 210 300.433594 199.875 300 187.238281 C 299.582031 175.289062 291.410156 168.226562 284.605469 166.15625 C 284.585938 166.152344 284.566406 166.148438 284.546875 166.144531 L 249.625 155.886719 L 221.132812 115.519531 C 220.917969 115.207031 220.675781 114.914062 220.414062 114.636719 C 214.835938 104.960938 204.671875 98.308594 192.890625 97.71875 C 192.625 97.652344 192.085938 97.617188 191.628906 97.574219 C 191.597656 97.570312 191.558594 97.5625 191.527344 97.558594 C 191.429688 97.558594 191.347656 97.5 191.25 97.5 C 189.914062 97.5 190.449219 97.511719 191.148438 97.515625 C 191.140625 97.515625 191.058594 97.5 191.058594 97.5 Z M 174.082031 112.5 L 191.058594 112.5 C 191.0625 112.5 191.117188 112.515625 191.117188 112.515625 C 192.828125 112.515625 192.871094 112.5 191.25 112.5 C 201.695312 112.5 210 120.804688 210 131.25 C 210 132.867188 209.691406 134.570312 209.136719 136.480469 C 208.992188 136.972656 208.898438 137.476562 208.855469 137.988281 L 187.761719 215.582031 C 187.160156 217.800781 187.605469 220.179688 188.980469 222.027344 L 223.550781 268.402344 L 238.242188 327.332031 C 238.292969 327.527344 238.351562 327.71875 238.417969 327.90625 C 239.242188 330.34375 239.28125 331.257812 239.28125 333.925781 C 239.28125 340.578125 235.132812 345.035156 228.792969 345 C 223.476562 344.96875 221.644531 343.328125 220.371094 341.894531 C 219.097656 340.460938 218.921875 339.582031 218.921875 339.582031 C 218.816406 339.132812 218.667969 338.695312 218.480469 338.277344 C 218.078125 337.371094 217.78125 336.222656 217.644531 334.820312 C 217.609375 334.449219 217.546875 334.082031 217.457031 333.722656 L 203.144531 276.269531 C 202.789062 274.832031 202.011719 273.53125 200.917969 272.535156 L 163.300781 238.214844 C 162.855469 237.808594 162.363281 237.460938 161.835938 237.171875 C 158.796875 235.511719 156.414062 233.144531 154.480469 230.492188 L 154.777344 232.792969 C 154.636719 231.726562 154.273438 230.703125 153.707031 229.789062 C 153.695312 229.773438 153.671875 229.761719 153.660156 229.746094 C 153.390625 229.324219 153.074219 228.933594 152.722656 228.574219 L 153.558594 229.410156 C 151.347656 225.902344 150 221.898438 150 217.5 C 150 215.632812 150.335938 213.722656 150.921875 211.597656 C 151.011719 211.257812 151.074219 210.917969 151.113281 210.570312 C 151.359375 209.625 160.207031 175.871094 165.144531 152.945312 C 165.800781 149.898438 164.507812 146.769531 161.894531 145.074219 C 159.285156 143.378906 155.898438 143.472656 153.382812 145.3125 L 126.664062 164.882812 C 125.613281 165.65625 124.777344 166.691406 124.246094 167.886719 L 105.042969 210.9375 C 104.890625 211.277344 104.761719 211.632812 104.664062 211.992188 C 103.777344 215.1875 101.003906 217.5 97.5 217.5 C 93.261719 217.5 90 214.238281 90 210 C 90 208.601562 90.398438 207.328125 91.144531 206.117188 C 91.339844 205.792969 91.511719 205.457031 91.65625 205.105469 L 112.542969 155.832031 L 112.058594 156.460938 C 112.476562 155.917969 112.816406 155.320312 113.070312 154.6875 C 113.570312 153.441406 114.4375 152.34375 115.589844 151.496094 C 116.148438 151.078125 116.648438 150.582031 117.070312 150.027344 L 116.542969 150.71875 L 160.386719 117.144531 L 160.402344 117.128906 C 164.324219 114.132812 169.144531 112.5 174.082031 112.5 Z M 222.800781 143.890625 L 238.871094 166.667969 C 239.847656 168.050781 241.261719 169.0625 242.886719 169.542969 L 280.238281 180.511719 C 281.125 180.78125 284.816406 182.519531 285 187.761719 C 285.136719 191.6875 281.734375 195 277.5 195 C 278.101562 195 276.644531 194.863281 275.640625 194.621094 C 275.136719 194.496094 274.660156 194.363281 274.320312 194.269531 C 274.152344 194.21875 274.019531 194.191406 273.925781 194.164062 C 273.886719 194.152344 273.851562 194.144531 273.824219 194.136719 C 273.824219 194.136719 273.808594 194.136719 273.808594 194.136719 C 273.792969 194.132812 273.785156 194.128906 273.765625 194.121094 L 273.722656 194.105469 L 233.6875 182.667969 L 217.222656 164.371094 Z M 145.179688 242.988281 C 147.6875 245.636719 150.546875 247.890625 153.660156 249.710938 L 163.917969 259.074219 L 155.332031 291.3125 L 119.019531 338.496094 C 116.183594 341.960938 112.046875 345 108.75 345 C 102.445312 345 97.5 340.054688 97.5 333.75 C 97.5 331.703125 99.578125 327.625 101.574219 324.917969 C 101.578125 324.90625 101.582031 324.898438 101.585938 324.886719 L 137.210938 278.949219 C 137.925781 278.035156 138.417969 276.96875 138.648438 275.832031 Z M 145.179688 242.988281 "/>
</g>
</svg>
