<?xml version="1.0" encoding="UTF-8"?>
<svg xmlns="http://www.w3.org/2000/svg" xmlns:xlink="http://www.w3.org/1999/xlink" width="375pt" height="375pt" viewBox="0 0 375 375" version="1.1">
<g id="surface2061">
<path style=" stroke:none;fill-rule:nonzero;fill:rgb(0%,0%,0%);fill-opacity:1;" d="M 206.25 15 C 187.617188 15 172.5 30.117188 172.5 48.75 C 172.5 67.382812 187.617188 82.5 206.25 82.5 C 224.882812 82.5 240 67.382812 240 48.75 C 240 30.117188 224.882812 15 206.25 15 Z M 174.082031 97.5 C 167.488281 97.5 161.074219 99.667969 155.832031 103.683594 L 104.855469 137.109375 C 104.472656 137.34375 104.121094 137.578125 103.769531 137.8125 L 103.683594 137.902344 C 101.394531 139.542969 99.636719 141.796875 98.582031 144.402344 L 98.527344 144.519531 L 77.34375 194.472656 C 75.820312 196.875 75 199.660156 75 202.5 C 75 210.792969 81.707031 217.5 90 217.5 C 96.824219 217.5 102.800781 212.839844 104.503906 206.25 L 123.605469 163.449219 L 157.824219 143.878906 C 152.902344 166.785156 143.671875 209.472656 143.671875 209.472656 L 143.671875 209.621094 C 142.996094 212.136719 142.5 214.746094 142.5 217.5 C 142.5 223.476562 144.285156 229.042969 147.304688 233.699219 L 147.332031 233.789062 L 147.421875 233.878906 C 149.152344 236.542969 151.378906 238.855469 153.867188 240.820312 L 188.347656 278.085938 L 202.5 341.574219 C 202.558594 344.089844 203.113281 346.550781 204.140625 348.867188 L 204.230469 349.21875 L 204.285156 349.191406 C 207.363281 355.78125 213.984375 360 221.25 360 C 231.589844 360 240 351.589844 240 341.25 C 240 338.292969 239.296875 335.363281 237.949219 332.722656 L 222.980469 265.136719 L 195 217.527344 L 216.417969 131.277344 C 216.417969 131.277344 216.417969 131.25 216.417969 131.25 C 217.121094 128.816406 217.5 126.300781 217.5 123.75 C 217.5 109.246094 205.753906 97.5 191.25 97.5 C 191.191406 97.5 191.132812 97.5 191.105469 97.5 C 191.074219 97.5 191.074219 97.5 191.042969 97.5 Z M 232.292969 126.210938 C 232.238281 127.382812 232.207031 128.527344 232.03125 129.636719 L 223.035156 166.261719 L 237.070312 181.785156 L 279.140625 193.828125 C 279.167969 193.828125 279.167969 193.828125 279.167969 193.828125 L 279.609375 193.972656 L 279.609375 193.945312 C 281.277344 194.621094 283.097656 195 285 195 C 293.292969 195 300 188.292969 300 180 C 300 173.4375 295.753906 167.929688 289.921875 165.878906 L 289.921875 165.820312 L 252.511719 154.832031 Z M 138.308594 246.5625 L 131.277344 281.835938 L 95.535156 327.917969 C 92.136719 331.316406 90 336.035156 90 341.25 C 90 351.621094 98.378906 360 108.75 360 C 115.636719 360 121.582031 356.25 124.832031 350.742188 L 124.921875 350.769531 L 162.1875 302.199219 L 168.894531 277.058594 Z M 138.308594 246.5625 "/>
</g>
</svg>
