<?xml version="1.0" encoding="UTF-8"?>
<svg xmlns="http://www.w3.org/2000/svg" xmlns:xlink="http://www.w3.org/1999/xlink" width="375pt" height="375pt" viewBox="0 0 375 375" version="1.1">
<g id="surface660">
<path style=" stroke:none;fill-rule:nonzero;fill:rgb(0%,0%,0%);fill-opacity:1;" d="M 187.5 15 C 92.320312 15 15 92.320312 15 187.5 C 15 218.09375 23.390625 246.644531 37.382812 271.566406 L 15.277344 350.480469 C 14.558594 353.046875 15.261719 355.804688 17.117188 357.722656 C 18.976562 359.636719 21.710938 360.421875 24.300781 359.78125 L 106.582031 339.390625 C 130.757812 352.296875 158.195312 360 187.5 360 C 282.679688 360 360 282.679688 360 187.5 C 360 92.320312 282.679688 15 187.5 15 Z M 187.5 30 C 274.570312 30 345 100.429688 345 187.5 C 345 274.570312 274.570312 345 187.5 345 C 159.585938 345 133.441406 337.722656 110.714844 325.003906 C 109.050781 324.074219 107.097656 323.8125 105.25 324.273438 L 33.191406 342.128906 L 52.515625 273.191406 C 53.074219 271.226562 52.804688 269.113281 51.769531 267.347656 C 37.957031 243.925781 30 216.675781 30 187.5 C 30 100.429688 100.429688 30 187.5 30 Z M 124.820312 97.5 C 120.011719 97.5 113.144531 99.289062 107.503906 105.367188 C 104.117188 109.015625 90 122.769531 90 146.953125 C 90 172.164062 107.484375 193.917969 109.597656 196.714844 L 109.613281 196.714844 L 109.613281 196.730469 C 109.414062 196.464844 112.296875 200.640625 116.148438 205.648438 C 119.996094 210.65625 125.378906 217.234375 132.144531 224.355469 C 145.667969 238.597656 164.6875 255.054688 188.292969 265.121094 C 199.160156 269.75 207.738281 272.546875 214.234375 274.585938 C 226.273438 278.367188 237.242188 277.789062 245.480469 276.578125 C 251.644531 275.667969 258.425781 272.707031 265.136719 268.460938 C 271.847656 264.214844 278.421875 258.933594 281.324219 250.914062 C 283.402344 245.160156 284.457031 239.847656 284.839844 235.472656 C 285.03125 233.285156 285.054688 231.355469 284.910156 229.570312 C 284.769531 227.785156 284.921875 226.414062 283.257812 223.683594 C 279.765625 217.949219 275.8125 217.800781 271.683594 215.757812 C 269.390625 214.621094 262.863281 211.433594 256.316406 208.316406 C 249.777344 205.199219 244.117188 202.441406 240.628906 201.195312 C 238.425781 200.402344 235.738281 199.261719 231.855469 199.703125 C 227.972656 200.140625 224.140625 202.941406 221.910156 206.25 C 219.792969 209.386719 211.277344 219.4375 208.683594 222.394531 C 208.648438 222.371094 208.871094 222.476562 207.847656 221.96875 C 204.636719 220.378906 200.707031 219.027344 194.898438 215.960938 C 189.085938 212.894531 181.816406 208.371094 173.863281 201.355469 L 173.863281 201.34375 C 162.023438 190.917969 153.730469 177.832031 151.113281 173.4375 C 151.289062 173.226562 151.09375 173.480469 151.464844 173.113281 L 151.480469 173.101562 C 154.152344 170.46875 156.523438 167.320312 158.527344 165.015625 C 161.363281 161.742188 162.617188 158.859375 163.972656 156.167969 C 166.679688 150.796875 165.171875 144.890625 163.609375 141.78125 L 163.609375 141.769531 C 163.714844 141.984375 162.761719 139.875 161.734375 137.445312 C 160.703125 135.007812 159.386719 131.851562 157.984375 128.480469 C 155.175781 121.742188 152.039062 114.1875 150.175781 109.761719 L 150.175781 109.746094 C 147.980469 104.53125 145.007812 100.777344 141.121094 98.964844 C 137.238281 97.152344 133.804688 97.667969 133.667969 97.660156 L 133.652344 97.660156 C 130.878906 97.535156 127.835938 97.5 124.820312 97.5 Z M 124.820312 112.5 C 127.710938 112.5 130.5625 112.535156 132.949219 112.644531 C 135.40625 112.769531 135.253906 112.777344 134.78125 112.558594 C 134.300781 112.335938 134.953125 112.261719 136.347656 115.574219 C 138.171875 119.910156 141.324219 127.496094 144.140625 134.253906 C 145.550781 137.632812 146.867188 140.804688 147.917969 143.292969 C 148.972656 145.777344 149.542969 147.167969 150.207031 148.492188 L 150.207031 148.503906 L 150.21875 148.519531 C 150.867188 149.800781 150.8125 148.980469 150.585938 149.429688 C 149.003906 152.570312 148.789062 153.339844 147.1875 155.183594 C 144.75 157.992188 142.261719 161.125 140.949219 162.421875 C 139.796875 163.554688 137.71875 165.316406 136.421875 168.765625 C 135.121094 172.21875 135.726562 176.960938 137.8125 180.496094 C 140.585938 185.210938 149.734375 200.09375 163.945312 212.605469 C 172.894531 220.496094 181.234375 225.71875 187.894531 229.234375 C 194.558594 232.746094 199.980469 234.800781 201.195312 235.402344 C 204.078125 236.828125 207.230469 237.933594 210.894531 237.496094 C 214.558594 237.054688 217.714844 234.832031 219.726562 232.558594 L 219.742188 232.542969 C 222.417969 229.511719 230.367188 220.429688 234.183594 214.832031 C 234.347656 214.890625 234.292969 214.847656 235.5625 215.300781 L 235.5625 215.316406 L 235.574219 215.316406 C 236.15625 215.523438 243.40625 218.769531 249.871094 221.851562 C 256.339844 224.933594 262.902344 228.132812 265.035156 229.191406 C 268.113281 230.710938 269.566406 231.703125 269.941406 231.707031 C 269.964844 232.367188 269.992188 233.082031 269.898438 234.167969 C 269.632812 237.183594 268.828125 241.351562 267.214844 245.816406 C 266.425781 248 262.3125 252.507812 257.125 255.792969 C 251.933594 259.074219 245.621094 261.394531 243.28125 261.738281 C 236.25 262.773438 227.898438 263.152344 218.730469 260.273438 C 212.371094 258.277344 204.445312 255.695312 194.179688 251.324219 C 173.359375 242.445312 155.667969 227.335938 143.027344 214.027344 C 136.707031 207.375 131.644531 201.179688 128.042969 196.496094 C 124.445312 191.816406 122.875 189.382812 121.566406 187.660156 L 121.550781 187.644531 C 119.230469 184.574219 105 164.78125 105 146.953125 C 105 128.085938 113.765625 120.6875 118.503906 115.574219 C 120.996094 112.894531 123.71875 112.5 124.820312 112.5 Z M 124.820312 112.5 "/>
</g>
</svg>
