<?xml version="1.0" encoding="UTF-8"?>
<svg xmlns="http://www.w3.org/2000/svg" xmlns:xlink="http://www.w3.org/1999/xlink" width="375pt" height="375pt" viewBox="0 0 375 375" version="1.1">
<g id="surface679">
<path style=" stroke:none;fill-rule:nonzero;fill:rgb(0%,0%,0%);fill-opacity:1;" d="M 187.5 15 C 92.386719 15 15 92.386719 15 187.5 C 15 217.199219 22.671875 246.40625 37.222656 272.175781 L 15.277344 350.476562 C 14.558594 353.046875 15.253906 355.808594 17.113281 357.71875 C 18.546875 359.199219 20.496094 360 22.5 360 C 23.101562 360 23.707031 359.925781 24.300781 359.78125 L 106.019531 339.539062 C 130.972656 352.933594 159.074219 360 187.5 360 C 282.613281 360 360 282.613281 360 187.5 C 360 92.386719 282.613281 15 187.5 15 Z M 274.273438 248.371094 C 270.585938 258.585938 252.886719 267.90625 244.378906 269.160156 C 236.746094 270.277344 227.085938 270.757812 216.480469 267.425781 C 210.050781 265.402344 201.800781 262.71875 191.234375 258.210938 C 146.8125 239.265625 117.800781 195.097656 115.582031 192.179688 C 113.371094 189.261719 97.5 168.472656 97.5 146.953125 C 97.5 125.4375 108.9375 114.855469 113.003906 110.476562 C 117.066406 106.09375 121.859375 105 124.816406 105 C 127.769531 105 130.71875 105.039062 133.304688 105.15625 C 136.027344 105.292969 139.679688 104.128906 143.273438 112.664062 C 146.960938 121.425781 155.820312 142.941406 156.914062 145.140625 C 158.023438 147.328125 158.761719 149.886719 157.289062 152.804688 C 155.820312 155.722656 155.085938 157.546875 152.863281 160.101562 C 150.644531 162.660156 148.214844 165.800781 146.21875 167.765625 C 144 169.949219 141.699219 172.3125 144.277344 176.691406 C 146.859375 181.074219 155.746094 195.390625 168.914062 206.984375 C 185.828125 221.878906 200.101562 226.5 204.523438 228.691406 C 208.949219 230.878906 211.539062 230.511719 214.117188 227.59375 C 216.699219 224.671875 225.1875 214.824219 228.136719 210.449219 C 231.082031 206.078125 234.039062 206.796875 238.101562 208.261719 C 242.167969 209.714844 263.941406 220.289062 268.363281 222.480469 C 272.789062 224.671875 275.746094 225.765625 276.855469 227.585938 C 277.964844 229.402344 277.964844 238.164062 274.273438 248.371094 Z M 274.273438 248.371094 "/>
</g>
</svg>
